<?xml version="1.0" encoding="UTF-8" standalone="no"?>
<svg
   id="Calque_1"
   data-name="Calque 1"
   viewBox="0 0 116.1 122.44"
   version="1.1"
   sodipodi:docname="capsule_3_illu_1.svg"
   inkscape:version="1.1.1 (3bf5ae0d25, 2021-09-20)"
   xmlns:inkscape="http://www.inkscape.org/namespaces/inkscape"
   xmlns:sodipodi="http://sodipodi.sourceforge.net/DTD/sodipodi-0.dtd"
   xmlns="http://www.w3.org/2000/svg"
   xmlns:svg="http://www.w3.org/2000/svg">
  <sodipodi:namedview
     id="namedview10"
     pagecolor="#ffffff"
     bordercolor="#666666"
     borderopacity="1.0"
     inkscape:pageshadow="2"
     inkscape:pageopacity="0.0"
     inkscape:pagecheckerboard="0"
     showgrid="false"
     inkscape:zoom="6.7951648"
     inkscape:cx="58.055987"
     inkscape:cy="37.747429"
     inkscape:window-width="1920"
     inkscape:window-height="1017"
     inkscape:window-x="-8"
     inkscape:window-y="-8"
     inkscape:window-maximized="1"
     inkscape:current-layer="Calque_1" />
  <defs
     id="defs4">
    <style
       id="style2">
      .cls-1 {
        fill: #b6ff1f;
        fill-rule: evenodd;
      }
    </style>
  </defs>
  <g
     id="Expanded"
     transform="matrix(0.61719753,0,0,0.64423076,23.39899,21.335146)">
    <path
       class="cls-1"
       d="M 0,6.33 V 116.1 c 0,3.5 2.84,6.33 6.33,6.33 h 59.11 c 3.5,0 6.33,-2.84 6.33,-6.33 v -8.47 h 42.22 c 1.17,0 2.11,-0.95 2.11,-2.11 V 82.36 c 0,-0.56 -0.22,-1.1 -0.62,-1.49 -0.4,-0.39 -0.93,-0.62 -1.49,-0.62 H 71.77 V 6.33 C 71.77,4.65 71.1,3.04 69.91,1.85 68.72,0.66 67.11,-0.01 65.43,-0.01 H 6.33 C 2.84,0 0,2.84 0,6.33 Z m 67.55,60.59 c -0.1,0.01 -0.2,0.02 -0.3,0.02 H 4.22 v 49.16 c 0,1.17 0.95,2.11 2.11,2.11 h 59.11 c 1.17,0 2.11,-0.95 2.11,-2.11 v -8.47 H 49.84 c -3.87,4.54 -9.63,7.42 -16.06,7.42 -11.65,0 -21.11,-9.46 -21.11,-21.11 0,-11.65 9.46,-21.11 21.11,-21.11 6.43,0 12.19,2.88 16.06,7.42 h 17.71 v -13.32 0 z M 43.66,80.24 c -2.78,-2.01 -6.19,-3.2 -9.88,-3.2 -9.32,0 -16.89,7.57 -16.89,16.89 0,9.32 7.57,16.89 16.89,16.89 3.69,0 7.1,-1.19 9.88,-3.2 h -8.47 c -5.21,0.33 -10.41,-2.18 -13.2,-6.81 -3.95,-6.56 -1.63,-14.97 5.2,-18.75 2.52,-1.4 5.31,-1.99 8.01,-1.82 z m 47.41,4.22 h 20.81 V 103.4 H 91.07 Z M 22.3,29.55 h -3.31 c -1.17,0 -2.11,0.95 -2.11,2.11 v 6.51 c 0,10.38 8.51,18.83 19,18.83 10.49,0 19,-8.44 19,-18.83 v -6.51 c 0,-1.17 -0.95,-2.11 -2.11,-2.11 h -3.31 v -5.42 c 0,-7.5 -6.09,-13.58 -13.58,-13.58 -7.49,0 -13.58,6.09 -13.58,13.58 z m -1.19,4.22 h 29.55 v 4.4 c 0,8.07 -6.63,14.6 -14.78,14.6 -8.15,0 -14.78,-6.54 -14.78,-14.6 v -4.4 z m 12.67,11.6 v 3.18 c 0,1.17 0.95,2.11 2.11,2.11 1.16,0 2.11,-0.95 2.11,-2.11 v -3.18 c 1.69,-0.8 2.87,-2.52 2.87,-4.51 0,-2.75 -2.23,-4.98 -4.98,-4.98 -2.75,0 -4.98,2.23 -4.98,4.98 0,1.99 1.17,3.72 2.87,4.51 z m 2.11,-5.27 c 0.42,0 0.76,0.34 0.76,0.76 0,0.42 -0.34,0.76 -0.76,0.76 -0.42,0 -0.76,-0.34 -0.76,-0.76 0,-0.42 0.34,-0.76 0.76,-0.76 z m 9.36,-10.55 v -5.42 c 0,-5.17 -4.19,-9.36 -9.36,-9.36 -5.17,0 -9.36,4.19 -9.36,9.36 v 5.42 z"
       id="path6" />
  </g>
</svg>
