<?xml version="1.0" encoding="UTF-8" standalone="no"?>
<svg
   id="Calque_2"
   data-name="Calque 2"
   viewBox="0 0 100.07 134.77"
   version="1.1"
   sodipodi:docname="Fichier 2.svg"
   inkscape:version="1.1.1 (3bf5ae0d25, 2021-09-20)"
   xmlns:inkscape="http://www.inkscape.org/namespaces/inkscape"
   xmlns:sodipodi="http://sodipodi.sourceforge.net/DTD/sodipodi-0.dtd"
   xmlns="http://www.w3.org/2000/svg"
   xmlns:svg="http://www.w3.org/2000/svg">
  <sodipodi:namedview
     id="namedview22"
     pagecolor="#ffffff"
     bordercolor="#666666"
     borderopacity="1.0"
     inkscape:pageshadow="2"
     inkscape:pageopacity="0.0"
     inkscape:pagecheckerboard="0"
     showgrid="false"
     inkscape:zoom="6.1734805"
     inkscape:cx="49.97181"
     inkscape:cy="41.548685"
     inkscape:window-width="1920"
     inkscape:window-height="1017"
     inkscape:window-x="-8"
     inkscape:window-y="-8"
     inkscape:window-maximized="1"
     inkscape:current-layer="Calque_2" />
  <defs
     id="defs4">
    <style
       id="style2">
      .cls-1 {
        fill: #1a4da1;
      }

      .cls-2 {
        fill: #1f99ff;
      }
    </style>
  </defs>
  <g
     id="Layer_1"
     data-name="Layer 1"
     transform="matrix(0.6858916,0,0,0.69705575,16.036334,23.981546)">
    <g
       id="g18">
      <g
         id="g10">
        <path
           class="cls-2"
           d="M 39.6,84.52 C 36.43,88.4 31.82,91 27.84,93.29 17.28,88.83 9.06,79.92 5.54,68.9 c 2.25,-1.32 4.3,-2.78 5.44,-4.24 3.46,-4.44 6.42,-6.19 9.94,-1.49 3.52,4.7 5.47,9.04 10.41,9.1 4.94,0.07 14.64,4.45 8.27,12.24 z"
           id="path6" />
        <path
           class="cls-2"
           d="m 61.95,63.15 c -2.71,-1.3 -5.26,-2.17 -6.68,-1.27 -6.03,3.84 -14.07,-0.54 -13.86,-7.69 0,-0.24 0.02,-0.47 0.05,-0.7 C 42.39,45.62 31.15,42.33 28.03,41.13 23.21,39.28 19.88,32.8 17.29,27.02 c 6.94,-6.03 15.99,-9.68 25.91,-9.68 5.77,0 11.26,1.24 16.2,3.46 -5.66,2.16 -9.08,4.71 -13.09,9.93 -0.46,0.59 0.31,16.14 2.46,15.05 6.62,-3.37 13.02,5.21 17.51,12.64 1.72,2.85 -1.33,6.16 -4.33,4.72 z"
           id="path8" />
      </g>
      <g
         id="g16">
        <path
           class="cls-1"
           d="m 82.72,53.19 c -2.03,0 -3.68,1.65 -3.68,3.68 0,19.76 -16.08,35.84 -35.84,35.84 -2.2,0 -4.38,-0.2 -6.51,-0.59 2.07,-1.49 4.06,-3.2 5.76,-5.27 3.99,-4.87 3.04,-8.91 2.12,-10.88 -2.46,-5.27 -9.39,-7.32 -13.18,-7.37 -1.99,-0.03 -3.07,-1.33 -5.67,-5.05 -0.58,-0.83 -1.17,-1.68 -1.84,-2.58 -2.12,-2.83 -4.51,-4.26 -7.11,-4.26 -3.73,0 -6.48,2.88 -8.67,5.69 -0.06,0.08 -0.15,0.18 -0.25,0.29 -0.31,-1.91 -0.47,-3.86 -0.47,-5.82 0,-8.73 3.18,-17.09 8.85,-23.59 2.68,5.12 5.93,9.54 10.49,11.29 0.29,0.11 0.64,0.24 1.04,0.38 4.92,1.78 10.51,4.31 10.06,8.11 -0.04,0.35 -0.07,0.7 -0.07,1.03 -0.1,3.39 1.14,6.59 3.49,9.01 2.4,2.47 5.76,3.89 9.21,3.89 2.27,0 4.49,-0.62 6.47,-1.79 0.39,0.05 1.38,0.27 3.46,1.27 0.98,0.47 2.02,0.71 3.07,0.71 2.52,0 4.87,-1.38 6.13,-3.61 1.25,-2.21 1.2,-4.84 -0.13,-7.03 -4.27,-7.07 -10.12,-15.18 -17.62,-15.18 -0.4,0 -0.8,0.02 -1.2,0.07 -0.47,-2.78 -0.79,-7.24 -0.75,-9.24 3.3,-4.12 6.05,-6.11 10.86,-7.94 0,0 0,0 0.01,0 0.15,-0.06 0.29,-0.13 0.43,-0.2 0.03,-0.02 0.07,-0.04 0.1,-0.06 0.14,-0.08 0.27,-0.17 0.4,-0.27 0.01,-0.01 0.02,-0.02 0.04,-0.03 0.12,-0.09 0.22,-0.19 0.33,-0.3 0.02,-0.02 0.05,-0.05 0.07,-0.07 0.11,-0.12 0.21,-0.24 0.31,-0.37 0,0 0.01,-0.02 0.02,-0.03 0.08,-0.12 0.16,-0.24 0.23,-0.37 0.02,-0.04 0.04,-0.08 0.06,-0.12 0.02,-0.04 0.04,-0.07 0.05,-0.1 0.04,-0.1 0.08,-0.19 0.11,-0.29 0,-0.02 0.01,-0.03 0.02,-0.05 0.05,-0.16 0.09,-0.31 0.12,-0.47 0,-0.03 0.01,-0.07 0.02,-0.1 0.03,-0.16 0.05,-0.32 0.05,-0.49 0,0 0,0 0,0 v 0 c 0,0 0,-0.08 0,-0.11 0,-0.07 0,-0.14 0,-0.21 0,-0.04 0,-0.08 -0.01,-0.12 0,-0.07 -0.02,-0.14 -0.03,-0.21 0,-0.04 -0.01,-0.07 -0.02,-0.11 -0.02,-0.1 -0.04,-0.2 -0.07,-0.3 0,0 0,0 0,0 -0.03,-0.1 -0.06,-0.21 -0.1,-0.31 C 62.87,19.53 62.86,19.51 62.85,19.48 62.82,19.41 62.79,19.33 62.76,19.26 62.75,19.23 62.73,19.2 62.72,19.17 62.68,19.09 62.64,19.02 62.59,18.94 62.58,18.92 62.57,18.9 62.56,18.88 62.51,18.79 62.45,18.71 62.39,18.63 62.37,18.6 62.34,18.57 62.32,18.54 62.28,18.49 62.24,18.44 62.19,18.39 62.16,18.36 62.13,18.32 62.1,18.29 62.05,18.24 62,18.18 61.94,18.13 61.92,18.11 61.89,18.08 61.87,18.06 61.79,17.99 61.71,17.93 61.63,17.87 61.6,17.85 61.57,17.83 61.54,17.8 c -0.06,-0.04 -0.13,-0.09 -0.19,-0.13 -0.03,-0.02 -0.06,-0.04 -0.09,-0.05 -0.1,-0.05 -0.2,-0.11 -0.3,-0.15 -5.59,-2.51 -11.54,-3.79 -17.71,-3.79 -1.95,0 -3.89,0.13 -5.81,0.39 -0.64,0.09 -1.27,0.19 -1.91,0.3 -1.03,0.19 -2.06,0.41 -3.07,0.67 -0.45,0.12 -0.9,0.24 -1.34,0.37 -0.18,0.05 -0.37,0.11 -0.55,0.17 -1.26,0.39 -2.5,0.83 -3.72,1.33 -0.95,0.39 -1.89,0.82 -2.81,1.27 -0.22,0.11 -0.43,0.22 -0.65,0.33 -3.02,1.56 -5.86,3.48 -8.47,5.74 0,0 0,0 0,0 C 5.42,32.46 0,44.35 0,56.87 c 0,4.49 0.69,8.91 2.04,13.15 0.12,0.38 0.24,0.75 0.37,1.12 1.13,3.24 2.63,6.3 4.46,9.13 4.66,7.24 11.43,12.99 19.54,16.42 0,0 0,0 0,0 0,0 0,0 0,0 0,0 0,0 0,0 5.32,2.25 10.96,3.39 16.79,3.39 23.82,0 43.2,-19.38 43.2,-43.2 0,-2.03 -1.65,-3.68 -3.68,-3.68 z M 44.81,21.07 c 0.06,0 0.12,0 0.18,0 0.51,0.02 1.01,0.06 1.52,0.11 0.08,0 0.17,0.01 0.25,0.02 0.49,0.05 0.99,0.11 1.48,0.18 0.09,0.01 0.17,0.02 0.26,0.04 0.49,0.07 0.99,0.15 1.48,0.25 0.02,0 0.05,0.01 0.07,0.01 -2.35,1.77 -4.44,3.95 -6.63,6.79 -0.68,0.86 -1.26,1.61 -0.69,8.84 0.36,4.54 0.96,7.71 1.8,9.43 1.22,2.51 3.23,2.78 4.04,2.78 0.65,0 1.3,-0.16 1.88,-0.45 0.47,-0.24 0.92,-0.35 1.37,-0.35 1.9,0 5.28,1.88 10.72,10.65 -2.37,-1.06 -4.19,-1.53 -5.79,-1.53 -1.3,0 -2.46,0.32 -3.44,0.95 -0.88,0.56 -1.85,0.85 -2.86,0.85 -1.47,0 -2.9,-0.61 -3.93,-1.66 -0.67,-0.69 -1.46,-1.89 -1.41,-3.68 0,-0.11 0.01,-0.23 0.03,-0.36 1.19,-10.09 -10.48,-14.31 -14.87,-15.9 -0.35,-0.13 -0.65,-0.23 -0.9,-0.33 -3.06,-1.17 -5.78,-6.02 -7.51,-9.6 0.07,-0.05 0.14,-0.11 0.22,-0.16 0.17,-0.12 0.33,-0.24 0.5,-0.36 0.25,-0.18 0.5,-0.35 0.76,-0.52 0.17,-0.12 0.35,-0.23 0.53,-0.34 0.26,-0.16 0.51,-0.32 0.77,-0.48 0.18,-0.11 0.36,-0.22 0.53,-0.32 0.27,-0.16 0.53,-0.31 0.8,-0.45 0.18,-0.1 0.35,-0.19 0.53,-0.29 0.29,-0.15 0.58,-0.3 0.87,-0.44 0.16,-0.08 0.32,-0.16 0.49,-0.24 0.35,-0.17 0.7,-0.32 1.05,-0.48 0.11,-0.05 0.22,-0.1 0.33,-0.15 0.47,-0.2 0.94,-0.39 1.41,-0.56 0.1,-0.04 0.2,-0.07 0.3,-0.1 0.38,-0.14 0.75,-0.27 1.13,-0.4 0.17,-0.06 0.34,-0.11 0.51,-0.16 0.31,-0.1 0.63,-0.19 0.94,-0.28 0.19,-0.05 0.39,-0.1 0.58,-0.15 0.3,-0.08 0.59,-0.15 0.89,-0.22 0.2,-0.05 0.41,-0.09 0.61,-0.14 0.29,-0.06 0.59,-0.12 0.88,-0.18 0.21,-0.04 0.41,-0.08 0.62,-0.11 0.3,-0.05 0.6,-0.1 0.89,-0.14 0.21,-0.03 0.41,-0.06 0.62,-0.09 0.31,-0.04 0.62,-0.07 0.93,-0.11 0.2,-0.02 0.39,-0.04 0.59,-0.06 0.34,-0.03 0.68,-0.05 1.03,-0.07 0.17,0 0.34,-0.02 0.5,-0.03 0.51,-0.02 1.02,-0.03 1.54,-0.03 0.54,0 1.08,0.01 1.61,0.04 z M 13.89,66.93 c 1.7,-2.18 2.56,-2.7 2.84,-2.83 0.17,0.1 0.6,0.42 1.25,1.28 0.6,0.8 1.16,1.6 1.7,2.38 2.79,3.99 5.67,8.12 11.61,8.2 2.34,0.03 5.84,1.48 6.61,3.12 0.42,0.9 -0.39,2.19 -1.14,3.11 -2.34,2.87 -5.83,5.05 -9.12,6.97 -0.02,0 -0.04,-0.02 -0.05,-0.03 C 27.15,88.92 26.72,88.7 26.29,88.47 26.21,88.43 26.12,88.38 26.04,88.34 25.62,88.11 25.2,87.87 24.79,87.63 24.72,87.59 24.66,87.55 24.59,87.51 24.18,87.26 23.77,87 23.36,86.73 23.34,86.72 23.32,86.71 23.3,86.69 22.89,86.42 22.49,86.13 22.09,85.84 22.02,85.79 21.95,85.74 21.88,85.69 21.5,85.41 21.12,85.12 20.75,84.82 20.68,84.76 20.61,84.71 20.54,84.65 20.16,84.34 19.79,84.03 19.42,83.71 19.4,83.69 19.37,83.67 19.35,83.65 19,83.33 18.65,83.01 18.31,82.68 18.26,82.63 18.2,82.58 18.15,82.53 17.81,82.2 17.48,81.86 17.15,81.52 17.09,81.45 17.02,81.38 16.96,81.31 16.64,80.96 16.32,80.61 16.01,80.25 15.97,80.2 15.92,80.15 15.88,80.1 15.58,79.75 15.28,79.39 15,79.02 14.97,78.98 14.94,78.95 14.91,78.91 14.61,78.53 14.33,78.14 14.05,77.75 14,77.67 13.94,77.6 13.89,77.52 13.62,77.13 13.35,76.74 13.1,76.35 13.05,76.28 13.01,76.21 12.96,76.13 12.7,75.71 12.44,75.29 12.19,74.87 c 0,0 0,-0.01 -0.01,-0.02 -0.25,-0.42 -0.48,-0.86 -0.71,-1.29 -0.04,-0.07 -0.08,-0.15 -0.12,-0.22 -0.22,-0.42 -0.43,-0.85 -0.63,-1.29 -0.04,-0.08 -0.08,-0.17 -0.12,-0.25 -0.2,-0.44 -0.4,-0.89 -0.58,-1.34 0,-0.01 -0.01,-0.03 -0.02,-0.04 1.7,-1.19 2.98,-2.34 3.88,-3.49 z"
           id="path12" />
        <path
           class="cls-1"
           d="M 100.07,56.87 C 100.07,25.51 74.56,0 43.2,0 c -2.03,0 -3.68,1.65 -3.68,3.68 0,2.03 1.65,3.68 3.68,3.68 27.3,0 49.51,22.21 49.51,49.51 0,27.3 -22.21,49.51 -49.51,49.51 -2.03,0 -3.68,1.65 -3.68,3.68 v 17.35 h -8.37 c -2.03,0 -3.68,1.65 -3.68,3.68 0,2.03 1.65,3.68 3.68,3.68 h 24.11 c 2.03,0 3.68,-1.65 3.68,-3.68 0,-2.03 -1.65,-3.68 -3.68,-3.68 h -8.37 v -13.79 c 29.65,-1.9 53.19,-26.63 53.19,-56.75 z"
           id="path14" />
      </g>
    </g>
  </g>
</svg>
