<?xml version="1.0" encoding="iso-8859-1"?>
<!-- Generator: Adobe Illustrator 27.3.1, SVG Export Plug-In . SVG Version: 6.00 Build 0)  -->
<svg version="1.1" id="Capa_1" xmlns="http://www.w3.org/2000/svg" xmlns:xlink="http://www.w3.org/1999/xlink" x="0px" y="0px"
	 viewBox="0 0 199.458 207.663" style="enable-background:new 0 0 199.458 207.663;" xml:space="preserve">
<g id="SVGRepo_bgCarrier">
</g>
<g id="SVGRepo_iconCarrier">
	<g>
		<path style="fill:#FF6F66;" d="M42.626,168.901c0,0,39.074-129.737,120.505-124.371c0,0-10.097,16.952-35.544,22.489
			c0,0,11.903,1.533,21.507-1.789c0,0-5.746,19.337-37.186,21.978c0,0,17.321,4.685,25.037,1.959c0,0-2.052,14.396-34.067,21.552
			c-1.888,0.426-14.694,3.748-4.433,5.026c0,0,14.776,2.641,18.552,1.363c0,0-12.642,19.593-43.589,17.974
			c-3.037-0.17-4.515,0-4.515,0L42.626,168.901z"/>
	</g>
</g>
<path style="fill:none;stroke:#EFFF85;stroke-miterlimit:10;" d="M45.574,174.701c6.3-4.7,16-10.4,27-9c11.2,1.4,15,9.1,25,11
	c7.5,1.4,19.1-0.2,36-16"/>
</svg>
