<?xml version="1.0" encoding="iso-8859-1"?>
<!-- Generator: Adobe Illustrator 27.3.1, SVG Export Plug-In . SVG Version: 6.00 Build 0)  -->
<svg version="1.1" xmlns="http://www.w3.org/2000/svg" xmlns:xlink="http://www.w3.org/1999/xlink" x="0px" y="0px"
	 viewBox="0 0 203 203" style="enable-background:new 0 0 203 203;" xml:space="preserve">
<g id="_x32_">
	<g id="SVGRepo_bgCarrier" style="display:none;">
	</g>
	<g id="SVGRepo_tracerCarrier" style="display:none;">
	</g>
	<g id="SVGRepo_iconCarrier">
		<g>
			<path style="fill:#EFFF85;" d="M57.254,126.592l12.994-23.115l10.643,6.212L66.417,84.333l-28.693,0.063l10.227,6.103
				c0,0-6.099,10.356-7.446,12.74c-2.168,3.822-3.281,9.417-0.872,13.308c0.367,0.611,7.289,13.07,12.873,22.859
				c0.116-4.343,2.308-8.386,4.76-12.814L57.254,126.592L57.254,126.592z"/>
			<path style="fill:#EFFF85;" d="M56.258,145.997c0.31,0.54,0.624,1.078,0.918,1.607c1.423,2.488,4.849,5.756,18.167,5.519
				c2.908-0.055,14.49,0.027,17.946,0.055l0.168-26.321l-33.904-0.237C55.721,133.519,52.473,139.365,56.258,145.997z"/>
			<path style="fill:#EFFF85;" d="M84.609,39.887h-1.833c-2.835,0-7.363,1.361-13.812,13.139c-1.407,2.567-7.268,12.664-9.014,15.67
				l22.465,13.313l17.171-29.554C95.576,45.651,92.19,39.887,84.609,39.887z"/>
			<path style="fill:#EFFF85;" d="M132.385,79.606l14.29-25.137l-10.338,5.901c0,0-5.845-10.528-7.2-12.888
				c-2.19-3.811-6.434-7.576-10.969-7.423c-0.697,0.019-14.847-0.153-26.029-0.164c3.658,2.278,6.034,6.212,8.591,10.574
				l0.011-0.022l13.324,22.946l-10.648,6.212C103.416,79.606,132.385,79.606,132.385,79.606z"/>
			<path style="fill:#EFFF85;" d="M144.261,126.756l-26.32,0.191v-12.421l-14.487,25.355l14.395,25.074l0.122-11.995
				c0,0,11.936,0.15,14.644,0.136c4.363-0.019,9.703-1.836,11.844-5.893c0.332-0.619,7.554-12.923,13.148-22.687
				c-3.769,2.063-8.343,2.169-13.351,2.232L144.261,126.756z"/>
			<path style="fill:#EFFF85;" d="M157.947,97.671c-1.49-2.523-7.211-12.691-8.918-15.733l-22.643,13.005l16.742,29.802
				c7.829-0.101,14.463-0.183,18.253-6.804c0.313-0.548,0.618-1.083,0.926-1.623C163.719,113.841,164.815,109.203,157.947,97.671z"
				/>
		</g>
	</g>
</g>
<g id="Calque_2">
</g>
</svg>
