<?xml version="1.0" encoding="UTF-8"?>
<svg id="_2" data-name="2" xmlns="http://www.w3.org/2000/svg" viewBox="0 0 172.03 169.48">
  <defs>
    <style>
      .cls-1 {
        fill: #efff85;
      }
    </style>
  </defs>
  <g id="SVGRepo_iconCarrier" data-name="SVGRepo iconCarrier">
    <g>
      <path class="cls-1" d="m26.74,117.49l17.79-31.32,14.57,8.42-19.82-34.36-39.29.09,14,8.27s-8.35,14.03-10.2,17.26c-2.97,5.18-4.49,12.76-1.19,18.03.5.83,9.98,17.71,17.63,30.98.16-5.89,3.16-11.36,6.52-17.36h-.02Z"/>
      <path class="cls-1" d="m25.38,143.79c.43.73.85,1.46,1.26,2.18,1.95,3.37,6.64,7.8,24.88,7.48,3.98-.07,19.84.04,24.57.07l.23-35.67-46.42-.32c-5.25,9.35-9.69,17.27-4.51,26.26Z"/>
      <path class="cls-1" d="m64.2,0h-2.51c-3.88,0-10.08,1.84-18.91,17.8-1.93,3.48-9.95,17.16-12.34,21.23l30.76,18.04,23.51-40.05C79.22,7.81,74.58,0,64.2,0Z"/>
      <path class="cls-1" d="m129.62,53.82l19.57-34.06-14.16,8s-8-14.27-9.86-17.46C122.17,5.13,116.36.03,110.15.23c-.95.03-20.33-.21-35.64-.22,5.01,3.09,8.26,8.42,11.76,14.33v-.03s18.26,31.09,18.26,31.09l-14.58,8.42s39.67,0,39.67,0Z"/>
      <path class="cls-1" d="m145.88,117.71l-36.04.26v-16.83l-19.84,34.36,19.71,33.98.17-16.25s16.34.2,20.05.18c5.97-.03,13.29-2.49,16.22-7.99.45-.84,10.34-17.51,18-30.74-5.16,2.79-11.42,2.94-18.28,3.02h0Z"/>
      <path class="cls-1" d="m164.62,78.3c-2.04-3.42-9.87-17.2-12.21-21.32l-31.01,17.62,22.92,40.38c10.72-.14,19.8-.25,24.99-9.22.43-.74.85-1.47,1.27-2.2,1.93-3.36,3.43-9.64-5.97-25.27Z"/>
    </g>
  </g>
</svg>