<?xml version="1.0" encoding="UTF-8"?>
<svg id="Capa_1" data-name="Capa 1" xmlns="http://www.w3.org/2000/svg" viewBox="0 0 146.8 153.49">
  <defs>
    <style>
      .cls-1 {
        fill: #ff6f66;
      }

      .cls-2 {
        fill: none;
        stroke: #efff85;
        stroke-miterlimit: 10;
      }
    </style>
  </defs>
  <g id="SVGRepo_iconCarrier" data-name="SVGRepo iconCarrier">
    <path class="cls-1" d="m0,146.19S47.6-6.11,146.8.19c0,0-12.3,19.9-43.3,26.4,0,0,14.5,1.8,26.2-2.1,0,0-7,22.7-45.3,25.8,0,0,21.1,5.5,30.5,2.3,0,0-2.5,16.9-41.5,25.3-2.3.5-17.9,4.4-5.4,5.9,0,0,18,3.1,22.6,1.6,0,0-15.4,23-53.1,21.1-3.7-.2-5.5,0-5.5,0L0,146.19Z"/>
  </g>
  <path class="cls-2" d="m7.9,150.59c6.3-4.7,16-10.4,27-9,11.2,1.4,15,9.1,25,11,7.5,1.4,19.1-.2,36-16"/>
</svg>