<?xml version="1.0" encoding="UTF-8"?>
<svg id="Calque_1" data-name="Calque 1" xmlns="http://www.w3.org/2000/svg" viewBox="0 0 678.82 684.93">
  <defs>
    <style>
      .cls-1 {
        fill: #1a4da1;
      }

      .cls-2 {
        fill: #ff6f66;
      }
    </style>
  </defs>
  <g id="SVGRepo_bgCarrier" data-name="SVGRepo bgCarrier">
    <path class="cls-1" d="m338.7,684.84c58.31-2.24,96.94-59.66,148.81-86.38,55.08-28.37,130.16-25.49,166.21-75.87,36.07-50.41,24.5-120.21,18.22-181.88-5.85-57.42-27.35-110.07-53.2-161.68-27.19-54.28-50.11-115.24-101.6-147.39C465.21-.79,399.26-4.85,338.7,4.19c-56.51,8.43-100.07,48.93-150.14,76.46-51.22,28.16-114.46,40.1-148.41,87.68C5.43,217.01-6.19,281.63,3.05,340.7c8.8,56.24,54.92,96.5,86.56,143.82,29.52,44.15,52.16,92.33,93.55,125.61,45.6,36.67,97.08,76.95,155.55,74.71"/>
  </g>
  <g id="SVGRepo_iconCarrier" data-name="SVGRepo iconCarrier">
    <path class="cls-2" d="m276.36,548.56c0-13.52-10.96-24.48-24.48-24.48H67c-13.52,0-24.48,10.96-24.48,24.48,0,4.26,1.09,8.27,3.01,11.75H10.37v50.76h298.14v-50.76h-35.16c1.98-3.6,3.01-7.65,3.01-11.75Zm-31.46-418.56l156.21,99.19c12.15,6.19,27.24,2.24,34.69-9.51l7.5-11.8c7.92-12.47,4.23-29-8.24-36.92l-151.9-96.46c-12.47-7.92-29-4.23-36.92,8.24l-7.5,11.8c-7.45,11.74-4.62,27.08,6.15,35.44h0Zm422.08,378.95l-.11-2.36-.19-2.23c-.1-1.52-.31-2.88-.5-4.27-.66-4.98-1.86-9.88-3.59-14.59-3.17-8.51-7.65-14.96-13.15-19.79-1.37-1.22-2.83-2.28-4.29-3.37l-4.36-3.26c-2.9-2.19-5.85-4.29-8.78-6.42-2.93-2.13-5.88-4.23-8.86-6.31-2.95-2.1-5.93-4.16-8.92-6.2-5.96-4.12-11.98-8.13-18.01-12.14l-9.08-5.95-9.13-5.87c-6.11-3.88-12.22-7.75-18.38-11.56-6.15-3.82-12.32-7.6-18.53-11.33l-18.64-11.15-18.76-10.96-18.87-10.79-18.96-10.65-19.05-10.51-19.14-10.36c-6.4-3.42-12.8-6.85-19.24-10.2-6.43-3.37-12.85-6.76-19.33-10.06l-5.86,9.24-29.56-13.93,33.04-52.03-156.21-99.19-81.26,127.97,156.21,99.19,33.04-52.03,25.18,20.83-5.87,9.24c5.75,4.46,11.54,8.83,17.33,13.21,5.77,4.41,11.6,8.74,17.42,13.08l17.52,12.91,17.61,12.77,17.7,12.63,17.79,12.48,17.9,12.32,18.02,12.13c6.01,4.03,12.06,8.02,18.14,11.95,6.06,3.95,12.16,7.84,18.28,11.72l9.2,5.77,9.25,5.69c6.19,3.76,12.39,7.5,18.65,11.14,3.12,1.84,6.25,3.66,9.41,5.44,3.14,1.81,6.3,3.59,9.47,5.33,3.18,1.75,6.33,3.53,9.55,5.22l4.8,2.56c1.6.85,3.19,1.73,4.88,2.45,6.71,2.93,14.45,4.24,23.51,3.49,5.01-.44,9.95-1.43,14.74-2.95,1.34-.42,2.66-.81,4.08-1.36l2.1-.77,2.19-.91c2.91-1.21,6.03-2.75,9.41-4.7.32-3.89.39-7.36.25-10.51h0ZM100.9,361.53l151.9,96.45c12.47,7.92,29,4.23,36.92-8.24l7.49-11.8c7.46-11.74,4.62-27.08-6.15-35.44l-156.21-99.19c-12.15-6.19-27.24-2.24-34.7,9.51l-7.49,11.8c-7.92,12.47-4.23,29,8.24,36.92Z"/>
  </g>
</svg>