<?xml version="1.0" encoding="UTF-8"?><svg id="Calque_1" xmlns="http://www.w3.org/2000/svg" viewBox="0 0 200.84 222.28"><defs><style>.cls-1{fill:#b6ff1f;}</style></defs><path class="cls-1" d="m137.77,85.87c3.92-1.37,6.94-2.92,8.82-4.46,1.29-1.05,1.7-1.74,1.7-2.02s-.41-.97-1.7-2.03c-1.88-1.53-4.89-3.08-8.82-4.45-8.6-2.98-20.51-4.73-33.27-4.73s-24.67,1.75-33.27,4.73c-3.92,1.37-6.94,2.92-8.82,4.46-1.29,1.05-1.7,1.74-1.7,2.02s.41.97,1.7,2.03c1.88,1.53,4.89,3.08,8.82,4.45,8.6,2.98,20.51,4.73,33.27,4.73s24.67-1.75,33.27-4.73h0Zm-79.88,31.07v16.25c4.79,5.05,17.67,11.19,33.41,13.03,23.07,2.69,44.92-2.35,59.75-12.4l.06-16.61c-15.8,9.29-38.04,13.2-60.53,10.57-13.93-1.62-25.79-5.81-32.69-10.83h0Zm0-10.15c4.8,5.04,17.67,11.19,33.41,13.01,23.12,2.69,45.01-2.36,59.84-12.46l.06-18.42c-9.44,5.54-26.82,9.25-46.71,9.25s-37.13-3.69-46.58-9.18c-.01,5.93-.02,11.86-.03,17.79h0Zm.02,36.57l.04,13.64-.14-.94c2.82,9.34,20.86,16.84,47.71,16.84,14.63,0,26.09-2.21,34.9-6.57,2.47-1.23,4.36-2.26,6.2-3.61,1.23-.9,2.03-1.44,3.35-2.6,1.37-1.21,3.47-.91,4.69.46,1.21,1.36,1.37,3.57,0,4.79-1.48,1.29-2.17,1.87-3.61,2.93-2.15,1.57-4.6,3.2-7.42,4.61-9.73,4.81-19.64,7.68-38.11,7.68-30.78,0-51.13-9.74-55.02-22.61l-.14-.46v-.48l-.06-19.48c-.02-19.17,0-38.33.05-57.5-.02-.22-.04-.44-.04-.66,0-10.37,24.26-18.78,54.18-18.78s54.17,8.41,54.17,18.78c0,.41-.03.81-.1,1.21.09.29.13.59.13.9l-.21,65.66c0,1.83-1.69,3.3-3.76,3.29-2.07,0-3.74-1.49-3.73-3.32v-3.45c-15.78,9.24-37.99,13.13-60.43,10.52-13.91-1.62-25.77-5.81-32.67-10.83h0Zm84.35-36.71c-1.79.02-3.26-1.42-3.28-3.21,0-1.77,1.48-3.2,3.29-3.2s3.29,1.43,3.29,3.2-1.48,3.21-3.29,3.21h0Zm0,26.42c-1.79.02-3.26-1.42-3.28-3.21,0-1.77,1.48-3.21,3.29-3.21s3.29,1.44,3.29,3.21-1.48,3.21-3.29,3.21h0Zm0,26.76c-1.79.02-3.26-1.43-3.28-3.22h0c0-1.77,1.48-3.21,3.29-3.21s3.29,1.44,3.29,3.21-1.48,3.21-3.29,3.21h0Z"/></svg>