<?xml version="1.0" encoding="UTF-8"?>
<svg id="Calque_1" data-name="Calque 1" xmlns="http://www.w3.org/2000/svg" viewBox="0 0 671.2 742.86">
  <defs>
    <style>
      .cls-1 {
        fill: #b6ff1f;
      }
    </style>
  </defs>
  <path class="cls-1" d="m541.6,156.4c24.29-8.46,42.97-18.06,54.63-27.6,8-6.51,10.51-10.8,10.51-12.51s-2.51-6-10.51-12.57c-11.66-9.49-30.29-19.09-54.63-27.54-53.26-18.46-126.97-29.26-206-29.26s-152.74,10.86-206,29.26c-24.29,8.46-42.97,18.06-54.63,27.6-8,6.51-10.51,10.74-10.51,12.51s2.51,6,10.51,12.57c11.66,9.49,30.29,19.09,54.63,27.54,53.26,18.46,126.97,29.26,206,29.26s152.74-10.86,206-29.26h0ZM47.03,348.8v100.63c29.66,31.26,109.43,69.31,206.86,80.69,142.86,16.63,278.11-14.57,369.94-76.8l.34-102.86c-97.83,57.54-235.54,81.71-374.8,65.43-86.23-10-159.66-36-202.4-67.09h.06Zm0-62.86c29.71,31.2,109.43,69.26,206.86,80.57,143.14,16.69,278.69-14.63,370.51-77.14l.4-114.06c-58.46,34.29-166.06,57.26-289.2,57.26s-229.89-22.86-288.4-56.86c-.08,36.72-.13,73.45-.17,110.17v.06Zm.11,226.46l.23,84.46-.86-5.83c17.49,57.83,129.14,104.29,295.43,104.29,90.57,0,161.54-13.71,216.11-40.69,15.31-7.6,26.97-14,38.4-22.34,7.6-5.54,12.57-8.91,20.74-16.11,8.46-7.49,21.49-5.66,29.03,2.86,7.49,8.4,8.46,22.11,0,29.66-9.14,8-13.43,11.6-22.34,18.11-13.31,9.71-28.46,19.83-45.94,28.51-60.23,29.77-121.6,47.54-236,47.54-190.57,0-316.57-60.29-340.69-140l-.86-2.86v-2.97L.06,476.4C-.08,357.73.02,239.07.35,120.4c-.14-1.37-.22-2.74-.23-4.11C.17,52.06,150.35,0,335.6,0s335.43,52.06,335.43,116.29c.02,2.51-.19,5.01-.63,7.49.55,1.8.82,3.67.8,5.54l-1.31,406.57c-.06,11.31-10.46,20.46-23.26,20.4-12.8,0-23.14-9.2-23.09-20.57v-21.37c-97.71,57.2-235.2,81.31-374.17,65.14-86.11-10.06-159.54-36-202.29-67.09h.06Zm522.29-227.31c-11.09.1-20.16-8.8-20.29-19.89,0-10.97,9.14-19.83,20.34-19.83s20.34,8.86,20.34,19.83-9.14,19.89-20.34,19.89h-.06Zm0,163.6c-11.09.1-20.16-8.8-20.29-19.89,0-10.97,9.14-19.89,20.34-19.89s20.34,8.91,20.34,19.89-9.14,19.89-20.34,19.89h-.06Zm0,165.71c-11.11.1-20.19-8.83-20.29-19.94h0c0-10.97,9.14-19.89,20.34-19.89s20.34,8.91,20.34,19.89-9.14,19.89-20.34,19.89l-.06.06Z"/>
</svg>