<?xml version="1.0" encoding="UTF-8"?>
<svg id="Layer_1" data-name="Layer 1" xmlns="http://www.w3.org/2000/svg" viewBox="0 0 594.02 800">
  <defs>
    <style>
      .cls-1 {
        fill: #1a4da1;
      }

      .cls-2 {
        fill: #1f99ff;
      }
    </style>
  </defs>
  <g>
    <path class="cls-2" d="m235.08,501.71c-18.83,23.01-46.2,38.44-69.81,52.08-62.71-26.46-111.49-79.39-132.36-144.81,13.34-7.81,25.54-16.51,32.29-25.15,20.55-26.36,38.08-36.72,58.99-8.82,20.88,27.92,32.49,53.65,61.82,54.04,29.3.39,86.92,26.4,49.07,72.66Z"/>
    <path class="cls-2" d="m367.72,374.88c-16.07-7.73-31.25-12.88-39.63-7.53-35.82,22.81-83.5-3.19-82.28-45.65.03-1.42.14-2.8.3-4.15,5.51-46.69-61.22-66.27-79.73-73.39-28.61-10.96-48.36-49.42-63.75-83.75,41.18-35.78,94.95-57.45,153.81-57.45,34.28,0,66.82,7.35,96.17,20.55-33.62,12.83-53.88,27.95-77.73,58.97-2.75,3.51,1.86,95.81,14.61,89.33,39.32-20,77.3,30.95,103.93,75.05,10.2,16.9-7.9,36.54-25.71,28.01Z"/>
  </g>
  <g>
    <path class="cls-1" d="m491.04,315.72c-12.07,0-21.85,9.78-21.85,21.85,0,117.31-95.44,212.75-212.75,212.75-13.08,0-25.98-1.18-38.62-3.49,12.3-8.83,24.09-18.97,34.17-31.28,23.66-28.91,18.04-52.88,12.58-64.59-14.59-31.31-55.75-43.46-78.27-43.75-11.8-.16-18.25-7.9-33.68-30-3.42-4.91-6.97-9.98-10.95-15.3-12.58-16.79-26.78-25.31-42.2-25.31-22.17,0-38.47,17.08-51.49,33.78-.38.48-.87,1.06-1.48,1.72-1.85-11.36-2.81-22.89-2.81-34.52,0-51.83,18.88-101.47,52.56-140.01,15.93,30.42,35.23,56.62,62.29,66.99,1.7.65,3.78,1.41,6.15,2.27,29.2,10.56,62.38,25.58,59.72,48.15-.25,2.09-.4,4.17-.44,6.09-.58,20.15,6.78,39.14,20.71,53.48,14.27,14.69,34.2,23.12,54.67,23.12,13.46,0,26.67-3.66,38.38-10.6,2.33.27,8.18,1.58,20.53,7.51,5.83,2.8,11.97,4.21,18.25,4.21,14.96,0,28.89-8.22,36.36-21.45,7.4-13.12,7.12-28.73-.75-41.76-25.32-41.95-60.09-90.09-104.6-90.09-2.39,0-4.77.14-7.14.43-2.81-16.5-4.67-42.98-4.48-54.84,19.58-24.45,35.94-36.26,64.49-47.15.03-.01.05-.02.08-.03.88-.34,1.72-.75,2.55-1.2.2-.11.4-.21.59-.33.82-.48,1.61-.99,2.37-1.58.08-.06.14-.13.22-.18.69-.54,1.33-1.14,1.96-1.77.14-.14.27-.27.41-.42.65-.7,1.27-1.43,1.84-2.22.04-.06.07-.12.11-.17.49-.7.94-1.45,1.35-2.23.13-.24.25-.47.37-.71.1-.21.22-.4.31-.62.26-.57.47-1.15.67-1.73.03-.1.08-.19.11-.28.31-.93.54-1.86.72-2.8.04-.2.07-.39.1-.59.16-.96.27-1.93.3-2.89,0-.01,0-.03,0-.04v-.02c0-.22,0-.44,0-.66,0-.42,0-.85-.03-1.27-.02-.25-.04-.49-.06-.74-.04-.42-.09-.84-.15-1.25-.03-.21-.06-.42-.1-.63-.11-.6-.24-1.2-.4-1.78,0-.02,0-.03-.01-.05-.17-.62-.37-1.22-.59-1.82-.06-.16-.13-.33-.19-.49-.17-.44-.36-.87-.56-1.29-.09-.18-.17-.36-.26-.54-.23-.45-.48-.9-.74-1.34-.07-.11-.12-.22-.19-.34-.32-.51-.66-1.01-1.03-1.49-.14-.19-.3-.38-.44-.56-.25-.31-.5-.61-.76-.9-.17-.2-.35-.39-.53-.58-.3-.32-.62-.62-.94-.92-.14-.13-.27-.27-.42-.4-.45-.4-.93-.78-1.42-1.14-.18-.13-.37-.26-.55-.39-.37-.26-.76-.51-1.15-.74-.18-.11-.36-.22-.55-.32-.58-.32-1.16-.63-1.77-.91-33.16-14.91-68.53-22.47-105.13-22.47-11.59,0-23.11.78-34.48,2.32-3.79.51-7.56,1.11-11.32,1.79-6.13,1.11-12.2,2.46-18.21,4-2.67.69-5.33,1.42-7.98,2.19-1.09.32-2.18.65-3.27.98-7.48,2.29-14.85,4.93-22.08,7.9-5.65,2.32-11.23,4.84-16.71,7.56-1.29.64-2.57,1.29-3.84,1.95-17.92,9.27-34.81,20.68-50.25,34.1,0,0-.01.01-.02.02C32.18,192.69,0,263.27,0,337.57c0,26.64,4.07,52.9,12.1,78.05.71,2.23,1.45,4.45,2.22,6.65,6.71,19.22,15.64,37.38,26.46,54.2,27.66,42.97,67.83,77.12,115.98,97.44,0,0,0,0,0,0,0,0,0,0,0,0,0,0,0,0,0,0,31.55,13.34,65.09,20.1,99.67,20.1,141.41,0,256.45-115.04,256.45-256.45-.01-12.06-9.8-21.85-21.86-21.85Zm-225.03-190.68c.36.02.71.02,1.07.04,3.01.15,6.01.37,9,.64.49.04.99.09,1.48.14,2.93.29,5.85.64,8.76,1.04.5.07,1.01.15,1.52.22,2.93.43,5.85.92,8.76,1.47.14.03.29.06.43.09-13.92,10.5-26.36,23.43-39.35,40.33-4.02,5.13-7.49,9.57-4.11,52.49,2.13,26.95,5.72,45.79,10.68,55.98,7.26,14.9,19.18,16.52,23.97,16.52,3.84,0,7.7-.93,11.18-2.7,2.78-1.41,5.44-2.1,8.12-2.1,11.25,0,31.33,11.15,63.66,63.21-14.08-6.27-24.86-9.1-34.39-9.1-7.72,0-14.6,1.89-20.44,5.62-5.25,3.35-10.97,5.05-17,5.05-8.73,0-17.24-3.6-23.33-9.87-3.99-4.1-8.68-11.21-8.37-21.87.02-.67.07-1.35.15-2.11,7.07-59.91-62.19-84.96-88.26-94.38-2.06-.74-3.86-1.39-5.35-1.97-18.18-6.97-34.33-35.72-44.57-56.98.43-.32.85-.65,1.28-.97.99-.72,1.98-1.42,2.98-2.12,1.48-1.05,2.98-2.08,4.48-3.09,1.03-.69,2.07-1.37,3.12-2.04,1.51-.97,3.04-1.92,4.57-2.86,1.05-.64,2.11-1.28,3.17-1.9,1.58-.92,3.17-1.81,4.78-2.69,1.04-.57,2.08-1.15,3.13-1.7,1.71-.9,3.44-1.76,5.17-2.62.96-.48,1.92-.97,2.89-1.43,2.07-.98,4.15-1.91,6.25-2.82.66-.29,1.3-.59,1.96-.87,2.77-1.17,5.57-2.29,8.39-3.35.58-.22,1.17-.41,1.75-.62,2.24-.82,4.48-1.61,6.74-2.35,1-.33,2.01-.62,3.02-.94,1.86-.58,3.72-1.15,5.59-1.67,1.14-.32,2.29-.61,3.44-.92,1.76-.46,3.53-.92,5.3-1.33,1.2-.28,2.41-.55,3.62-.81,1.74-.38,3.49-.74,5.25-1.07,1.23-.23,2.46-.46,3.7-.67,1.77-.31,3.54-.58,5.31-.84,1.23-.18,2.45-.36,3.68-.52,1.84-.24,3.68-.43,5.52-.62,1.17-.12,2.34-.25,3.51-.35,2.03-.17,4.06-.3,6.09-.41,1-.06,1.99-.14,2.99-.18,3.03-.13,6.07-.2,9.12-.2,3.2,0,6.38.08,9.56.22ZM82.43,397.26c10.07-12.92,15.18-16.05,16.86-16.79,1.03.61,3.55,2.48,7.4,7.62,3.54,4.73,6.87,9.5,10.1,14.12,16.55,23.7,33.66,48.21,68.93,48.68,13.87.18,34.7,8.76,39.23,18.51,2.5,5.36-2.32,13-6.79,18.46-13.92,17.01-34.62,30-54.13,41.38-.1-.05-.21-.1-.32-.15-2.6-1.26-5.17-2.58-7.71-3.94-.49-.26-.99-.53-1.48-.8-2.51-1.37-4.99-2.78-7.43-4.24-.39-.23-.77-.47-1.16-.71-2.46-1.49-4.89-3.02-7.28-4.61-.11-.07-.22-.14-.33-.21-2.43-1.62-4.82-3.31-7.18-5.02-.42-.3-.83-.6-1.25-.91-2.27-1.68-4.5-3.4-6.7-5.16-.41-.33-.82-.66-1.22-1-2.24-1.83-4.46-3.69-6.62-5.6-.14-.12-.28-.25-.42-.38-2.1-1.87-4.16-3.79-6.19-5.74-.31-.3-.62-.59-.93-.89-2.02-1.97-3.99-3.98-5.93-6.02-.38-.4-.76-.81-1.14-1.22-1.93-2.07-3.82-4.16-5.66-6.31-.26-.3-.51-.6-.76-.9-1.79-2.11-3.54-4.24-5.25-6.42-.17-.22-.35-.43-.52-.65-1.75-2.25-3.45-4.55-5.12-6.87-.32-.45-.64-.89-.96-1.34-1.61-2.29-3.19-4.62-4.71-6.97-.28-.42-.54-.85-.82-1.28-1.57-2.47-3.11-4.96-4.58-7.5-.02-.03-.04-.07-.06-.11-1.46-2.52-2.86-5.08-4.21-7.67-.23-.43-.46-.87-.69-1.3-1.3-2.52-2.55-5.06-3.75-7.63-.23-.5-.46-1-.69-1.5-1.2-2.63-2.37-5.28-3.47-7.97-.03-.08-.06-.15-.09-.23,10.1-7.04,17.69-13.9,23.03-20.73Z"/>
    <path class="cls-1" d="m594.02,337.58C594.02,151.44,442.58,0,256.44,0c-12.07,0-21.85,9.78-21.85,21.85s9.78,21.85,21.85,21.85c162.04,0,293.87,131.83,293.87,293.87s-131.83,293.88-293.87,293.88c-12.07,0-21.85,9.78-21.85,21.85v103h-49.71c-12.07,0-21.85,9.78-21.85,21.85s9.78,21.85,21.85,21.85h143.12c12.07,0,21.85-9.78,21.85-21.85s-9.78-21.85-21.85-21.85h-49.71v-81.85c176-11.3,315.73-158.08,315.73-336.88Z"/>
  </g>
</svg>