<?xml version="1.0" encoding="UTF-8"?>
<svg id="_2" data-name="2" xmlns="http://www.w3.org/2000/svg" viewBox="0 0 634.92 737.54">
  <defs>
    <style>
      .cls-1 {
        fill: #1a4da1;
      }

      .cls-2 {
        fill: #ff6f66;
      }
    </style>
  </defs>
  <g id="SVGRepo_bgCarrier" data-name="SVGRepo bgCarrier">
    <path class="cls-1" d="m317.46,736.96c67.45-6.4,107.97-76.08,161.76-117.26,46.6-35.68,108.38-56.6,134.18-109.32,25.47-52.05,19.01-115.19,2.93-170.86-14.13-48.92-71.51-73.68-87.53-122.02-22.19-66.94,35-164.61-21.48-206.84-53.25-39.81-123.53,44.42-189.86,48.84-60.05,4-122.59-52.6-175.79-24.46-52.82,27.95-62.27,100.52-77.29,158.36-12.46,47.96,1.82,96.69-1.78,146.12-3.95,54.2-33.03,106.08-20.46,158.96,14.17,59.58,48.51,113.62,94.8,153.71,51.12,44.28,113.19,91.17,180.52,84.77"/>
  </g>
  <g id="SVGRepo_iconCarrier" data-name="SVGRepo iconCarrier">
    <g>
      <path class="cls-2" d="m627.28,245.78L346.31,116.45c-9.11-4.2-18.82-6.32-28.85-6.32s-19.73,2.12-28.85,6.32L7.64,245.78c-4.64,2.15-7.64,6.83-7.64,11.94s3,9.79,7.64,11.94l280.97,129.33c9.11,4.2,18.82,6.33,28.85,6.33s19.74-2.13,28.85-6.33l221.74-102.07v102.78c-8.8.99-15.66,8.48-15.66,17.53,0,7.89,5.22,14.71,12.66,16.89l-15,98.95h69.04l-14.99-98.95c7.44-2.18,12.65-9,12.65-16.89,0-9.05-6.86-16.54-15.66-17.53v-117.99l26.19-12.05c4.64-2.15,7.64-6.83,7.64-11.94s-3-9.79-7.65-11.94Z"/>
      <path class="cls-2" d="m317.46,452.15c-13.95,0-27.46-2.97-40.16-8.81l-137.43-63.27v126.04c0,27.67,83.61,62.77,177.59,62.77s177.59-35.1,177.59-62.77v-126.04l-137.43,63.27c-12.69,5.84-26.21,8.81-40.16,8.81Z"/>
    </g>
  </g>
</svg>