<?xml version="1.0" encoding="UTF-8"?>
<svg id="Calque_2" data-name="Calque 2" xmlns="http://www.w3.org/2000/svg" viewBox="0 0 206.06 232.6">
  <defs>
    <style>
      .cls-1 {
        fill: #fff;
      }

      .cls-2 {
        fill: #1f99ff;
      }
    </style>
  </defs>
  <g id="Calque_1-2" data-name="Calque 1">
    <g>
      <rect class="cls-1" width="206.06" height="232.6"/>
      <path class="cls-2" d="m103.03,174.57c17.47,0,31.64-14.16,31.64-31.64s-14.16-31.64-31.64-31.64-31.64,14.16-31.64,31.64,14.16,31.64,31.64,31.64Zm-31.64-67v-43.72c0-17.47,14.16-31.64,31.64-31.64s31.64,14.16,31.64,31.64v7.91c0,4.37-3.54,7.91-7.91,7.91s-7.91-3.54-7.91-7.91v-7.91c0-8.74-7.08-15.82-15.82-15.82s-15.82,7.08-15.82,15.82v34.33c24.71-8.75,51.82,4.19,60.57,28.9,8.75,24.71-4.19,51.82-28.9,60.57-24.71,8.75-51.82-4.19-60.57-28.9-6.42-18.14-1.26-38.36,13.08-51.19h0Zm31.64,51.19c-8.74,0-15.82-7.08-15.82-15.82s7.08-15.82,15.82-15.82,15.82,7.08,15.82,15.82-7.08,15.82-15.82,15.82Z"/>
    </g>
  </g>
</svg>