<?xml version="1.0" encoding="UTF-8"?>
<svg id="Calque_1" data-name="Calque 1" xmlns="http://www.w3.org/2000/svg" viewBox="0 0 400.06 666.62">
  <defs>
    <style>
      .cls-1 {
        fill: #1f99ff;
      }
    </style>
  </defs>
  <path class="cls-1" d="m199.93,600c73.64,0,133.33-59.7,133.33-133.33s-59.7-133.33-133.33-133.33-133.33,59.7-133.33,133.33,59.7,133.33,133.33,133.33ZM66.6,317.6v-184.27C66.6,59.7,126.29,0,199.93,0s133.33,59.7,133.33,133.33v33.33c0,18.41-14.92,33.33-33.33,33.33s-33.33-14.92-33.33-33.33v-33.33c0-36.82-29.85-66.67-66.67-66.67s-66.67,29.85-66.67,66.67v144.7c104.12-36.86,218.42,17.66,255.28,121.79,36.86,104.12-17.66,218.42-121.79,255.28s-218.42-17.66-255.28-121.79c-27.06-76.44-5.29-161.65,55.12-215.75v.03Zm133.33,215.73c-36.82,0-66.67-29.85-66.67-66.67s29.85-66.67,66.67-66.67,66.67,29.85,66.67,66.67-29.85,66.67-66.67,66.67Z"/>
</svg>