<?xml version="1.0" encoding="UTF-8"?><svg id="Layer_1" xmlns="http://www.w3.org/2000/svg" viewBox="0 0 206.65 206.65"><defs><style>.cls-1{fill:#1f99ff;}.cls-2{fill:#1a4da1;}</style></defs><path class="cls-1" d="m96.87,116.67c-2.85,3.48-7,5.82-10.57,7.89-9.5-4.01-16.88-12.02-20.04-21.93,2.02-1.18,3.87-2.5,4.89-3.81,3.11-3.99,5.77-5.56,8.93-1.34,3.16,4.23,4.92,8.13,9.36,8.18,4.44.06,13.16,4,7.43,11Z"/><path class="cls-1" d="m116.96,97.46c-2.43-1.17-4.73-1.95-6-1.14-5.42,3.45-12.65-.48-12.46-6.91,0-.21.02-.42.05-.63.83-7.07-9.27-10.04-12.07-11.11-4.33-1.66-7.32-7.48-9.65-12.68,6.24-5.42,14.38-8.7,23.29-8.7,5.19,0,10.12,1.11,14.56,3.11-5.09,1.94-8.16,4.23-11.77,8.93-.42.53.28,14.51,2.21,13.53,5.96-3.03,11.71,4.69,15.74,11.37,1.54,2.56-1.2,5.53-3.89,4.24Z"/><path class="cls-2" d="m135.63,88.51c-1.83,0-3.31,1.48-3.31,3.31,0,17.76-14.45,32.22-32.22,32.22-1.98,0-3.93-.18-5.85-.53,1.86-1.34,3.65-2.87,5.17-4.74,3.58-4.38,2.73-8.01,1.91-9.78-2.21-4.74-8.44-6.58-11.85-6.63-1.79-.02-2.76-1.2-5.1-4.54-.52-.74-1.05-1.51-1.66-2.32-1.91-2.54-4.06-3.83-6.39-3.83-3.36,0-5.83,2.59-7.8,5.12-.06.07-.13.16-.22.26-.28-1.72-.43-3.47-.43-5.23,0-7.85,2.86-15.37,7.96-21.2,2.41,4.61,5.33,8.57,9.43,10.14.26.1.57.21.93.34,4.42,1.6,9.45,3.87,9.04,7.29-.04.32-.06.63-.07.92-.09,3.05,1.03,5.93,3.14,8.1,2.16,2.22,5.18,3.5,8.28,3.5,2.04,0,4.04-.55,5.81-1.61.35.04,1.24.24,3.11,1.14.88.42,1.81.64,2.76.64,2.27,0,4.38-1.24,5.51-3.25,1.12-1.99,1.08-4.35-.11-6.32-3.83-6.35-9.1-13.64-15.84-13.64-.36,0-.72.02-1.08.06-.42-2.5-.71-6.51-.68-8.3,2.97-3.7,5.44-5.49,9.77-7.14,0,0,0,0,.01,0,.13-.05.26-.11.39-.18.03-.02.06-.03.09-.05.12-.07.24-.15.36-.24.01,0,.02-.02.03-.03.1-.08.2-.17.3-.27.02-.02.04-.04.06-.06.1-.11.19-.22.28-.34,0,0,.01-.02.02-.03.07-.11.14-.22.2-.34.02-.04.04-.07.06-.11.02-.03.03-.06.05-.09.04-.09.07-.17.1-.26,0-.01.01-.03.02-.04.05-.14.08-.28.11-.42,0-.03.01-.06.02-.09.02-.15.04-.29.05-.44,0,0,0,0,0,0h0s0-.07,0-.1c0-.06,0-.13,0-.19,0-.04,0-.07,0-.11,0-.06-.01-.13-.02-.19,0-.03,0-.06-.02-.1-.02-.09-.04-.18-.06-.27,0,0,0,0,0,0-.03-.09-.06-.19-.09-.28,0-.02-.02-.05-.03-.07-.03-.07-.05-.13-.08-.2-.01-.03-.03-.05-.04-.08-.04-.07-.07-.14-.11-.2,0-.02-.02-.03-.03-.05-.05-.08-.1-.15-.16-.23-.02-.03-.04-.06-.07-.08-.04-.05-.08-.09-.12-.14-.03-.03-.05-.06-.08-.09-.05-.05-.09-.09-.14-.14-.02-.02-.04-.04-.06-.06-.07-.06-.14-.12-.22-.17-.03-.02-.06-.04-.08-.06-.06-.04-.11-.08-.17-.11-.03-.02-.05-.03-.08-.05-.09-.05-.18-.1-.27-.14-5.02-2.26-10.38-3.4-15.92-3.4-1.75,0-3.5.12-5.22.35-.57.08-1.15.17-1.71.27-.93.17-1.85.37-2.76.61-.4.1-.81.22-1.21.33-.17.05-.33.1-.5.15-1.13.35-2.25.75-3.34,1.2-.86.35-1.7.73-2.53,1.14-.19.1-.39.19-.58.3-2.71,1.4-5.27,3.13-7.61,5.16,0,0,0,0,0,0-8.5,7.38-13.37,18.07-13.37,29.32,0,4.03.62,8.01,1.83,11.82.11.34.22.67.34,1.01,1.02,2.91,2.37,5.66,4.01,8.21,4.19,6.51,10.27,11.68,17.56,14.76,0,0,0,0,0,0,0,0,0,0,0,0,0,0,0,0,0,0,4.78,2.02,9.86,3.04,15.09,3.04,21.41,0,38.84-17.42,38.84-38.84,0-1.83-1.48-3.31-3.31-3.31Zm-34.08-28.87c.05,0,.11,0,.16,0,.46.02.91.06,1.36.1.07,0,.15.01.22.02.44.04.89.1,1.33.16.08.01.15.02.23.03.44.07.89.14,1.33.22.02,0,.04,0,.07.01-2.11,1.59-3.99,3.55-5.96,6.11-.61.78-1.13,1.45-.62,7.95.32,4.08.87,6.93,1.62,8.48,1.1,2.26,2.9,2.5,3.63,2.5.58,0,1.17-.14,1.69-.41.42-.21.82-.32,1.23-.32,1.7,0,4.74,1.69,9.64,9.57-2.13-.95-3.77-1.38-5.21-1.38-1.17,0-2.21.29-3.1.85-.8.51-1.66.76-2.57.76-1.32,0-2.61-.54-3.53-1.49-.6-.62-1.31-1.7-1.27-3.31,0-.1,0-.21.02-.32,1.07-9.07-9.42-12.87-13.37-14.29-.31-.11-.58-.21-.81-.3-2.75-1.05-5.2-5.41-6.75-8.63.07-.05.13-.1.19-.15.15-.11.3-.22.45-.32.22-.16.45-.31.68-.47.16-.1.31-.21.47-.31.23-.15.46-.29.69-.43.16-.1.32-.19.48-.29.24-.14.48-.27.72-.41.16-.09.31-.17.47-.26.26-.14.52-.27.78-.4.15-.07.29-.15.44-.22.31-.15.63-.29.95-.43.1-.04.2-.09.3-.13.42-.18.84-.35,1.27-.51.09-.03.18-.06.27-.09.34-.12.68-.24,1.02-.36.15-.05.3-.09.46-.14.28-.09.56-.17.85-.25.17-.05.35-.09.52-.14.27-.07.53-.14.8-.2.18-.04.37-.08.55-.12.26-.06.53-.11.79-.16.19-.04.37-.07.56-.1.27-.05.54-.09.8-.13.19-.03.37-.05.56-.08.28-.04.56-.07.84-.09.18-.02.35-.04.53-.05.31-.03.61-.04.92-.06.15,0,.3-.02.45-.03.46-.02.92-.03,1.38-.03.48,0,.97.01,1.45.03Zm-27.8,41.22c1.53-1.96,2.3-2.43,2.55-2.54.16.09.54.38,1.12,1.15.54.72,1.04,1.44,1.53,2.14,2.51,3.59,5.1,7.3,10.44,7.37,2.1.03,5.25,1.33,5.94,2.8.38.81-.35,1.97-1.03,2.8-2.11,2.58-5.24,4.54-8.2,6.27-.02,0-.03-.01-.05-.02-.39-.19-.78-.39-1.17-.6-.07-.04-.15-.08-.22-.12-.38-.21-.76-.42-1.13-.64-.06-.04-.12-.07-.18-.11-.37-.23-.74-.46-1.1-.7-.02-.01-.03-.02-.05-.03-.37-.25-.73-.5-1.09-.76-.06-.05-.13-.09-.19-.14-.34-.25-.68-.51-1.01-.78-.06-.05-.12-.1-.19-.15-.34-.28-.68-.56-1-.85-.02-.02-.04-.04-.06-.06-.32-.28-.63-.57-.94-.87-.05-.05-.09-.09-.14-.14-.31-.3-.6-.6-.9-.91-.06-.06-.12-.12-.17-.18-.29-.31-.58-.63-.86-.96-.04-.05-.08-.09-.12-.14-.27-.32-.54-.64-.8-.97-.03-.03-.05-.07-.08-.1-.27-.34-.52-.69-.78-1.04-.05-.07-.1-.14-.15-.2-.24-.35-.48-.7-.71-1.06-.04-.06-.08-.13-.12-.19-.24-.37-.47-.75-.69-1.14,0,0,0-.01,0-.02-.22-.38-.43-.77-.64-1.16-.03-.07-.07-.13-.1-.2-.2-.38-.39-.77-.57-1.16-.04-.08-.07-.15-.1-.23-.18-.4-.36-.8-.52-1.21,0-.01,0-.02-.01-.04,1.53-1.07,2.68-2.1,3.49-3.14Z"/><path class="cls-2" d="m151.23,91.82c0-28.19-22.93-51.12-51.12-51.12-1.83,0-3.31,1.48-3.31,3.31s1.48,3.31,3.31,3.31c24.54,0,44.5,19.96,44.5,44.5s-19.96,44.5-44.5,44.5c-1.83,0-3.31,1.48-3.31,3.31v15.6h-7.53c-1.83,0-3.31,1.48-3.31,3.31s1.48,3.31,3.31,3.31h21.67c1.83,0,3.31-1.48,3.31-3.31s-1.48-3.31-3.31-3.31h-7.53v-12.39c26.65-1.71,47.81-23.94,47.81-51.01Z"/></svg>