<?xml version="1.0" encoding="UTF-8"?>
<svg id="Calque_1" data-name="Calque 1" xmlns="http://www.w3.org/2000/svg" viewBox="0 0 151.98 161.07">
  <defs>
    <style>
      .cls-1 {
        fill: #1a4da1;
      }

      .cls-2 {
        fill: #ff6f66;
      }
    </style>
  </defs>
  <g id="SVGRepo_bgCarrier" data-name="SVGRepo bgCarrier">
    <path class="cls-1" d="m76.03,161.04c25.47.6,51.87-8.08,66.68-28.81,14.12-19.76,9.46-45.66,3.34-69.16-5.81-22.33-15.28-44.56-35.72-55.26-21.19-11.1-46.88-9.99-68.21.85C21.34,19.22,8.38,39.7,2.93,62.37c-5.53,23.04-3.84,47.75,10.27,66.79,14.71,19.85,38.13,31.29,62.83,31.88"/>
  </g>
  <g id="SVGRepo_iconCarrier" data-name="SVGRepo iconCarrier">
    <path class="cls-2" d="m76.03,25c-29.84,0-54.05,24.22-54.05,54.05s24.22,54.05,54.05,54.05,54.05-24.22,54.05-54.05-24.22-54.05-54.05-54.05Zm-16.27,65.51c2.76,0,5.46-1.03,7.57-2.86,1.68-1.46,4.27-1.3,5.73.38,1.46,1.68,1.3,4.27-.38,5.73-3.57,3.14-8.16,4.86-12.92,4.86-10.81,0-19.57-8.76-19.57-19.57s8.76-19.57,19.57-19.57c4.76,0,9.3,1.73,12.92,4.86,1.68,1.46,1.84,4.05.38,5.73-1.46,1.68-4.05,1.84-5.73.38-2.11-1.84-4.81-2.86-7.57-2.86-6.32,0-11.46,5.14-11.46,11.46s5.14,11.46,11.46,11.46Zm37.84,0c2.76,0,5.46-1.03,7.57-2.86,1.68-1.46,4.27-1.3,5.73.38,1.46,1.68,1.3,4.27-.38,5.73-3.57,3.14-8.16,4.86-12.92,4.86-10.81,0-19.57-8.76-19.57-19.57s8.76-19.57,19.57-19.57c4.76,0,9.3,1.73,12.92,4.86,1.68,1.46,1.84,4.05.38,5.73-1.46,1.68-4.05,1.84-5.73.38-2.11-1.84-4.76-2.86-7.57-2.86-6.32,0-11.46,5.14-11.46,11.46s5.14,11.46,11.46,11.46Z"/>
  </g>
</svg>