<?xml version="1.0" encoding="UTF-8"?>
<svg id="Calque_1" data-name="Calque 1" xmlns="http://www.w3.org/2000/svg" viewBox="0 0 687.5 725">
  <defs>
    <style>
      .cls-1 {
        fill: #b6ff1f;
        fill-rule: evenodd;
      }
    </style>
  </defs>
  <g id="Expanded">
    <path class="cls-1" d="m0,37.5v650c0,20.71,16.79,37.5,37.5,37.5h350c20.71,0,37.5-16.79,37.5-37.5v-50.17h250c6.9,0,12.5-5.6,12.5-12.5v-137.15c0-3.31-1.31-6.49-3.66-8.84s-5.53-3.66-8.84-3.66h-250V37.5c0-9.95-3.95-19.49-10.99-26.51-7.03-7.04-16.56-10.99-26.51-10.99H37.5C16.79,0,0,16.79,0,37.5Zm400,358.8c-.59.09-1.18.12-1.79.12H25v291.07c0,6.9,5.6,12.5,12.5,12.5h350c6.9,0,12.5-5.6,12.5-12.5v-50.17h-104.89c-22.92,26.88-57.05,43.92-95.11,43.92-68.99,0-125-56.01-125-125s56.01-125,125-125c38.07,0,72.19,17.05,95.11,43.92h104.89v-78.88h0Zm-141.48,78.88c-16.46-11.9-36.68-18.92-58.52-18.92-55.19,0-100,44.81-100,100s44.81,100,100,100c21.84,0,42.06-7.03,58.51-18.92h-50.16c-30.86,1.96-61.65-12.91-78.15-40.34-23.36-38.85-9.66-88.64,30.8-111.05,14.9-8.26,31.46-11.8,47.45-10.76h50.08,0Zm280.76,25h123.21v112.15h-123.21v-112.15ZM132.07,175h-19.57c-6.9,0-12.5,5.6-12.5,12.5v38.53c0,61.49,50.38,111.47,112.5,111.47s112.5-49.99,112.5-111.47v-38.53c0-6.9-5.6-12.5-12.5-12.5h-19.57v-32.07c0-44.39-36.04-80.43-80.43-80.43s-80.43,36.04-80.43,80.43v32.07Zm-7.07,25h175v26.03c0,47.76-39.24,86.47-87.5,86.47s-87.5-38.71-87.5-86.47v-26.03Zm75,68.69v18.81c0,6.9,5.6,12.5,12.5,12.5s12.5-5.6,12.5-12.5v-18.81c10.03-4.71,16.97-14.9,16.97-26.71,0-16.26-13.2-29.47-29.47-29.47s-29.47,13.21-29.47,29.47c0,11.81,6.95,22,16.97,26.71Zm12.5-31.19c2.47,0,4.47,2.01,4.47,4.47s-2,4.49-4.47,4.49-4.47-2.01-4.47-4.49,2-4.47,4.47-4.47Zm55.43-62.5v-32.07c0-30.59-24.84-55.43-55.43-55.43s-55.43,24.84-55.43,55.43v32.07h110.85Z"/>
  </g>
</svg>