<?xml version="1.0" encoding="UTF-8"?><svg id="Calque_1" xmlns="http://www.w3.org/2000/svg" viewBox="0 0 206.46 206.46"><defs><style>.cls-1{fill:#b6ff1f;fill-rule:evenodd;}</style></defs><g id="Expanded"><path class="cls-1" d="m56.16,51.54v95.99c0,3.06,2.48,5.54,5.54,5.54h51.69c3.06,0,5.54-2.48,5.54-5.54v-7.41h36.92c1.02,0,1.85-.83,1.85-1.85v-20.25c0-.49-.19-.96-.54-1.31s-.82-.54-1.31-.54h-36.92V51.54c0-1.47-.58-2.88-1.62-3.92-1.04-1.04-2.45-1.62-3.92-1.62h-51.69c-3.06,0-5.54,2.48-5.54,5.54Zm59.07,52.99c-.09.01-.17.02-.26.02h-55.12v42.99c0,1.02.83,1.85,1.85,1.85h51.69c1.02,0,1.85-.83,1.85-1.85v-7.41h-15.49c-3.39,3.97-8.43,6.49-14.05,6.49-10.19,0-18.46-8.27-18.46-18.46s8.27-18.46,18.46-18.46c5.62,0,10.66,2.52,14.05,6.49h15.49v-11.65h0Zm-20.89,11.65c-2.43-1.76-5.42-2.79-8.64-2.79-8.15,0-14.77,6.62-14.77,14.77s6.62,14.77,14.77,14.77c3.22,0,6.21-1.04,8.64-2.79h-7.41c-4.56.29-9.1-1.91-11.54-5.96-3.45-5.74-1.43-13.09,4.55-16.4,2.2-1.22,4.65-1.74,7.01-1.59h7.4,0Zm41.46,3.69h18.2v16.56h-18.2v-16.56Zm-60.14-48.02h-2.89c-1.02,0-1.85.83-1.85,1.85v5.69c0,9.08,7.44,16.46,16.61,16.46s16.61-7.38,16.61-16.46v-5.69c0-1.02-.83-1.85-1.85-1.85h-2.89v-4.74c0-6.56-5.32-11.88-11.88-11.88s-11.88,5.32-11.88,11.88v4.74Zm-1.04,3.69h25.84v3.84c0,7.05-5.79,12.77-12.92,12.77s-12.92-5.72-12.92-12.77v-3.84Zm11.08,10.14v2.78c0,1.02.83,1.85,1.85,1.85s1.85-.83,1.85-1.85v-2.78c1.48-.7,2.51-2.2,2.51-3.94,0-2.4-1.95-4.35-4.35-4.35s-4.35,1.95-4.35,4.35c0,1.74,1.03,3.25,2.51,3.94Zm1.85-4.61c.37,0,.66.3.66.66s-.3.66-.66.66-.66-.3-.66-.66.3-.66.66-.66Zm8.19-9.23v-4.74c0-4.52-3.67-8.19-8.19-8.19s-8.19,3.67-8.19,8.19v4.74h16.37Z"/></g></svg>