<?xml version="1.0" encoding="UTF-8"?>
<svg id="Capa_1" data-name="Capa 1" xmlns="http://www.w3.org/2000/svg" viewBox="0 0 626.56 717.78">
  <defs>
    <style>
      .cls-1 {
        fill: #1a4da1;
      }

      .cls-2 {
        fill: #ff6f66;
      }
    </style>
  </defs>
  <g id="SVGRepo_bgCarrier" data-name="SVGRepo bgCarrier">
    <path class="cls-1" d="m313.29,674.41c42.9-14.33,77.42-43.29,119.25-60.48,46.77-19.23,108.99-8.57,141.96-46.91,32.56-37.86,26.7-95.86,23.71-145.71-2.71-45.11-22.26-85.92-40.12-127.44-17.22-40.03-41.77-74.31-63.02-112.36-30.83-55.21-36.25-131.61-90.95-163.34-52.75-30.6-124.33-18.43-180.18,6.06-53.92,23.65-81.3,81.7-120.37,125.76C68.83,189.18,15.7,218.68,5.89,270.13c-9.85,51.62,36.8,96.61,46.47,148.27,8.91,47.58-6.37,96.67,8.03,142.88,17.18,55.14,30.25,125.64,82.97,149.22,53.64,24,114.2-17.48,169.94-36.09"/>
  </g>
  <g id="SVGRepo_iconCarrier" data-name="SVGRepo iconCarrier">
    <g>
      <circle class="cls-2" cx="117.5" cy="124.41" r="60.3"/>
      <path class="cls-2" d="m282.13,314.72c-6.08-16.95-24.75-25.78-41.71-19.7-27.26,9.78-64.46,18.11-87.25,2.49-10.33-7.09-16.73-18.63-20.61-29.74,7.07-25.04-4.67-52.26-28.96-63.81-27.12-12.91-59.55-1.41-72.44,25.7-3.19,6.69-31.16,69.07-31.16,194.64,0,14.87,6,28.37,15.74,38.23l8.87,215.39c.73,16.45,13.78,30.23,30.59,31.28,18,1.13,33.5-12.55,34.64-30.57l14.47-232.85c2.85-6.55,4.43-13.86,4.43-21.46,0-29.64,1.8-54.68,4.36-75.31.83.61,1.68,1.23,2.53,1.84,19.74,13.76,43.22,20.65,70.2,20.65,23.02,0,48.62-5.03,76.63-15.07,16.95-6.06,25.76-24.73,19.68-41.69Z"/>
      <circle class="cls-2" cx="509" cy="124.41" r="60.3"/>
      <path class="cls-2" d="m595.32,229.65c-12.91-27.12-45.32-38.64-72.44-25.7-24.29,11.56-36.03,38.78-28.96,63.81-3.86,11.11-10.27,22.65-20.63,29.74-22.77,15.64-59.99,7.29-87.21-2.49-16.97-6.08-35.67,2.75-41.71,19.7-6.06,16.95,2.75,35.63,19.7,41.71,28.03,10.04,53.59,15.07,76.65,15.07,26.96,0,50.44-6.89,70.24-20.65.85-.61,1.7-1.23,2.53-1.84,2.55,20.63,4.36,45.65,4.36,75.29,0,7.66,1.58,14.91,4.43,21.48l14.49,232.85c1.11,18.02,16.59,31.66,34.61,30.57,16.81-1.05,29.89-14.79,30.61-31.28l8.85-215.39c9.7-9.82,15.72-23.32,15.72-38.25-.08-125.57-28.05-187.95-31.24-194.63Z"/>
      <path class="cls-2" d="m323.76,457.2c-2-2.1-5.05-2.77-7.72-1.62-2.65,1.11-4.36,3.72-4.32,6.63l.46,22.77s-34.29,14.91-55.27-10.14c-5.31-6.35-9.42-13.05-12.55-19.42-2.24-4.63-7.17-7.15-12.18-6.35s-8.89,4.77-9.6,9.82c-2.67,19.1-1.6,42.52,11.5,63.65,28.53,45.97,79.96,54.16,79.96,54.16l.4,19.66c.06,2.77,1.72,5.23,4.24,6.3,2.53,1.11,5.48.61,7.5-1.27l56.6-51.95c4.1-3.8,6.51-9.03,6.71-14.63.16-5.54-1.94-11.01-5.76-15.01l-59.97-62.6Z"/>
      <path class="cls-2" d="m287.08,235.06c2,2.1,5.07,2.73,7.74,1.62,2.67-1.09,4.38-3.72,4.32-6.61l-.46-22.77s34.31-14.95,55.31,10.12c5.29,6.35,9.4,13.03,12.55,19.44,2.2,4.55,7.15,7.11,12.16,6.32,5.01-.81,8.91-4.79,9.62-9.8,2.71-19.12,1.6-42.52-11.46-63.65-28.53-46.03-79.98-54.2-79.98-54.2l-.4-19.64c-.04-2.77-1.72-5.23-4.24-6.3-2.53-1.07-5.48-.59-7.5,1.27l-56.56,51.97c-4.1,3.78-6.53,9.05-6.71,14.65-.18,5.58,1.9,10.99,5.76,15.03l59.85,62.54Z"/>
    </g>
  </g>
</svg>