<?xml version="1.0" encoding="UTF-8"?>
<svg id="svg2" xmlns="http://www.w3.org/2000/svg" viewBox="0 0 393.9 637.1">
  <defs>
    <style>
      .cls-1 {
        letter-spacing: -.02em;
      }

      .cls-2 {
        fill: rgba(229, 238, 214, 0);
      }

      .cls-3 {
        fill: #fff;
      }

      .cls-4 {
        fill: rgba(244, 244, 210, 0);
      }

      .cls-5 {
        font-size: 12.1px;
      }

      .cls-5, .cls-6, .cls-7, .cls-8, .cls-9 {
        isolation: isolate;
      }

      .cls-5, .cls-7, .cls-8 {
        font-family: Arial-BoldMT, Arial;
        font-weight: 700;
      }

      .cls-10 {
        fill: #ff6f66;
      }

      .cls-7 {
        font-size: 10px;
      }

      .cls-8 {
        font-size: 12px;
      }

      .cls-11 {
        fill: rgba(237, 226, 226, 0);
      }

      .cls-12 {
        fill: #efff85;
      }

      .cls-13, .cls-9 {
        fill: #b6ff1f;
      }

      .cls-9 {
        opacity: .6;
      }

      .cls-14 {
        fill: rgba(204, 228, 200, 0);
      }

      .cls-15 {
        letter-spacing: -.04em;
      }
    </style>
  </defs>
  <g id="g13">
    <rect id="rect6122" class="cls-11" y="543.2" width="393.9" height="93.9"/>
    <rect id="rect6120" class="cls-4" y="396.2" width="393.9" height="145.4"/>
    <rect id="rect6118" class="cls-2" y="249" width="393.9" height="145.4"/>
    <rect id="rect6116" class="cls-14" x=".2" width="393.6" height="248.1"/>
    <g id="g11">
      <path id="path6114" class="cls-13" d="m73.2,6.2l28.8,233.5h48.4V6.2h-77.2Z"/>
      <path id="path6112" class="cls-9" d="m104.2,257.5l16.1,130.7h30.1v-130.7h-46.2Z"/>
      <path id="path6110" class="cls-12" d="m122.5,406l15.8,127.7h12.1v-127.7h-27.9Z"/>
      <path id="rect6031" class="cls-10" d="m140.5,551.5l9.9,80.5v-80.5h-9.9Z"/>
    </g>
  </g>
  <g id="g5925">
    <g id="g20825">
      <g id="g20827">
        <circle id="circle20829" class="cls-3" cx="258.65" cy="284.6" r="22.6"/>
        <g id="g20831">
          <path id="path20833" d="m258.45,258.8c7.2,0,13.3,2.5,18.2,7.4,5,5,7.5,11,7.5,18.2s-2.4,13.2-7.3,18c-5.2,5.1-11.3,7.6-18.4,7.6s-12.9-2.5-18-7.5c-5-5-7.5-11-7.5-18.1s2.5-13.1,7.5-18.2c5-4.9,11-7.4,18-7.4Zm.1,4.6c-5.8,0-10.7,2-14.8,6.1-4.2,4.3-6.3,9.2-6.3,14.9s2.1,10.6,6.2,14.7c4.1,4.1,9.1,6.2,14.8,6.2s10.7-2.1,14.9-6.3c4-3.9,6-8.8,6-14.7s-2-10.8-6.1-14.9c-4-3.9-8.9-6-14.7-6Zm6.9,14.6v10.5h-2.9v12.4h-8v-12.4h-2.9v-10.5c0-.5.2-.8.5-1.2.3-.3.7-.5,1.2-.5h10.5c.4,0,.8.2,1.1.5.3.4.5.8.5,1.2Zm-10.5-6.5c0-2.4,1.2-3.6,3.6-3.6s3.6,1.2,3.6,3.6-1.2,3.6-3.6,3.6-3.6-1.3-3.6-3.6Z"/>
        </g>
      </g>
      <text class="cls-5" transform="translate(249.67 319.71)"><tspan x="0" y="0">B</tspan><tspan class="cls-1" x="8.74" y="0">Y</tspan></text>
    </g>
    <g id="g20839">
      <g id="g20841">
        <circle id="circle20843" class="cls-3" cx="258.65" cy="358.13" r="22.6"/>
        <g id="g20845">
          <path id="path20847" d="m258.45,332.23c7.2,0,13.3,2.5,18.2,7.4,5,5,7.5,11,7.5,18.2s-2.4,13.2-7.3,18c-5.2,5.1-11.3,7.6-18.3,7.6s-12.9-2.5-18-7.5c-5-5-7.5-11-7.5-18.1s2.5-13.1,7.5-18.2c4.9-4.9,10.9-7.4,17.9-7.4Zm.1,4.7c-5.8,0-10.7,2-14.8,6.1-4.2,4.3-6.3,9.2-6.3,14.9s2.1,10.6,6.2,14.7,9.1,6.2,14.8,6.2,10.7-2.1,14.9-6.3c4-3.9,6-8.8,6-14.7s-2-10.8-6.1-14.9c-4-4-8.9-6-14.7-6Zm6.9,14.6v10.5h-2.9v12.4h-8v-12.4h-2.9v-10.5c0-.5.2-.8.5-1.2.3-.3.7-.5,1.2-.5h10.5c.4,0,.8.2,1.1.5.3.3.5.7.5,1.2Zm-10.5-6.6c0-2.4,1.2-3.6,3.6-3.6s3.6,1.2,3.6,3.6-1.2,3.6-3.6,3.6-3.6-1.2-3.6-3.6Z"/>
        </g>
      </g>
      <text class="cls-5" transform="translate(249.67 393.18)"><tspan x="0" y="0">B</tspan><tspan class="cls-1" x="8.74" y="0">Y</tspan></text>
    </g>
    <g id="g20853">
      <g id="g20855">
        <circle id="circle20857" class="cls-3" cx="258.65" cy="431.56" r="22.6"/>
        <g id="g20859">
          <path id="path20861" d="m258.45,405.76c7.2,0,13.3,2.5,18.2,7.4,5,5,7.5,11,7.5,18.2s-2.4,13.2-7.3,18c-5.2,5.1-11.3,7.6-18.3,7.6s-12.9-2.5-18-7.5c-5-5-7.5-11-7.5-18.1s2.5-13.1,7.5-18.2c4.9-5,10.9-7.4,17.9-7.4Zm.1,4.6c-5.8,0-10.7,2-14.8,6.1-4.2,4.3-6.3,9.2-6.3,14.9s2.1,10.6,6.2,14.7c4.1,4.1,9.1,6.2,14.8,6.2s10.7-2.1,14.9-6.3c4-3.9,6-8.8,6-14.7s-2-10.8-6.1-14.9c-4-4-8.9-6-14.7-6Zm6.9,14.6v10.5h-2.9v12.4h-8v-12.4h-2.9v-10.5c0-.5.2-.8.5-1.2.3-.3.7-.5,1.2-.5h10.5c.4,0,.8.2,1.1.5.3.4.5.8.5,1.2Zm-10.5-6.6c0-2.4,1.2-3.6,3.6-3.6s3.6,1.2,3.6,3.6-1.2,3.6-3.6,3.6-3.6-1.2-3.6-3.6Z"/>
        </g>
      </g>
      <text class="cls-5" transform="translate(249.67 466.65)"><tspan x="0" y="0">B</tspan><tspan class="cls-1" x="8.74" y="0">Y</tspan></text>
    </g>
    <g id="g20867">
      <g id="g20869">
        <circle id="circle20871" class="cls-3" cx="258.65" cy="505" r="22.6"/>
        <g id="g20873">
          <path id="path20875" d="m258.45,479.2c7.2,0,13.3,2.5,18.2,7.4,5,5,7.5,11,7.5,18.2s-2.4,13.2-7.3,18c-5.2,5.1-11.3,7.6-18.3,7.6s-12.9-2.5-18-7.5c-5-5-7.5-11-7.5-18.1s2.5-13.1,7.5-18.2c4.9-4.9,10.9-7.4,17.9-7.4Zm.1,4.6c-5.8,0-10.7,2-14.8,6.1-4.2,4.3-6.3,9.2-6.3,14.9s2.1,10.6,6.2,14.7c4.1,4.1,9.1,6.2,14.8,6.2s10.7-2.1,14.9-6.3c4-3.9,6-8.8,6-14.7s-2-10.8-6.1-14.9c-4-3.9-8.9-6-14.7-6Zm6.9,14.6v10.5h-2.9v12.4h-8v-12.4h-2.9v-10.5c0-.5.2-.8.5-1.2.3-.3.7-.5,1.2-.5h10.5c.4,0,.8.2,1.1.5.3.4.5.8.5,1.2Zm-10.5-6.5c0-2.4,1.2-3.6,3.6-3.6s3.6,1.2,3.6,3.6-1.2,3.6-3.6,3.6-3.6-1.3-3.6-3.6Z"/>
        </g>
      </g>
      <text class="cls-5" transform="translate(249.67 540.11)"><tspan x="0" y="0">B</tspan><tspan class="cls-1" x="8.74" y="0">Y</tspan></text>
    </g>
    <g id="g21058">
      <g class="cls-6">
        <text class="cls-7" transform="translate(242.61 99.58)"><tspan x="0" y="0" xml:space="preserve">Public  </tspan></text>
        <text class="cls-7" transform="translate(240.71 108.58)"><tspan x="0" y="0">Domain</tspan></text>
      </g>
      <g id="g20729">
        <circle id="circle20731" class="cls-3" cx="258.35" cy="64.3" r="24.1"/>
        <path id="path20733" d="m258.55,49.3c-8.5,0-10.6,8-10.6,14.7s2.1,14.7,10.6,14.7,10.6-8,10.6-14.7c-.1-6.8-2.2-14.7-10.6-14.7Zm0,5.5c.3,0,.7.1,1,.1.6.5.9,1.2.3,2.3l-5.7,10.3c-.2-1.3-.2-2.6-.2-3.5,0-3,.2-9.2,4.6-9.2Zm4.2,4.8c.3,1.6.3,3.2.3,4.4,0,3-.2,9.2-4.6,9.2-.3,0-.7,0-1-.1q-.1,0-.2-.1c-.1,0-.2-.1-.3-.1-1-.4-1.6-1.2-.7-2.5.2.1,6.5-10.8,6.5-10.8Z"/>
        <path id="path20735" d="m258.45,38.4c-7.1,0-13.1,2.5-18,7.4-2.5,2.5-4.4,5.3-5.7,8.4-1.3,3.1-1.9,6.4-1.9,9.7s.6,6.7,1.9,9.7c1.3,3.1,3.1,5.8,5.6,8.3,2.5,2.4,5.2,4.3,8.3,5.6s6.4,1.9,9.7,1.9,6.7-.7,9.8-2c3.2-1.3,6-3.2,8.5-5.7,2.4-2.3,4.2-5,5.4-8.1s1.9-6.4,1.9-9.9-.6-6.8-1.9-9.8c-1.2-3.1-3.1-5.9-5.5-8.3-4.8-4.7-10.9-7.2-18.1-7.2Zm.1,4.6c5.8,0,10.7,2.1,14.8,6.2,2,2,3.5,4.2,4.5,6.8,1,2.5,1.6,5.2,1.6,8,0,5.9-2,10.8-6,14.7-2.1,2-4.4,3.6-7,4.6-2.6,1.1-5.2,1.6-7.9,1.6s-5.4-.5-8-1.6c-2.5-1.1-4.8-2.6-6.8-4.6-2-2-3.6-4.3-4.7-6.8-1.1-2.6-1.6-5.2-1.6-7.9s.5-5.4,1.6-8c1.1-2.6,2.6-4.9,4.7-6.9,4-4,9-6.1,14.8-6.1Z"/>
      </g>
    </g>
    <g id="g20803">
      <g id="g20570">
        <circle id="circle20572" class="cls-3" cx="258.65" cy="137.73" r="22.6"/>
        <g id="g20574">
          <path id="path20576" d="m258.45,111.83c7.2,0,13.3,2.5,18.2,7.4,5,5,7.5,11,7.5,18.2s-2.4,13.2-7.3,18c-5.2,5.1-11.3,7.6-18.3,7.6s-12.9-2.5-18-7.5c-5-5-7.5-11-7.5-18.1s2.5-13.1,7.5-18.2c4.9-4.9,10.9-7.4,17.9-7.4Zm.1,4.7c-5.8,0-10.7,2-14.8,6.1-4.2,4.3-6.3,9.2-6.3,14.9s2.1,10.6,6.2,14.7c4.1,4.1,9.1,6.2,14.8,6.2s10.7-2.1,14.9-6.3c4-3.9,6-8.8,6-14.7s-2-10.8-6.1-14.9c-4-4-8.9-6-14.7-6Zm6.9,14.6v10.5h-2.9v12.4h-8v-12.5h-2.9v-10.5c0-.5.2-.8.5-1.2.3-.3.7-.5,1.2-.5h10.5c.4,0,.8.2,1.1.5.3.4.5.8.5,1.3Zm-10.5-6.6c0-2.4,1.2-3.6,3.6-3.6s3.6,1.2,3.6,3.6-1.2,3.6-3.6,3.6-3.6-1.2-3.6-3.6Z"/>
        </g>
      </g>
      <text class="cls-5" transform="translate(249.67 172.78)"><tspan x="0" y="0">B</tspan><tspan class="cls-1" x="8.74" y="0">Y</tspan></text>
    </g>
    <g id="g20811">
      <g id="g20813">
        <circle id="circle20815" class="cls-3" cx="258.65" cy="211.17" r="22.6"/>
        <g id="g20817">
          <path id="path20819" d="m258.45,185.37c7.2,0,13.3,2.5,18.2,7.4,5,5,7.5,11,7.5,18.2s-2.4,13.2-7.3,18c-5.2,5-11.3,7.6-18.4,7.6s-12.9-2.5-18-7.5c-5-5-7.5-11-7.5-18.1s2.5-13.1,7.5-18.2c5-5,11-7.4,18-7.4Zm.1,4.6c-5.8,0-10.7,2-14.8,6.1-4.2,4.3-6.3,9.2-6.3,14.9s2.1,10.6,6.2,14.7c4.1,4.1,9.1,6.2,14.8,6.2s10.7-2.1,14.9-6.3c4-3.9,6-8.8,6-14.7s-2-10.8-6.1-14.9c-4-4-8.9-6-14.7-6Zm6.9,14.6v10.5h-2.9v12.4h-8v-12.4h-2.9v-10.5c0-.5.2-.8.5-1.2.3-.3.7-.5,1.2-.5h10.5c.4,0,.8.2,1.1.5.3.4.5.8.5,1.2Zm-10.5-6.6c0-2.4,1.2-3.6,3.6-3.6s3.6,1.2,3.6,3.6-1.2,3.6-3.6,3.6-3.6-1.2-3.6-3.6Z"/>
        </g>
      </g>
      <text class="cls-5" transform="translate(249.67 246.25)"><tspan x="0" y="0">B</tspan><tspan class="cls-1" x="8.74" y="0">Y</tspan></text>
    </g>
  </g>
  <g id="g6209">
    <g id="g20589">
      <circle id="circle20591" class="cls-3" cx="204.95" cy="284.4" r="23.1"/>
      <path id="path20593" d="m204.75,258.8c7.2,0,13.3,2.5,18.3,7.5,2.4,2.4,4.2,5.2,5.5,8.3,1.2,3.1,1.9,6.4,1.9,9.9s-.6,6.8-1.9,9.9c-1.3,2.9-3.1,5.6-5.5,8-2.5,2.5-5.3,4.4-8.5,5.7-3.2,1.3-6.4,2-9.8,2s-6.6-.6-9.7-1.9-5.9-3.2-8.3-5.6c-2.4-2.4-4.3-5.2-5.6-8.3s-1.9-6.3-1.9-9.7.6-6.6,1.9-9.8c1.3-3.1,3.2-5.9,5.6-8.4,4.9-5.1,10.9-7.6,18-7.6Zm.1,4.6c-5.9,0-10.8,2-14.8,6.1-2,2-3.6,4.3-4.6,6.9-1.1,2.5-1.6,5.2-1.6,8s.5,5.4,1.6,7.9c1.1,2.5,2.6,4.8,4.6,6.8s4.3,3.5,6.8,4.6,5.2,1.6,8,1.6,5.4-.5,8-1.6c2.6-1.1,4.9-2.6,7-4.6,4-3.9,6-8.8,6-14.7,0-2.8-.5-5.5-1.6-8-1-2.5-2.5-4.8-4.5-6.8-4.2-4.1-9.2-6.2-14.9-6.2Zm-.4,16.7l-3.4,1.8c-.4-.8-.8-1.3-1.3-1.6s-1-.5-1.5-.5c-2.3,0-3.4,1.5-3.4,4.5,0,1.4.3,2.5.9,3.3s1.4,1.2,2.6,1.2c1.5,0,2.5-.7,3.2-2.2l3.2,1.6c-.7,1.3-1.6,2.2-2.8,2.9-1.2.7-2.5,1.1-3.9,1.1-2.3,0-4.1-.7-5.5-2.1-1.4-1.4-2.1-3.4-2.1-5.9s.7-4.4,2.1-5.8c1.4-1.4,3.2-2.1,5.4-2.1,2.9.1,5.2,1.4,6.5,3.8Zm14.8,0l-3.4,1.8c-.4-.8-.8-1.3-1.3-1.6s-1-.5-1.5-.5c-2.3,0-3.4,1.5-3.4,4.5,0,1.4.3,2.5.9,3.3s1.4,1.2,2.6,1.2c1.5,0,2.5-.7,3.2-2.2l3.2,1.6c-.7,1.3-1.6,2.2-2.8,2.9-1.2.7-2.5,1.1-3.9,1.1-2.3,0-4.2-.7-5.6-2.1-1.4-1.4-2.1-3.4-2.1-5.9s.7-4.4,2.1-5.8c1.4-1.4,3.2-2.1,5.4-2.1,3,.1,5.3,1.4,6.6,3.8Z"/>
    </g>
    <g id="g20781">
      <circle id="circle20783" class="cls-3" cx="204.95" cy="357.83" r="23.1"/>
      <path id="path20785" d="m204.75,332.23c7.2,0,13.3,2.5,18.3,7.5,2.4,2.4,4.2,5.2,5.5,8.3,1.2,3.1,1.9,6.4,1.9,9.9s-.6,6.8-1.9,9.9c-1.3,2.9-3.1,5.7-5.5,8-2.5,2.5-5.3,4.4-8.5,5.7-3.2,1.3-6.4,2-9.8,2s-6.6-.6-9.7-1.9c-3.1-1.3-5.9-3.2-8.3-5.6-2.5-2.5-4.3-5.2-5.6-8.3s-1.9-6.3-1.9-9.7.6-6.6,1.9-9.8c1.3-3.1,3.2-5.9,5.6-8.4,4.9-5.1,10.9-7.6,18-7.6Zm.1,4.7c-5.9,0-10.8,2-14.8,6.1-2,2-3.6,4.3-4.6,6.9-1.1,2.5-1.6,5.2-1.6,8s.5,5.4,1.6,7.9c1.1,2.5,2.6,4.8,4.6,6.8s4.3,3.5,6.8,4.6,5.2,1.6,8,1.6,5.4-.5,8-1.6c2.6-1.1,4.9-2.6,7-4.6,4-3.9,6-8.8,6-14.7,0-2.8-.5-5.5-1.6-8-1-2.5-2.5-4.8-4.5-6.8-4.2-4.2-9.2-6.2-14.9-6.2Zm-.4,16.7l-3.4,1.8c-.4-.8-.8-1.3-1.3-1.6s-1-.5-1.5-.5c-2.3,0-3.4,1.5-3.4,4.5,0,1.4.3,2.5.9,3.3s1.4,1.2,2.6,1.2c1.5,0,2.5-.7,3.2-2.2l3.2,1.6c-.7,1.3-1.6,2.2-2.8,2.9-1.2.7-2.5,1.1-3.9,1.1-2.3,0-4.1-.7-5.5-2.1-1.4-1.4-2.1-3.4-2.1-5.9s.7-4.4,2.1-5.8,3.2-2.1,5.4-2.1c2.9.1,5.2,1.3,6.5,3.8Zm14.8,0l-3.4,1.8c-.4-.8-.8-1.3-1.3-1.6s-1-.5-1.5-.5c-2.3,0-3.4,1.5-3.4,4.5,0,1.4.3,2.5.9,3.3s1.4,1.2,2.6,1.2c1.5,0,2.5-.7,3.2-2.2l3,1.7c-.7,1.3-1.6,2.2-2.8,2.9-1.2.7-2.5,1.1-3.9,1.1-2.3,0-4.2-.7-5.6-2.1-1.4-1.4-2.1-3.4-2.1-5.9s.7-4.4,2.1-5.8c1.4-1.4,3.2-2.1,5.4-2.1,3.2,0,5.5,1.2,6.8,3.7Z"/>
    </g>
    <g id="g20787">
      <circle id="circle20789" class="cls-3" cx="204.95" cy="431.36" r="23.1"/>
      <path id="path20791" d="m204.75,405.76c7.2,0,13.3,2.5,18.3,7.5,2.4,2.4,4.2,5.1,5.4,8.2,1.2,3.1,1.9,6.4,1.9,9.9s-.6,6.8-1.9,9.9c-1.2,3.1-3.1,5.8-5.5,8.1-2.5,2.5-5.3,4.4-8.5,5.7s-6.4,2-9.8,2-6.6-.6-9.7-1.9c-3.1-1.3-5.9-3.2-8.3-5.6-2.5-2.5-4.3-5.2-5.6-8.3s-1.9-6.3-1.9-9.7.6-6.6,1.9-9.8c1.3-3.1,3.2-5.9,5.6-8.4,5-5.1,11-7.6,18.1-7.6Zm.1,4.6c-5.9,0-10.8,2-14.8,6.1-2,2-3.6,4.3-4.6,6.9-1.1,2.5-1.6,5.2-1.6,8s.5,5.4,1.6,7.9c1.1,2.5,2.6,4.8,4.6,6.8s4.3,3.5,6.8,4.6,5.2,1.6,8,1.6,5.4-.5,8-1.6c2.6-1.1,4.9-2.6,7-4.6,4-3.9,6-8.8,6-14.7,0-2.8-.5-5.5-1.6-8-1-2.5-2.5-4.8-4.5-6.8-4.2-4.2-9.2-6.2-14.9-6.2Zm-.4,16.7l-3.4,1.8c-.4-.8-.8-1.3-1.3-1.6-.5-.3-1-.5-1.5-.5-2.3,0-3.4,1.5-3.4,4.5,0,1.4.3,2.5.9,3.3s1.4,1.2,2.6,1.2c1.5,0,2.5-.7,3.2-2.2l3.2,1.6c-.7,1.3-1.6,2.2-2.8,2.9-1.2.7-2.5,1.1-3.9,1.1-2.3,0-4.1-.7-5.5-2.1s-2.1-3.4-2.1-5.9.7-4.4,2.1-5.8,3.2-2.1,5.4-2.1c2.9.1,5.2,1.3,6.5,3.8Zm14.8,0l-3.4,1.8c-.4-.8-.8-1.3-1.3-1.6-.5-.3-1-.5-1.5-.5-2.3,0-3.4,1.5-3.4,4.5,0,1.4.3,2.5.9,3.3s1.4,1.2,2.6,1.2c1.5,0,2.5-.7,3.2-2.2l3.2,1.6c-.7,1.3-1.6,2.2-2.8,2.9-1.2.7-2.5,1.1-3.9,1.1-2.3,0-4.2-.7-5.6-2.1-1.4-1.4-2.1-3.4-2.1-5.9s.7-4.4,2.1-5.8c1.4-1.4,3.2-2.1,5.4-2.1,3,.1,5.3,1.3,6.6,3.8Z"/>
    </g>
    <g id="g20793">
      <circle id="circle20795" class="cls-3" cx="204.95" cy="504.8" r="23.1"/>
      <path id="path20797" d="m204.75,479.2c7.2,0,13.3,2.5,18.3,7.5,2.4,2.4,4.2,5.2,5.5,8.3,1.2,3.1,1.9,6.4,1.9,9.9s-.6,6.8-1.9,9.9c-1.2,3.1-3.1,5.8-5.5,8.1-2.5,2.5-5.3,4.4-8.5,5.7-3.2,1.3-6.4,2-9.8,2s-6.6-.6-9.7-1.9-5.9-3.2-8.3-5.6c-2.5-2.5-4.3-5.2-5.6-8.3-1.3-3.1-1.9-6.3-1.9-9.7s.6-6.6,1.9-9.8c1.3-3.1,3.2-5.9,5.6-8.4,4.9-5.2,10.9-7.7,18-7.7Zm.1,4.6c-5.9,0-10.8,2-14.8,6.1-2,2-3.6,4.3-4.6,6.9-1.1,2.5-1.6,5.2-1.6,8s.5,5.4,1.6,7.9c1.1,2.5,2.6,4.8,4.6,6.8s4.3,3.5,6.8,4.6,5.2,1.6,8,1.6,5.4-.5,8-1.6c2.6-1.1,4.9-2.6,7-4.6,4-3.9,6-8.8,6-14.7,0-2.8-.5-5.5-1.6-8-1-2.5-2.5-4.8-4.5-6.8-4.2-4.1-9.2-6.2-14.9-6.2Zm-.4,16.8l-3.4,1.8c-.4-.8-.8-1.3-1.3-1.6-.5-.3-1-.5-1.5-.5-2.3,0-3.4,1.5-3.4,4.5,0,1.4.3,2.5.9,3.3s1.4,1.2,2.6,1.2c1.5,0,2.5-.7,3.2-2.2l3.2,1.6c-.7,1.3-1.6,2.2-2.8,2.9-1.2.7-2.5,1.1-3.9,1.1-2.3,0-4.1-.7-5.5-2.1s-2.1-3.4-2.1-5.9.7-4.4,2.1-5.8,3.2-2.1,5.4-2.1c2.9,0,5.2,1.3,6.5,3.8Zm14.8,0l-3.4,1.8c-.4-.8-.8-1.3-1.3-1.6-.5-.3-1-.5-1.5-.5-2.3,0-3.4,1.5-3.4,4.5,0,1.4.3,2.5.9,3.3s1.4,1.2,2.6,1.2c1.5,0,2.5-.7,3.2-2.2l3.2,1.6c-.7,1.3-1.6,2.2-2.8,2.9-1.2.7-2.5,1.1-3.9,1.1-2.3,0-4.2-.7-5.6-2.1-1.4-1.4-2.1-3.4-2.1-5.9s.7-4.4,2.1-5.8c1.4-1.4,3.2-2.1,5.4-2.1,3,0,5.3,1.3,6.6,3.8Z"/>
    </g>
    <g id="g20707">
      <circle id="circle20709" class="cls-3" cx="204.95" cy="64" r="23.1"/>
      <path id="path20711" d="m204.75,38.4c7.2,0,13.3,2.5,18.3,7.5,2.4,2.4,4.2,5.2,5.4,8.2,1.2,3.1,1.9,6.4,1.9,9.9s-.6,6.8-1.9,9.9c-1.2,3.1-3.1,5.8-5.5,8.1-2.5,2.5-5.3,4.4-8.5,5.7s-6.4,2-9.8,2-6.6-.6-9.7-1.9c-3.1-1.3-5.9-3.2-8.3-5.6-2.4-2.4-4.3-5.2-5.6-8.3-1.3-3.1-1.9-6.3-1.9-9.7s.6-6.6,1.9-9.8c1.3-3.1,3.2-5.9,5.6-8.4,5-5.1,11-7.6,18.1-7.6Zm.1,4.6c-5.9,0-10.8,2-14.8,6.1-2,2-3.6,4.3-4.6,6.9-1.1,2.5-1.6,5.2-1.6,8s.5,5.4,1.6,7.9c1.1,2.5,2.6,4.8,4.6,6.8s4.3,3.5,6.8,4.6,5.2,1.6,8,1.6,5.4-.5,8-1.6c2.6-1.1,4.9-2.6,7-4.6,4-3.9,6-8.8,6-14.7,0-2.8-.5-5.5-1.6-8-1-2.5-2.5-4.8-4.5-6.8-4.2-4.1-9.2-6.2-14.9-6.2Zm-.4,16.7l-3.4,1.8c-.4-.8-.8-1.3-1.3-1.6s-1-.5-1.5-.5c-2.3,0-3.4,1.5-3.4,4.5,0,1.4.3,2.5.9,3.3s1.4,1.2,2.6,1.2c1.5,0,2.5-.7,3.2-2.2l3.2,1.6c-.7,1.3-1.6,2.2-2.8,2.9-1.2.7-2.5,1.1-3.9,1.1-2.3,0-4.1-.7-5.5-2.1s-2.1-3.4-2.1-5.9.7-4.4,2.1-5.8,3.2-2.1,5.4-2.1c2.9.1,5.2,1.4,6.5,3.8Zm14.8,0l-3.4,1.8c-.4-.8-.8-1.3-1.3-1.6-.6-.3-1.1-.4-1.6-.4-2.3,0-3.4,1.5-3.4,4.5,0,1.4.3,2.5.9,3.3s1.4,1.2,2.6,1.2c1.5,0,2.5-.7,3.2-2.2l3.2,1.6c-.7,1.3-1.6,2.2-2.8,2.9-1.2.7-2.5,1.1-3.9,1.1-2.3,0-4.2-.7-5.6-2.1s-2.1-3.4-2.1-5.9.7-4.4,2.1-5.8c1.4-1.3,3.2-2.1,5.3-2.1,3.2,0,5.5,1.3,6.8,3.7Z"/>
    </g>
    <g id="g20713">
      <circle id="circle20715" class="cls-3" cx="204.95" cy="137.43" r="23.1"/>
      <path id="path20717" d="m204.75,111.83c7.2,0,13.3,2.5,18.3,7.5,2.4,2.4,4.2,5.2,5.5,8.3,1.2,3.1,1.9,6.4,1.9,9.9s-.6,6.8-1.9,9.9c-1.3,2.9-3.1,5.7-5.5,8-2.5,2.5-5.3,4.4-8.5,5.7-3.2,1.3-6.4,2-9.8,2s-6.6-.6-9.7-1.9-5.9-3.2-8.3-5.6c-2.4-2.4-4.3-5.2-5.6-8.3-1.3-3.1-1.9-6.3-1.9-9.7s.6-6.6,1.9-9.8c1.3-3.1,3.2-5.9,5.6-8.4,4.9-5.1,10.9-7.6,18-7.6Zm.1,4.7c-5.9,0-10.8,2-14.8,6.1-2,2-3.6,4.3-4.6,6.9-1.1,2.5-1.6,5.2-1.6,8s.5,5.4,1.6,7.9c1.1,2.5,2.6,4.8,4.6,6.8,2,2,4.3,3.5,6.8,4.6s5.2,1.6,8,1.6,5.4-.5,8-1.6c2.6-1.1,4.9-2.6,7-4.6,4-3.9,6-8.8,6-14.7,0-2.8-.5-5.5-1.6-8-1-2.5-2.5-4.8-4.5-6.8-4.2-4.2-9.2-6.2-14.9-6.2Zm-.4,16.7l-3.4,1.8c-.4-.8-.8-1.3-1.3-1.6s-1-.5-1.5-.5c-2.3,0-3.4,1.5-3.4,4.5,0,1.4.3,2.5.9,3.3s1.4,1.2,2.6,1.2c1.5,0,2.5-.7,3.2-2.2l3.2,1.6c-.7,1.3-1.6,2.2-2.8,2.9-1.2.7-2.5,1.1-3.9,1.1-2.3,0-4.1-.7-5.5-2.1s-2.1-3.4-2.1-5.9.7-4.4,2.1-5.8c1.4-1.4,3.2-2.1,5.4-2.1,2.9.1,5.2,1.3,6.5,3.8Zm14.8,0l-3.4,1.8c-.4-.8-.8-1.3-1.3-1.6s-1-.5-1.5-.5c-2.3,0-3.4,1.5-3.4,4.5,0,1.4.3,2.5.9,3.3s1.4,1.2,2.6,1.2c1.5,0,2.5-.7,3.2-2.2l3.2,1.6c-.9,1.3-1.9,2.3-3,3-1.2.7-2.5,1.1-3.9,1.1-2.3,0-4.2-.7-5.6-2.1-1.4-1.4-2.1-3.4-2.1-5.9s.7-4.4,2.1-5.8,3.2-2.1,5.4-2.1c3.2,0,5.5,1.2,6.8,3.7Z"/>
    </g>
    <g id="g20719">
      <circle id="circle20721" class="cls-3" cx="204.95" cy="210.97" r="23.1"/>
      <path id="path20723" d="m204.75,185.37c7.2,0,13.3,2.5,18.3,7.5,2.4,2.4,4.2,5.2,5.5,8.3,1.2,3.1,1.9,6.4,1.9,9.9s-.6,6.8-1.9,9.9c-1.3,2.9-3.1,5.6-5.5,7.9-2.5,2.5-5.3,4.4-8.5,5.7-3.2,1.3-6.4,2-9.8,2s-6.6-.6-9.7-1.9-5.9-3.2-8.3-5.6c-2.4-2.4-4.3-5.2-5.6-8.3s-1.9-6.3-1.9-9.7.6-6.6,1.9-9.8c1.3-3.1,3.2-5.9,5.6-8.4,4.9-5,10.9-7.5,18-7.5Zm.1,4.6c-5.9,0-10.8,2-14.8,6.1-2,2-3.6,4.3-4.6,6.9-1.1,2.5-1.6,5.2-1.6,8s.5,5.4,1.6,7.9c1.1,2.5,2.6,4.8,4.6,6.8s4.3,3.5,6.8,4.6,5.2,1.6,8,1.6,5.4-.5,8-1.6c2.6-1.1,4.9-2.6,7-4.6,4-3.9,6-8.8,6-14.7,0-2.8-.5-5.5-1.6-8-1-2.5-2.5-4.8-4.5-6.8-4.2-4.2-9.2-6.2-14.9-6.2Zm-.4,16.7l-3.4,1.8c-.4-.8-.8-1.3-1.3-1.6-.5-.3-1-.5-1.5-.5-2.3,0-3.4,1.5-3.4,4.5,0,1.4.3,2.5.9,3.3s1.4,1.2,2.6,1.2c1.5,0,2.5-.7,3.2-2.2l3.2,1.6c-.7,1.3-1.6,2.2-2.8,2.9-1.2.7-2.5,1.1-3.9,1.1-2.3,0-4.1-.7-5.5-2.1s-2.1-3.4-2.1-5.9.7-4.4,2.1-5.8,3.2-2.1,5.4-2.1c2.9.1,5.2,1.3,6.5,3.8Zm14.8,0l-3.4,1.8c-.4-.8-.8-1.3-1.3-1.6-.5-.3-1-.5-1.5-.5-2.3,0-3.4,1.5-3.4,4.5,0,1.4.3,2.5.9,3.3s1.4,1.2,2.6,1.2c1.5,0,2.5-.7,3.2-2.2l3.2,1.6c-.7,1.3-1.6,2.2-2.8,2.9-1.2.7-2.5,1.1-3.9,1.1-2.3,0-4.2-.7-5.6-2.1-1.4-1.4-2.1-3.4-2.1-5.9s.7-4.4,2.1-5.8c1.4-1.4,3.2-2.1,5.4-2.1,3,.1,5.3,1.3,6.6,3.8Z"/>
    </g>
  </g>
  <g id="g5976">
    <g id="g20984">
      <g id="g20913">
        <circle id="circle20915" class="cls-3" cx="311.85" cy="211.07" r="23.3"/>
        <g id="g20917">
          <path id="path20919" d="m312.25,185.37c7.2,0,13.2,2.5,18.2,7.5,5,4.9,7.5,11,7.5,18.1s-2.4,13.2-7.3,18c-5.1,5.1-11.3,7.6-18.3,7.6s-12.9-2.5-18-7.5c-5-5-7.5-11-7.5-18.1s2.5-13,7.5-18.1c4.8-5,10.8-7.5,17.9-7.5Zm.1,4.6c-5.8,0-10.7,2.1-14.8,6.2-4.2,4.2-6.3,9.2-6.3,14.8s2.1,10.6,6.2,14.7c4.1,4.1,9.1,6.2,14.8,6.2s10.7-2.1,14.9-6.3c4-3.9,6-8.8,6-14.7s-2-10.8-6.1-14.8c-4-4.1-8.9-6.1-14.7-6.1Zm-11.5,17.4c.5-3.1,1.8-5.6,3.8-7.3s4.5-2.6,7.5-2.6c4,0,7.2,1.3,9.6,3.9,2.4,2.6,3.6,5.9,3.6,10s-1.2,7.2-3.7,9.8-5.7,3.9-9.6,3.9c-2.9,0-5.4-.9-7.5-2.6-2.1-1.7-3.4-4.2-3.8-7.4h6.4c.2,3.1,2,4.7,5.6,4.7,1.8,0,3.2-.8,4.3-2.3,1.1-1.6,1.6-3.6,1.6-6.2s-.5-4.8-1.5-6.2c-1-1.4-2.5-2.1-4.3-2.1-3.4,0-5.3,1.5-5.8,4.5h1.9l-5.1,5.1-5.1-5.1c.1-.1,2.1-.1,2.1-.1Z"/>
        </g>
      </g>
      <text class="cls-5" transform="translate(303.67 246.32)"><tspan x="0" y="0">S</tspan><tspan class="cls-15" x="8.07" y="0">A</tspan></text>
    </g>
    <g id="g20996">
      <g id="g20905">
        <circle id="circle20907" class="cls-3" cx="312.25" cy="284.6" r="23.6"/>
        <g id="g20909">
          <path id="path20911" d="m312.25,258.8c7.2,0,13.3,2.5,18.2,7.4,5,4.9,7.5,11,7.5,18.2s-2.4,13.2-7.3,18c-5.2,5.1-11.3,7.6-18.3,7.6s-13-2.5-18-7.6c-5-5-7.5-11-7.5-18s2.5-13.1,7.5-18.2c4.8-4.9,10.8-7.4,17.9-7.4Zm-19.8,18.7c-.8,2.1-1.1,4.4-1.1,6.9,0,5.7,2.1,10.6,6.2,14.7,4.2,4.1,9.1,6.2,14.8,6.2s10.7-2.1,14.9-6.3c1.5-1.4,2.7-2.9,3.5-4.5l-9.6-4.3c-.3,1.6-1.2,2.9-2.4,4-1.3,1-2.8,1.6-4.6,1.8v3.9h-3v-3.9c-2.8,0-5.4-1-7.8-3.1l3.5-3.6c1.7,1.6,3.6,2.3,5.7,2.3.9,0,1.6-.2,2.3-.6.6-.4.9-1,.9-2,0-.6-.2-1.2-.7-1.6l-2.5-1.1-3-1.4-4.1-1.8c.1.2-13-5.6-13-5.6Zm19.9-14.1c-5.8,0-10.7,2.1-14.8,6.2-1,1-2,2.1-2.8,3.4l9.8,4.4c.4-1.3,1.2-2.4,2.4-3.2s2.6-1.3,4.2-1.3v-3.9h3v3.9c2.3.1,4.5.9,6.4,2.4l-3.3,3.4c-1.4-1-2.9-1.5-4.4-1.5-.8,0-1.5.2-2.1.5s-.9.8-.9,1.6c0,.2.1.4.2.6l3.2,1.5,2.2,1,4.1,1.8,13.1,5.9c.4-1.8.6-3.6.6-5.5,0-5.9-2-10.8-6.1-14.9-4.1-4.3-9-6.3-14.8-6.3Z"/>
        </g>
      </g>
      <text class="cls-5" transform="translate(303.4 319.42)"><tspan x="0" y="0">NC</tspan></text>
    </g>
    <g id="g21004">
      <g id="g21006">
        <circle id="circle21008" class="cls-3" cx="312.25" cy="358.03" r="23.6"/>
        <g id="g21010">
          <path id="path21012" d="m312.25,332.23c7.2,0,13.3,2.5,18.2,7.4,5,4.9,7.5,11,7.5,18.2s-2.4,13.2-7.3,18c-5.2,5.1-11.3,7.6-18.3,7.6s-13-2.5-18-7.6c-5-5-7.5-11-7.5-18s2.5-13.1,7.5-18.2c4.8-4.9,10.8-7.4,17.9-7.4Zm-19.8,18.7c-.8,2.1-1.1,4.4-1.1,6.9,0,5.7,2.1,10.6,6.2,14.7,4.2,4.1,9.1,6.2,14.8,6.2s10.7-2.1,14.9-6.3c1.5-1.4,2.7-2.9,3.5-4.5l-9.6-4.3c-.3,1.6-1.2,2.9-2.4,4-1.3,1-2.8,1.6-4.6,1.8v3.9h-3v-3.9c-2.8,0-5.4-1-7.8-3.1l3.5-3.5c1.7,1.6,3.6,2.3,5.7,2.3.9,0,1.6-.2,2.3-.6.6-.4.9-1,.9-2,0-.6-.2-1.2-.7-1.6l-2.5-1.1-3-1.4-4.1-1.8c.1.2-13-5.7-13-5.7Zm19.9-14.1c-5.8,0-10.7,2.1-14.8,6.2-1,1-2,2.1-2.8,3.4l9.8,4.4c.4-1.3,1.2-2.4,2.4-3.2,1.2-.8,2.6-1.3,4.2-1.3v-3.9h3v3.9c2.3.1,4.5.9,6.4,2.4l-3.3,3.4c-1.4-1-2.9-1.5-4.4-1.5-.8,0-1.5.2-2.1.5s-.9.8-.9,1.6c0,.2.1.4.2.6l3.2,1.5,2.2,1,4.1,1.8,13.1,5.9c.4-1.8.6-3.6.6-5.5,0-5.9-2-10.8-6.1-14.9-4.1-4.2-9-6.3-14.8-6.3Z"/>
        </g>
      </g>
      <text class="cls-5" transform="translate(303.4 392.88)"><tspan x="0" y="0">NC</tspan></text>
    </g>
    <g id="g21018">
      <g id="g21020">
        <circle id="circle21022" class="cls-3" cx="312.25" cy="505" r="23.6"/>
        <g id="g21024">
          <path id="path21026" d="m312.25,479.2c7.2,0,13.3,2.5,18.2,7.4,5,4.9,7.5,11,7.5,18.2s-2.4,13.2-7.3,18c-5.2,5.1-11.3,7.6-18.3,7.6s-13-2.5-18-7.6c-5-5-7.5-11-7.5-18s2.5-13.1,7.5-18.2c4.8-4.9,10.8-7.4,17.9-7.4Zm-19.8,18.7c-.8,2.1-1.1,4.4-1.1,6.9,0,5.7,2.1,10.6,6.2,14.7,4.2,4.1,9.1,6.2,14.8,6.2s10.7-2.1,14.9-6.3c1.5-1.4,2.7-2.9,3.5-4.5l-9.6-4.3c-.3,1.6-1.2,2.9-2.4,4-1.3,1-2.8,1.6-4.6,1.8v3.9h-3v-3.9c-2.8,0-5.4-1-7.8-3.1l3.5-3.6c1.7,1.6,3.6,2.3,5.7,2.3.9,0,1.6-.2,2.3-.6.6-.4.9-1,.9-2,0-.6-.2-1.2-.7-1.6l-2.5-1.1-3-1.4-4.1-1.8c.1.2-13-5.6-13-5.6Zm19.9-14.1c-5.8,0-10.7,2.1-14.8,6.2-1,1-2,2.1-2.8,3.4l9.8,4.4c.4-1.3,1.2-2.4,2.4-3.2,1.2-.8,2.6-1.3,4.2-1.3v-3.9h3v3.9c2.3.1,4.5.9,6.4,2.4l-3.3,3.4c-1.4-1-2.9-1.5-4.4-1.5-.8,0-1.5.2-2.1.5s-.9.8-.9,1.6c0,.2.1.4.2.6l3.2,1.5,2.2,1,4.1,1.8,13.1,5.9c.4-1.8.6-3.6.6-5.5,0-5.9-2-10.8-6.1-14.9-4.1-4.3-9-6.3-14.8-6.3Z"/>
        </g>
      </g>
      <text class="cls-5" transform="translate(303.4 539.81)"><tspan x="0" y="0">NC</tspan></text>
    </g>
    <g id="g21036">
      <g id="g20897">
        <circle id="circle20899" class="cls-3" cx="312.35" cy="431.16" r="23.2"/>
        <g id="g20901">
          <path id="path20903" d="m312.25,405.76c7.2,0,13.2,2.5,18.2,7.5,5,4.9,7.5,11,7.5,18.1s-2.4,13.2-7.3,18c-5.1,5.1-11.3,7.6-18.3,7.6s-12.9-2.5-18-7.5c-5-5-7.5-11-7.5-18.1s2.5-13,7.5-18.1c4.8-5,10.8-7.5,17.9-7.5Zm.1,4.6c-5.8,0-10.7,2.1-14.8,6.2-4.2,4.2-6.3,9.2-6.3,14.8s2.1,10.6,6.2,14.7c4.1,4.1,9.1,6.2,14.8,6.2s10.7-2.1,14.9-6.3c4-3.9,6-8.8,6-14.7s-2-10.8-6.1-14.8c-4-4.1-8.9-6.1-14.7-6.1Zm9.6,14.9v4.4h-18.6v-4.4h18.6Zm0,8.3v4.4h-18.6v-4.4h18.6Z"/>
        </g>
      </g>
      <text class="cls-5" transform="translate(303.39 466.11)"><tspan x="0" y="0">ND</tspan></text>
    </g>
  </g>
  <g id="g6013">
    <g id="g20976">
      <g id="g20964">
        <circle id="circle20966" class="cls-3" cx="365.54" cy="357.93" r="23.3"/>
        <g id="g20968">
          <path id="path20970" d="m365.94,332.23c7.2,0,13.2,2.5,18.2,7.5,5,4.9,7.5,11,7.5,18.1s-2.4,13.2-7.3,18c-5.1,5.1-11.3,7.6-18.3,7.6s-12.9-2.5-18-7.5c-5-5-7.5-11-7.5-18.1s2.5-13,7.5-18.1c4.9-5,10.9-7.5,17.9-7.5Zm.1,4.7c-5.8,0-10.7,2.1-14.8,6.2-4.1,4.2-6.2,9.1-6.2,14.7s2.1,10.6,6.2,14.7c4.1,4.1,9.1,6.2,14.8,6.2s10.7-2.1,14.9-6.3c4-3.9,6-8.8,6-14.7s-2-10.8-6.1-14.8c-4-4-8.9-6-14.8-6Zm-11.4,17.3c.5-3.1,1.8-5.6,3.8-7.3,2-1.7,4.5-2.6,7.5-2.6,4,0,7.2,1.3,9.6,3.9s3.6,5.9,3.6,10-1.2,7.2-3.7,9.8-5.7,3.9-9.6,3.9c-2.9,0-5.4-.9-7.5-2.6-2.1-1.7-3.4-4.2-3.8-7.4h6.4c.2,3.1,2,4.7,5.6,4.7,1.8,0,3.2-.8,4.3-2.3,1.1-1.6,1.6-3.6,1.6-6.2s-.5-4.8-1.5-6.2c-1-1.4-2.5-2.1-4.3-2.1-3.4,0-5.3,1.5-5.8,4.5h1.9l-5.1,5.1-5.1-5.1c.1-.1,2.1-.1,2.1-.1Z"/>
        </g>
      </g>
      <text class="cls-5" transform="translate(357.43 393.26)"><tspan x="0" y="0">S</tspan><tspan class="cls-15" x="8.07" y="0">A</tspan></text>
    </g>
    <g id="g21044">
      <g id="g21046">
        <circle id="circle21048" class="cls-3" cx="366.04" cy="504.6" r="23.2"/>
        <g id="g21050">
          <path id="path21052" d="m365.94,479.2c7.2,0,13.2,2.5,18.2,7.5,5,4.9,7.5,11,7.5,18.1s-2.4,13.2-7.3,18c-5.1,5.1-11.3,7.6-18.3,7.6s-12.9-2.5-18-7.5c-5-5-7.5-11-7.5-18.1s2.5-13,7.5-18.1c4.9-5,10.9-7.5,17.9-7.5Zm.1,4.6c-5.8,0-10.7,2.1-14.8,6.2-4.2,4.2-6.3,9.2-6.3,14.8s2.1,10.6,6.2,14.7,9.1,6.2,14.8,6.2,10.7-2.1,14.9-6.3c4-3.9,6-8.8,6-14.7s-2-10.8-6.1-14.8c-3.9-4-8.8-6.1-14.7-6.1Zm9.7,15v4.4h-18.6v-4.4h18.6Zm0,8.2v4.4h-18.6v-4.4h18.6Z"/>
        </g>
      </g>
      <text class="cls-5" transform="translate(357.15 539.58)"><tspan x="0" y="0">ND</tspan></text>
    </g>
  </g>
  <text class="cls-5" transform="translate(157.35 9.62) rotate(90)"><tspan x="0" y="0">le plus ouvert</tspan></text>
  <text class="cls-5" transform="translate(156.43 543.22) rotate(90)"><tspan x="0" y="0">le moins ouvert</tspan></text>
  <g id="g21537">
    <g id="g21299">
      <circle id="circle21301" class="cls-3" cx="40.37" cy="480.76" r="23.8"/>
      <g id="g21303">
        <path id="path21305" d="m39.97,454.86c7.2,0,13.2,2.5,18.2,7.5,5,4.9,7.5,11,7.5,18.1s-2.4,13.2-7.3,18c-5.2,5.1-11.3,7.6-18.4,7.6s-12.9-2.5-18-7.5c-5-5-7.5-11-7.5-18.1s2.5-13,7.5-18.1c5-5,11-7.5,18-7.5Zm.1,4.6c-5.8,0-10.7,2.1-14.8,6.2-4.2,4.2-6.3,9.2-6.3,14.8s2.1,10.6,6.2,14.7,9.1,6.2,14.8,6.2,10.7-2.1,14.9-6.3c4-3.9,6-8.8,6-14.7s-2-10.8-6.1-14.8c-3.9-4-8.8-6.1-14.7-6.1Zm10.5,13.7c.4,0,.7.1,1,.4s.4.6.4,1v18.8c0,.4-.1.7-.4,1-.3.3-.6.4-1,.4h-14c-.4,0-.7-.1-1-.4s-.4-.6-.4-1v-5.6h-5.6c-.4,0-.7-.1-1-.4-.3-.3-.4-.6-.4-1v-18.8c0-.4.1-.7.4-.9.2-.3.5-.4.9-.5h14.1c.4,0,.7.1,1,.4s.4.6.4,1v5.6h5.6Zm-19.6,11.9h4.2v-10.5c0-.4.1-.7.4-.9.2-.3.5-.4.9-.5h5.7v-4.2h-11.2v16.1Zm18.2-9.1h-11.2v16h11.2v-16Z"/>
      </g>
    </g>
    <text class="cls-5" transform="translate(20.37 522.72)"><tspan x="0" y="0">partage</tspan></text>
  </g>
  <g id="g21234">
    <circle id="circle21236" class="cls-3" cx="36.51" cy="54.75" r="23.8"/>
    <g id="g21238">
      <path id="path21240" d="m36.11,28.85c7.2,0,13.2,2.5,18.2,7.5,5,4.9,7.5,11,7.5,18.1s-2.4,13.2-7.3,18c-5.1,5.1-11.3,7.6-18.3,7.6s-12.9-2.5-18-7.5c-5-5-7.5-11-7.5-18.1s2.5-13,7.5-18.1c4.9-5,10.9-7.5,17.9-7.5Zm.1,4.6c-5.8,0-10.7,2.1-14.8,6.2-4.1,4.2-6.2,9.2-6.2,14.8s2.1,10.6,6.2,14.7,9.1,6.2,14.8,6.2,10.7-2.1,14.9-6.3c4-3.9,6-8.8,6-14.7s-2-10.8-6.1-14.8c-4-4-9-6.1-14.8-6.1Zm10.4,13.7c.4,0,.7.1,1,.4s.4.6.4,1v18.8c0,.4-.1.7-.4,1-.3.3-.6.4-1,.4h-13.9c-.4,0-.7-.1-1-.4s-.4-.6-.4-1v-5.6h-5.6c-.4,0-.7-.1-1-.4s-.4-.6-.4-1v-18.8c0-.4.1-.7.4-.9.2-.3.5-.4.9-.5h14c.4,0,.7.1,1,.4.3.3.4.6.4,1v5.6h5.6Zm-19.5,11.9h4.2v-10.5c0-.4.1-.7.4-.9.2-.3.5-.4.9-.5h5.7v-4.2h-11.2v16.1Zm18.2-9.1h-11.2v16h11.2v-16Z"/>
    </g>
  </g>
  <text class="cls-5" transform="translate(15.76 92.81)"><tspan x="0" y="0">partage</tspan></text>
  <g id="g421">
    <g id="g21313">
      <circle id="circle21315" class="cls-3" cx="37.73" cy="124.8" r="23.1"/>
      <g id="g21317">
        <path id="path21319" d="m37.43,99.6c7.2,0,13.2,2.5,18.2,7.5,5,4.9,7.5,11,7.5,18.1s-2.4,13.2-7.3,18c-5.1,5.1-11.3,7.6-18.3,7.6s-12.9-2.5-18-7.5c-5-5-7.5-11-7.5-18.1s2.5-13,7.5-18.1c4.8-5,10.8-7.5,17.9-7.5Zm.1,4.6c-5.8,0-10.7,2.1-14.8,6.2-4.2,4.2-6.3,9.2-6.3,14.8s2.1,10.6,6.2,14.7,9.1,6.2,14.8,6.2,10.7-2.1,14.9-6.3c4-3.9,6-8.8,6-14.7s-2-10.8-6.1-14.8c-4-4-8.9-6.1-14.7-6.1Zm16.7,21.5l.5.2v7.2l-.5.2-6.2,2.7-.3.1-.3-.1-13.4-5.5-.5-.2-6.6,2.7-6.5-2.8v-6.6l6.1-2.6h0v-7.2l6.9-3.1,15.7,6.5v6.4l5.1,2.1Zm-7.3,8.4v-4.6h0v-.1l-11.8-4.8v4.7l11.8,4.8h0Zm.8-6l4.1-1.7-3.8-1.6-4,1.7,3.7,1.6Zm5.4,4v-4.4l-4.6,1.9v4.4l4.6-1.9Z"/>
      </g>
    </g>
    <text class="cls-5" transform="translate(14.46 162.99)"><tspan x="0" y="0">modifier</tspan></text>
  </g>
  <circle id="circle6147" class="cls-3" cx="41.68" cy="195.89" r="23.1"/>
  <text class="cls-5" transform="translate(6.14 235.63)"><tspan x="0" y="0">commercial</tspan></text>
  <g id="g21365">
    <path id="path21353" d="m36.83,171.04c-13.8.4-25,11.7-25,25.6s11.5,25.6,25.6,25.6,25.6-11.4,25.6-25.6-11.4-25.6-25.6-25.6h-.6m0,4.4h.7c11.7,0,21.2,9.5,21.2,21.2s-9.6,21.2-21.3,21.2-21.2-9.5-21.2-21.2,9.2-20.8,20.6-21.2"/>
    <path id="path21355" d="m32.33,202.04c1.6,2.3,6.7,2.5,8.4,1.5.6-.4.8-1.4.8-2.1,0-.5-.1-.9-.4-1.1-.3-.3-1-1-1.7-1.2-4-1-6.8-2.3-7.9-3.3-1.4-1.2-1.6-1.9-1.6-4s.6-3.8,1.9-5,3.3-1.8,5.8-1.8,5.8.6,7.5,2.6l-2.8,3c-1.6-1.3-2.7-1.4-4.6-1.4-1.2,0-1.8.2-2.3.5s-.8.8-.8,1.3.2.9.7,1.2c.5.3,1.7.8,4.1,1.5,2.7.7,4.6,1.6,5.6,2.7s1.4,2.5,1.4,4.2c0,2.1-.7,3.9-2.2,5.3-1.5,1.4-3.3,2.5-5.9,2.5-3.4,0-7.9-1.2-9.1-3.4"/>
    <path id="path21357" d="m36.13,181.34v5.5h2.6v-5.5h-2.6m0,25.7v4.9h2.6v-4.9h-2.6"/>
  </g>
  <g id="g21384">
    <g id="g21386">
      <circle id="circle21388" class="cls-3" cx="39.15" cy="289.34" r="23.8"/>
      <g id="g21390">
        <path id="path21392" d="m38.75,263.44c7.2,0,13.2,2.5,18.2,7.5,5,4.9,7.5,11,7.5,18.1s-2.4,13.2-7.3,18c-5.1,5.1-11.3,7.6-18.3,7.6s-12.9-2.5-18-7.5c-5-5-7.5-11-7.5-18.1s2.5-13,7.5-18.1c4.8-5,10.8-7.5,17.9-7.5Zm.1,4.6c-5.8,0-10.7,2.1-14.8,6.2-4.2,4.2-6.3,9.2-6.3,14.8s2.1,10.6,6.2,14.7c4.1,4.1,9.1,6.2,14.8,6.2s10.7-2.1,14.9-6.3c4-3.9,6-8.8,6-14.7s-2-10.8-6.1-14.8c-4-4-8.9-6.1-14.7-6.1Zm10.4,13.7c.4,0,.7.1,1,.4.3.3.4.6.4,1v18.8c0,.4-.1.7-.4,1-.3.3-.6.4-1,.4h-14c-.4,0-.7-.1-1-.4s-.4-.6-.4-1v-5.6h-5.6c-.4,0-.7-.1-1-.4-.3-.3-.4-.6-.4-1v-18.8c0-.4.1-.7.4-.9.2-.3.5-.4.9-.5h14c.4,0,.7.1,1,.4.3.3.4.6.4,1v5.6h5.7Zm-19.6,11.9h4.2v-10.5c0-.4.1-.7.4-.9.2-.3.5-.4.9-.5h5.8v-4.2h-11.3v16.1Zm18.2-9.1h-11.2v16h11.2v-16Z"/>
      </g>
    </g>
    <text class="cls-5" transform="translate(20.37 328.1)"><tspan x="0" y="0">partage</tspan></text>
  </g>
  <g id="g21398">
    <g id="g21400">
      <circle id="circle21402" class="cls-3" cx="41.59" cy="360.71" r="23.1"/>
      <g id="g21404">
        <path id="path21406" d="m41.29,335.51c7.2,0,13.2,2.5,18.2,7.5,5,4.9,7.5,11,7.5,18.1s-2.4,13.2-7.3,18c-5.1,5.1-11.3,7.6-18.3,7.6s-12.9-2.5-18-7.5c-5-5-7.5-11-7.5-18.1s2.5-13,7.5-18.1c4.9-5,10.9-7.5,17.9-7.5Zm.1,4.6c-5.8,0-10.7,2.1-14.8,6.2-4.2,4.2-6.3,9.2-6.3,14.8s2.1,10.6,6.2,14.7,9.1,6.2,14.8,6.2,10.7-2.1,14.9-6.3c4-3.9,6-8.8,6-14.7s-2-10.8-6.1-14.8c-3.9-4-8.9-6.1-14.7-6.1Zm16.7,21.5l.5.2v7.2l-.5.2-6.2,2.7-.3.1-.3-.1-13.4-5.5-.5-.2-6.6,2.7-6.5-2.8v-6.6l6.1-2.6h0v-7.2l6.9-3.1,15.7,6.5v6.4l5.1,2.1Zm-7.3,8.4v-4.5h0v-.2l-11.7-4.8v4.7l11.7,4.8h0Zm.8-6l4.1-1.7-3.8-1.6-4,1.7,3.7,1.6Zm5.4,4v-4.4l-4.6,1.9v4.5l4.6-2Z"/>
      </g>
    </g>
    <text class="cls-5" transform="translate(18.56 400.87)"><tspan x="0" y="0">modifier</tspan></text>
  </g>
  <g id="g5280">
    <circle id="circle5271" class="cls-3" cx="114.13" cy="35.4" r="23.1"/>
    <path id="path20694" d="m113.93,9.9c-14.1,0-25.6,11.5-25.6,25.6s11.5,25.6,25.6,25.6,25.6-11.5,25.6-25.6c0-14.2-11.5-25.6-25.6-25.6Zm0,46.4c-11.5,0-20.8-9.3-20.8-20.8,0-2.4.4-4.7,1.2-6.9l8.1,3.6c-.2,1.1-.3,2.2-.3,3.4,0,10.2,7.6,13.1,12.4,13.1,2.8,0,5.3-.9,7.2-2.3.4-.3.7-.5,1-.8l-3.7-4.5c-.1.1-.2.2-.3.4-1.5,1.4-3,1.4-3.4,1.4-3.9,0-5.5-4.1-5.6-7.4l22.4,10h.1c-3.6,6.4-10.5,10.8-18.3,10.8h0Zm20-15.5l-23.1-10.3c.8-1.5,2.2-2.6,4.1-2.6,1.2,0,2.1.4,2.8.9.3.2.6.4.8.6l4.2-4.3c-2.8-2.4-6-2.8-8.1-2.8-4.9,0-8.4,2.1-10.4,5.3l-7.7-3.4c3.7-5.7,10.1-9.4,17.4-9.4,11.5,0,20.8,9.3,20.8,20.8,0,1.7-.3,3.5-.8,5.2q.1,0,0,0h0Z"/>
    <text class="cls-5" transform="translate(105.38 70.78)"><tspan x="0" y="0">D</tspan><tspan class="cls-1" x="8.74" y="0">P</tspan></text>
  </g>
  <g id="g21521">
    <circle id="circle21507" class="cls-3" cx="110.02" cy="581.02" r="23.2"/>
    <g id="g21509">
      <path id="path21511" d="m109.92,555.42c7.2,0,13.3,2.5,18.3,7.5,2.4,2.4,4.2,5.2,5.5,8.3,1.3,3.1,1.9,6.4,1.9,9.9s-.6,6.8-1.9,9.9c-1.2,3.1-3.1,5.8-5.5,8.1-2.5,2.5-5.3,4.4-8.5,5.7-3.2,1.3-6.4,2-9.8,2s-6.6-.6-9.7-1.9c-3.1-1.3-5.9-3.2-8.3-5.6-2.5-2.5-4.3-5.2-5.6-8.3-1.3-3.1-1.9-6.3-1.9-9.7s.6-6.6,1.9-9.8c1.3-3.1,3.2-5.9,5.6-8.4,5-5.2,10.9-7.7,18-7.7Zm.1,4.7c-5.9,0-10.8,2-14.8,6.1-2,2-3.6,4.3-4.6,6.9-1.1,2.5-1.6,5.2-1.6,8s.5,5.4,1.6,7.9,2.6,4.8,4.6,6.8,4.3,3.5,6.8,4.6,5.2,1.6,8,1.6,5.4-.5,8-1.6,4.9-2.6,7-4.6c4-3.9,6-8.8,6-14.7,0-2.8-.5-5.5-1.6-8-1-2.5-2.5-4.8-4.5-6.8-4.1-4.2-9.1-6.2-14.9-6.2Z"/>
      <path id="path21513" d="m117.72,587.12l-.7-.4c-1.6,1.7-3.8,2.8-6.3,2.8-4.7,0-8.5-3.8-8.5-8.5s3.8-8.5,8.5-8.5c2.5,0,4.7,1.1,6.3,2.8l.7-.4,4.6-2.8c-2.7-3.4-6.8-5.6-11.5-5.6-8.1,0-14.6,6.5-14.6,14.6s6.5,14.6,14.6,14.6c4.7,0,8.8-2.2,11.5-5.6l-4.6-3Z"/>
    </g>
  </g>
  <text class="cls-8" transform="translate(36.48 615.68)"><tspan x="0" y="0">tous droits</tspan></text>
  <text class="cls-8" transform="translate(36.65 630.68)"><tspan x="0" y="0">réservés</tspan></text>
</svg>