<?xml version="1.0" encoding="UTF-8"?>
<svg id="Calque_1" data-name="Calque 1" xmlns="http://www.w3.org/2000/svg" viewBox="0 0 130.91 103.76">
  <defs>
    <style>
      .cls-1 {
        fill: #1a4da1;
      }

      .cls-2 {
        fill: none;
        stroke: #ff6f66;
        stroke-linecap: round;
        stroke-linejoin: round;
        stroke-width: 7px;
      }
    </style>
  </defs>
  <g id="SVGRepo_bgCarrier" data-name="SVGRepo bgCarrier">
    <path class="cls-1" d="m63.46,96.31c9.85-2.38,17.49-8.3,26.61-12.72,13.96-6.78,37.37-4.68,40.53-19.87,3.12-15.03-18.33-22.99-29.41-33.62-7.23-6.94-14.4-13.1-23.54-17.2-9.99-4.48-20.11-8.21-31.03-7.28-14.5,1.24-31.3,1.81-40.18,13.34C-2.73,30.88-.31,47.86,2.77,62.58c2.99,14.27,7.83,30.02,20.58,37.11,12.09,6.72,26.67-.13,40.12-3.37"/>
  </g>
  <g id="SVGRepo_iconCarrier" data-name="SVGRepo iconCarrier">
    <path class="cls-2" d="m97.33,71.23V25.27c0-5.32-4.35-9.68-9.68-9.68h-26.61"/>
    <path class="cls-2" d="m73.14,3.5l-14.51,12.09,14.51,12.09"/>
    <path class="cls-2" d="m97.33,100.26c8.02,0,14.51-6.5,14.51-14.51s-6.5-14.51-14.51-14.51-14.51,6.5-14.51,14.51,6.5,14.51,14.51,14.51Z"/>
    <path class="cls-2" d="m29.6,32.53v45.96c0,5.32,4.35,9.68,9.68,9.68h26.61"/>
    <path class="cls-2" d="m53.79,100.26l14.51-12.09-14.51-12.09"/>
    <path class="cls-2" d="m29.6,32.53c8.02,0,14.51-6.5,14.51-14.51s-6.5-14.51-14.51-14.51-14.51,6.5-14.51,14.51,6.5,14.51,14.51,14.51Z"/>
  </g>
</svg>