<?xml version="1.0" encoding="UTF-8"?><svg id="Calque_1" xmlns="http://www.w3.org/2000/svg" viewBox="0 0 600 600"><defs><style>.cls-1{font-family:SpaceGrotesk-Regular, 'Space Grotesk';}.cls-1,.cls-2{font-size:20px;}.cls-3{letter-spacing:-.02em;}.cls-2,.cls-4{font-family:SpaceGrotesk-Bold, 'Space Grotesk';}.cls-5{letter-spacing:-.01em;}.cls-6{letter-spacing:-.02em;}.cls-7{fill:none;stroke:#0077b4;stroke-miterlimit:10;stroke-width:5px;}.cls-8{letter-spacing:-.04em;}.cls-9{letter-spacing:-.02em;}.cls-10{letter-spacing:-.01em;}.cls-11{letter-spacing:0em;}.cls-12{letter-spacing:0em;}.cls-4{font-size:30px;}.cls-13{letter-spacing:0em;}.cls-14{letter-spacing:-.03em;}.cls-15{letter-spacing:-.03em;}.cls-16{letter-spacing:-.03em;}.cls-17{letter-spacing:-.02em;}.cls-18{letter-spacing:-.01em;}</style></defs><g><path d="M156.95,317.19v-.38h1.64v.36c0,2.04,1.4,3.3,3.52,3.3s3.38-1.24,3.38-2.92v-.16c0-1.82-1.46-2.6-3.28-2.6h-2.28v-2.02l5.34-3.42v-.24h-7.98v-1.46h9.7v2.26l-5.22,3.36v.24h1c2.36,0,4.34,1.28,4.34,3.84v.22c0,2.64-1.98,4.36-5,4.36s-5.16-1.74-5.16-4.74Z"/><path d="M169.29,320.57c0-.8,.58-1.36,1.36-1.36s1.36,.56,1.36,1.36-.58,1.36-1.36,1.36-1.36-.56-1.36-1.36Z"/><path d="M179.17,316.97v-9.32h1.68v9.34c0,2.28,1.26,3.44,3.48,3.44s3.5-1.16,3.5-3.44v-9.34h1.68v9.32c0,3.26-2.04,4.96-5.18,4.96s-5.16-1.7-5.16-4.96Z"/><path d="M192.65,311.87h1.54v1.66h.28c.42-.94,1.36-1.84,3.36-1.84,2.16,0,3.88,1.42,3.88,4.04v5.92h-1.58v-5.8c0-1.94-1.06-2.78-2.7-2.78-1.88,0-3.2,1.24-3.2,3.66v4.92h-1.58v-9.78Z"/><path d="M157.71,335.87h1.54v1.22h.28c.38-.7,1.18-1.4,2.72-1.4s2.44,.76,2.88,1.72h.28c.44-.96,1.3-1.72,2.96-1.72,1.94,0,3.32,1.26,3.32,3.34v6.62h-1.58v-6.48c0-1.3-.8-2.12-2.16-2.12-1.44,0-2.46,.96-2.46,2.72v5.88h-1.58v-6.48c0-1.3-.8-2.12-2.16-2.12-1.44,0-2.46,.96-2.46,2.72v5.88h-1.58v-9.78Z"/><path d="M174.43,340.89v-.26c0-3.06,2.04-5.04,5-5.04s5,1.98,5,5.04v.26c0,3.06-2.04,5.04-5,5.04s-5-1.98-5-5.04Zm8.42-.04v-.18c0-2.24-1.36-3.66-3.42-3.66s-3.42,1.42-3.42,3.66v.18c0,2.24,1.36,3.66,3.42,3.66s3.42-1.42,3.42-3.66Z"/><path d="M186.79,340.89v-.26c0-3.12,2.06-5.04,4.62-5.04,2.04,0,3.06,.92,3.56,1.82h.28v-5.76h1.58v14h-1.54v-1.62h-.28c-.54,.98-1.56,1.9-3.6,1.9-2.54,0-4.62-1.9-4.62-5.04Zm8.46-.04v-.18c0-2.32-1.4-3.68-3.42-3.68s-3.44,1.36-3.44,3.68v.18c0,2.32,1.42,3.68,3.44,3.68s3.42-1.36,3.42-3.68Z"/><path d="M200.03,341.79v-5.92h1.58v5.8c0,1.94,1.04,2.78,2.7,2.78,1.86,0,3.2-1.24,3.2-3.66v-4.92h1.58v9.78h-1.54v-1.66h-.28c-.44,.94-1.38,1.84-3.38,1.84-2.16,0-3.86-1.42-3.86-4.04Z"/><path d="M212.39,331.65h1.58v14h-1.58v-14Z"/><path d="M216.81,340.89v-.24c0-3.02,2-5.06,4.86-5.06s4.7,1.88,4.7,4.86v.72h-7.96c.06,2.1,1.46,3.36,3.4,3.36,1.68,0,2.5-.88,2.98-1.96l1.36,.66c-.6,1.24-1.76,2.7-4.38,2.7-2.98,0-4.96-2.02-4.96-5.04Zm7.96-1.02c-.12-1.82-1.34-2.88-3.1-2.88s-3,1.06-3.24,2.88h6.34Z"/><path d="M228.83,347.15h.58c.5,0,.72-.22,.72-.72v-.64h-.28c-.78,0-1.36-.52-1.36-1.26s.58-1.3,1.36-1.3,1.34,.56,1.34,1.34v1.86c0,1.16-.56,1.72-1.72,1.72h-.64v-1Z"/><path d="M157.59,365.79v-5.92h1.58v5.8c0,1.94,1.04,2.78,2.7,2.78,1.86,0,3.2-1.24,3.2-3.66v-4.92h1.58v9.78h-1.54v-1.66h-.28c-.44,.94-1.38,1.84-3.38,1.84-2.16,0-3.86-1.42-3.86-4.04Z"/><path d="M169.95,359.87h1.54v1.66h.28c.42-.94,1.36-1.84,3.36-1.84,2.16,0,3.88,1.42,3.88,4.04v5.92h-1.58v-5.8c0-1.94-1.06-2.78-2.7-2.78-1.88,0-3.2,1.24-3.2,3.66v4.92h-1.58v-9.78Z"/><path d="M186.87,364.89v-.26c0-3.06,2.04-5.04,5-5.04s5,1.98,5,5.04v.26c0,3.06-2.04,5.04-5,5.04s-5-1.98-5-5.04Zm8.42-.04v-.18c0-2.24-1.36-3.66-3.42-3.66s-3.42,1.42-3.42,3.66v.18c0,2.24,1.36,3.66,3.42,3.66s3.42-1.42,3.42-3.66Z"/><path d="M201.53,368.03h-.28v1.62h-1.54v-14h1.58v5.76h.28c.48-.9,1.52-1.82,3.56-1.82,2.56,0,4.62,1.92,4.62,5.04v.26c0,3.14-2.08,5.04-4.62,5.04-2.04,0-3.08-.92-3.6-1.9Zm6.6-3.18v-.18c0-2.32-1.4-3.68-3.42-3.68s-3.44,1.36-3.44,3.68v.18c0,2.32,1.42,3.68,3.44,3.68s3.42-1.36,3.42-3.68Z"/><path d="M210.67,372.25h1.36c.42,0,.6-.2,.6-.6v-11.78h1.58v12.06c0,1.06-.62,1.72-1.74,1.72h-1.8v-1.4Zm1.54-15.1c0-.72,.52-1.22,1.2-1.22s1.22,.5,1.22,1.22-.52,1.2-1.22,1.2-1.2-.5-1.2-1.2Z"/><path d="M217.05,364.89v-.24c0-3.02,2-5.06,4.86-5.06s4.7,1.88,4.7,4.86v.72h-7.96c.06,2.1,1.46,3.36,3.4,3.36,1.68,0,2.5-.88,2.98-1.96l1.36,.66c-.6,1.24-1.76,2.7-4.38,2.7-2.98,0-4.96-2.02-4.96-5.04Zm7.96-1.02c-.12-1.82-1.34-2.88-3.1-2.88s-3,1.06-3.24,2.88h6.34Z"/><path d="M228.89,364.87v-.22c0-3.14,2.12-5.06,4.98-5.06s4.36,1.76,4.68,3.74l-1.54,.32c-.2-1.44-1.18-2.64-3.12-2.64s-3.42,1.38-3.42,3.66v.18c0,2.28,1.48,3.66,3.42,3.66s2.94-1.14,3.18-2.64l1.56,.34c-.42,1.96-1.94,3.72-4.76,3.72s-4.98-1.92-4.98-5.06Z"/><path d="M242.79,367.93v-6.68h-2.94v-1.38h2.94v-3.48h1.58v3.48h3.2v1.38h-3.2v6.42c0,.4,.16,.6,.58,.6h2.18v1.38h-2.6c-1.12,0-1.74-.66-1.74-1.72Z"/><path d="M249.71,357.15c0-.72,.52-1.22,1.2-1.22s1.22,.5,1.22,1.22-.52,1.2-1.22,1.2-1.2-.5-1.2-1.2Zm.42,2.72h1.58v9.78h-1.58v-9.78Z"/><path d="M256.95,361.25h-3v-1.38h3v-2.5c0-1.06,.62-1.72,1.74-1.72h2.46v1.36h-2.02c-.42,0-.6,.2-.6,.6v2.26h3.08v1.38h-3.08v8.4h-1.58v-8.4Z"/><path d="M157.23,388.89v-.26c0-3.12,2.06-5.04,4.62-5.04,2.04,0,3.06,.92,3.56,1.82h.28v-5.76h1.58v14h-1.54v-1.62h-.28c-.54,.98-1.56,1.9-3.6,1.9-2.54,0-4.62-1.9-4.62-5.04Zm8.46-.04v-.18c0-2.32-1.4-3.68-3.42-3.68s-3.44,1.36-3.44,3.68v.18c0,2.32,1.42,3.68,3.44,3.68s3.42-1.36,3.42-3.68Z"/><path d="M170.43,383.31h.58c.5,0,.72-.22,.72-.72v-.64h-.28c-.78,0-1.36-.54-1.36-1.28s.58-1.3,1.36-1.3,1.34,.56,1.34,1.36v1.84c0,1.16-.56,1.72-1.72,1.72h-.64v-.98Z"/><path d="M174.51,390.87c0-1.98,1.58-2.96,3.68-2.96h3.3v-.72c0-1.38-.8-2.24-2.42-2.24s-2.44,.84-2.74,2.1l-1.48-.48c.46-1.64,1.78-2.98,4.24-2.98s3.96,1.36,3.96,3.7v4.42c0,.4,.2,.6,.56,.6h.9v1.34h-1.38c-.88,0-1.46-.52-1.46-1.36v-.1h-.24c-.42,.78-1.24,1.74-3.26,1.74s-3.66-1.1-3.66-3.06Zm6.98-1.46v-.22h-3.24c-1.26,0-2.16,.54-2.16,1.64s.9,1.74,2.26,1.74c1.88,0,3.14-1.16,3.14-3.16Z"/><path d="M186.67,383.87h1.54v1.62h.28c.52-.98,1.56-1.9,3.6-1.9,2.54,0,4.62,1.9,4.62,5.04v.26c0,3.12-2.06,5.04-4.62,5.04-2.04,0-3.08-.92-3.56-1.82h-.28v5.54h-1.58v-13.78Zm8.42,4.98v-.18c0-2.32-1.42-3.68-3.42-3.68s-3.44,1.36-3.44,3.68v.18c0,2.32,1.42,3.68,3.44,3.68s3.42-1.36,3.42-3.68Z"/><path d="M199.55,383.87h1.54v1.62h.28c.52-.98,1.56-1.9,3.6-1.9,2.54,0,4.62,1.9,4.62,5.04v.26c0,3.12-2.06,5.04-4.62,5.04-2.04,0-3.08-.92-3.56-1.82h-.28v5.54h-1.58v-13.78Zm8.42,4.98v-.18c0-2.32-1.42-3.68-3.42-3.68s-3.44,1.36-3.44,3.68v.18c0,2.32,1.42,3.68,3.44,3.68s3.42-1.36,3.42-3.68Z"/><path d="M212.43,383.87h1.54v1.2h.28c.34-.86,1.04-1.24,2.22-1.24h1.16v1.44h-1.26c-1.42,0-2.36,.78-2.36,2.42v5.96h-1.58v-9.78Z"/><path d="M219.13,388.89v-.24c0-3.02,2-5.06,4.86-5.06s4.7,1.88,4.7,4.86v.72h-7.96c.06,2.1,1.46,3.36,3.4,3.36,1.68,0,2.5-.88,2.98-1.96l1.36,.66c-.6,1.24-1.76,2.7-4.38,2.7-2.98,0-4.96-2.02-4.96-5.04Zm7.96-1.02c-.12-1.82-1.34-2.88-3.1-2.88s-3,1.06-3.24,2.88h6.34Z"/><path d="M231.45,383.87h1.54v1.66h.28c.42-.94,1.36-1.84,3.36-1.84,2.16,0,3.88,1.42,3.88,4.04v5.92h-1.58v-5.8c0-1.94-1.06-2.78-2.7-2.78-1.88,0-3.2,1.24-3.2,3.66v4.92h-1.58v-9.78Z"/><path d="M243.63,387.77h5.92v1.46h-5.92v-1.46Z"/><path d="M159.57,415.93v-6.68h-2.94v-1.38h2.94v-3.48h1.58v3.48h3.2v1.38h-3.2v6.42c0,.4,.16,.6,.58,.6h2.18v1.38h-2.6c-1.12,0-1.74-.66-1.74-1.72Z"/><path d="M166.49,405.15c0-.72,.52-1.22,1.2-1.22s1.22,.5,1.22,1.22-.52,1.2-1.22,1.2-1.2-.5-1.2-1.2Zm.42,2.72h1.58v9.78h-1.58v-9.78Z"/><path d="M171.17,414.43l1.5-.34c.28,1.92,1.6,2.52,3.08,2.52s2.38-.62,2.38-1.62-.86-1.32-2.28-1.58l-.82-.14c-1.92-.34-3.42-1.12-3.42-2.88s1.48-2.8,3.72-2.8,3.62,1.04,4.02,2.86l-1.48,.38c-.24-1.4-1.22-1.92-2.54-1.92s-2.16,.52-2.16,1.46,.78,1.3,2.02,1.52l.82,.14c2.06,.36,3.68,1,3.68,2.9s-1.54,3-3.94,3-4.24-1.08-4.58-3.5Z"/><path d="M181.71,414.43l1.5-.34c.28,1.92,1.6,2.52,3.08,2.52s2.38-.62,2.38-1.62-.86-1.32-2.28-1.58l-.82-.14c-1.92-.34-3.42-1.12-3.42-2.88s1.48-2.8,3.72-2.8,3.62,1.04,4.02,2.86l-1.48,.38c-.24-1.4-1.22-1.92-2.54-1.92s-2.16,.52-2.16,1.46,.78,1.3,2.02,1.52l.82,.14c2.06,.36,3.68,1,3.68,2.9s-1.54,3-3.94,3-4.24-1.08-4.58-3.5Z"/><path d="M192.15,414.87c0-1.98,1.58-2.96,3.68-2.96h3.3v-.72c0-1.38-.8-2.24-2.42-2.24s-2.44,.84-2.74,2.1l-1.48-.48c.46-1.64,1.78-2.98,4.24-2.98s3.96,1.36,3.96,3.7v4.42c0,.4,.2,.6,.56,.6h.9v1.34h-1.38c-.88,0-1.46-.52-1.46-1.36v-.1h-.24c-.42,.78-1.24,1.74-3.26,1.74s-3.66-1.1-3.66-3.06Zm6.98-1.46v-.22h-3.24c-1.26,0-2.16,.54-2.16,1.64s.9,1.74,2.26,1.74c1.88,0,3.14-1.16,3.14-3.16Z"/><path d="M203.55,412.53c0-3.06,2.06-4.94,4.62-4.94,2.06,0,3.08,.94,3.6,1.9h.28v-1.62h1.5v12.06c0,1.06-.6,1.72-1.72,1.72h-6.64v-1.4h6.22c.4,0,.6-.2,.6-.6v-3.72h-.28c-.48,.88-1.5,1.82-3.56,1.82-2.56,0-4.62-1.88-4.62-4.94v-.28Zm8.46,.22v-.16c0-2.26-1.4-3.6-3.42-3.6s-3.44,1.34-3.44,3.6v.16c0,2.26,1.42,3.6,3.44,3.6s3.42-1.34,3.42-3.6Z"/><path d="M216.39,412.89v-.24c0-3.02,2-5.06,4.86-5.06s4.7,1.88,4.7,4.86v.72h-7.96c.06,2.1,1.46,3.36,3.4,3.36,1.68,0,2.5-.88,2.98-1.96l1.36,.66c-.6,1.24-1.76,2.7-4.38,2.7-2.98,0-4.96-2.02-4.96-5.04Zm7.96-1.02c-.12-1.82-1.34-2.88-3.1-2.88s-3,1.06-3.24,2.88h6.34Z"/></g><text class="cls-1" transform="translate(300.3 277.6)"><tspan x="0" y="0">Délimi</tspan><tspan class="cls-3" x="57" y="0">t</tspan><tspan x="65.84" y="0">er un </tspan><tspan x="0" y="24">thème p</tspan><tspan class="cls-3" x="80.36" y="24">r</tspan><tspan x="87.54" y="24">écis </tspan><tspan x="0" y="48">pour ch</tspan><tspan class="cls-10" x="74.38" y="48">a</tspan><tspan x="85.6" y="48">que </tspan><tspan x="0" y="72">modul</tspan><tspan class="cls-12" x="59.58" y="72">e</tspan><tspan class="cls-14" x="71.28" y="72">.</tspan><tspan x="0" y="96">Visualiser la </tspan><tspan class="cls-6" x="0" y="120">f</tspan><tspan x="8.36" y="120">orm</tspan><tspan class="cls-16" x="45.46" y="120">a</tspan><tspan x="56.32" y="120">tion dans </tspan><tspan x="0" y="144">son ensemble </tspan><tspan x="0" y="168">g</tspan><tspan class="cls-17" x="12.84" y="168">r</tspan><tspan class="cls-10" x="20.04" y="168">â</tspan><tspan x="31.26" y="168">ce </tspan><tspan class="cls-18" x="60.2" y="168">a</tspan><tspan x="71.44" y="168">u scéna</tspan><tspan x="146.92" y="168">-</tspan><tspan x="0" y="192">rio péd</tspan><tspan class="cls-10" x="67.54" y="192">a</tspan><tspan x="78.76" y="192">gogiqu</tspan><tspan class="cls-12" x="146.82" y="192">e</tspan><tspan class="cls-15" x="158.52" y="192">.</tspan></text><text class="cls-2" transform="translate(177.88 98.44)"><tspan class="cls-5" x="0" y="0">T</tspan><tspan x="11.52" y="0">it</tspan><tspan class="cls-3" x="25.96" y="0">r</tspan><tspan x="33.52" y="0">e du </tspan><tspan class="cls-13" x="0" y="24">n</tspan><tspan x="12.16" y="24">ugg</tspan><tspan class="cls-9" x="50" y="24">e</tspan><tspan x="61.22" y="24">t</tspan></text><g><path d="M15.9,321.32v-3.2c0-3.7,2.14-5.68,5.46-5.68s5.14,1.98,5.14,5.16v.1h-1.66v-.16c0-2.1-1.1-3.6-3.48-3.6s-3.78,1.54-3.78,4.14v3.28c0,2.6,1.4,4.14,3.78,4.14s3.48-1.5,3.48-3.6v-.32h1.66v.26c0,3.18-1.84,5.16-5.14,5.16s-5.46-1.98-5.46-5.68Z"/><path d="M28.72,321.96v-.26c0-3.06,2.04-5.04,5-5.04s5,1.98,5,5.04v.26c0,3.06-2.04,5.04-5,5.04s-5-1.98-5-5.04Zm8.42-.04v-.18c0-2.24-1.36-3.66-3.42-3.66s-3.42,1.42-3.42,3.66v.18c0,2.24,1.36,3.66,3.42,3.66s3.42-1.42,3.42-3.66Z"/><path d="M41.56,316.94h1.54v1.66h.28c.42-.94,1.36-1.84,3.36-1.84,2.16,0,3.88,1.42,3.88,4.04v5.92h-1.58v-5.8c0-1.94-1.06-2.78-2.7-2.78-1.88,0-3.2,1.24-3.2,3.66v4.92h-1.58v-9.78Z"/><path d="M53.34,321.94v-.22c0-3.14,2.12-5.06,4.98-5.06s4.36,1.76,4.68,3.74l-1.54,.32c-.2-1.44-1.18-2.64-3.12-2.64s-3.42,1.38-3.42,3.66v.18c0,2.28,1.48,3.66,3.42,3.66s2.94-1.14,3.18-2.64l1.56,.34c-.42,1.96-1.94,3.72-4.76,3.72s-4.98-1.92-4.98-5.06Z"/><path d="M65.3,321.96v-.24c0-3.02,2-5.06,4.86-5.06s4.7,1.88,4.7,4.86v.72h-7.96c.06,2.1,1.46,3.36,3.4,3.36,1.68,0,2.5-.88,2.98-1.96l1.36,.66c-.6,1.24-1.76,2.7-4.38,2.7-2.98,0-4.96-2.02-4.96-5.04Zm7.96-1.02c-.12-1.82-1.34-2.88-3.1-2.88s-3,1.06-3.24,2.88h6.34Z"/><path d="M76.2,316.94h1.68l2.94,8.6h.28l2.94-8.6h1.68l-3.5,9.78h-2.52l-3.5-9.78Z"/><path d="M87.12,321.96v-.26c0-3.06,2.04-5.04,5-5.04s5,1.98,5,5.04v.26c0,3.06-2.04,5.04-5,5.04s-5-1.98-5-5.04Zm8.42-.04v-.18c0-2.24-1.36-3.66-3.42-3.66s-3.42,1.42-3.42,3.66v.18c0,2.24,1.36,3.66,3.42,3.66s3.42-1.42,3.42-3.66Z"/><path d="M99.54,314.22c0-.72,.52-1.22,1.2-1.22s1.22,.5,1.22,1.22-.52,1.2-1.22,1.2-1.2-.5-1.2-1.2Zm.42,2.72h1.58v9.78h-1.58v-9.78Z"/><path d="M104.86,316.94h1.54v1.2h.28c.34-.86,1.04-1.24,2.22-1.24h1.16v1.44h-1.26c-1.42,0-2.36,.78-2.36,2.42v5.96h-1.58v-9.78Z"/><path d="M16.24,346.86v-5.92h1.58v5.8c0,1.94,1.04,2.78,2.7,2.78,1.86,0,3.2-1.24,3.2-3.66v-4.92h1.58v9.78h-1.54v-1.66h-.28c-.44,.94-1.38,1.84-3.38,1.84-2.16,0-3.86-1.42-3.86-4.04Z"/><path d="M28.6,340.94h1.54v1.66h.28c.42-.94,1.36-1.84,3.36-1.84,2.16,0,3.88,1.42,3.88,4.04v5.92h-1.58v-5.8c0-1.94-1.06-2.78-2.7-2.78-1.88,0-3.2,1.24-3.2,3.66v4.92h-1.58v-9.78Z"/><path d="M40.38,345.96v-.24c0-3.02,2-5.06,4.86-5.06s4.7,1.88,4.7,4.86v.72h-7.96c.06,2.1,1.46,3.36,3.4,3.36,1.68,0,2.5-.88,2.98-1.96l1.36,.66c-.6,1.24-1.76,2.7-4.38,2.7-2.98,0-4.96-2.02-4.96-5.04Zm7.96-1.02c-.12-1.82-1.34-2.88-3.1-2.88s-3,1.06-3.24,2.88h6.34Z"/><path d="M18.28,366.32h-3v-1.38h3v-2.5c0-1.06,.62-1.72,1.74-1.72h2.46v1.36h-2.02c-.42,0-.6,.2-.6,.6v2.26h3.08v1.38h-3.08v8.4h-1.58v-8.4Z"/><path d="M24.24,369.96v-.26c0-3.06,2.04-5.04,5-5.04s5,1.98,5,5.04v.26c0,3.06-2.04,5.04-5,5.04s-5-1.98-5-5.04Zm8.42-.04v-.18c0-2.24-1.36-3.66-3.42-3.66s-3.42,1.42-3.42,3.66v.18c0,2.24,1.36,3.66,3.42,3.66s3.42-1.42,3.42-3.66Z"/><path d="M37.08,364.94h1.54v1.2h.28c.34-.86,1.04-1.24,2.22-1.24h1.16v1.44h-1.26c-1.42,0-2.36,.78-2.36,2.42v5.96h-1.58v-9.78Z"/><path d="M44.62,364.94h1.54v1.22h.28c.38-.7,1.18-1.4,2.72-1.4s2.44,.76,2.88,1.72h.28c.44-.96,1.3-1.72,2.96-1.72,1.94,0,3.32,1.26,3.32,3.34v6.62h-1.58v-6.48c0-1.3-.8-2.12-2.16-2.12-1.44,0-2.46,.96-2.46,2.72v5.88h-1.58v-6.48c0-1.3-.8-2.12-2.16-2.12-1.44,0-2.46,.96-2.46,2.72v5.88h-1.58v-9.78Z"/><path d="M61.16,371.94c0-1.98,1.58-2.96,3.68-2.96h3.3v-.72c0-1.38-.8-2.24-2.42-2.24s-2.44,.84-2.74,2.1l-1.48-.48c.46-1.64,1.78-2.98,4.24-2.98s3.96,1.36,3.96,3.7v4.42c0,.4,.2,.6,.56,.6h.9v1.34h-1.38c-.88,0-1.46-.52-1.46-1.36v-.1h-.24c-.42,.78-1.24,1.74-3.26,1.74s-3.66-1.1-3.66-3.06Zm6.98-1.46v-.22h-3.24c-1.26,0-2.16,.54-2.16,1.64s.9,1.74,2.26,1.74c1.88,0,3.14-1.16,3.14-3.16Z"/><path d="M74.54,373v-6.68h-2.94v-1.38h2.94v-3.48h1.58v3.48h3.2v1.38h-3.2v6.42c0,.4,.16,.6,.58,.6h2.18v1.38h-2.6c-1.12,0-1.74-.66-1.74-1.72Z"/><path d="M81.46,362.22c0-.72,.52-1.22,1.2-1.22s1.22,.5,1.22,1.22-.52,1.2-1.22,1.2-1.2-.5-1.2-1.2Zm.42,2.72h1.58v9.78h-1.58v-9.78Z"/><path d="M86.3,369.96v-.26c0-3.06,2.04-5.04,5-5.04s5,1.98,5,5.04v.26c0,3.06-2.04,5.04-5,5.04s-5-1.98-5-5.04Zm8.42-.04v-.18c0-2.24-1.36-3.66-3.42-3.66s-3.42,1.42-3.42,3.66v.18c0,2.24,1.36,3.66,3.42,3.66s3.42-1.42,3.42-3.66Z"/><path d="M99.14,364.94h1.54v1.66h.28c.42-.94,1.36-1.84,3.36-1.84,2.16,0,3.88,1.42,3.88,4.04v5.92h-1.58v-5.8c0-1.94-1.06-2.78-2.7-2.78-1.88,0-3.2,1.24-3.2,3.66v4.92h-1.58v-9.78Z"/><path d="M16.3,384.72h3.2l3.72,12.94h.26l3.72-12.94h3.2v14h-1.62v-12.9h-.28l-3.7,12.9h-2.9l-3.7-12.9h-.28v12.9h-1.62v-14Z"/><path d="M33.58,392.84h5.92v1.46h-5.92v-1.46Z"/><path d="M42.7,384.72h1.68v12.48h7.08v1.52h-8.76v-14Z"/><path d="M53.12,393.96v-.24c0-3.02,2-5.06,4.86-5.06s4.7,1.88,4.7,4.86v.72h-7.96c.06,2.1,1.46,3.36,3.4,3.36,1.68,0,2.5-.88,2.98-1.96l1.36,.66c-.6,1.24-1.76,2.7-4.38,2.7-2.98,0-4.96-2.02-4.96-5.04Zm7.96-1.02c-.12-1.82-1.34-2.88-3.1-2.88s-3,1.06-3.24,2.88h6.34Z"/><path d="M64.78,395.94c0-1.98,1.58-2.96,3.68-2.96h3.3v-.72c0-1.38-.8-2.24-2.42-2.24s-2.44,.84-2.74,2.1l-1.48-.48c.46-1.64,1.78-2.98,4.24-2.98s3.96,1.36,3.96,3.7v4.42c0,.4,.2,.6,.56,.6h.9v1.34h-1.38c-.88,0-1.46-.52-1.46-1.36v-.1h-.24c-.42,.78-1.24,1.74-3.26,1.74s-3.66-1.1-3.66-3.06Zm6.98-1.46v-.22h-3.24c-1.26,0-2.16,.54-2.16,1.64s.9,1.74,2.26,1.74c1.88,0,3.14-1.16,3.14-3.16Z"/><path d="M76.94,388.94h1.54v1.2h.28c.34-.86,1.04-1.24,2.22-1.24h1.16v1.44h-1.26c-1.42,0-2.36,.78-2.36,2.42v5.96h-1.58v-9.78Z"/><path d="M84.48,388.94h1.54v1.66h.28c.42-.94,1.36-1.84,3.36-1.84,2.16,0,3.88,1.42,3.88,4.04v5.92h-1.58v-5.8c0-1.94-1.06-2.78-2.7-2.78-1.88,0-3.2,1.24-3.2,3.66v4.92h-1.58v-9.78Z"/><path d="M96.32,386.22c0-.72,.52-1.22,1.2-1.22s1.22,.5,1.22,1.22-.52,1.2-1.22,1.2-1.2-.5-1.2-1.2Zm.42,2.72h1.58v9.78h-1.58v-9.78Z"/><path d="M101.64,388.94h1.54v1.66h.28c.42-.94,1.36-1.84,3.36-1.84,2.16,0,3.88,1.42,3.88,4.04v5.92h-1.58v-5.8c0-1.94-1.06-2.78-2.7-2.78-1.88,0-3.2,1.24-3.2,3.66v4.92h-1.58v-9.78Z"/><path d="M113.42,393.6c0-3.06,2.06-4.94,4.62-4.94,2.06,0,3.08,.94,3.6,1.9h.28v-1.62h1.5v12.06c0,1.06-.6,1.72-1.72,1.72h-6.64v-1.4h6.22c.4,0,.6-.2,.6-.6v-3.72h-.28c-.48,.88-1.5,1.82-3.56,1.82-2.56,0-4.62-1.88-4.62-4.94v-.28Zm8.46,.22v-.16c0-2.26-1.4-3.6-3.42-3.6s-3.44,1.34-3.44,3.6v.16c0,2.26,1.42,3.6,3.44,3.6s3.42-1.34,3.42-3.6Z"/></g><text class="cls-4" transform="translate(14.7 117.3)"><tspan x="0" y="0">Module</tspan></text><text/><g><path d="M304.4,92.26v-.32c0-3.2,2.24-5.08,5.2-5.08s5.2,1.88,5.2,5.08v.32c0,3.2-2.24,5.08-5.2,5.08s-5.2-1.88-5.2-5.08Zm7.88-.06v-.2c0-1.86-1.12-2.9-2.68-2.9s-2.68,1.04-2.68,2.9v.2c0,1.86,1.14,2.9,2.68,2.9s2.68-1.04,2.68-2.9Z"/><path d="M319.96,95.86h-.36v1.2h-2.48v-14h2.52v5.22h.36c.42-.7,1.28-1.42,3.08-1.42,2.4,0,4.48,1.84,4.48,5.08v.32c0,3.24-2.1,5.08-4.48,5.08-1.8,0-2.66-.72-3.12-1.48Zm5.08-3.66v-.2c0-1.92-1.16-2.94-2.72-2.94s-2.72,1.02-2.72,2.94v.2c0,1.92,1.18,2.94,2.72,2.94s2.72-1.02,2.72-2.94Z"/><path d="M328.04,98.9h1.32c.36,0,.56-.2,.56-.6v-11.16h2.52v11.68c0,1.36-.88,2.24-2.2,2.24h-2.2v-2.16Zm1.52-14.52c0-.96,.7-1.6,1.62-1.6s1.62,.64,1.62,1.6-.7,1.6-1.62,1.6-1.62-.64-1.62-1.6Z"/><path d="M334.75,92.22v-.24c0-3.12,2-5.12,4.96-5.12s4.82,2.08,4.82,5.12v.86h-7.22c.06,1.36,1.12,2.3,2.52,2.3s1.98-.72,2.32-1.48l2.06,1.08c-.56,1.06-1.74,2.6-4.46,2.6-2.98,0-5-2-5-5.12Zm7.22-1.26c-.12-1.14-.98-1.9-2.28-1.9s-2.18,.76-2.36,1.9h4.64Z"/><path d="M346.29,92.24v-.28c0-3.24,2.26-5.1,5.14-5.1s4.5,1.64,4.92,3.84l-2.44,.52c-.16-1.2-.9-2.12-2.42-2.12s-2.68,1.02-2.68,2.9v.2c0,1.88,1.16,2.9,2.68,2.9s2.26-.86,2.48-2.14l2.44,.58c-.52,2.14-2.14,3.8-4.98,3.8s-5.14-1.86-5.14-5.1Z"/><path d="M359.78,94.82v-5.6h-2.48v-2.08h2.48v-3.08h2.52v3.08h2.72v2.08h-2.72v5.16c0,.4,.2,.6,.56,.6h1.92v2.08h-2.8c-1.32,0-2.2-.88-2.2-2.24Z"/><path d="M366.93,84.38c0-.96,.7-1.6,1.62-1.6s1.62,.64,1.62,1.6-.7,1.6-1.62,1.6-1.62-.64-1.62-1.6Zm.36,2.76h2.52v9.92h-2.52v-9.92Z"/><path d="M374.26,89.22h-2.52v-2.08h2.52v-1.84c0-1.36,.88-2.24,2.2-2.24h2.6v2.08h-1.72c-.36,0-.56,.2-.56,.6v1.4h2.6v2.08h-2.6v7.84h-2.52v-7.84Z"/><path d="M304.4,116.26v-.32c0-3.24,2.08-5.08,4.48-5.08,1.8,0,2.66,.72,3.08,1.42h.36v-5.22h2.52v14h-2.48v-1.2h-.36c-.46,.76-1.32,1.48-3.12,1.48-2.38,0-4.48-1.84-4.48-5.08Zm7.96-.06v-.2c0-1.92-1.16-2.94-2.72-2.94s-2.72,1.02-2.72,2.94v.2c0,1.92,1.18,2.94,2.72,2.94s2.72-1.02,2.72-2.94Z"/><path d="M317.82,111.84h.78c.64,0,.92-.28,.92-.92v-.64h-.34c-1.08,0-1.86-.72-1.86-1.7,0-1.06,.78-1.8,1.86-1.8s1.86,.74,1.86,1.88v2.3c0,1.48-.76,2.24-2.24,2.24h-.98v-1.36Z"/><path d="M322.44,118.16c0-2.04,1.6-3.1,3.84-3.1h2.72v-.56c0-.92-.56-1.6-1.84-1.6s-1.82,.64-2,1.54l-2.32-.78c.48-1.5,1.78-2.8,4.36-2.8s4.24,1.34,4.24,3.82v3.7c0,.4,.2,.6,.56,.6h.8v2.08h-1.68c-.98,0-1.7-.52-1.7-1.32v-.02h-.38c-.18,.5-.8,1.62-2.88,1.62s-3.72-1.14-3.72-3.18Zm6.56-1.02v-.2h-2.54c-.94,0-1.5,.42-1.5,1.14s.56,1.22,1.64,1.22c1.4,0,2.4-.84,2.4-2.16Z"/><path d="M334.64,111.14h2.48v1.2h.36c.46-.76,1.32-1.48,3.12-1.48,2.38,0,4.48,1.84,4.48,5.08v.32c0,3.24-2.08,5.08-4.48,5.08-1.8,0-2.66-.72-3.08-1.42h-.36v5.14h-2.52v-13.92Zm7.92,5.06v-.2c0-1.92-1.18-2.94-2.72-2.94s-2.72,1.02-2.72,2.94v.2c0,1.92,1.16,2.94,2.72,2.94s2.72-1.02,2.72-2.94Z"/><path d="M347.4,111.14h2.48v1.2h.36c.46-.76,1.32-1.48,3.12-1.48,2.38,0,4.48,1.84,4.48,5.08v.32c0,3.24-2.08,5.08-4.48,5.08-1.8,0-2.66-.72-3.08-1.42h-.36v5.14h-2.52v-13.92Zm7.92,5.06v-.2c0-1.92-1.18-2.94-2.72-2.94s-2.72,1.02-2.72,2.94v.2c0,1.92,1.16,2.94,2.72,2.94s2.72-1.02,2.72-2.94Z"/><path d="M360.16,111.14h2.48v1.12h.36c.28-.8,1-1.16,1.92-1.16h1.2v2.24h-1.24c-1.28,0-2.2,.68-2.2,2.08v5.64h-2.52v-9.92Z"/><path d="M367.23,116.22v-.24c0-3.12,2-5.12,4.96-5.12s4.82,2.08,4.82,5.12v.86h-7.22c.06,1.36,1.12,2.3,2.52,2.3s1.98-.72,2.32-1.48l2.06,1.08c-.56,1.06-1.74,2.6-4.46,2.6-2.98,0-5-2-5-5.12Zm7.22-1.26c-.12-1.14-.98-1.9-2.28-1.9s-2.18,.76-2.36,1.9h4.64Z"/><path d="M379.25,111.14h2.48v1.3h.36c.32-.68,1.12-1.46,2.9-1.46,2.32,0,3.86,1.7,3.86,4.16v5.92h-2.52v-5.72c0-1.5-.76-2.24-2.12-2.24-1.54,0-2.44,1.08-2.44,2.92v5.04h-2.52v-9.92Z"/><path d="M392.9,118.82v-5.6h-2.48v-2.08h2.48v-3.08h2.52v3.08h2.72v2.08h-2.72v5.16c0,.4,.2,.6,.56,.6h1.92v2.08h-2.8c-1.32,0-2.2-.88-2.2-2.24Z"/><path d="M400.06,108.38c0-.96,.7-1.6,1.62-1.6s1.62,.64,1.62,1.6-.7,1.6-1.62,1.6-1.62-.64-1.62-1.6Zm.36,2.76h2.52v9.92h-2.52v-9.92Z"/><path d="M405.17,118.1l2.32-.6c.26,1.4,1.2,1.84,2.36,1.84s1.72-.46,1.72-1.08-.5-.9-1.68-1.12l-.56-.1c-2.08-.38-3.8-1.16-3.8-3.12s1.56-3.06,3.92-3.06c2.22,0,3.74,1.08,4.2,2.68l-2.34,.72c-.22-1.02-.9-1.4-1.86-1.4s-1.48,.36-1.48,.94c0,.64,.56,.9,1.48,1.06l.56,.1c2.24,.4,4,1.04,4,3.12s-1.64,3.26-4.16,3.26-4.34-1.16-4.68-3.24Z"/><path d="M415.65,118.1l2.32-.6c.26,1.4,1.2,1.84,2.36,1.84s1.72-.46,1.72-1.08-.5-.9-1.68-1.12l-.56-.1c-2.08-.38-3.8-1.16-3.8-3.12s1.56-3.06,3.92-3.06c2.22,0,3.74,1.08,4.2,2.68l-2.34,.72c-.22-1.02-.9-1.4-1.86-1.4s-1.48,.36-1.48,.94c0,.64,.56,.9,1.48,1.06l.56,.1c2.24,.4,4,1.04,4,3.12s-1.64,3.26-4.16,3.26-4.34-1.16-4.68-3.24Z"/><path d="M425.97,118.16c0-2.04,1.6-3.1,3.84-3.1h2.72v-.56c0-.92-.56-1.6-1.84-1.6s-1.82,.64-2,1.54l-2.32-.78c.48-1.5,1.78-2.8,4.36-2.8s4.24,1.34,4.24,3.82v3.7c0,.4,.2,.6,.56,.6h.8v2.08h-1.68c-.98,0-1.7-.52-1.7-1.32v-.02h-.38c-.18,.5-.8,1.62-2.88,1.62s-3.72-1.14-3.72-3.18Zm6.56-1.02v-.2h-2.54c-.94,0-1.5,.42-1.5,1.14s.56,1.22,1.64,1.22c1.4,0,2.4-.84,2.4-2.16Z"/><path d="M437.49,115.82c0-3.12,2.06-4.96,4.52-4.96,1.8,0,2.64,.8,3.08,1.48h.36v-1.2h2.48v11.68c0,1.36-.88,2.24-2.2,2.24h-6.64v-2.2h5.76c.36,0,.56-.2,.56-.6v-2.58h-.36c-.4,.66-1.22,1.42-3.04,1.42-2.44,0-4.52-1.84-4.52-4.96v-.32Zm7.96,.26v-.2c0-1.8-1.16-2.82-2.72-2.82s-2.72,1.02-2.72,2.82v.2c0,1.8,1.18,2.82,2.72,2.82s2.72-1.02,2.72-2.82Z"/><path d="M450.25,116.22v-.24c0-3.12,2-5.12,4.96-5.12s4.82,2.08,4.82,5.12v.86h-7.22c.06,1.36,1.12,2.3,2.52,2.3s1.98-.72,2.32-1.48l2.06,1.08c-.56,1.06-1.74,2.6-4.46,2.6-2.98,0-5-2-5-5.12Zm7.22-1.26c-.12-1.14-.98-1.9-2.28-1.9s-2.18,.76-2.36,1.9h4.64Z"/></g><g><path d="M483.09,334.47v-3.2c0-3.7,2.14-5.68,5.46-5.68s5.14,1.98,5.14,5.16v.1h-1.66v-.16c0-2.1-1.1-3.6-3.48-3.6s-3.78,1.54-3.78,4.14v3.28c0,2.6,1.4,4.14,3.78,4.14s3.48-1.5,3.48-3.6v-.32h1.66v.26c0,3.18-1.84,5.16-5.14,5.16s-5.46-1.98-5.46-5.68Z"/><path d="M495.91,335.11v-.26c0-3.06,2.04-5.04,5-5.04s5,1.98,5,5.04v.26c0,3.06-2.04,5.04-5,5.04s-5-1.98-5-5.04Zm8.42-.04v-.18c0-2.24-1.36-3.66-3.42-3.66s-3.42,1.42-3.42,3.66v.18c0,2.24,1.36,3.66,3.42,3.66s3.42-1.42,3.42-3.66Z"/><path d="M508.63,336.01v-5.92h1.58v5.8c0,1.94,1.04,2.78,2.7,2.78,1.86,0,3.2-1.24,3.2-3.66v-4.92h1.58v9.78h-1.54v-1.66h-.28c-.44,.94-1.38,1.84-3.38,1.84-2.16,0-3.86-1.42-3.86-4.04Z"/><path d="M520.99,330.09h1.54v1.2h.28c.34-.86,1.04-1.24,2.22-1.24h1.16v1.44h-1.26c-1.42,0-2.36,.78-2.36,2.42v5.96h-1.58v-9.78Z"/><path d="M527.69,336.65l1.5-.34c.28,1.92,1.6,2.52,3.08,2.52s2.38-.62,2.38-1.62-.86-1.32-2.28-1.58l-.82-.14c-1.92-.34-3.42-1.12-3.42-2.88s1.48-2.8,3.72-2.8,3.62,1.04,4.02,2.86l-1.48,.38c-.24-1.4-1.22-1.92-2.54-1.92s-2.16,.52-2.16,1.46,.78,1.3,2.02,1.52l.82,.14c2.06,.36,3.68,1,3.68,2.9s-1.54,3-3.94,3-4.24-1.08-4.58-3.5Z"/><path d="M482.89,361.09c0-1.98,1.58-2.96,3.68-2.96h3.3v-.72c0-1.38-.8-2.24-2.42-2.24s-2.44,.84-2.74,2.1l-1.48-.48c.46-1.64,1.78-2.98,4.24-2.98s3.96,1.36,3.96,3.7v4.42c0,.4,.2,.6,.56,.6h.9v1.34h-1.38c-.88,0-1.46-.52-1.46-1.36v-.1h-.24c-.42,.78-1.24,1.74-3.26,1.74s-3.66-1.1-3.66-3.06Zm6.98-1.46v-.22h-3.24c-1.26,0-2.16,.54-2.16,1.64s.9,1.74,2.26,1.74c1.88,0,3.14-1.16,3.14-3.16Z"/><path d="M493.49,354.09h1.68l2.94,8.6h.28l2.94-8.6h1.68l-3.5,9.78h-2.52l-3.5-9.78Z"/><path d="M504.41,359.11v-.24c0-3.02,2-5.06,4.86-5.06s4.7,1.88,4.7,4.86v.72h-7.96c.06,2.1,1.46,3.36,3.4,3.36,1.68,0,2.5-.88,2.98-1.96l1.36,.66c-.6,1.24-1.76,2.7-4.38,2.7-2.98,0-4.96-2.02-4.96-5.04Zm7.96-1.02c-.12-1.82-1.34-2.88-3.1-2.88s-3,1.06-3.24,2.88h6.34Z"/><path d="M516.25,359.09v-.22c0-3.14,2.12-5.06,4.98-5.06s4.36,1.76,4.68,3.74l-1.54,.32c-.2-1.44-1.18-2.64-3.12-2.64s-3.42,1.38-3.42,3.66v.18c0,2.28,1.48,3.66,3.42,3.66s2.94-1.14,3.18-2.64l1.56,.34c-.42,1.96-1.94,3.72-4.76,3.72s-4.98-1.92-4.98-5.06Z"/><path d="M483.13,375.37c0-.72,.52-1.22,1.2-1.22s1.22,.5,1.22,1.22-.52,1.2-1.22,1.2-1.2-.5-1.2-1.2Zm.42,2.72h1.58v9.78h-1.58v-9.78Z"/><path d="M488.45,373.87h1.58v14h-1.58v-14Z"/><path d="M493.35,373.87h1.58v14h-1.58v-14Z"/><path d="M498.13,384.01v-5.92h1.58v5.8c0,1.94,1.04,2.78,2.7,2.78,1.86,0,3.2-1.24,3.2-3.66v-4.92h1.58v9.78h-1.54v-1.66h-.28c-.44,.94-1.38,1.84-3.38,1.84-2.16,0-3.86-1.42-3.86-4.04Z"/><path d="M509.85,384.65l1.5-.34c.28,1.92,1.6,2.52,3.08,2.52s2.38-.62,2.38-1.62-.86-1.32-2.28-1.58l-.82-.14c-1.92-.34-3.42-1.12-3.42-2.88s1.48-2.8,3.72-2.8,3.62,1.04,4.02,2.86l-1.48,.38c-.24-1.4-1.22-1.92-2.54-1.92s-2.16,.52-2.16,1.46,.78,1.3,2.02,1.52l.82,.14c2.06,.36,3.68,1,3.68,2.9s-1.54,3-3.94,3-4.24-1.08-4.58-3.5Z"/><path d="M522.67,386.15v-6.68h-2.94v-1.38h2.94v-3.48h1.58v3.48h3.2v1.38h-3.2v6.42c0,.4,.16,.6,.58,.6h2.18v1.38h-2.6c-1.12,0-1.74-.66-1.74-1.72Z"/><path d="M530.01,378.09h1.54v1.2h.28c.34-.86,1.04-1.24,2.22-1.24h1.16v1.44h-1.26c-1.42,0-2.36,.78-2.36,2.42v5.96h-1.58v-9.78Z"/><path d="M536.55,385.09c0-1.98,1.58-2.96,3.68-2.96h3.3v-.72c0-1.38-.8-2.24-2.42-2.24s-2.44,.84-2.74,2.1l-1.48-.48c.46-1.64,1.78-2.98,4.24-2.98s3.96,1.36,3.96,3.7v4.42c0,.4,.2,.6,.56,.6h.9v1.34h-1.38c-.88,0-1.46-.52-1.46-1.36v-.1h-.24c-.42,.78-1.24,1.74-3.26,1.74s-3.66-1.1-3.66-3.06Zm6.98-1.46v-.22h-3.24c-1.26,0-2.16,.54-2.16,1.64s.9,1.74,2.26,1.74c1.88,0,3.14-1.16,3.14-3.16Z"/><path d="M548.63,381.99h5.92v1.46h-5.92v-1.46Z"/><path d="M485.41,410.15v-6.68h-2.94v-1.38h2.94v-3.48h1.58v3.48h3.2v1.38h-3.2v6.42c0,.4,.16,.6,.58,.6h2.18v1.38h-2.6c-1.12,0-1.74-.66-1.74-1.72Z"/><path d="M492.33,399.37c0-.72,.52-1.22,1.2-1.22s1.22,.5,1.22,1.22-.52,1.2-1.22,1.2-1.2-.5-1.2-1.2Zm.42,2.72h1.58v9.78h-1.58v-9.78Z"/><path d="M497.17,407.11v-.26c0-3.06,2.04-5.04,5-5.04s5,1.98,5,5.04v.26c0,3.06-2.04,5.04-5,5.04s-5-1.98-5-5.04Zm8.42-.04v-.18c0-2.24-1.36-3.66-3.42-3.66s-3.42,1.42-3.42,3.66v.18c0,2.24,1.36,3.66,3.42,3.66s3.42-1.42,3.42-3.66Z"/><path d="M510.01,402.09h1.54v1.66h.28c.42-.94,1.36-1.84,3.36-1.84,2.16,0,3.88,1.42,3.88,4.04v5.92h-1.58v-5.8c0-1.94-1.06-2.78-2.7-2.78-1.88,0-3.2,1.24-3.2,3.66v4.92h-1.58v-9.78Z"/><path d="M521.63,408.65l1.5-.34c.28,1.92,1.6,2.52,3.08,2.52s2.38-.62,2.38-1.62-.86-1.32-2.28-1.58l-.82-.14c-1.92-.34-3.42-1.12-3.42-2.88s1.48-2.8,3.72-2.8,3.62,1.04,4.02,2.86l-1.48,.38c-.24-1.4-1.22-1.92-2.54-1.92s-2.16,.52-2.16,1.46,.78,1.3,2.02,1.52l.82,.14c2.06,.36,3.68,1,3.68,2.9s-1.54,3-3.94,3-4.24-1.08-4.58-3.5Z"/></g><text class="cls-2" transform="translate(488.67 98.44)"><tspan class="cls-11" x="0" y="0">F</tspan><tspan x="10.6" y="0">orm</tspan><tspan class="cls-8" x="47.84" y="0">a</tspan><tspan x="58.68" y="0">t</tspan></text><rect class="cls-7" x="4.48" y="28.29" width="591.64" height="530.22" rx="19.53" ry="19.53"/><line class="cls-7" x1="141.69" y1="28.29" x2="141.69" y2="555.95"/><line class="cls-7" x1="288.86" y1="28.29" x2="288.86" y2="555.95"/><line class="cls-7" x1="471.92" y1="28.29" x2="471.92" y2="555.95"/><line class="cls-7" x1="4.48" y1="175.6" x2="596.13" y2="175.6"/><line class="cls-7" x1="141.69" y1="240.31" x2="596.13" y2="240.31"/><line class="cls-7" x1="141.69" y1="495.26" x2="596.13" y2="495.26"/></svg>