<?xml version="1.0" standalone="no"?>
<!DOCTYPE svg PUBLIC "-//W3C//DTD SVG 20010904//EN"
 "http://www.w3.org/TR/2001/REC-SVG-20010904/DTD/svg10.dtd">
<svg version="1.0" xmlns="http://www.w3.org/2000/svg"
 width="700.000000pt" height="700.000000pt" viewBox="0 0 700.000000 700.000000"
 preserveAspectRatio="xMidYMid meet">
<metadata>
Created by potrace 1.14, written by Peter Selinger 2001-2017
</metadata>
<g transform="translate(0.000000,700.000000) scale(0.100000,-0.100000)"
fill="#000000" stroke="none">
<path d="M3211 6305 c1 -19 18 -51 18 -35 0 8 -4 22 -9 30 -5 8 -9 11 -9 5z"/>
<path d="M3247 6299 c7 -7 15 -10 18 -7 3 3 -2 9 -12 12 -14 6 -15 5 -6 -5z"/>
<path d="M2927 6280 c-8 -11 -17 -17 -21 -12 -4 4 -7 3 -6 -3 5 -22 -1 -31
-20 -31 -11 0 -20 3 -20 7 0 3 -12 11 -27 18 l-28 12 25 -21 c15 -13 19 -20
10 -19 -35 3 -39 -1 -30 -31 5 -16 7 -30 5 -30 -6 0 -44 83 -40 90 2 3 -5 6
-15 6 -13 0 -16 -4 -10 -11 6 -7 3 -16 -9 -26 -27 -22 -45 -23 -37 -2 4 11 -1
9 -13 -7 -18 -22 -20 -23 -27 -7 -6 16 -8 16 -25 -4 -16 -19 -18 -39 -3 -39 3
0 2 5 -2 12 -5 7 -3 8 6 3 9 -6 11 -4 5 6 -7 11 -5 11 10 -1 10 -8 16 -10 12
-3 -5 7 -1 10 10 8 10 -1 16 -9 14 -16 -2 -8 -4 -19 -4 -26 0 -7 -4 -10 -8 -7
-5 2 -6 10 -3 18 3 7 -2 13 -11 13 -8 0 -15 -4 -15 -8 0 -4 -7 -10 -16 -13 -8
-3 -13 -2 -10 3 3 5 -1 12 -10 15 -25 9 -27 7 -13 -11 8 -9 9 -14 2 -10 -6 4
-13 1 -15 -5 -3 -7 -14 -14 -26 -14 -59 -4 -59 -3 -38 -19 27 -20 11 -19 -20
2 -22 14 -27 14 -35 2 -7 -12 -10 -12 -18 0 -5 8 -11 9 -15 3 -4 -6 2 -15 11
-21 14 -8 15 -10 3 -11 -8 0 -21 9 -28 21 -10 15 -10 19 -1 14 7 -5 10 -4 6 2
-4 5 11 9 36 8 46 -2 90 13 81 27 -3 5 -11 5 -17 0 -7 -6 -24 -10 -40 -10 -22
0 -25 3 -16 14 10 12 9 13 -5 8 -11 -4 -15 -13 -11 -22 4 -12 0 -11 -16 4 -12
10 -19 14 -16 8 4 -7 0 -17 -7 -23 -11 -10 -17 -8 -26 6 -9 14 -10 14 -7 2 9
-28 -13 -40 -39 -22 -13 8 -29 13 -36 10 -8 -4 -6 -6 5 -6 23 -1 21 -14 -4
-26 -12 -6 -21 -14 -20 -19 2 -5 -3 -13 -11 -17 -7 -5 -8 -9 -3 -9 6 0 17 5
25 10 12 8 12 10 1 10 -22 0 -4 13 22 16 12 1 22 3 22 4 0 1 8 3 18 5 11 2 16
1 13 -2 -3 -4 0 -13 7 -22 11 -14 10 -14 -6 -2 -16 12 -23 11 -57 -8 -41 -23
-63 -21 -53 4 8 21 -10 18 -41 -6 -15 -12 -30 -19 -33 -15 -4 3 -18 -1 -31
-10 -23 -15 -25 -15 -19 0 4 9 4 16 1 16 -2 0 -9 -12 -14 -26 -6 -14 -14 -23
-18 -20 -5 3 -21 -2 -37 -10 -19 -10 -31 -11 -40 -4 -17 14 -28 -13 -12 -29 6
-6 8 -14 4 -18 -4 -3 -14 2 -23 13 -8 10 -13 13 -9 7 3 -7 1 -22 -5 -34 -11
-19 -10 -20 9 -9 12 6 21 8 21 5 0 -4 7 1 16 10 11 11 20 13 27 6 5 -5 15 -7
22 -5 7 3 16 1 20 -5 4 -7 -1 -8 -12 -4 -16 6 -17 5 -3 -13 9 -12 4 -10 -14 6
-21 18 -28 20 -23 8 5 -13 2 -15 -11 -11 -14 6 -15 4 -5 -8 10 -12 8 -15 -10
-16 -12 0 -16 1 -9 4 6 3 10 9 7 13 -3 5 -12 7 -20 4 -8 -4 -12 -11 -9 -16 4
-6 -3 -5 -15 1 -15 8 -21 9 -21 1 0 -6 -4 -9 -10 -5 -5 3 -7 12 -4 19 7 18
-12 30 -22 15 -4 -8 -3 -9 4 -5 18 11 14 -2 -10 -35 -20 -26 -23 -28 -30 -12
-6 17 -7 17 -7 0 -1 -11 -6 -15 -13 -11 -7 5 -8 3 -3 -6 6 -10 4 -12 -9 -7 -9
4 -14 3 -11 -2 3 -5 -4 -13 -16 -16 -17 -6 -19 -9 -8 -16 8 -5 12 -9 9 -10 -3
0 -14 -3 -25 -5 -11 -3 -26 -6 -33 -6 -8 -1 -9 -5 -3 -11 5 -5 7 -16 4 -25 -5
-10 -2 -13 6 -8 7 5 10 14 7 22 -3 8 -1 14 4 14 6 0 10 -4 10 -10 0 -5 7 -7
15 -4 8 4 13 10 10 15 -3 4 4 13 15 19 11 6 18 15 15 21 -4 5 -2 9 3 9 6 0 9
-11 8 -23 -1 -18 -6 -23 -21 -20 -14 3 -16 2 -7 -4 9 -7 2 -15 -25 -29 -21
-12 -37 -28 -37 -36 1 -10 -4 -14 -12 -11 -17 6 -18 20 -1 26 9 4 8 6 -2 6
-11 1 -11 4 -1 16 8 9 8 15 2 15 -6 0 -12 6 -15 13 -2 6 -3 3 -1 -7 5 -30 -15
-49 -35 -34 -13 10 -14 10 -3 -2 17 -20 15 -35 -3 -20 -9 7 -18 10 -22 6 -3
-3 -1 -6 6 -6 7 0 10 -4 6 -9 -3 -6 -14 -8 -25 -6 -12 2 -18 0 -15 -4 6 -11
-20 -33 -29 -24 -4 4 -4 0 0 -10 7 -19 26 -24 21 -6 -1 6 4 14 11 16 8 3 10
-2 6 -14 -4 -14 -4 -15 4 -4 6 8 15 10 22 6 8 -5 11 -4 6 3 -3 6 -2 13 4 17 6
4 8 10 5 15 -3 5 3 7 14 5 15 -3 18 1 14 13 -4 15 -3 15 6 2 15 -21 14 -33 -4
-27 -8 4 -17 2 -20 -3 -4 -6 2 -10 12 -11 14 0 14 -2 -4 -9 -13 -5 -23 -14
-23 -20 0 -6 5 -8 12 -4 7 5 8 3 3 -6 -6 -10 -11 -9 -21 4 -8 11 -14 13 -19 6
-3 -5 -10 -8 -15 -5 -4 3 -8 -5 -9 -18 -2 -50 -6 -67 -18 -71 -9 -4 -10 1 -3
20 13 34 13 39 -5 24 -8 -7 -13 -15 -11 -19 3 -4 -6 -7 -20 -7 -13 0 -24 4
-24 9 0 5 7 6 16 3 8 -3 13 -2 10 3 -7 11 18 33 27 24 4 -3 7 0 7 8 0 12 2 11
11 -1 9 -13 10 -13 6 0 -2 8 -11 13 -18 11 -8 -2 -20 -4 -26 -4 -7 0 -11 -3
-8 -5 3 -3 -4 -12 -16 -20 -11 -8 -18 -20 -15 -28 3 -8 1 -14 -4 -14 -10 0
-14 15 -10 35 1 6 -2 6 -7 2 -4 -5 -8 -14 -8 -20 -1 -7 -7 -11 -14 -9 -7 1
-10 -2 -6 -7 3 -6 12 -8 20 -4 27 10 16 -7 -17 -27 -18 -11 -27 -20 -20 -20 7
0 10 -5 7 -10 -4 -6 -10 -8 -14 -6 -4 3 -13 0 -21 -6 -13 -8 -12 -9 2 -5 9 3
19 -1 22 -9 5 -12 10 -13 28 -3 13 6 20 8 16 4 -4 -5 -3 -14 3 -21 7 -8 7 -14
-1 -19 -6 -4 -9 -1 -8 6 5 21 -44 15 -56 -6 -6 -11 -12 -22 -13 -24 -1 -2 -14
-5 -28 -6 -16 -2 -25 2 -25 11 0 8 -5 14 -10 14 -7 0 -7 -6 0 -20 8 -15 8 -20
-1 -20 -7 0 -9 -3 -6 -7 4 -3 -7 -16 -24 -29 -19 -14 -26 -24 -17 -27 9 -3 5
-11 -12 -25 -27 -23 -45 -29 -34 -10 4 7 3 8 -5 4 -15 -9 -3 -29 14 -22 7 2
18 -1 24 -7 7 -7 11 -7 10 -2 -5 20 23 61 42 62 10 1 19 -3 19 -8 0 -6 -4 -7
-10 -4 -5 3 -10 1 -10 -5 0 -6 -4 -8 -10 -5 -5 3 -10 1 -10 -4 0 -6 5 -11 11
-11 6 0 1 -9 -12 -20 -16 -12 -19 -19 -10 -20 8 0 11 -3 8 -7 -4 -3 -1 -14 5
-23 7 -9 1 -3 -13 12 -30 33 -44 37 -29 8 6 -11 7 -20 3 -20 -4 0 2 -7 13 -16
17 -14 16 -14 -8 0 -26 15 -38 10 -20 -8 4 -4 7 -13 7 -19 1 -7 7 -11 14 -9 7
1 10 -2 6 -8 -5 -8 -11 -7 -21 1 -12 10 -18 6 -16 -12 1 -3 -12 -3 -29 -1 -16
2 -27 8 -24 12 3 5 -5 5 -17 2 -19 -5 -20 -7 -6 -10 22 -4 24 -22 3 -22 -22 0
-30 4 -27 13 1 5 -2 6 -8 2 -17 -10 10 -36 30 -30 9 3 26 -3 37 -12 10 -10 14
-14 7 -10 -7 4 -15 3 -19 -3 -3 -5 -2 -10 3 -10 5 0 9 -7 9 -16 0 -15 -2 -15
-13 1 -7 9 -18 14 -26 10 -7 -3 -5 0 4 8 10 8 18 18 18 23 0 4 -5 3 -12 -4 -7
-7 -17 -8 -29 -2 -12 7 -20 6 -24 0 -4 -6 -3 -10 2 -9 21 4 29 -3 30 -23 2
-22 1 -22 -13 -4 -12 17 -14 18 -14 3 0 -9 5 -17 11 -17 5 0 7 -5 4 -10 -5 -8
-11 -7 -21 1 -9 7 -14 8 -14 1 0 -6 6 -12 13 -15 6 -2 9 -8 5 -12 -4 -4 -13
-3 -20 1 -16 11 -42 15 -33 6 4 -4 12 -7 18 -7 5 0 12 -6 15 -14 3 -8 0 -11
-5 -8 -5 3 -10 0 -10 -8 0 -8 4 -12 9 -9 10 6 11 -10 1 -19 -3 -4 -12 -2 -20
4 -8 8 -13 8 -13 1 0 -6 6 -12 13 -15 9 -3 9 -9 -1 -27 -10 -17 -11 -25 -2
-34 8 -8 10 -6 5 9 -6 17 -5 18 5 5 10 -13 11 -13 6 2 -3 10 -1 20 5 23 5 4 6
11 3 17 -5 7 -2 8 6 3 9 -6 11 -4 5 4 -6 10 -3 11 14 2 11 -7 21 -15 21 -18 0
-3 -3 -3 -6 0 -11 11 -44 -13 -38 -27 3 -8 1 -17 -5 -21 -8 -4 -8 -13 0 -28 8
-19 8 -20 -3 -7 -33 37 -56 51 -64 39 -4 -7 -3 -10 2 -7 5 3 17 -3 27 -13 19
-18 5 -22 -20 -6 -7 5 -13 4 -13 -1 0 -12 30 -26 48 -23 6 1 12 -3 12 -9 0 -6
6 -8 13 -4 8 5 8 3 -2 -9 -14 -18 -36 -13 -25 5 4 7 2 8 -5 4 -6 -4 -19 -2
-27 5 -12 10 -18 9 -30 -3 -13 -13 -13 -15 0 -15 8 0 13 4 10 9 -6 10 10 11
19 1 10 -10 -14 -34 -27 -26 -6 4 -5 0 2 -9 10 -12 10 -17 1 -20 -9 -3 -9 -10
1 -27 11 -21 10 -23 -4 -18 -10 4 -15 3 -11 -2 3 -5 0 -11 -6 -13 -9 -3 -9 -9
0 -26 14 -26 4 -29 -15 -4 -13 16 -14 16 -8 0 5 -14 1 -16 -16 -13 -13 2 -20
1 -16 -2 4 -4 17 -9 29 -10 52 -7 62 -9 64 -18 1 -6 -5 -9 -13 -7 -17 3 -19
-15 -2 -20 6 -2 12 -16 12 -30 1 -15 -2 -24 -7 -21 -5 3 -6 14 -4 25 4 12 1
18 -6 15 -17 -5 -15 -40 3 -55 13 -11 11 -11 -7 -2 -17 8 -23 8 -23 0 0 -6 -4
-9 -9 -6 -4 3 -17 -1 -27 -9 -19 -15 -19 -15 0 -8 13 4 17 3 13 -4 -4 -6 -4
-18 -1 -27 5 -12 10 -14 20 -6 10 9 16 5 28 -18 12 -24 13 -29 1 -29 -8 0 -12
4 -10 8 8 11 -6 40 -16 34 -4 -3 -6 -12 -2 -20 3 -9 -1 -15 -10 -15 -22 0 -32
-19 -18 -33 9 -9 11 -8 8 3 -2 8 -2 12 0 8 3 -5 12 -8 21 -9 10 0 5 -5 -11
-11 -15 -5 -25 -14 -21 -19 3 -5 13 -5 24 1 24 13 30 13 30 0 0 -6 -3 -9 -8
-9 -20 3 -32 -2 -27 -12 4 -6 14 -8 22 -5 8 3 0 -13 -19 -36 -22 -28 -27 -40
-15 -35 15 6 16 4 7 -13 -6 -11 -13 -20 -16 -20 -3 0 -2 4 1 10 4 6 -1 7 -12
4 -15 -5 -16 -4 -3 6 10 8 11 10 2 8 -8 -2 -13 -7 -12 -12 1 -5 -4 -13 -12
-18 -9 -7 -8 -8 6 -4 10 4 25 1 32 -5 11 -9 14 -8 14 2 1 9 4 8 11 -4 6 -10 8
-21 5 -24 -3 -4 -6 0 -6 8 0 12 -2 12 -10 -1 -6 -9 -5 -17 3 -22 9 -6 9 -8 -1
-8 -7 0 -11 -4 -7 -9 3 -5 1 -12 -5 -16 -6 -4 -7 -13 -1 -23 9 -19 9 -51 -2
-68 -11 -19 5 -25 20 -6 11 15 12 13 2 -10 -7 -16 -16 -28 -21 -28 -5 0 -7 -4
-3 -10 3 -5 13 -7 23 -3 11 3 9 -1 -6 -11 -21 -17 -22 -36 -1 -36 6 0 7 5 3
12 -4 7 -3 8 5 4 9 -6 9 -11 0 -22 -14 -17 -33 -19 -23 -2 5 7 3 8 -5 4 -7 -5
-21 0 -33 11 -14 11 -18 13 -13 3 5 -8 9 -26 8 -40 -2 -24 -2 -24 5 -3 5 16
11 20 21 14 9 -6 10 -11 2 -15 -23 -15 -9 -24 31 -22 36 3 39 1 23 -10 -10 -7
-22 -11 -26 -8 -5 3 -9 -2 -9 -11 0 -9 -5 -13 -10 -10 -8 5 -7 12 2 23 11 15
11 15 -3 5 -10 -9 -19 -9 -26 -2 -6 6 -10 5 -10 -5 0 -8 3 -14 6 -12 8 5 25
-16 29 -34 2 -8 -5 -20 -14 -27 -16 -12 -16 -13 -1 -13 9 0 17 5 17 11 0 5 5
7 11 4 7 -5 4 -14 -7 -26 -14 -15 -20 -17 -33 -7 -11 8 -11 6 2 -8 14 -14 20
-16 26 -6 5 9 11 6 18 -11 8 -18 8 -28 0 -36 -6 -6 -7 -11 -2 -11 5 0 0 -7
-11 -16 -18 -14 -18 -15 4 -4 12 6 28 8 35 5 6 -4 3 1 -7 9 -12 10 -15 16 -7
16 7 0 11 6 8 13 -3 8 3 13 17 14 11 0 15 -1 8 -4 -6 -3 -10 -9 -6 -14 3 -5 0
-9 -6 -9 -6 0 -8 -5 -5 -10 5 -8 11 -7 21 1 19 15 18 2 -1 -17 -8 -9 -19 -13
-24 -10 -12 8 -43 -23 -36 -35 8 -12 33 -11 37 2 2 5 16 12 30 13 15 2 25 -1
22 -6 -3 -5 -12 -7 -19 -4 -8 3 -17 -3 -20 -14 -3 -10 -11 -18 -18 -16 -7 1
-9 1 -4 -1 11 -7 8 -31 -5 -37 -7 -3 -2 -3 12 1 22 5 23 4 11 -11 -11 -13 -11
-20 -3 -28 11 -11 17 0 13 25 0 4 4 7 10 7 6 0 9 -6 6 -14 -9 -22 5 -27 20 -8
13 15 13 15 3 -6 -6 -12 -15 -20 -20 -17 -5 3 -11 1 -14 -4 -4 -5 -2 -12 4
-16 5 -3 10 -11 10 -17 0 -6 -7 -5 -17 3 -14 11 -13 8 2 -9 15 -19 17 -25 6
-31 -15 -10 -6 -31 12 -31 8 0 8 3 -2 9 -8 5 -9 11 -3 15 5 3 15 -1 22 -8 9
-12 6 -17 -16 -29 l-27 -14 34 -1 c21 0 28 2 20 7 -10 6 -10 10 -2 16 9 5 9
10 0 21 -8 10 -8 14 0 14 6 0 11 -5 11 -11 0 -5 6 -7 13 -3 8 6 8 3 -1 -9 -8
-9 -10 -22 -6 -28 5 -9 10 -7 16 7 8 18 8 18 5 -1 -2 -11 -9 -19 -16 -17 -9 2
-10 -4 -5 -20 6 -21 5 -21 -10 -9 -12 10 -20 11 -27 4 -8 -8 -7 -13 2 -18 8
-5 10 -4 5 3 -12 20 10 13 29 -8 10 -11 23 -20 29 -20 6 0 4 5 -4 10 -12 8
-12 10 -1 10 11 0 11 3 1 15 -9 10 -9 15 -1 15 11 0 14 -9 14 -43 0 -10 6 -16
16 -15 12 2 16 -5 16 -34 0 -38 14 -67 16 -32 0 11 3 14 6 6 3 -7 -1 -20 -8
-28 -11 -13 -10 -15 6 -12 10 1 20 -2 22 -9 3 -7 -4 -11 -16 -10 -12 1 -22 5
-22 9 -1 4 -2 12 -3 17 0 5 -4 12 -8 16 -4 4 -4 14 -1 23 4 13 3 14 -5 4 -7
-11 -11 -10 -16 4 -3 9 -4 19 -1 22 3 3 5 -1 5 -9 0 -11 2 -11 10 1 13 20 13
33 0 25 -6 -4 -24 1 -42 9 -37 19 -38 19 -38 6 0 -5 6 -9 13 -7 6 1 11 -4 9
-11 -2 -9 4 -12 16 -8 15 5 18 1 17 -16 -1 -12 8 -30 19 -40 19 -15 19 -17 4
-23 -14 -5 -15 -10 -5 -20 7 -7 16 -10 21 -8 5 3 6 0 4 -8 -3 -8 -12 -13 -21
-11 -8 1 -18 -1 -21 -6 -6 -10 30 -9 40 1 18 18 25 4 8 -15 -17 -21 -17 -21
-1 -8 16 12 19 12 17 -1 -4 -26 0 -37 15 -42 8 -4 17 -1 21 5 5 7 2 8 -6 3 -9
-6 -11 -4 -5 5 5 8 4 11 -3 6 -7 -4 -10 1 -7 14 2 11 0 20 -4 20 -4 0 -8 7 -8
15 0 8 4 15 9 15 4 0 8 -7 8 -15 0 -8 5 -15 11 -15 6 0 9 -7 6 -15 -4 -8 -2
-17 4 -21 14 -8 -11 -36 -28 -30 -7 3 -13 1 -13 -4 0 -6 7 -10 16 -10 9 0 12
-5 8 -12 -6 -10 -4 -10 8 0 10 8 19 9 22 3 3 -5 0 -11 -6 -14 -9 -3 -6 -10 9
-21 14 -10 20 -24 18 -37 -4 -17 -2 -19 10 -9 9 7 15 8 15 2 0 -5 -10 -16 -22
-24 -17 -11 -19 -16 -8 -23 8 -5 11 -4 6 3 -3 5 0 12 6 15 18 6 50 -12 43 -23
-4 -6 6 -21 22 -35 15 -13 23 -25 17 -25 -7 0 -15 -7 -18 -16 -6 -15 -4 -15
11 -3 15 13 16 12 11 -9 -4 -12 -3 -20 2 -17 15 9 18 46 4 59 -11 12 -11 15 2
20 8 3 13 2 9 -3 -8 -13 17 -20 37 -10 17 9 18 5 6 -40 -1 -7 3 -16 11 -19 8
-3 11 0 7 7 -5 7 -1 9 9 4 12 -4 13 -8 5 -13 -6 -4 -11 -10 -11 -14 1 -3 -1
-6 -4 -6 -3 0 -10 0 -16 0 -5 0 -7 4 -4 10 3 6 -1 7 -10 3 -13 -5 -14 -7 -3
-14 7 -5 9 -9 4 -9 -5 0 -1 -9 9 -20 22 -25 9 -26 -19 -3 l-21 18 19 -23 c14
-16 25 -20 40 -16 17 6 19 4 9 -7 -9 -11 -8 -19 3 -33 12 -17 14 -18 14 -3 0
9 -5 17 -12 17 -24 0 4 14 33 16 22 2 29 -1 25 -11 -2 -7 2 -19 11 -27 14 -11
15 -10 10 12 -4 14 -4 19 -1 12 3 -6 9 -10 13 -8 4 3 7 -4 8 -14 1 -11 -3 -23
-9 -26 -7 -5 -8 -2 -3 7 5 8 5 11 0 7 -4 -4 -15 -2 -24 4 -9 7 -13 8 -9 4 4
-5 3 -15 -3 -23 -9 -10 -8 -13 0 -13 7 0 9 -5 5 -11 -3 -6 9 -3 27 7 39 21 62
26 53 13 -7 -12 2 -11 29 2 21 10 21 10 3 -5 -23 -19 -32 -20 -41 -6 -4 6 -11
7 -17 4 -20 -13 35 -33 57 -22 11 6 17 7 13 3 -4 -4 0 -14 10 -22 15 -13 15
-13 -5 -4 -33 16 -41 12 -16 -8 12 -10 19 -21 16 -25 -4 -3 1 -6 11 -6 9 0 14
5 11 10 -3 5 -1 10 4 10 14 0 14 -6 1 -31 -6 -10 -16 -19 -23 -19 -8 0 -8 3
-1 8 6 4 3 14 -9 26 -12 11 -18 13 -15 5 3 -8 -2 -19 -11 -26 -14 -10 -14 -11
4 -10 15 2 19 -3 17 -18 -2 -16 -1 -17 7 -5 6 8 11 11 11 5 0 -5 4 -3 10 5 5
8 12 11 16 7 4 -4 2 -13 -4 -19 -15 -15 -15 -28 -1 -28 5 0 7 5 4 10 -3 6 1
10 9 10 18 0 21 -16 6 -25 -5 -3 -10 -12 -10 -18 0 -8 4 -7 9 2 11 17 39 23
47 10 5 -8 -10 -13 -29 -10 -5 1 -6 -3 -2 -9 4 -7 12 -7 25 0 13 7 19 6 24 -6
10 -25 7 -27 -11 -13 -16 12 -17 12 -6 -2 7 -9 9 -20 5 -25 -4 -4 1 -2 11 6
16 12 20 12 27 0 5 -8 6 -18 3 -23 -3 -4 1 -8 8 -6 27 3 40 -1 34 -11 -3 -5
-1 -10 4 -10 6 0 11 5 11 10 0 6 4 10 8 10 8 0 10 -6 14 -49 3 -22 22 -18 57
13 13 12 21 16 18 9 -4 -6 -2 -13 4 -15 9 -3 8 -11 -2 -28 -17 -32 -20 -50 -7
-50 6 0 7 7 4 15 -3 9 1 18 9 21 8 4 13 9 11 13 -3 4 0 13 6 21 8 12 9 12 4
-2 -3 -10 -1 -18 4 -18 6 0 10 8 10 18 1 16 1 16 11 -1 12 -21 4 -38 -15 -31
-8 3 -17 0 -21 -7 -5 -7 -3 -10 6 -7 8 3 22 1 33 -4 12 -7 16 -7 12 0 -3 5 3
17 13 26 18 17 20 17 30 -2 7 -13 7 -22 -1 -30 -16 -16 4 -15 21 0 11 10 13
10 7 1 -4 -7 -2 -13 4 -13 6 0 8 -5 4 -11 -4 -8 -9 -7 -15 2 -7 12 -9 12 -9 0
0 -10 -3 -11 -14 -2 -9 7 -13 23 -10 38 4 23 3 25 -10 14 -11 -10 -13 -18 -6
-31 8 -15 6 -20 -11 -25 -11 -4 -18 -9 -16 -12 3 -2 14 0 26 6 16 9 22 8 30
-7 7 -13 6 -23 -2 -32 -10 -12 -9 -12 5 -1 9 7 14 19 11 28 -5 13 -3 13 16 1
l22 -13 -21 -17 c-20 -17 -20 -17 7 -13 15 2 28 4 28 5 0 1 8 3 18 5 18 3 40
-31 30 -47 -2 -5 1 -8 6 -8 13 0 13 2 1 34 -6 17 -6 27 2 32 7 4 8 3 4 -4 -4
-7 -3 -12 3 -12 5 0 15 8 20 17 6 10 11 12 11 6 0 -7 5 -13 11 -13 5 0 7 5 4
10 -3 6 -1 10 5 10 7 0 10 -6 7 -14 -6 -16 16 -40 27 -29 4 4 11 1 16 -7 8
-12 13 -13 30 -3 28 18 33 16 13 -5 -19 -19 -43 -25 -43 -10 0 5 -4 7 -9 3 -5
-3 -12 -1 -16 5 -4 6 -11 7 -17 4 -7 -5 -8 -2 -3 6 6 10 4 12 -9 7 -9 -4 -15
-3 -11 2 4 8 -3 8 -34 2 -2 -1 2 -7 8 -14 6 -8 7 -18 3 -23 -4 -4 1 -2 11 5
15 12 21 11 44 -10 14 -13 23 -18 19 -12 -4 7 -2 13 3 13 6 0 11 -7 11 -15 0
-8 4 -15 10 -15 5 0 7 8 4 18 -3 9 7 2 24 -17 17 -20 34 -31 41 -27 6 4 9 11
6 16 -7 12 27 22 38 11 6 -6 17 -7 28 -1 14 8 16 6 12 -11 -4 -16 -8 -18 -14
-7 -5 7 -9 9 -9 4 0 -5 -6 -3 -14 3 -11 9 -16 9 -22 0 -4 -8 -3 -9 4 -5 7 4
12 3 12 -2 0 -10 38 -25 54 -23 5 1 6 -5 3 -13 -8 -21 21 -28 32 -7 7 13 6 18
-5 19 -7 1 -20 3 -28 4 -8 1 -12 8 -8 17 4 10 7 11 10 3 2 -7 8 -12 13 -12 6
0 7 6 3 13 -10 15 23 -10 52 -40 11 -13 25 -19 30 -15 4 4 3 0 -4 -9 -6 -9 -9
-19 -5 -23 4 -4 13 4 21 16 7 13 11 15 8 6 -7 -24 4 -49 18 -41 6 4 5 -1 -3
-10 -19 -24 -33 -21 -26 6 4 17 2 16 -10 -6 -20 -34 -15 -43 15 -27 25 13 36
8 24 -12 -5 -7 -9 -19 -9 -25 0 -17 -18 -18 -24 -2 -2 6 1 9 6 6 5 -3 10 0 10
8 0 8 -4 15 -9 15 -4 0 -8 -5 -8 -11 0 -5 -5 -7 -11 -3 -8 5 -8 1 0 -13 6 -11
8 -23 4 -26 -3 -4 4 -5 15 -2 15 2 19 0 15 -11 -3 -8 -1 -14 4 -14 5 0 10 -6
10 -12 0 -7 4 -22 8 -33 7 -20 6 -20 -9 -1 -9 11 -16 14 -16 7 0 -7 -4 -9 -10
-6 -6 4 -7 -1 -3 -11 4 -11 3 -15 -5 -10 -6 3 -13 2 -17 -3 -3 -6 3 -8 15 -6
12 2 24 -4 31 -16 6 -13 16 -18 26 -15 11 5 13 2 9 -9 -3 -9 0 -25 7 -37 9
-16 9 -22 0 -25 -7 -3 -13 -9 -13 -15 0 -7 5 -7 13 1 8 6 17 8 20 4 11 -10 8
-33 -4 -33 -5 0 -7 5 -3 12 5 7 3 8 -6 3 -10 -6 -10 -11 3 -20 17 -12 24 -31
9 -21 -5 3 -9 -1 -9 -9 0 -8 4 -15 8 -15 9 0 24 40 21 57 -2 6 6 11 17 10 14
-1 17 -5 10 -13 -7 -8 -6 -14 1 -19 6 -3 8 -10 5 -15 -3 -5 4 -15 16 -23 13
-9 16 -17 10 -22 -6 -3 -11 -1 -11 5 0 6 -5 8 -12 4 -7 -5 -8 -3 -3 6 6 9 4
11 -5 5 -8 -5 -11 -4 -7 2 3 5 0 10 -8 10 -8 0 -13 -2 -10 -5 2 -2 -4 -12 -13
-21 -10 -9 -13 -12 -6 -8 7 4 15 4 18 -2 3 -5 21 -8 40 -7 29 3 34 0 31 -15
-2 -11 5 -25 18 -34 12 -8 16 -15 9 -15 -6 0 -12 -7 -12 -16 0 -8 -5 -12 -10
-9 -8 5 -7 12 2 23 11 13 11 14 -1 7 -10 -6 -12 -4 -6 5 5 9 4 11 -4 6 -6 -4
-9 -11 -6 -16 3 -5 -3 -14 -12 -20 -16 -10 -16 -11 -1 -6 17 5 35 -9 21 -17
-5 -2 -3 -2 4 -1 6 2 17 -5 25 -13 11 -14 11 -16 -3 -11 -10 4 -16 1 -16 -8 0
-17 13 -18 24 -1 12 19 12 38 1 31 -7 -5 -8 -2 -3 6 5 9 4 11 -3 6 -8 -5 -10
-1 -5 10 4 11 8 13 11 6 2 -7 9 -9 15 -5 7 3 8 2 4 -2 -4 -5 3 -15 15 -22 l23
-14 -25 7 c-22 6 -23 5 -11 -9 7 -9 17 -14 22 -11 5 3 9 3 9 0 0 -3 -9 -10
-20 -16 -17 -9 -19 -8 -14 7 5 15 4 16 -5 3 -16 -23 -13 -30 12 -26 12 3 22 5
22 6 0 1 8 3 19 5 14 3 16 1 7 -8 -18 -18 -13 -31 7 -16 15 13 16 12 4 -3 -9
-11 -10 -18 -2 -23 6 -3 8 -11 5 -16 -4 -5 -1 -9 6 -9 6 0 9 8 6 20 -3 11 -1
17 4 14 6 -3 9 -13 7 -22 -1 -10 1 -22 5 -29 5 -7 -1 -21 -13 -33 -25 -25 -25
-30 0 -25 11 2 22 0 25 -5 3 -5 17 -6 31 -4 28 5 27 7 6 -45 -3 -9 0 -12 9 -9
8 3 13 12 11 22 -4 20 26 22 34 1 4 -8 10 -12 15 -9 5 3 9 0 9 -5 0 -16 -20
-13 -26 4 -10 24 -21 17 -18 -10 2 -22 -1 -25 -19 -19 -22 6 -22 6 -2 -9 21
-16 40 -4 27 18 -3 5 2 4 11 -4 9 -7 17 -11 17 -7 0 4 14 -1 30 -9 17 -9 28
-20 25 -25 -6 -9 12 -23 33 -26 20 -3 29 -16 14 -21 -6 -3 -10 -9 -7 -13 3 -5
12 -7 20 -3 8 3 15 0 15 -7 0 -6 -4 -8 -10 -5 -5 3 -10 1 -10 -4 0 -6 5 -11
12 -11 6 0 8 -3 5 -7 -7 -6 -61 46 -62 59 0 3 -4 10 -9 15 -5 4 -7 -1 -4 -14
3 -12 1 -24 -6 -27 -7 -3 -7 -5 2 -5 7 -1 10 -5 7 -11 -3 -5 -2 -10 4 -10 5 0
11 6 14 13 2 6 7 9 11 5 4 -3 0 -17 -8 -30 -13 -20 -14 -25 -2 -25 8 0 12 6 9
13 -3 9 2 12 17 9 28 -5 51 4 43 19 -3 6 3 3 14 -7 11 -9 22 -14 26 -11 3 4
12 -5 18 -19 7 -15 16 -24 20 -21 5 3 6 -2 3 -10 -5 -13 -8 -14 -20 -1 -8 8
-22 11 -31 8 -11 -4 -14 -3 -9 6 6 9 3 9 -13 -1 -27 -17 -27 -24 2 -25 37 -2
57 -9 70 -23 10 -10 9 -12 -6 -7 -11 4 -16 3 -12 -4 4 -6 13 -8 20 -5 16 6 38
-17 27 -29 -4 -4 3 -3 14 3 27 14 39 3 16 -15 -15 -13 -15 -13 4 -4 24 11 65
-10 60 -32 -1 -6 -1 -9 1 -4 3 4 10 4 16 0 7 -4 6 1 -2 10 -15 18 -5 22 18 8
11 -7 12 -13 3 -23 -12 -15 -13 -60 0 -52 4 3 5 11 1 19 -3 9 0 22 7 30 6 8 9
19 6 24 -4 6 2 8 14 6 18 -3 25 6 21 28 -1 5 3 6 9 2 7 -4 7 -12 0 -24 -5 -10
-6 -22 -2 -27 4 -5 -1 -2 -10 5 -12 9 -18 10 -18 2 0 -10 7 -13 26 -10 17 2
21 -26 6 -38 -15 -13 -15 -13 4 -4 12 6 25 7 29 3 5 -4 5 -2 2 5 -4 6 -4 13 0
16 5 2 2 2 -5 0 -7 -1 -10 1 -7 6 3 5 1 12 -5 16 -5 3 -10 10 -10 15 0 5 12
-2 26 -15 28 -26 54 -33 54 -15 0 6 5 10 10 10 6 0 5 -8 -2 -19 -13 -21 -28
-23 -40 -6 -5 6 -8 3 -8 -7 0 -9 -5 -19 -10 -21 -6 -3 -5 -4 2 -3 7 2 22 -4
33 -13 12 -9 15 -10 8 -1 -21 23 -15 35 7 15 12 -10 18 -25 16 -32 -4 -11 -1
-11 14 -3 14 8 26 8 40 0 10 -6 24 -9 29 -8 5 2 17 -6 26 -17 16 -20 16 -20 5
3 -14 29 3 29 24 -1 14 -20 15 -20 10 -2 -6 20 -5 20 10 1 9 -11 16 -16 16
-11 0 5 5 4 12 -3 14 -14 48 -16 48 -3 0 5 -10 7 -22 3 -14 -3 -19 -2 -14 7 4
6 12 9 17 6 5 -4 9 -2 9 4 0 5 -9 9 -19 8 -11 0 -17 -5 -14 -10 3 -5 -5 -3
-18 4 -13 7 -28 12 -32 11 -5 -1 -5 3 -1 9 5 8 3 9 -6 4 -8 -5 -11 -4 -6 3 4
6 13 9 21 5 10 -3 14 0 12 8 -2 8 -2 11 0 6 3 -4 10 -4 16 0 7 4 6 -1 -2 -10
-8 -10 -11 -21 -7 -25 4 -4 12 2 18 12 8 14 12 15 18 6 10 -16 33 -3 23 13 -3
7 4 3 16 -8 13 -11 26 -19 30 -17 3 1 6 -3 6 -10 0 -6 6 -13 13 -16 7 -2 11 2
10 8 -2 7 3 14 10 16 7 1 8 0 2 -3 -5 -2 -7 -9 -4 -14 4 -6 11 -6 19 1 9 8 14
7 18 -3 3 -9 -6 -13 -35 -12 -32 1 -37 -1 -24 -10 9 -7 13 -15 9 -18 -3 -4 -2
-7 4 -7 6 0 13 7 17 15 3 8 10 15 16 15 6 0 8 -5 4 -12 -4 -7 -3 -8 4 -4 20
12 54 16 69 7 13 -7 12 -10 -2 -24 -9 -10 -12 -17 -6 -17 6 0 16 10 22 22 9
17 8 24 -5 34 -9 6 -25 10 -35 7 -10 -2 -21 2 -24 10 -3 7 1 14 9 14 7 0 11
-4 8 -8 -2 -4 4 -7 13 -7 10 0 27 -3 37 -7 15 -7 17 -5 11 6 -6 11 -5 11 5 2
7 -6 20 -9 29 -6 13 4 14 3 1 -5 -8 -6 -18 -8 -22 -6 -4 3 -8 -6 -8 -20 0 -27
14 -34 26 -14 4 7 3 8 -4 4 -7 -4 -12 -3 -12 2 0 11 36 23 44 14 10 -10 6 -33
-4 -27 -5 3 -10 1 -10 -4 0 -16 15 -13 43 9 14 11 28 16 31 11 4 -5 0 -11 -6
-13 -8 -3 -3 -10 12 -18 22 -12 24 -11 13 2 -13 15 -8 28 9 28 5 0 7 -4 3 -9
-8 -14 12 -23 35 -16 25 8 45 42 25 42 -7 0 -11 -6 -8 -14 3 -7 0 -13 -7 -13
-6 0 -8 5 -4 12 4 7 3 8 -5 4 -6 -4 -9 -12 -6 -17 4 -5 0 -9 -8 -9 -7 0 -14 7
-14 15 0 8 6 15 12 15 7 0 19 8 28 18 13 15 14 21 4 32 -10 12 -9 12 5 1 10
-7 15 -18 11 -24 -4 -6 0 -8 11 -4 9 4 15 3 12 -2 -17 -28 -40 -98 -28 -86 4
4 7 12 7 18 1 7 7 11 14 9 9 -2 10 4 5 20 -7 23 -7 23 15 4 17 -16 24 -17 34
-7 9 10 8 11 -7 5 -13 -5 -17 -4 -12 4 3 6 1 14 -5 18 -8 5 -9 3 -4 -6 5 -9 4
-11 -3 -6 -9 5 -7 14 5 31 10 13 20 21 22 19 2 -2 -2 -10 -9 -19 -8 -9 -8 -15
-2 -15 6 0 17 9 25 20 12 18 15 18 20 5 4 -9 19 -15 39 -16 18 0 27 -3 21 -6
-16 -6 -17 -33 -2 -33 5 0 8 4 5 9 -3 5 2 15 11 22 15 12 16 12 10 -5 -7 -17
-6 -17 10 -5 15 12 16 12 10 -4 -4 -11 -3 -16 3 -12 14 9 6 48 -11 53 -11 3
-11 1 1 -7 13 -9 12 -11 -5 -8 -11 1 -29 9 -40 16 -15 9 -15 11 -3 7 10 -3 20
-1 23 4 4 6 18 4 35 -5 36 -19 51 -19 27 -1 -17 13 -17 14 0 22 26 11 53 13
47 3 -3 -5 -1 -9 4 -9 15 0 22 13 12 24 -5 7 -5 17 1 26 8 13 9 12 7 -2 -2 -9
1 -17 6 -16 12 0 26 -24 19 -35 -3 -4 -12 -6 -20 -3 -8 3 -11 1 -8 -4 3 -6 2
-10 -4 -10 -5 0 -13 5 -17 11 -10 16 -26 -15 -18 -35 8 -20 20 -21 28 -1 3 9
12 12 23 9 15 -5 16 -4 3 5 -13 9 -13 11 3 11 9 0 17 4 17 8 0 4 10 8 21 9 12
1 19 -1 15 -4 -8 -8 13 -33 27 -33 6 0 3 6 -8 13 -12 10 -14 16 -7 21 7 4 12
1 12 -6 0 -10 2 -10 9 1 10 16 4 41 -11 41 -5 0 -7 -4 -3 -9 3 -5 0 -13 -6
-17 -8 -4 -9 -3 -5 5 9 14 -16 11 -26 -4 -4 -6 -8 -2 -8 9 0 11 5 16 13 13 17
-6 52 19 38 28 -14 8 -14 25 -1 25 5 0 9 -6 7 -12 -1 -7 5 -11 13 -9 8 2 23 4
33 5 10 0 27 12 38 26 l20 25 -12 -25 c-18 -36 -32 -47 -56 -44 -21 4 -26 -17
-8 -33 4 -4 5 -3 2 3 -8 14 20 27 28 14 3 -4 -1 -10 -7 -13 -7 -2 -10 -8 -6
-12 4 -4 14 -1 22 7 8 9 26 14 40 13 19 -2 23 1 19 13 -5 11 -3 13 8 7 11 -7
12 -6 2 7 -7 8 -10 18 -6 22 4 4 1 12 -7 17 -13 9 -12 10 2 6 18 -6 33 8 41
38 4 17 5 16 6 -4 1 -24 16 -21 16 2 1 7 7 11 14 9 7 -1 20 3 29 10 12 10 16
10 19 1 3 -9 10 -10 23 -3 13 7 21 7 25 0 6 -9 -8 -14 -27 -11 -15 2 -8 -17 8
-23 8 -3 14 -2 12 2 -2 4 10 21 26 37 20 21 27 24 22 11 -5 -15 -4 -17 7 -8 7
6 18 8 23 4 5 -4 2 0 -8 9 -24 23 -9 33 16 12 20 -17 20 -17 6 1 -14 18 -13
19 2 13 15 -5 16 -4 6 13 -7 10 -16 16 -20 14 -5 -3 -6 -9 -3 -14 3 -5 -4 -7
-15 -5 -11 2 -18 0 -15 -4 2 -5 -2 -14 -10 -21 -8 -7 -15 -9 -15 -4 0 5 -5 2
-10 -6 -6 -10 -10 -11 -10 -2 0 6 -5 12 -11 12 -5 0 -7 -4 -4 -10 3 -5 2 -10
-3 -10 -6 0 -13 8 -16 17 -4 10 -4 14 0 10 4 -4 16 1 26 10 18 16 18 16 12 -3
-7 -17 -6 -18 10 -5 9 8 15 20 12 27 -3 7 0 16 6 20 6 4 8 3 5 -3 -12 -20 21
-22 38 -3 17 18 41 18 30 0 -3 -4 3 -14 12 -21 11 -10 14 -10 9 -2 -4 8 2 17
18 25 14 6 26 14 26 18 0 17 -15 19 -37 5 -13 -9 -23 -11 -23 -6 0 5 -6 11
-12 14 -7 2 -2 2 11 0 22 -4 23 -3 11 14 -12 15 -12 16 0 6 21 -19 34 -16 19
5 -7 9 -10 14 -5 10 5 -4 14 -2 22 5 32 28 41 34 57 34 9 0 17 -4 17 -9 0 -8
-16 -12 -33 -9 -4 1 -7 -6 -5 -15 2 -9 -4 -19 -12 -21 -12 -4 -12 -3 -1 5 8 6
9 12 3 16 -5 3 -15 -1 -22 -9 -13 -16 -12 -16 35 -19 11 -1 25 -5 32 -9 6 -4
15 -2 19 5 4 7 4 10 -1 6 -9 -9 -35 9 -35 24 0 6 7 5 15 -2 13 -11 14 -10 9 5
-5 13 -4 16 4 11 8 -5 10 -1 5 10 -5 13 -3 15 8 8 25 -15 39 -14 30 4 -10 20
-3 45 9 37 5 -3 7 -13 4 -23 -5 -13 -4 -14 4 -3 5 7 16 18 23 23 11 8 10 9 -3
4 -26 -8 -43 28 -22 48 8 9 12 16 8 16 -3 0 -1 6 5 13 6 8 8 18 4 23 -4 5 -1
3 7 -3 16 -15 23 -46 8 -37 -7 5 -8 2 -3 -6 6 -9 4 -11 -5 -5 -9 6 -11 4 -5
-5 6 -9 4 -11 -5 -5 -9 6 -11 4 -5 -5 6 -9 4 -11 -5 -5 -9 5 -11 4 -6 -4 4 -6
12 -9 17 -5 5 3 16 1 24 -6 10 -8 15 -8 21 1 4 7 3 9 -4 5 -13 -8 -26 10 -16
25 4 8 9 7 16 -2 8 -11 9 -10 5 3 -3 9 1 22 10 30 14 11 15 10 9 -12 -6 -19
-5 -21 3 -10 6 8 8 24 4 35 -5 17 -4 18 9 8 18 -15 29 -7 21 15 -5 11 -3 13 8
6 17 -10 43 -15 34 -6 -4 4 -12 7 -18 7 -7 1 -10 7 -8 15 2 8 4 20 5 27 3 19
16 28 16 12 1 -8 9 3 20 24 15 31 17 43 7 64 -9 21 -8 26 6 34 14 8 15 14 6
31 -9 16 -8 19 2 13 9 -6 11 -3 6 9 -4 9 -3 15 2 11 6 -3 10 -13 10 -23 1 -38
5 -52 12 -52 5 0 6 -6 3 -14 -3 -9 -12 -12 -22 -9 -10 4 -12 8 -4 11 7 2 10 8
6 13 -6 10 -24 3 -24 -10 0 -5 11 -16 25 -25 14 -9 25 -13 24 -9 -4 22 2 34
14 27 8 -5 7 -2 -2 9 -12 15 -11 20 8 40 11 13 21 30 21 38 0 23 11 30 26 18
8 -7 14 -7 19 1 4 6 1 9 -5 8 -7 -2 -14 8 -16 21 -3 14 -9 31 -16 38 -6 7 -8
16 -4 20 3 3 6 2 6 -4 0 -17 28 -23 34 -8 3 9 0 12 -10 8 -10 -4 -12 0 -7 13
5 13 3 15 -8 9 -8 -5 -5 1 5 13 11 12 24 22 30 22 6 0 5 -4 -3 -9 -9 -6 -4 -8
17 -8 17 1 28 5 25 10 -2 4 -1 14 4 20 4 7 1 5 -8 -5 -27 -29 -30 -7 -4 24 14
16 22 35 18 41 -4 7 0 8 13 4 18 -7 18 -7 0 8 -18 14 -15 19 9 16 6 -1 -2 10
-17 23 -27 24 -38 44 -19 32 5 -3 11 1 14 9 4 9 1 12 -9 8 -7 -3 -14 1 -14 8
0 7 3 9 7 6 3 -4 12 1 19 11 11 15 12 14 10 -9 -2 -14 -6 -31 -9 -36 -4 -6 -1
-13 7 -16 10 -4 12 1 9 16 -4 18 -3 19 6 7 9 -12 11 -9 8 15 -2 19 2 34 12 42
9 7 11 13 4 13 -12 0 -12 17 1 38 4 7 2 19 -4 27 -15 18 -7 19 23 4 20 -9 20
-9 5 4 -22 18 -22 26 -2 48 16 18 11 44 -7 34 -5 -4 -9 1 -9 9 0 9 -4 16 -10
16 -13 0 -13 -17 0 -25 5 -3 7 -12 3 -21 -7 -19 -43 -39 -43 -24 0 5 8 10 18
10 14 0 15 2 2 10 -13 8 -12 10 4 10 18 0 18 1 2 19 -16 18 -15 19 24 35 22 9
40 19 40 22 0 3 -8 3 -17 -1 -34 -13 -50 -13 -50 0 0 7 8 12 18 10 10 -2 21 0
24 5 3 5 13 7 23 3 10 -3 8 2 -7 12 l-23 18 24 21 c13 11 19 18 14 13 -16 -12
-29 -8 -19 6 15 19 24 49 13 42 -6 -3 -10 -13 -10 -22 0 -22 -13 -8 -17 18 -2
11 1 18 6 14 5 -3 12 -1 16 5 4 6 10 8 15 5 5 -3 12 -1 15 5 4 6 3 10 -2 9
-15 -4 -43 13 -37 23 3 5 13 4 22 -4 14 -10 15 -10 5 2 -7 8 -13 18 -13 23 0
4 6 5 13 1 6 -4 9 -4 5 1 -4 4 -3 15 3 24 6 9 -3 1 -19 -18 -17 -19 -29 -38
-26 -43 3 -4 0 -8 -6 -8 -6 0 -8 -5 -4 -12 4 -6 3 -8 -3 -5 -6 4 -17 0 -24 -9
-11 -13 -11 -15 2 -12 7 1 14 0 14 -3 0 -3 6 -13 14 -22 11 -14 11 -17 0 -17
-12 0 -12 -2 0 -9 8 -5 9 -11 3 -15 -6 -4 -9 -15 -7 -26 3 -13 -1 -17 -11 -13
-16 6 -18 19 -5 27 17 11 9 57 -13 68 -11 7 -25 11 -29 10 -5 -1 -6 2 -2 8 3
6 10 8 15 5 19 -12 32 37 16 63 -4 7 -4 12 1 11 20 -3 27 2 13 11 -12 7 -12
12 -2 22 17 17 15 33 -3 18 -9 -7 -18 -10 -22 -6 -3 3 -1 6 5 6 6 0 9 8 6 18
-5 14 -4 15 5 2 6 -8 11 -13 12 -10 0 3 2 16 5 29 3 18 1 21 -8 14 -24 -18
-47 -23 -42 -8 3 8 13 11 21 8 11 -4 14 -2 9 5 -4 7 2 9 19 6 27 -5 32 5 13
24 -7 7 -8 12 -2 12 6 0 15 -5 20 -10 7 -7 11 -6 11 4 0 8 -4 13 -9 10 -8 -5
-12 9 -9 34 1 6 -3 12 -9 12 -6 0 -9 4 -6 9 4 5 -2 8 -11 7 -9 -2 -19 -9 -21
-17 -2 -9 -1 -10 5 -3 6 9 11 8 20 -2 8 -8 9 -15 3 -19 -6 -3 -10 -1 -10 4 0
6 -6 10 -12 8 -7 -1 -12 6 -12 16 2 20 -12 23 -20 5 -2 -7 -4 -3 -2 10 1 12 7
27 13 33 13 13 36 2 28 -12 -4 -5 -2 -9 3 -9 5 0 14 12 21 27 10 25 10 26 -3
10 -8 -10 -17 -14 -20 -9 -3 5 -2 12 1 16 15 15 11 44 -7 61 -19 17 -19 35 1
35 6 0 8 -4 5 -9 -3 -5 2 -15 12 -22 16 -13 16 -13 2 5 -17 22 -17 25 2 38 9
6 6 7 -9 3 -18 -5 -22 -3 -17 8 3 8 1 18 -5 22 -12 7 -15 36 -3 34 4 -1 14 -1
22 0 12 1 12 4 -3 12 -25 15 -5 49 25 43 21 -4 21 -4 3 4 -19 9 -19 9 1 20 12
6 24 9 27 5 4 -3 13 -1 20 6 19 15 16 56 -3 56 -8 0 -14 8 -14 18 3 40 4 42
13 27 6 -8 9 -17 7 -20 -1 -3 9 -16 23 -30 l25 -25 -16 25 c-8 14 -14 33 -12
43 1 9 -3 17 -9 17 -7 1 -1 7 13 15 23 13 27 12 42 -8 9 -12 20 -18 24 -14 4
4 2 7 -4 7 -7 0 -12 5 -12 11 0 6 6 9 14 6 8 -3 20 2 28 11 12 16 11 16 -6 2
-18 -14 -19 -13 -13 3 4 11 3 16 -3 12 -6 -3 -10 1 -10 10 0 13 4 14 21 4 17
-9 20 -8 14 2 -6 9 -3 11 9 6 9 -4 15 -3 11 2 -3 5 1 11 7 14 7 2 1 4 -14 3
-14 0 -24 -5 -21 -11 3 -5 -4 0 -16 12 -28 30 -27 37 4 17 24 -16 25 -16 38
12 7 16 18 30 25 31 16 4 16 -14 0 -20 -10 -4 -10 -6 0 -6 7 -1 15 6 18 14 4
8 11 12 18 8 6 -3 6 -1 -1 8 -20 21 -15 31 10 18 16 -8 14 -4 -8 15 -33 28
-27 35 9 10 20 -12 26 -13 32 -2 4 7 4 10 -1 6 -4 -4 -16 -3 -27 3 -15 8 -17
13 -8 25 7 7 17 11 24 7 6 -4 6 0 -2 9 -10 13 -10 17 3 22 8 3 15 11 15 17 0
7 8 22 17 33 10 12 11 15 3 9 -19 -17 -35 -16 -21 1 9 10 8 15 -3 19 -11 4
-13 1 -10 -11 5 -13 4 -14 -4 -4 -7 11 -10 10 -16 -3 -3 -9 -3 -21 0 -26 3 -6
1 -15 -4 -22 -5 -7 -8 -20 -7 -29 2 -10 -2 -15 -10 -12 -16 7 -28 -25 -16 -40
6 -7 6 -17 1 -26 -8 -12 -10 -10 -10 7 0 17 -4 21 -17 17 -13 -4 -14 -3 -5 3
7 6 14 19 15 31 0 11 4 20 7 20 18 -2 27 4 27 17 0 8 -4 15 -9 15 -4 0 -8 5
-8 11 0 8 6 7 16 -2 15 -12 16 -11 10 7 -4 14 1 30 14 47 24 30 25 37 6 37 -8
0 -17 7 -20 16 -4 10 -2 13 7 7 6 -4 28 -8 47 -9 27 -2 30 0 15 6 -13 6 -15 9
-5 9 13 1 13 3 0 11 -12 7 -11 12 5 30 24 26 27 47 9 54 -11 4 -12 11 -5 24
11 20 -2 52 -13 33 -4 -6 -1 -11 6 -11 8 0 9 -3 3 -8 -12 -9 -16 -54 -4 -46 5
3 9 1 9 -5 0 -5 -5 -13 -10 -16 -6 -4 -7 -11 -4 -17 5 -7 2 -8 -6 -3 -7 4 -16
2 -22 -6 -7 -10 -7 -7 -3 9 5 17 2 22 -12 23 -11 0 -13 3 -5 6 7 3 19 -1 27
-7 10 -8 15 -9 15 -2 0 6 -8 16 -17 21 -11 6 -13 11 -5 11 7 0 11 4 7 10 -3 5
-12 7 -20 3 -8 -3 -15 1 -15 8 0 7 3 9 7 6 9 -9 43 22 43 40 0 17 23 12 32 -7
6 -11 7 -10 5 5 -2 11 -9 19 -15 18 -7 -2 -12 4 -12 13 0 8 4 13 9 10 4 -3 7
6 5 19 -1 14 2 25 7 25 5 0 9 5 9 11 0 8 -4 9 -13 0 -19 -15 -29 -2 -12 16 8
8 15 20 14 26 0 8 -2 8 -6 -1 -2 -6 -9 -9 -14 -6 -6 4 -6 11 1 20 9 10 7 20
-9 43 -23 31 -27 51 -11 51 6 0 10 6 10 13 -1 6 -10 1 -20 -12 -19 -22 -19
-24 -4 -36 10 -7 14 -17 10 -24 -4 -7 -2 -10 5 -9 6 2 14 -3 16 -10 3 -8 -2
-10 -14 -6 -11 3 -14 2 -7 -3 6 -4 10 -28 8 -52 -1 -24 2 -38 6 -31 5 9 9 9
14 1 4 -6 2 -11 -4 -11 -6 0 -9 -3 -7 -8 3 -4 -3 -23 -14 -42 -10 -19 -18 -31
-19 -26 0 5 -7 3 -15 -4 -13 -11 -14 -10 -9 4 3 9 13 16 21 16 10 0 13 6 9 16
-3 8 -2 13 3 10 5 -3 11 1 15 9 3 8 1 17 -4 20 -6 4 -10 0 -10 -7 0 -8 -5 -6
-11 5 -8 13 -7 22 1 32 8 9 8 15 0 20 -7 4 -8 11 -2 18 5 7 9 20 9 30 0 13 -6
16 -20 11 -13 -4 -17 -2 -13 5 4 6 14 11 22 11 8 0 14 5 14 10 0 13 -23 13
-37 -1 -8 -8 -13 -8 -18 0 -3 6 -3 11 2 10 20 -3 25 2 13 16 -11 13 -10 14 4
9 13 -5 16 0 16 24 0 17 3 32 8 35 4 2 2 2 -5 1 -6 -2 -14 4 -17 12 -4 11 1
13 22 9 l27 -6 -25 13 c-33 17 -35 35 -8 59 l23 20 -26 -15 c-24 -15 -39 -13
-39 6 0 5 4 7 8 4 5 -3 9 1 9 9 0 11 -4 12 -13 4 -10 -8 -17 -3 -28 19 -8 16
-12 32 -9 36 4 3 0 6 -7 6 -7 0 -10 3 -7 7 4 3 -2 12 -13 20 -19 13 -30 50
-12 39 5 -3 9 1 9 9 0 10 -4 12 -12 5 -9 -7 -16 -6 -24 4 -7 8 -20 12 -29 9
-15 -6 -16 -5 -2 12 9 11 10 16 3 11 -7 -4 -13 -3 -13 2 0 11 -46 33 -54 25
-11 -12 -6 -25 8 -20 8 3 22 -1 33 -8 10 -8 13 -15 8 -15 -6 0 -16 5 -22 11
-7 7 -10 3 -10 -15 0 -21 2 -24 13 -15 11 9 18 8 29 -1 12 -10 15 -10 15 1 0
20 23 -6 25 -28 1 -25 15 -44 25 -38 4 3 11 -2 14 -11 4 -10 2 -13 -7 -8 -6 4
-2 -3 11 -15 12 -12 20 -26 17 -32 -4 -5 0 -9 7 -9 8 0 6 -5 -5 -11 -23 -13
-34 -4 -18 15 8 10 9 16 1 21 -5 3 -10 1 -10 -4 0 -6 -5 -11 -11 -11 -5 0 -8
4 -4 9 3 5 1 12 -4 16 -6 3 -8 12 -5 20 4 10 0 13 -15 10 -12 -2 -21 0 -21 6
0 5 4 9 8 9 4 0 8 10 9 23 2 22 2 22 -17 -3 -11 -14 -20 -20 -20 -14 0 5 5 15
11 21 8 8 8 13 0 17 -6 4 -11 2 -11 -3 0 -6 -5 -11 -11 -11 -8 0 -8 5 1 15 12
15 0 22 -14 8 -3 -4 -15 -7 -26 -8 -18 -1 -18 0 -6 14 12 14 12 18 0 29 -18
17 -18 27 4 48 16 17 16 17 0 11 -10 -3 -20 -2 -23 3 -4 6 -1 10 4 10 6 0 11
4 11 10 0 5 -3 9 -7 9 -26 -4 -35 2 -24 15 20 24 -11 26 -38 2 -21 -18 -23
-18 -18 -3 10 28 -26 17 -40 -13 -10 -20 -12 -21 -8 -4 3 13 -1 28 -9 37 -14
13 -14 16 0 21 10 4 13 2 8 -6 -5 -7 -3 -8 6 -3 9 5 11 4 6 -3 -5 -8 -2 -10 8
-6 9 3 16 10 16 16 0 5 -4 6 -10 3 -5 -3 -10 -2 -10 4 0 5 3 11 8 14 4 2 2 3
-4 1 -6 -1 -17 3 -23 9 -9 9 -11 8 -6 -5 6 -15 2 -18 -23 -18 -19 0 -35 -7
-41 -17 -10 -17 -10 -17 -11 0 0 9 5 17 11 17 5 0 7 5 4 10 -4 6 -10 8 -15 5
-12 -7 -40 5 -40 17 0 7 4 7 13 1 15 -12 48 -13 41 -1 -3 4 -1 8 5 8 16 0 22
-18 9 -23 -7 -3 -4 -5 8 -4 11 1 21 7 21 14 0 6 -5 9 -10 6 -6 -4 -8 0 -4 10
5 13 2 14 -16 8 -16 -7 -28 -4 -44 11 -15 14 -28 18 -40 13 -10 -5 -25 -7 -33
-6 -8 2 -12 0 -8 -4 3 -3 14 -8 24 -9 9 -2 18 -10 20 -19 3 -21 -12 -22 -20
-2 -3 8 -10 15 -16 15 -6 0 -8 -5 -4 -12 4 -6 -5 -3 -19 8 -27 19 -34 34 -18
34 5 0 12 -6 14 -12 3 -7 4 0 3 16 -2 37 -21 44 -36 15 -8 -15 -9 -19 -1 -15
8 5 7 -1 -1 -19 -10 -22 -13 -24 -21 -10 -14 26 -50 35 -64 16 -12 -14 -12
-14 -6 3 4 13 3 17 -5 12 -6 -3 -13 3 -17 14 -4 11 -11 18 -16 14 -5 -3 -7
-10 -4 -15 4 -5 1 -9 -4 -9 -6 0 -11 5 -11 10 0 6 -6 9 -12 8 -7 -2 -13 4 -13
14 0 20 -35 59 -46 52 -5 -3 -6 2 -2 11 5 13 7 14 14 3 7 -10 9 -11 9 0 0 7 5
10 11 6 8 -5 8 -1 0 14 -14 26 -14 35 -1 27 6 -3 7 1 4 9 -3 9 -9 16 -13 16
-4 0 -8 7 -8 15 0 10 6 14 16 10 15 -5 15 -4 0 7 -9 7 -15 23 -14 36 1 12 -4
27 -11 33 -7 5 -11 21 -10 34 2 15 -1 22 -9 18 -8 -2 -12 3 -12 14 1 11 -4 17
-13 16 -9 -2 -6 4 8 13 12 9 22 21 22 26 0 5 -8 2 -17 -8 -11 -11 -18 -13 -21
-5 -2 6 -8 9 -13 5 -5 -3 -5 -13 1 -25 6 -11 15 -17 21 -13 6 3 8 -5 5 -20 -3
-15 -1 -24 4 -21 5 3 11 1 14 -4 4 -5 -7 -9 -25 -9 -23 1 -27 3 -15 10 8 5 13
15 10 23 -4 8 -11 12 -18 8 -6 -3 -8 -3 -4 2 4 4 2 17 -5 29 -14 26 -19 66 -7
66 14 0 21 -18 10 -25 -5 -3 -10 -12 -10 -18 0 -7 6 -4 14 5 10 13 15 15 24 6
9 -9 12 -9 12 0 0 7 -4 12 -10 12 -18 0 -11 17 13 29 21 11 5 8 -30 -6 -16 -6
-17 -5 -3 12 11 14 12 19 2 22 -6 3 -10 9 -7 14 4 5 -1 6 -10 2 -13 -5 -14 -7
-3 -14 10 -7 10 -9 -2 -9 -13 0 -13 -2 0 -11 12 -9 11 -9 -5 -3 -11 4 -28 7
-37 8 -9 0 -14 4 -11 9 2 4 14 5 26 1 19 -6 20 -5 8 9 -7 9 -18 14 -24 10 -6
-4 -7 -1 -1 8 20 33 13 44 -26 40 -13 -2 -13 -1 0 8 8 6 11 11 6 11 -6 0 -5 5
2 12 7 7 12 17 12 22 0 6 -5 5 -12 -2 -7 -7 -16 -12 -22 -12 -5 0 -1 6 9 14
25 18 36 11 31 -19 -3 -15 1 -26 10 -29 9 -3 12 -11 8 -17 -4 -7 -3 -9 4 -5 7
4 9 -1 7 -16 -4 -21 -4 -21 12 -5 16 16 16 18 -5 33 -12 8 -22 20 -22 26 0 6
9 3 20 -7 11 -10 20 -13 20 -8 0 6 -7 13 -15 17 -9 3 -12 12 -9 23 4 14 4 15
-4 4 -14 -19 -22 8 -10 32 5 10 7 21 4 25 -3 3 -6 0 -6 -7 0 -7 -4 -9 -10 -6
-6 4 -7 -1 -3 -11 4 -12 3 -15 -5 -10 -6 4 -21 2 -32 -4 -11 -6 -20 -7 -20 -2
0 6 10 12 22 15 12 4 19 9 16 13 -11 10 21 36 34 28 10 -5 10 -4 1 6 -10 11
-16 10 -33 -5 -11 -10 -20 -13 -20 -8 0 6 6 16 14 22 15 13 16 35 1 48 -4 4
-5 3 -2 -3 4 -7 -2 -14 -13 -17 -11 -3 -20 -1 -20 4 0 5 5 9 12 9 9 0 9 3 0
12 -8 8 -15 8 -25 -1 -12 -9 -17 -6 -27 19 -7 16 -16 30 -21 30 -13 0 -20 -18
-9 -23 6 -3 5 -4 -1 -3 -7 1 -13 9 -15 18 -1 11 5 15 21 14 23 -3 27 8 12 31
-6 9 -3 11 7 7 9 -3 16 -2 16 3 0 5 -9 9 -20 10 -22 2 -26 -7 -9 -24 9 -9 4
-11 -21 -8 -38 5 -53 15 -22 15 12 0 22 4 22 10 0 5 -8 7 -17 4 -15 -5 -15 -4
-3 4 8 6 18 8 22 6 4 -3 8 0 8 6 0 7 -8 9 -20 5 -12 -4 -20 -2 -20 5 0 6 4 9
9 6 5 -4 11 -1 13 5 3 8 9 6 20 -4 14 -14 17 -14 22 -2 3 8 2 14 -2 14 -22 -4
-32 2 -26 14 6 9 4 9 -8 -1 -8 -7 -23 -10 -32 -6 -12 5 -15 2 -10 -12 4 -14 3
-16 -4 -5 -8 11 -10 11 -15 0 -3 -8 -4 0 -3 18 3 33 -17 73 -36 73 -6 0 -3 -9
7 -20 10 -11 15 -23 12 -27 -4 -3 -7 -1 -7 6 0 7 -5 9 -12 5 -6 -4 -8 -3 -4 4
3 6 -1 15 -9 20 -13 7 -12 10 10 20 15 7 24 9 21 4 -2 -4 4 -14 16 -21 11 -7
17 -8 13 -2 -3 6 0 11 7 11 7 1 0 8 -15 16 -15 8 -25 19 -22 23 2 5 -2 14 -10
21 -18 15 -20 34 -2 24 6 -4 9 -4 5 1 -4 4 -2 15 4 24 8 10 4 9 -9 -3 -20 -17
-23 -17 -29 -2 -3 9 -11 16 -16 16 -6 0 -5 -6 2 -15 6 -8 8 -20 4 -26 -5 -8
-3 -9 6 -4 9 6 11 4 5 -5 -6 -9 -4 -11 6 -5 8 5 11 4 6 0 -4 -5 0 -17 10 -27
9 -11 11 -18 5 -18 -7 0 -12 5 -12 11 0 5 -4 8 -9 5 -5 -3 -14 1 -21 9 -7 8
-16 12 -21 9 -5 -3 -6 2 -3 10 3 9 11 16 17 16 6 0 7 3 3 8 -7 7 -11 8 -37 11
-5 0 -7 6 -3 12 4 8 9 7 16 -2 7 -11 8 -9 4 4 -3 10 -6 21 -6 24 0 3 -7 -1
-17 -8 -12 -10 -17 -11 -20 -2 -2 7 -11 9 -20 6 -12 -5 -12 -2 3 15 22 26 25
27 18 8 -3 -8 0 -17 7 -22 9 -5 10 -2 6 9 -8 21 7 22 27 1 9 -8 16 -10 16 -4
0 6 -7 13 -15 16 -8 4 -12 10 -9 15 3 5 2 9 -3 8 -17 -3 -33 1 -32 9 4 21 -2
32 -13 26 -8 -5 -9 -2 -4 11 5 14 4 16 -7 6 -22 -17 -40 10 -28 41 8 22 7 25
-12 24 -12 -1 -27 -5 -34 -9 -6 -4 -14 -3 -18 3 -3 5 -2 10 3 10 5 0 9 7 9 15
0 8 -4 15 -9 15 -4 0 -8 -8 -8 -17 0 -15 -2 -16 -10 -3 -5 8 -10 11 -10 7 0
-17 38 -58 42 -46 6 18 38 20 38 2 0 -9 -6 -13 -15 -10 -8 4 -17 1 -21 -5 -5
-7 -2 -8 6 -3 9 5 11 4 6 -4 -5 -7 -2 -10 6 -9 7 2 12 -3 10 -9 -1 -7 5 -13
13 -13 8 0 15 -5 15 -11 0 -5 -4 -7 -10 -4 -6 3 -7 -1 -4 -9 3 -9 1 -16 -6
-16 -6 0 -9 4 -5 9 3 5 -8 24 -25 42 -16 19 -30 38 -30 42 0 5 -6 5 -12 0 -18
-15 -45 -12 -45 4 0 9 4 10 11 3 5 -5 15 -10 21 -10 5 1 -1 9 -14 20 -12 11
-28 17 -34 13 -6 -3 -7 -1 -3 5 4 7 2 12 -5 12 -7 0 -10 3 -7 6 4 3 19 -2 34
-12 21 -14 26 -15 22 -4 -3 9 4 21 16 28 20 13 20 13 -3 6 -16 -4 -21 -3 -17
5 4 6 2 11 -4 11 -6 0 -8 5 -5 10 4 6 1 9 -7 8 -7 -2 -12 2 -11 9 3 15 -24 11
-40 -7 -6 -7 -7 -10 -2 -7 6 3 12 -3 12 -14 1 -10 -3 -19 -8 -19 -6 0 -8 4 -5
9 3 5 -8 19 -25 32 -52 40 -69 61 -64 83 2 12 4 23 4 26 1 3 6 -2 11 -10 6 -9
10 -10 10 -3 0 6 -4 14 -9 17 -11 7 -43 -28 -34 -38 4 -4 -1 -4 -12 0 -16 6
-18 5 -7 -7 6 -7 12 -18 12 -23 0 -6 -5 -3 -11 6 -6 11 -16 15 -27 11 -9 -3
-4 4 11 17 15 12 26 25 23 28 -3 3 -16 -3 -28 -14 -12 -10 -18 -13 -13 -5 6
10 2 11 -16 6 -22 -7 -22 -7 -6 9 9 10 14 22 11 28 -4 7 -2 8 4 4 20 -12 13
10 -8 29 -12 11 -20 13 -20 6 0 -7 -5 -9 -10 -6 -8 5 -7 11 1 21 8 10 8 14 0
14 -6 0 -11 -4 -11 -9 0 -11 -19 -9 -39 3 -10 6 -12 5 -7 -2 4 -7 2 -12 -3
-12 -6 0 -11 -8 -11 -17 0 -9 -3 -14 -6 -10 -4 3 -2 19 4 34 9 26 7 29 -14 31
-13 1 -24 -3 -24 -9 0 -6 7 -9 15 -5 13 4 14 2 5 -14 -6 -11 -8 -26 -4 -32 4
-7 3 -8 -5 -4 -6 4 -11 13 -10 19 5 33 -61 91 -76 68 -3 -5 0 -11 7 -14 7 -2
6 -3 -3 -2 -9 1 -24 -2 -34 -8 -12 -6 -16 -6 -11 1 3 6 0 13 -6 16 -7 3 -3 3
9 0 18 -4 22 -2 17 11 -4 10 -14 15 -25 12 -15 -4 -16 -2 -7 19 6 13 15 21 21
17 5 -3 3 -10 -4 -15 -11 -7 -10 -8 4 -4 13 4 16 2 11 -7 -5 -8 -2 -7 9 2 11
9 17 10 17 2 0 -6 -4 -11 -10 -11 -5 0 -10 -5 -10 -11 0 -8 6 -7 17 2 9 8 17
12 19 9 1 -3 6 -1 11 4 5 5 3 6 -4 2 -13 -7 -17 4 -13 34 1 11 -2 10 -13 -4
-13 -18 -14 -18 -30 5 -10 13 -17 18 -17 12 0 -7 -8 -10 -18 -8 -10 2 -25 -1
-33 -5 -9 -6 -20 -3 -31 7 -18 16 -25 6 -10 -13 4 -5 -1 -1 -10 9 -10 11 -18
24 -18 31 0 6 5 4 10 -4 9 -13 10 -13 10 0 0 13 2 13 11 0 9 -13 10 -12 5 3
-3 9 0 17 6 17 6 0 8 3 5 6 -4 4 -14 1 -23 -7 -10 -8 -19 -12 -21 -9 -3 3 -11
-6 -18 -20 -9 -15 -14 -19 -15 -10 0 13 -2 13 -11 0 -9 -13 -10 -12 -5 2 3 11
-2 22 -14 28 -11 6 -20 8 -20 4 0 -3 -6 -1 -14 5 -16 14 -50 1 -59 -21 -4 -9
-6 -10 -6 -1 -1 6 4 15 9 18 22 14 -10 35 -36 24 -17 -6 -23 -6 -19 1 3 6 12
10 20 10 8 0 12 8 10 20 -2 11 0 22 6 25 5 4 9 1 9 -6 0 -7 3 -10 6 -6 12 12
-7 28 -20 18 -7 -6 -15 -9 -18 -6 -2 3 -5 -2 -5 -10 0 -8 5 -11 10 -8 6 4 7 1
2 -7 -8 -14 -9 -13 -42 37 -12 17 -12 17 -6 -2 6 -18 5 -18 -10 -6 -9 7 -14
18 -10 24 4 6 1 7 -7 2 -9 -6 -12 -4 -8 7 4 9 0 15 -8 15 -12 0 -11 -5 2 -25
15 -24 15 -25 -1 -18 -10 3 -24 1 -33 -6 -13 -11 -14 -10 -8 10 6 19 4 23 -11
20 -10 -2 -17 2 -15 10 1 6 -2 12 -8 12 -5 0 -10 -5 -10 -11 0 -5 -4 -8 -9 -5
-5 4 -8 -1 -7 -9 2 -13 8 -18 19 -14 1 0 10 2 20 4 15 3 16 1 6 -11 -9 -11 -8
-15 5 -20 9 -3 22 -1 29 4 8 7 18 8 27 1 13 -9 13 -10 0 -8 -8 1 -23 -1 -33
-6 -12 -5 -24 -1 -37 10 -11 10 -20 13 -20 7 0 -6 5 -14 10 -17 13 -8 13 -25
-1 -25 -5 0 -8 3 -5 8 2 4 -2 16 -10 27 -8 10 -14 15 -14 11 0 -5 -7 -3 -15 4
-8 7 -15 18 -15 24 0 6 5 4 11 -4 9 -13 10 -12 5 3 -3 10 0 20 8 23 19 7 28
32 14 40 -6 4 -8 3 -5 -3 7 -11 -38 -55 -46 -46 -3 3 -3 12 0 21 4 15 3 15 -6
2 -7 -10 -11 -11 -11 -2 0 6 -5 12 -12 12 -6 0 -4 -8 6 -19 16 -17 16 -19 -6
-25 l-23 -6 24 -20 c13 -11 19 -20 13 -20 -5 0 -15 6 -22 14 -6 8 -17 14 -23
12 -7 -1 -9 -1 -4 1 13 8 -3 22 -18 17 -8 -4 -12 -10 -9 -15 3 -5 -2 -6 -11
-3 -20 8 -13 30 9 26 9 -2 16 2 16 8 0 6 -4 9 -9 5 -12 -7 -43 24 -36 36 4 5
2 9 -3 9 -6 0 -13 -7 -16 -16 -3 -8 -2 -13 3 -10 5 3 11 -1 15 -9 6 -18 1 -19
-25 -4 -16 8 -18 14 -9 24 12 15 4 15 -38 1 -23 -8 -25 -33 -3 -28 6 1 11 -2
11 -8 0 -6 -5 -10 -11 -10 -5 0 -8 -4 -5 -8 3 -4 -20 -8 -50 -8 -42 1 -51 3
-39 12 15 11 22 29 7 20 -4 -2 -9 4 -9 15 -1 11 2 17 8 14 5 -4 9 -1 9 5 0 7
-6 10 -12 7 -7 -2 -22 3 -33 12 -18 15 -19 15 -6 -1 10 -14 11 -21 2 -32 -9
-11 -9 -16 0 -22 7 -4 9 -3 6 3 -3 5 0 10 7 10 8 0 12 -6 9 -14 -7 -17 -13
-16 -43 7 -14 11 -19 19 -11 18 7 -2 16 4 18 12 4 13 3 13 -6 0 -9 -13 -11
-13 -11 -1 0 11 -4 9 -14 -5 -13 -17 -15 -17 -21 -2 -7 18 -26 18 -47 0 -8 -6
-18 -9 -21 -5 -4 3 1 12 11 20 15 12 14 13 -8 1 -14 -7 -29 -11 -34 -10 -5 2
-17 -5 -27 -14 -11 -9 -19 -13 -19 -8 1 13 26 45 32 39 2 -3 5 2 5 10 0 20 -3
19 -20 -5z m146 -42 c5 1 6 -2 3 -7 -3 -5 3 -11 14 -14 11 -3 20 -11 20 -19 0
-10 -2 -10 -9 1 -5 8 -18 12 -29 9 -16 -5 -19 -2 -15 11 5 13 2 12 -16 -3 -22
-20 -22 -20 -15 0 7 17 6 17 -9 5 -9 -7 -17 -10 -18 -5 0 5 -4 0 -9 -11 l-9
-20 -1 20 c-2 11 -2 22 -2 25 0 3 -8 6 -19 6 -18 0 -18 -2 -5 -12 15 -10 15
-13 1 -24 -9 -7 -18 -10 -22 -6 -3 3 -1 6 5 6 7 0 12 5 12 11 0 5 -4 8 -9 4
-15 -9 -22 12 -8 23 13 11 35 11 53 -1 7 -4 17 0 24 8 10 12 16 12 34 3 11 -7
25 -11 29 -10z m204 15 c-4 -3 -2 -13 5 -20 16 -20 19 -56 3 -43 -7 5 -14 9
-16 7 -2 -1 2 3 9 9 10 9 9 13 -5 19 -10 5 -22 7 -28 6 -5 -1 -1 6 9 14 20 15
35 21 23 8z m-490 -64 c1 -9 -4 -16 -11 -16 -9 0 -12 7 -9 16 5 12 3 13 -6 5
-14 -13 -51 -7 -51 8 0 5 4 7 9 4 4 -3 17 4 27 15 17 19 18 19 28 2 6 -10 11
-25 13 -34z m46 16 c-7 -21 -12 -19 -10 4 0 11 5 18 9 15 4 -3 5 -11 1 -19z
m81 9 c3 -8 -1 -11 -10 -7 -10 4 -12 0 -7 -13 7 -18 6 -18 -11 -1 -19 18 -41
24 -31 7 3 -5 1 -10 -4 -10 -12 0 -13 3 -6 22 7 18 63 19 69 2z m532 -31 c-4
-4 -12 -1 -19 7 -9 10 -9 11 1 6 7 -4 12 -2 13 6 0 11 2 11 6 0 3 -7 2 -16 -1
-19z m-488 -19 c-12 -12 -17 -13 -23 -3 -5 8 -4 10 4 5 6 -4 14 0 17 9 4 9 9
13 12 10 3 -3 -1 -13 -10 -21z m102 22 c0 -2 -7 -6 -15 -10 -8 -3 -15 -1 -15
4 0 6 7 10 15 10 8 0 15 -2 15 -4z m-330 -10 c0 -3 -4 -8 -10 -11 -5 -3 -10
-1 -10 4 0 6 5 11 10 11 6 0 10 -2 10 -4z m555 -5 c3 -5 2 -12 -3 -15 -5 -3
-9 1 -9 9 0 17 3 19 12 6z m341 -17 c-3 -8 1 -14 9 -14 9 0 12 6 9 18 -5 14
-4 15 5 2 16 -23 13 -32 -11 -28 -14 2 -22 11 -23 25 -1 12 2 20 7 17 5 -4 7
-12 4 -20z m-880 1 c-1 -8 -5 -17 -8 -21 -5 -4 -4 16 1 34 3 9 9 -1 7 -13z
m744 -17 c0 -4 -4 -8 -9 -8 -6 0 -12 4 -15 8 -3 5 1 9 9 9 8 0 15 -4 15 -9z
m103 6 c-7 -3 -9 -13 -6 -22 4 -14 3 -14 -5 -2 -12 16 -7 30 11 29 9 0 9 -2 0
-5z m-965 -29 c-3 -3 -9 2 -12 12 -6 14 -5 15 5 6 7 -7 10 -15 7 -18z m-231 8
c-4 -3 1 -12 11 -19 14 -10 15 -15 4 -26 -11 -11 -12 -10 -6 6 5 13 4 17 -3
13 -6 -4 -13 -1 -16 7 -5 13 0 26 11 26 3 0 2 -3 -1 -7z m198 -3 c-3 -5 -12
-10 -18 -10 -7 0 -6 4 3 10 19 12 23 12 15 0z m-95 -14 c0 -2 -7 -7 -16 -10
-8 -3 -12 -2 -9 4 6 10 25 14 25 6z m-246 -38 c-4 -6 1 -17 11 -25 11 -7 14
-13 8 -13 -7 0 -15 5 -18 10 -4 6 -11 7 -17 4 -6 -4 -5 -9 3 -15 7 -4 10 -11
6 -15 -4 -4 -14 1 -22 12 -13 17 -12 21 6 37 24 20 33 22 23 5z m131 -17 c-3
-2 -11 2 -20 9 -14 12 -19 7 -16 -13 1 -5 -3 -6 -9 -2 -8 5 -8 11 0 20 9 11
16 12 30 2 11 -6 17 -13 15 -16z m1422 23 c-3 -3 -12 -4 -19 -1 -8 3 -5 6 6 6
11 1 17 -2 13 -5z m60 -36 c-3 -8 -6 -5 -6 6 -1 11 2 17 5 13 3 -3 4 -12 1
-19z m-1650 -33 c0 -11 -4 -12 -11 -5 -13 13 -29 13 -21 0 3 -5 1 -10 -5 -10
-7 0 -9 8 -5 20 5 15 3 18 -9 14 -9 -3 -13 -11 -9 -17 3 -6 1 -7 -5 -3 -7 4
-12 3 -12 -3 0 -5 8 -15 18 -21 13 -8 13 -10 2 -9 -34 3 -51 -1 -44 -12 4 -8
1 -8 -12 -1 -11 5 -29 8 -42 7 -12 -1 -28 5 -35 13 -10 13 -8 14 10 8 12 -4
24 -2 28 4 4 6 16 8 27 4 15 -5 19 -3 13 7 -5 8 -5 11 0 7 4 -4 24 4 43 17 32
22 38 23 52 10 9 -8 17 -22 17 -30z m1756 28 c-6 -15 -19 -17 -27 -4 -7 11 0
18 18 18 8 0 12 -6 9 -14z m-1663 -7 c0 -3 -4 -8 -10 -11 -5 -3 -10 -1 -10 4
0 6 5 11 10 11 6 0 10 -2 10 -4z m1643 -29 c-3 -4 -6 -7 -7 -5 -1 2 -8 12 -16
22 -14 18 -14 18 7 6 12 -8 19 -18 16 -23z m128 -59 c-10 -11 -11 -10 -5 5 5
14 2 16 -12 11 -16 -5 -16 -4 -4 5 20 14 39 -4 21 -21z m130 -25 c6 -6 18 -9
25 -6 18 7 18 -7 -2 -35 -15 -22 -39 -21 -31 1 5 15 -24 47 -36 40 -6 -3 -7
-1 -4 5 8 12 33 10 48 -5z m-2243 -19 c19 -3 27 -13 18 -21 -4 -4 -11 -1 -15
6 -7 10 -12 8 -23 -8 -8 -11 -18 -18 -21 -15 -4 4 -10 -1 -13 -10 -5 -14 -9
-15 -16 -4 -7 9 -8 7 -5 -9 3 -14 1 -20 -7 -17 -15 6 -14 49 1 49 6 0 14 3 18
7 4 4 14 4 23 0 14 -5 15 -3 5 10 -14 17 -6 31 11 21 6 -4 17 -8 24 -9z m62
-10 c0 -8 -19 -13 -24 -6 -3 5 1 9 9 9 8 0 15 -2 15 -3z m-66 -39 c-4 -8 -8
-15 -10 -15 -2 0 -4 7 -4 15 0 8 4 15 10 15 5 0 7 -7 4 -15z m2281 -24 c-9 -8
-36 -10 -30 -2 2 4 11 8 20 8 8 0 13 -3 10 -6z m-2360 -31 c-3 -5 -12 -10 -18
-10 -7 0 -6 4 3 10 19 12 23 12 15 0z m2448 -3 c3 -8 -1 -14 -8 -14 -7 0 -11
6 -8 14 3 7 6 13 8 13 2 0 5 -6 8 -13z m-2498 -27 c-3 -5 -12 -10 -18 -10 -7
0 -6 4 3 10 19 12 23 12 15 0z m2545 -6 c0 -2 -7 -4 -15 -4 -8 0 -15 4 -15 10
0 5 7 7 15 4 8 -4 15 -8 15 -10z m101 -36 c5 -10 6 -18 2 -18 -17 0 -34 18
-38 39 -4 19 -2 21 11 10 8 -7 20 -21 25 -31z m-2676 22 c3 -5 1 -10 -4 -10
-6 0 -11 5 -11 10 0 6 2 10 4 10 3 0 8 -4 11 -10z m2602 -29 c0 -11 -5 -18 -9
-15 -4 3 -5 11 -1 19 7 21 12 19 10 -4z m-2713 -3 c-3 -4 -9 -8 -15 -8 -5 0
-9 4 -9 8 0 5 7 9 15 9 8 0 12 -4 9 -9z m0 -66 c3 -5 -1 -9 -9 -9 -8 0 -15 4
-15 9 0 4 4 8 9 8 6 0 12 -4 15 -8z m2840 -38 c5 -14 4 -15 -9 -4 -17 14 -19
20 -6 20 5 0 12 -7 15 -16z m-2937 -39 c-9 -9 -14 -10 -19 -1 -5 7 -8 5 -8 -6
0 -10 -4 -18 -10 -18 -5 0 -9 -3 -7 -7 1 -5 0 -8 -3 -9 -3 0 -16 -6 -30 -13
-24 -11 -24 -11 -6 3 13 11 15 16 6 16 -7 0 4 13 25 29 39 29 77 33 52 6z
m2970 -5 c-1 -10 -5 -17 -9 -14 -4 3 -5 11 -1 19 4 11 0 14 -13 9 -15 -5 -16
-4 -4 4 18 14 29 7 27 -18z m80 -5 c0 -17 -6 -18 -26 -6 -16 11 -6 32 13 25 7
-3 13 -11 13 -19z m-23 -24 c4 -5 -3 -7 -14 -4 -23 6 -26 13 -6 13 8 0 17 -4
20 -9z m35 -54 c-2 -1 -13 -9 -24 -17 -19 -14 -19 -14 -6 3 7 9 18 17 24 17 6
0 8 -1 6 -3z m-3159 -27 c-12 -8 -12 -10 -1 -10 8 0 12 -3 8 -6 -9 -9 -28 6
-22 17 4 5 12 9 18 9 7 0 6 -4 -3 -10z m3183 -15 c-7 -21 -12 -19 -10 4 0 11
5 18 9 15 4 -3 5 -11 1 -19z m-3213 -42 c3 -3 -4 -3 -15 -1 -11 1 -24 8 -28
13 -5 6 -5 0 -2 -12 6 -21 -2 -28 -27 -24 -5 0 -8 -3 -8 -7 0 -5 -6 -9 -14 -9
-7 0 0 14 18 32 30 31 49 33 76 8z m17 21 c-3 -3 -12 -4 -19 -1 -8 3 -5 6 6 6
11 1 17 -2 13 -5z m3237 -19 c11 -8 15 -15 9 -15 -7 0 -15 5 -18 10 -4 6 -11
8 -16 5 -5 -4 -9 -1 -9 4 0 15 11 13 34 -4z m-3220 -21 c3 -8 2 -12 -4 -9 -6
3 -10 10 -10 16 0 14 7 11 14 -7z m3206 -14 c0 -5 -2 -10 -4 -10 -3 0 -8 5
-11 10 -3 6 -1 10 4 10 6 0 11 -4 11 -10z m-3263 -6 c-3 -3 -12 -4 -19 -1 -8
3 -5 6 6 6 11 1 17 -2 13 -5z m-7 -28 c0 -2 -7 -7 -16 -10 -8 -3 -12 -2 -9 4
6 10 25 14 25 6z m-30 -40 c0 -2 -7 -6 -15 -10 -8 -3 -15 -1 -15 4 0 6 7 10
15 10 8 0 15 -2 15 -4z m-116 -137 c3 -3 -5 -5 -19 -5 -13 0 -22 3 -19 7 4 8
30 6 38 -2z m3606 -14 c9 -11 16 -12 25 -5 10 8 13 6 11 -7 -1 -14 5 -17 24
-15 l25 4 -22 -23 c-19 -20 -23 -20 -37 -6 -12 11 -13 17 -3 20 7 4 6 6 -4 6
-9 1 -20 8 -23 17 -3 8 -10 12 -16 9 -5 -3 -10 -1 -10 4 0 16 16 13 30 -4z
m-3672 -92 c-12 -13 -17 -27 -12 -35 6 -10 4 -10 -9 1 -22 18 -22 3 1 -22 17
-20 17 -20 -12 -2 l-28 19 21 17 c12 10 21 19 20 21 -1 2 4 13 12 25 9 15 16
19 21 10 4 -6 -2 -21 -14 -34z m3666 39 c2 -4 -4 -8 -14 -8 -10 0 -16 4 -14 8
3 4 9 8 14 8 5 0 11 -4 14 -8z m61 -32 c6 -1 12 -3 13 -5 2 -2 -4 -2 -15 0
-10 2 -24 4 -30 4 -7 1 -13 6 -13 11 0 7 6 7 18 1 9 -5 22 -10 27 -11z m-3670
-10 c3 -5 1 -10 -4 -10 -6 0 -11 5 -11 10 0 6 2 10 4 10 3 0 8 -4 11 -10z m-5
-56 c0 -8 -19 -13 -24 -6 -3 5 1 9 9 9 8 0 15 -2 15 -3z m-73 -50 c-3 -3 -12
-4 -19 -1 -8 3 -5 6 6 6 11 1 17 -2 13 -5z m3776 -15 c-8 -8 -13 -7 -18 2 -5
8 -4 10 3 5 7 -4 12 -2 12 5 0 7 3 9 7 6 4 -4 2 -12 -4 -18z m-3785 -16 c-11
-3 -15 -11 -12 -21 5 -14 4 -14 -4 -2 -13 18 -6 30 16 29 16 -1 16 -2 0 -6z
m3822 -47 c0 -2 -7 -7 -16 -10 -8 -3 -12 -2 -9 4 6 10 25 14 25 6z m-3855 -49
c4 5 5 2 1 -5 -5 -9 -13 -9 -26 -2 -13 7 -21 7 -25 0 -3 -5 2 -11 12 -11 17
-1 17 -2 0 -6 -9 -2 -14 -9 -11 -15 4 -7 2 -8 -4 -4 -7 4 -12 1 -12 -6 0 -10
-3 -9 -10 2 -5 9 -5 19 2 27 6 7 7 13 3 13 -4 0 -2 7 5 15 10 12 15 12 34 0
13 -8 26 -12 31 -8z m-35 -68 c0 -5 -4 -7 -10 -4 -5 3 -10 -2 -10 -13 0 -10
-9 -27 -19 -36 -19 -17 -19 -17 -17 1 2 10 -1 21 -7 24 -5 4 3 14 19 23 35 18
44 20 44 5z m3925 -7 c-3 -3 -11 0 -18 7 -9 10 -8 11 6 5 10 -3 15 -9 12 -12z
m27 -54 c-3 -14 -2 -19 6 -14 7 4 12 14 12 23 0 13 2 13 16 2 10 -8 12 -15 5
-17 -6 -2 -8 -9 -4 -15 10 -16 13 -41 5 -32 -4 4 -7 12 -7 18 0 5 -6 12 -14
15 -9 3 -11 0 -7 -7 4 -7 2 -19 -6 -28 -11 -14 -11 -16 3 -11 9 3 22 2 30 -3
12 -7 12 -9 -1 -9 -13 0 -13 -2 -1 -9 8 -5 15 -19 16 -30 1 -15 -2 -18 -14
-12 -9 5 -24 7 -33 6 -10 -2 -18 1 -18 7 0 6 7 8 15 5 8 -4 17 -1 21 5 8 13
-36 49 -50 41 -5 -3 -6 -1 -2 6 4 6 11 9 16 6 14 -9 23 16 11 28 -13 13 -15
47 -2 47 5 0 7 -10 3 -22z m-3948 0 c-3 -4 -9 -8 -15 -8 -5 0 -9 4 -9 8 0 5 7
9 15 9 8 0 12 -4 9 -9z m-66 -139 c-2 -6 -7 -10 -12 -9 -5 1 -12 -4 -17 -12
-6 -9 -8 -7 -7 8 1 12 10 21 21 21 10 1 17 -3 15 -8z m4035 -20 c-8 -8 -13 -7
-18 2 -5 8 -4 10 3 5 7 -4 12 -2 12 5 0 7 3 9 7 6 4 -4 2 -12 -4 -18z m-3993
7 c0 -3 -4 -8 -10 -11 -5 -3 -10 -1 -10 4 0 6 5 11 10 11 6 0 10 -2 10 -4z
m4020 -44 c0 -5 -7 -9 -15 -9 -8 0 -12 4 -9 9 3 4 9 8 15 8 5 0 9 -4 9 -8z
m17 -27 c0 -8 -4 -12 -9 -9 -5 3 -6 10 -3 15 9 13 12 11 12 -6z m223 -25 c0
-5 -4 -10 -10 -10 -5 0 -10 5 -10 10 0 6 5 10 10 10 6 0 10 -4 10 -10z m-73
-42 c10 -17 14 -42 5 -33 -4 4 -8 11 -8 16 -1 5 -2 12 -3 15 0 4 -8 1 -16 -6
-13 -11 -14 -10 -9 4 7 19 20 21 31 4z m178 -8 c11 -12 13 -20 6 -20 -6 0 -14
7 -17 15 -4 8 -10 13 -14 10 -5 -3 -11 -1 -15 5 -11 18 22 10 40 -10z m-128
-22 c-3 -8 -6 -5 -6 6 -1 11 2 17 5 13 3 -3 4 -12 1 -19z m33 -3 c11 -13 10
-14 -4 -9 -9 3 -16 10 -16 15 0 13 6 11 20 -6z m-4323 -47 c-3 -7 -5 -2 -5 12
0 14 2 19 5 13 2 -7 2 -19 0 -25z m4393 22 c0 -5 -2 -10 -4 -10 -3 0 -8 5 -11
10 -3 6 -1 10 4 10 6 0 11 -4 11 -10z m-4360 -10 c0 -5 -2 -10 -4 -10 -3 0 -8
5 -11 10 -3 6 -1 10 4 10 6 0 11 -4 11 -10z m4447 -16 c-3 -3 -12 -4 -19 -1
-8 3 -5 6 6 6 11 1 17 -2 13 -5z m20 -26 c-3 -8 -6 -5 -6 6 -1 11 2 17 5 13 3
-3 4 -12 1 -19z m109 7 c-3 -8 3 -19 12 -25 15 -10 15 -11 -3 -6 -17 5 -17 4
4 -12 18 -15 21 -21 11 -27 -9 -5 -11 -4 -6 3 7 12 -4 16 -34 13 -11 -1 -12 0
-3 6 8 6 9 14 3 23 -5 9 -5 19 2 27 14 17 21 16 14 -2z m-4592 -7 c-3 -4 -9
-8 -15 -8 -5 0 -9 4 -9 8 0 5 7 9 15 9 8 0 12 -4 9 -9z m4527 -21 c-10 -9 -11
-8 -5 6 3 10 9 15 12 12 3 -3 0 -11 -7 -18z m32 -12 c-3 -9 -8 -13 -11 -11 -3
3 -10 2 -17 -2 -6 -4 -2 1 8 11 24 21 28 21 20 2z m-4572 -38 c-10 -9 -11 -8
-5 6 3 10 9 15 12 12 3 -3 0 -11 -7 -18z m4634 -27 c3 -6 -1 -7 -9 -4 -18 7
-21 14 -7 14 6 0 13 -4 16 -10z m-4650 -10 c3 -5 1 -10 -4 -10 -6 0 -11 5 -11
10 0 6 2 10 4 10 3 0 8 -4 11 -10z m8 -40 c-3 -12 -8 -19 -11 -16 -5 6 5 36
12 36 2 0 2 -9 -1 -20z m15 -75 c-3 -3 -9 2 -12 12 -6 14 -5 15 5 6 7 -7 10
-15 7 -18z m0 -60 c-3 -3 -9 2 -12 12 -6 14 -5 15 5 6 7 -7 10 -15 7 -18z
m4825 -12 c-4 -10 -2 -14 5 -9 27 16 35 -43 10 -75 -17 -21 -18 -21 -9 -2 9
18 8 24 -6 33 -16 11 -16 11 -1 6 10 -3 20 -1 23 4 4 6 0 10 -7 10 -7 0 -19 9
-25 19 -12 19 -11 21 14 30 1 1 -1 -6 -4 -16z m-4826 -16 c0 -8 -6 -14 -14
-14 -17 0 -17 14 0 20 6 3 12 6 13 6 0 1 1 -5 1 -12z m4802 -1 c9 -10 8 -15
-2 -19 -8 -3 -13 3 -13 14 0 23 0 23 15 5z m-4839 -10 c0 -2 -7 -7 -16 -10 -8
-3 -12 -2 -9 4 6 10 25 14 25 6z m4851 -43 c12 -16 12 -17 -2 -6 -9 7 -20 9
-24 5 -5 -4 -5 -1 -1 6 9 16 11 15 27 -5z m-4791 3 c0 -2 -6 -9 -14 -15 -11
-9 -16 -9 -22 0 -4 7 -3 9 4 5 6 -3 13 -2 17 4 6 10 15 14 15 6z m-40 -39 c0
-7 -4 -6 -10 3 -8 12 -10 10 -10 -8 0 -13 4 -20 10 -17 6 3 10 1 10 -4 0 -18
-18 -13 -29 7 -7 13 -7 22 1 30 13 13 28 7 28 -11z m4890 2 c0 -5 -7 -9 -16
-9 -9 0 -12 -5 -8 -12 5 -7 3 -8 -6 -3 -10 6 -10 11 3 20 9 7 13 16 9 20 -4 5
-1 5 6 1 6 -4 12 -11 12 -17z m-4853 -15 c-3 -3 -12 -4 -19 -1 -8 3 -5 6 6 6
11 1 17 -2 13 -5z m4803 -18 c0 -3 -4 -8 -10 -11 -5 -3 -10 -1 -10 4 0 6 5 11
10 11 6 0 10 -2 10 -4z m-4840 -23 c0 -5 -4 -14 -9 -21 -7 -11 -9 -11 -14 1
-3 8 -3 18 0 21 9 8 23 7 23 -1z m20 -18 c0 -8 -4 -15 -10 -15 -5 0 -7 7 -4
15 4 8 8 15 10 15 2 0 4 -7 4 -15z m4831 -38 c-10 -9 -11 -8 -5 6 3 10 9 15
12 12 3 -3 0 -11 -7 -18z m42 -28 c-8 -8 -13 -7 -18 2 -5 8 -4 10 3 5 7 -4 12
-2 12 5 0 7 3 9 7 6 4 -4 2 -12 -4 -18z m-4898 -48 c-3 -6 -11 -11 -17 -11 -6
0 -6 6 2 15 14 17 26 13 15 -4z m79 -37 c3 -8 2 -12 -4 -9 -6 3 -10 10 -10 16
0 14 7 11 14 -7z m-14 -20 c0 -3 -4 -3 -9 0 -5 4 -11 0 -14 -6 -3 -10 -7 -10
-17 -1 -19 17 -3 35 21 23 10 -6 19 -13 19 -16z m35 -13 c-3 -2 -16 -6 -28 -8
-15 -2 -18 0 -9 5 14 9 45 12 37 3z m-20 -57 c-16 -26 -16 -26 7 -20 l23 6
-22 -11 c-13 -7 -23 -16 -23 -21 0 -5 5 -6 10 -3 6 3 10 2 10 -3 0 -6 -7 -13
-16 -16 -8 -3 -12 -2 -9 4 3 6 1 10 -6 10 -10 0 -10 3 -1 12 9 9 7 14 -6 25
-15 12 -15 12 0 7 10 -3 20 2 28 15 6 12 13 21 17 21 3 0 -2 -12 -12 -26z m42
-70 c-3 -3 -12 -4 -19 -1 -8 3 -5 6 6 6 11 1 17 -2 13 -5z m4783 -19 c0 -8 -3
-16 -7 -18 -5 -3 -8 5 -8 18 0 13 3 21 8 18 4 -2 7 -10 7 -18z m36 -27 c4 -7
3 -8 -4 -4 -7 4 -12 2 -12 -4 0 -6 -5 -8 -11 -4 -8 4 -7 9 2 15 18 11 17 11
25 -3z m-4802 -24 c3 -8 2 -12 -4 -9 -6 3 -10 10 -10 16 0 14 7 11 14 -7z
m4726 -24 c0 -5 -2 -10 -4 -10 -3 0 -8 5 -11 10 -3 6 -1 10 4 10 6 0 11 -4 11
-10z m35 -8 c-3 -3 -11 0 -18 7 -9 10 -8 11 6 5 10 -3 15 -9 12 -12z m-4740
-12 c3 -5 1 -10 -4 -10 -6 0 -11 5 -11 10 0 6 2 10 4 10 3 0 8 -4 11 -10z
m4725 -10 c0 -5 -2 -10 -4 -10 -3 0 -8 5 -11 10 -3 6 -1 10 4 10 6 0 11 -4 11
-10z m40 -50 c0 -10 -7 -21 -16 -24 -14 -5 -15 -4 -5 8 6 7 8 22 4 31 -4 13
-3 16 5 11 7 -4 12 -15 12 -26z m-4720 4 c0 -8 -19 -13 -24 -6 -3 5 1 9 9 9 8
0 15 -2 15 -3z m15 -43 c3 -5 2 -12 -3 -15 -5 -3 -9 1 -9 9 0 17 3 19 12 6z
m20 -59 c-3 -3 0 -11 7 -19 8 -11 7 -12 -5 -7 -21 7 -29 31 -11 31 8 0 12 -3
9 -5z m4610 -29 c5 -15 4 -16 -6 -5 -19 18 -27 15 -24 -13 4 -32 -7 -38 -31
-20 -16 13 -17 14 -1 9 9 -3 18 -1 18 5 1 6 3 16 4 21 1 6 3 12 4 15 3 13 30
3 36 -12z m-4592 -34 c-4 -15 -8 -17 -14 -8 -6 11 4 28 18 29 0 0 -1 -9 -4
-21z m41 -21 c-3 -4 -11 -5 -19 -1 -21 7 -19 12 4 10 11 0 18 -5 15 -9z m-42
-30 c10 -12 16 -28 13 -36 -4 -10 0 -12 10 -8 9 3 13 2 10 -4 -3 -6 -1 -10 5
-10 6 0 8 -4 5 -10 -3 -5 1 -10 10 -10 12 0 15 -6 10 -22 -6 -22 -6 -22 9 -4
9 11 16 15 16 9 0 -7 -5 -15 -10 -18 -6 -4 -7 -11 -4 -17 4 -6 9 -5 15 3 4 7
11 10 16 6 4 -5 1 -12 -7 -17 -8 -6 -11 -10 -7 -10 5 0 5 -5 1 -11 -6 -11 -28
3 -30 19 -2 20 -17 41 -25 36 -5 -3 -6 2 -3 10 3 9 -5 24 -20 37 -15 13 -24
29 -22 35 6 15 -18 37 -29 26 -5 -4 -5 -1 -1 6 10 17 16 15 38 -10z m4446 -13
c-3 -3 -9 2 -12 12 -6 14 -5 15 5 6 7 -7 10 -15 7 -18z m66 10 c-4 -8 -11 -12
-16 -9 -6 4 -5 10 3 15 19 12 19 11 13 -6z m6 -40 c0 -2 -5 -7 -12 -11 -7 -4
-8 -3 -4 4 7 12 -4 16 -34 13 -13 -2 -13 0 -1 8 13 9 51 -2 51 -14z m-4450 11
c0 -3 -4 -8 -10 -11 -5 -3 -10 -1 -10 4 0 6 5 11 10 11 6 0 10 -2 10 -4z m30
-32 c0 -8 -19 -13 -24 -6 -3 5 1 9 9 9 8 0 15 -2 15 -3z m64 -86 c-3 -5 -9 -6
-14 -3 -4 3 -10 0 -12 -7 -3 -8 -6 -7 -10 3 -4 11 1 15 17 15 13 0 21 -4 19
-8z m4226 3 c0 -5 -3 -11 -7 -14 -5 -2 -3 -2 4 -1 7 2 15 -1 18 -6 3 -5 13 -6
22 -3 11 4 14 3 9 -5 -4 -7 -20 -10 -39 -7 -17 4 -28 3 -24 -1 3 -4 -5 -20
-19 -37 -20 -23 -22 -32 -13 -44 7 -8 8 -13 3 -12 -22 4 -35 -2 -28 -13 5 -7
3 -8 -6 -3 -8 5 -11 3 -8 -6 3 -8 11 -14 19 -14 16 0 22 -42 7 -51 -5 -3 0
-16 11 -28 20 -22 23 -57 4 -63 -6 -2 -13 3 -17 12 -3 9 -2 14 3 11 5 -3 12 1
15 10 4 12 1 14 -14 9 -11 -4 -20 -2 -20 4 0 6 -6 9 -12 7 -7 -1 -10 -1 -5 1
4 3 5 9 1 14 -3 5 0 9 5 9 6 0 11 5 11 11 0 5 -6 7 -12 3 -7 -4 -10 -4 -6 1 4
4 0 14 -10 22 -16 12 -16 13 0 7 13 -4 16 -1 13 15 -2 12 -7 26 -10 31 -4 6
-1 9 6 8 6 -2 14 3 17 11 3 9 0 11 -9 6 -8 -5 -11 -4 -6 1 5 5 14 9 20 9 5 0
12 6 15 14 3 8 0 11 -7 7 -22 -14 -10 6 22 36 22 22 26 29 12 24 -20 -7 -20
-7 0 13 22 22 35 26 35 12z m50 -2 c0 -10 -27 -19 -34 -12 -12 12 -5 22 14 20
11 -1 20 -4 20 -8z m-4235 -59 c3 -5 1 -10 -4 -10 -6 0 -11 5 -11 10 0 6 2 10
4 10 3 0 8 -4 11 -10z m4101 -2 c3 -4 -1 -5 -10 -4 -8 1 -18 5 -22 8 -3 4 1 5
10 4 8 -1 18 -5 22 -8z m-4104 -60 c-24 -24 -11 -31 15 -7 22 19 24 20 10 2
-11 -12 -14 -24 -9 -27 6 -3 13 -1 15 4 3 6 4 5 3 -2 -2 -7 -9 -13 -17 -14
-18 0 -72 36 -64 44 3 4 10 0 15 -7 6 -11 11 -10 21 7 7 12 15 19 18 16 3 -2
-1 -10 -7 -16z m63 -18 c3 -5 1 -10 -4 -10 -6 0 -11 5 -11 10 0 6 2 10 4 10 3
0 8 -4 11 -10z m4009 -18 c3 -5 -1 -9 -9 -9 -8 0 -12 4 -9 9 3 4 7 8 9 8 2 0
6 -4 9 -8z m-4009 -82 c3 -5 1 -10 -4 -10 -6 0 -11 5 -11 10 0 6 2 10 4 10 3
0 8 -4 11 -10z m4040 -40 c3 -5 1 -10 -4 -10 -6 0 -11 5 -11 10 0 6 2 10 4 10
3 0 8 -4 11 -10z m6 -43 c-10 -9 -11 -8 -5 6 3 10 9 15 12 12 3 -3 0 -11 -7
-18z m-3866 3 c-3 -5 -12 -10 -18 -10 -7 0 -6 4 3 10 19 12 23 12 15 0z m42
-30 c1 -11 -2 -22 -6 -24 -6 -4 -7 26 -2 42 3 8 7 -1 8 -18z m-57 6 c0 -3 -4
-8 -10 -11 -5 -3 -10 -1 -10 4 0 6 5 11 10 11 6 0 10 -2 10 -4z m11 -20 c-8
-10 -9 -16 -1 -21 5 -3 10 0 11 7 0 7 5 3 11 -9 6 -13 15 -23 20 -23 5 0 7 4
4 8 -3 5 1 9 9 9 8 0 12 -4 9 -8 -2 -4 -1 -9 3 -12 5 -2 2 -2 -4 -1 -15 4 -16
-5 -3 -26 6 -10 10 -11 10 -2 0 6 5 12 10 12 6 0 9 -5 8 -11 -2 -6 3 -14 11
-17 9 -3 11 0 6 8 -6 9 -4 11 5 5 10 -6 10 -11 -4 -20 -14 -11 -15 -13 -1 -19
8 -3 15 -2 15 2 0 5 7 17 15 28 11 13 14 14 13 4 -2 -8 -7 -18 -13 -22 -5 -4
-6 -10 -2 -14 3 -4 13 -1 21 6 9 6 21 10 28 7 8 -4 7 -6 -4 -6 -10 -1 -17 -6
-15 -13 2 -13 -27 -15 -58 -5 -11 4 -37 31 -57 59 -21 29 -38 46 -38 38 0 -9
-4 -8 -14 5 -10 14 -11 23 -3 37 6 9 13 15 16 13 2 -3 -2 -11 -8 -19z m108
-60 c-3 -3 -11 5 -18 17 -13 21 -12 21 5 5 10 -10 16 -20 13 -22z m3822 1 c-5
-5 -17 -5 -28 2 -16 9 -15 10 9 9 16 -2 24 -6 19 -11z m-22 -14 c7 -1 19 -7
25 -14 8 -9 7 -9 -9 -1 -11 6 -26 7 -35 2 -12 -6 -16 -4 -16 10 0 10 5 16 11
12 5 -4 16 -7 24 -9z m-3718 -74 c-13 -11 -21 -22 -17 -26 3 -3 14 1 24 10 30
27 33 20 6 -10 -25 -27 -26 -27 -40 -8 -13 18 -13 21 6 29 11 5 20 13 20 18 0
4 6 8 13 8 6 -1 1 -10 -12 -21z m94 -8 c3 -5 2 -12 -3 -15 -5 -3 -9 1 -9 9 0
17 3 19 12 6z m3615 -37 c0 -8 -19 -13 -24 -6 -3 5 1 9 9 9 8 0 15 -2 15 -3z
m-3513 -56 c-3 -8 -6 -5 -6 6 -1 11 2 17 5 13 3 -3 4 -12 1 -19z m19 -26 c-2
-4 3 -13 12 -19 21 -13 66 2 56 18 -4 8 -3 9 4 5 17 -10 3 -36 -20 -36 -10 0
-17 -4 -14 -9 4 -5 -2 -8 -11 -6 -10 1 -24 -2 -30 -8 -7 -5 -13 -6 -13 -2 0 4
8 14 18 22 9 8 12 12 5 9 -6 -3 -18 -3 -27 0 -12 5 -13 9 -3 20 13 14 32 19
23 6z m44 -4 c0 -4 -4 -8 -9 -8 -6 0 -12 4 -15 8 -3 5 1 9 9 9 8 0 15 -4 15
-9z m3520 8 c0 -3 -4 -8 -10 -11 -5 -3 -10 -1 -10 4 0 6 5 11 10 11 6 0 10 -2
10 -4z m-3385 -56 c-3 -5 -1 -10 6 -10 7 0 10 -3 6 -6 -9 -9 -28 6 -22 17 4 5
8 9 11 9 3 0 2 -4 -1 -10z m78 -25 c-7 -21 -12 -19 -10 4 0 11 5 18 9 15 4 -3
5 -11 1 -19z m3245 -1 c0 -17 -3 -22 -8 -13 -5 6 -6 18 -3 26 8 19 11 16 11
-13z m-3217 -7 c-6 -8 -7 -18 -3 -22 4 -5 1 -5 -6 -1 -10 6 -10 11 -1 22 6 8
14 14 16 14 3 0 0 -6 -6 -13z m-66 -18 c-4 -6 -1 -10 6 -8 36 4 43 -1 26 -19
-10 -10 -14 -22 -10 -25 3 -4 2 -7 -4 -7 -6 0 -18 11 -26 24 -12 17 -13 26 -4
35 14 14 20 14 12 0z m99 -21 c-3 -4 -9 -8 -15 -8 -5 0 -9 4 -9 8 0 5 7 9 15
9 8 0 12 -4 9 -9z m3156 8 c0 -2 -8 -10 -17 -17 -16 -13 -17 -12 -4 4 13 16
21 21 21 13z m-3056 -24 c3 -5 -1 -9 -9 -9 -8 0 -12 4 -9 9 3 4 7 8 9 8 2 0 6
-4 9 -8z m7 -39 c13 -16 12 -17 -3 -4 -17 13 -22 21 -14 21 2 0 10 -8 17 -17z
m3054 -42 c-9 -8 -36 -10 -30 -2 2 4 11 8 20 8 8 0 13 -3 10 -6z m51 -29 c-18
-16 -18 -16 -6 6 6 13 14 21 18 18 3 -4 -2 -14 -12 -24z m-3035 1 c13 -16 12
-17 -3 -4 -17 13 -22 21 -14 21 2 0 10 -8 17 -17z m2973 -29 c3 -8 2 -12 -4
-9 -6 3 -10 10 -10 16 0 14 7 11 14 -7z m-2949 -4 c3 -5 1 -10 -4 -10 -6 0
-11 5 -11 10 0 6 2 10 4 10 3 0 8 -4 11 -10z m2987 -2 c-8 -8 -8 -15 -1 -24 6
-7 7 -19 3 -26 -5 -7 -9 -22 -9 -33 -1 -11 -7 -19 -14 -17 -7 1 -20 -3 -29
-10 -13 -11 -13 -9 1 13 10 14 14 29 10 34 -5 4 -3 5 4 1 6 -3 14 -2 18 4 6
10 -7 14 -34 11 -11 -2 -11 0 0 12 12 12 15 12 27 0 8 -8 17 -11 20 -8 4 3 1
10 -6 14 -14 9 -6 41 11 41 8 0 7 -4 -1 -12z m-3006 -37 c-4 -5 0 -12 6 -14 8
-3 6 -6 -4 -6 -18 -1 -24 10 -11 22 9 10 15 8 9 -2z m36 -36 c-2 -14 -8 -28
-13 -31 -5 -3 -7 2 -4 10 3 9 7 23 10 31 7 24 13 17 7 -10z m-32 -16 c-14 -26
14 -46 38 -28 15 12 16 12 5 -2 -7 -9 -9 -19 -5 -24 4 -4 -4 -2 -18 5 -14 8
-27 13 -30 12 -3 -1 -5 2 -5 7 0 5 -3 12 -7 16 -10 11 1 32 17 32 10 0 11 -5
5 -18z m3 -86 l-17 -28 29 25 c16 14 24 18 17 8 -9 -11 -10 -18 -2 -23 5 -3
10 -1 10 6 0 7 3 10 6 7 3 -4 1 -15 -4 -25 -12 -24 -4 -51 10 -32 8 11 9 10 5
-3 -3 -9 1 -22 9 -28 8 -7 14 -17 14 -23 0 -6 -6 -2 -14 9 -8 10 -18 15 -22
11 -5 -4 -2 -13 6 -18 13 -9 13 -10 0 -6 -9 2 -14 14 -13 26 2 12 -1 20 -6 16
-15 -8 -25 15 -12 28 17 17 13 26 -11 22 -12 -3 -27 3 -34 13 -18 23 -17 37 1
22 12 -10 16 -9 21 4 3 9 10 16 15 16 5 0 2 -12 -8 -27z m2926 -6 c-2 -1 -13
-9 -24 -17 -19 -14 -19 -14 -6 3 7 9 18 17 24 17 6 0 8 -1 6 -3z m-2839 -13
c0 -8 -19 -13 -24 -6 -3 5 1 9 9 9 8 0 15 -2 15 -3z m2872 -16 c-5 -5 -17 -6
-26 -2 -13 5 -14 9 -5 14 16 11 43 0 31 -12z m-10 -23 c3 3 5 -2 5 -10 0 -12
-3 -12 -15 -2 -13 10 -14 9 -4 -9 9 -18 8 -25 -7 -38 -9 -9 -21 -16 -26 -16
-5 0 -16 -7 -25 -15 -14 -13 -17 -13 -17 -1 0 8 5 14 11 13 6 -1 10 4 8 11 -2
9 4 12 16 8 22 -7 26 20 8 43 -9 12 -8 13 3 6 11 -6 13 -4 8 9 -5 13 -3 15 12
7 10 -6 20 -8 23 -6z m-54 -40 c-3 -3 -9 2 -12 12 -6 14 -5 15 5 6 7 -7 10
-15 7 -18z m-2785 -85 c3 -11 2 -18 -3 -15 -4 3 -10 14 -13 25 -3 11 -2 18 3
15 4 -3 10 -14 13 -25z m22 20 c3 -5 1 -10 -4 -10 -6 0 -11 5 -11 10 0 6 2 10
4 10 3 0 8 -4 11 -10z m2718 -5 c4 -8 3 -16 -1 -19 -4 -3 -9 4 -9 15 -2 23 3
25 10 4z m11 -77 c-3 -5 0 -8 7 -8 8 0 8 -4 -1 -15 -7 -9 -16 -12 -19 -7 -3 5
-14 13 -25 19 -16 9 -17 11 -2 16 10 4 15 3 11 -3 -3 -6 -2 -10 4 -10 15 0 23
18 11 25 -5 3 -10 11 -10 18 0 6 6 2 14 -8 8 -11 12 -23 10 -27z m-2789 22 c3
-5 1 -10 -4 -10 -6 0 -11 5 -11 10 0 6 2 10 4 10 3 0 8 -4 11 -10z m80 -10
c-3 -5 2 -22 11 -37 10 -18 11 -22 2 -11 -8 10 -17 15 -20 13 -3 -3 -4 5 -3
17 3 27 3 28 11 28 3 0 2 -4 -1 -10z m2680 -50 c-3 -5 -1 -10 4 -10 17 0 13
-25 -7 -43 -16 -15 -19 -15 -19 -2 0 8 6 15 13 15 8 0 11 6 7 16 -4 11 -8 12
-13 4 -5 -8 -9 -7 -13 5 -4 9 -3 13 2 10 5 -3 12 -1 16 5 3 5 8 10 11 10 3 0
2 -4 -1 -10z m-82 -55 c-3 -9 -8 -14 -10 -11 -3 3 -2 9 2 15 9 16 15 13 8 -4z
m-2518 -35 c3 -5 1 -10 -4 -10 -6 0 -11 5 -11 10 0 6 2 10 4 10 3 0 8 -4 11
-10z m2515 -14 c0 -2 -7 -7 -16 -10 -8 -3 -12 -2 -9 4 6 10 25 14 25 6z m-55
-15 c3 -5 2 -12 -3 -15 -5 -3 -9 1 -9 9 0 17 3 19 12 6z m70 -22 c0 -8 -6 -13
-13 -11 -9 2 -12 -5 -8 -20 3 -13 3 -17 0 -10 -3 6 -10 12 -15 12 -6 0 -8 -4
-4 -9 3 -6 -3 -14 -12 -20 -14 -8 -15 -10 -3 -11 13 0 13 -1 0 -10 -8 -5 -11
-10 -6 -10 5 0 3 -7 -4 -15 -6 -8 -9 -20 -5 -27 4 -7 0 -5 -8 5 -15 18 -15 18
-21 -1 -4 -11 -14 -26 -23 -34 -13 -10 -15 -10 -9 0 4 7 3 18 -2 25 -12 15
-12 47 0 47 5 0 6 -9 3 -21 -7 -20 -7 -20 21 -2 21 13 24 19 12 21 -9 2 -19
10 -22 19 -6 14 -4 14 10 2 14 -11 19 -10 35 9 10 13 16 29 13 36 -3 7 3 19
13 26 15 12 16 12 6 0 -20 -22 -15 -35 5 -17 10 10 22 14 25 10 4 -3 7 -1 7 5
0 5 -5 13 -10 15 -6 3 -5 4 2 3 7 -2 13 -9 13 -17z m-2480 1 c3 -6 -1 -7 -9
-4 -18 7 -21 14 -7 14 6 0 13 -4 16 -10z m2397 -49 c-4 -10 -7 -11 -10 -3 -2
7 -9 9 -14 6 -6 -4 -8 -3 -5 3 10 16 36 11 29 -6z m-2373 -42 c-8 -4 -10 -11
-6 -15 3 -4 13 -1 22 6 8 7 15 8 15 3 0 -15 -48 -34 -55 -22 -4 5 -12 7 -18 3
-7 -3 -2 3 10 14 12 11 19 23 15 26 -3 4 2 4 12 0 14 -5 15 -9 5 -15z m2291
-9 c0 -5 -2 -10 -4 -10 -3 0 -8 5 -11 10 -3 6 -1 10 4 10 6 0 11 -4 11 -10z
m-2200 -14 c0 -3 -4 -8 -10 -11 -5 -3 -10 -1 -10 4 0 6 5 11 10 11 6 0 10 -2
10 -4z m2159 -113 c10 9 11 8 5 -6 -4 -11 -13 -16 -23 -13 -13 5 -13 4 2 -8 9
-7 17 -17 17 -21 0 -4 -6 -3 -12 3 -14 11 -17 12 -45 13 -14 0 -13 2 5 9 12 5
22 15 22 21 0 8 -6 7 -17 -2 -17 -13 -17 -12 -4 4 13 17 16 17 26 3 9 -12 14
-13 24 -3z m-2065 -14 c3 -3 -4 -5 -14 -6 -11 -1 -20 2 -20 7 0 8 25 8 34 -1z
m1980 -5 c3 -8 2 -12 -4 -9 -6 3 -10 10 -10 16 0 14 7 11 14 -7z m-14 -30 c0
-8 -19 -13 -24 -6 -3 5 1 9 9 9 8 0 15 -2 15 -3z m-106 -94 c-6 -6 -10 -3 -10
10 0 13 4 16 10 10 7 -7 7 -13 0 -20z m-1714 -6 c0 -2 -9 0 -20 6 -11 6 -20
13 -20 16 0 2 9 0 20 -6 11 -6 20 -13 20 -16z m60 22 c0 -3 -4 -8 -10 -11 -5
-3 -10 -1 -10 4 0 6 5 11 10 11 6 0 10 -2 10 -4z m1750 0 c0 -2 -12 -11 -27
-20 l-28 -17 24 20 c23 21 31 25 31 17z m-170 -30 c0 -2 -8 -10 -17 -17 -16
-13 -17 -12 -4 4 13 16 21 21 21 13z m-1624 -15 c-3 -5 5 -12 19 -15 15 -4 25
-14 25 -24 0 -15 2 -15 10 -2 5 8 10 10 10 4 0 -6 14 -17 30 -24 17 -7 29 -18
27 -24 -6 -17 -39 -13 -72 9 -16 11 -36 20 -44 22 -8 1 -23 10 -34 21 -14 15
-16 21 -6 27 7 5 10 4 6 -2 -6 -10 3 -17 28 -23 6 -1 16 -7 24 -13 11 -10 13
-9 9 3 -2 8 -11 15 -19 15 -14 0 -29 14 -29 28 0 4 5 7 11 7 5 0 8 -4 5 -9z
m1564 -21 c0 -5 -5 -10 -11 -10 -5 0 -7 5 -4 10 3 6 8 10 11 10 2 0 4 -4 4
-10z m-1449 -27 c13 -16 12 -17 -3 -4 -17 13 -22 21 -14 21 2 0 10 -8 17 -17z
m1307 -38 c-3 -3 -9 2 -12 12 -6 14 -5 15 5 6 7 -7 10 -15 7 -18z m-1268 5 c0
-5 -5 -10 -11 -10 -5 0 -7 5 -4 10 3 6 8 10 11 10 2 0 4 -4 4 -10z m80 -20
c-18 -12 -30 -13 -30 -2 0 4 10 9 22 9 18 2 20 0 8 -7z m24 -22 c-3 -4 -9 -8
-15 -8 -5 0 -9 4 -9 8 0 5 7 9 15 9 8 0 12 -4 9 -9z m1050 -16 c3 -5 -1 -9 -9
-9 -8 0 -12 4 -9 9 3 4 7 8 9 8 2 0 6 -4 9 -8z m146 -2 c-9 -6 -11 -10 -3 -10
7 0 10 -6 7 -14 -3 -7 -16 -13 -29 -13 -14 0 -22 4 -19 9 3 5 13 7 21 4 8 -3
11 -1 8 4 -8 13 3 30 18 30 7 0 6 -4 -3 -10z m-1097 -32 c7 -10 15 -18 20 -18
4 0 6 4 3 9 -4 5 2 8 11 6 10 -2 22 -4 28 -4 14 -1 -37 -35 -57 -38 -9 -2 -24
4 -32 12 -10 10 -17 12 -21 4 -5 -7 -13 -4 -26 7 -14 12 -16 20 -8 30 15 19
69 14 82 -8z m798 5 c13 -16 12 -17 -3 -4 -10 7 -18 15 -18 17 0 8 8 3 21 -13z
m124 7 c3 -5 1 -10 -4 -10 -6 0 -11 5 -11 10 0 6 2 10 4 10 3 0 8 -4 11 -10z
m-262 -35 c-3 -9 -8 -14 -10 -11 -3 3 -2 9 2 15 9 16 15 13 8 -4z m-433 -7 c0
-4 -4 -8 -9 -8 -6 0 -12 4 -15 8 -3 5 1 9 9 9 8 0 15 -4 15 -9z m475 -18 c2
-12 1 -20 -2 -16 -4 4 -8 16 -10 28 -4 28 6 18 12 -12z m85 20 c0 -5 -2 -10
-4 -10 -3 0 -8 5 -11 10 -3 6 -1 10 4 10 6 0 11 -4 11 -10z m-360 -30 c0 -5
-2 -10 -4 -10 -3 0 -8 5 -11 10 -3 6 -1 10 4 10 6 0 11 -4 11 -10z m120 -2 c0
-19 -56 -48 -68 -36 -6 6 -15 4 -25 -6 -14 -14 -16 -14 -21 1 -4 9 -2 21 4 27
7 7 10 6 10 -2 0 -7 5 -12 10 -12 6 0 10 7 10 15 0 8 4 15 10 15 5 0 6 -7 3
-17 -5 -12 -3 -14 8 -7 8 4 21 9 29 9 8 0 14 6 13 13 -2 6 2 12 7 12 6 0 10
-6 10 -12z m77 6 c-3 -3 -12 -4 -19 -1 -8 3 -5 6 6 6 11 1 17 -2 13 -5z m243
-14 c0 -5 -4 -10 -10 -10 -5 0 -10 5 -10 10 0 6 5 10 10 10 6 0 10 -4 10 -10z"/>
<path d="M3009 6232 c-11 -14 -11 -15 0 -5 7 6 20 9 27 6 8 -3 14 -3 14 0 0
14 -30 14 -41 -1z"/>
<path d="M2745 6209 c-4 -6 -4 -13 -1 -16 3 -4 6 -1 6 6 0 8 6 11 16 7 8 -3
12 -2 9 4 -8 13 -22 13 -30 -1z"/>
<path d="M2180 6036 c0 -2 8 -10 18 -17 15 -13 16 -12 3 4 -13 16 -21 21 -21
13z"/>
<path d="M2115 5989 c-4 -5 -13 -8 -21 -5 -7 3 -16 1 -19 -4 -3 -5 9 -7 26 -5
36 5 45 10 30 19 -5 4 -13 1 -16 -5z"/>
<path d="M4201 5905 c9 -11 14 -26 12 -32 -8 -22 6 -14 18 10 6 12 8 19 4 14
-5 -4 -18 1 -29 10 -21 18 -21 18 -5 -2z"/>
<path d="M1541 5546 c-9 -11 -9 -16 1 -22 7 -4 10 -4 6 1 -4 4 -3 14 3 22 6 7
9 13 6 13 -2 0 -10 -6 -16 -14z"/>
<path d="M4936 5088 c3 -5 10 -6 15 -3 13 9 11 12 -6 12 -8 0 -12 -4 -9 -9z"/>
<path d="M1219 5053 c-13 -16 -12 -17 4 -4 9 7 17 15 17 17 0 8 -8 3 -21 -13z"/>
<path d="M1090 4730 c-8 -26 -7 -41 2 -32 6 6 8 16 5 24 -3 7 -6 11 -7 8z"/>
<path d="M5646 2905 c-11 -8 -17 -17 -14 -20 2 -3 13 4 23 15 21 23 18 25 -9
5z"/>
<path d="M5605 2771 c3 -22 21 -25 21 -3 0 10 -6 19 -12 19 -6 0 -11 -7 -9
-16z"/>
<path d="M5610 2721 c0 -5 5 -13 10 -16 6 -3 10 -2 10 4 0 5 -4 13 -10 16 -5
3 -10 2 -10 -4z"/>
<path d="M2359 2198 c14 -19 32 -15 30 5 0 8 -2 8 -6 -1 -4 -10 -8 -10 -21 0
-15 12 -16 11 -3 -4z"/>
<path d="M5625 1961 c-3 -5 -2 -12 3 -15 5 -3 9 1 9 9 0 17 -3 19 -12 6z"/>
<path d="M5339 1368 c-5 -18 -6 -38 -1 -34 7 8 12 36 6 36 -2 0 -4 -1 -5 -2z"/>
<path d="M3359 972 c20 -14 61 -24 61 -16 0 6 -42 26 -63 29 -22 4 -21 3 2
-13z"/>
<path d="M3585 870 c-3 -4 2 -13 9 -19 10 -9 16 -9 21 -1 5 8 13 6 26 -6 23
-21 35 -13 20 14 -10 19 -66 29 -76 12z m35 -6 c0 -8 -19 -13 -24 -6 -3 5 1 9
9 9 8 0 15 -2 15 -3z m31 -11 c13 -16 12 -17 -3 -4 -17 13 -22 21 -14 21 2 0
10 -8 17 -17z"/>
<path d="M3689 843 c-13 -16 -12 -17 4 -4 16 13 21 21 13 21 -2 0 -10 -8 -17
-17z"/>
<path d="M2690 6279 c0 -5 5 -7 10 -4 6 3 10 8 10 11 0 2 -4 4 -10 4 -5 0 -10
-5 -10 -11z"/>
<path d="M2836 6282 c-3 -5 1 -9 9 -9 8 0 12 4 9 9 -3 4 -7 8 -9 8 -2 0 -6 -4
-9 -8z"/>
<path d="M3056 6277 c3 -10 9 -15 12 -12 3 3 0 11 -7 18 -10 9 -11 8 -5 -6z"/>
<path d="M3190 6273 c7 -3 7 -10 -1 -20 -7 -8 -13 -23 -14 -33 -1 -13 5 -17
27 -16 32 2 35 13 11 41 -9 11 -16 22 -14 25 1 2 -2 5 -9 7 -7 1 -7 0 0 -4z
m26 -45 c15 -19 16 -20 2 -9 -10 7 -18 10 -18 7 0 -4 -5 -4 -10 -1 -6 4 -8 11
-5 16 8 12 9 12 31 -13z"/>
<path d="M2630 6261 c0 -6 4 -13 10 -16 6 -3 7 1 4 9 -7 18 -14 21 -14 7z"/>
<path d="M2870 6260 c0 -5 5 -10 10 -10 6 0 10 5 10 10 0 6 -4 10 -10 10 -5 0
-10 -4 -10 -10z"/>
<path d="M2673 6245 c-3 -9 -3 -18 -1 -21 3 -3 8 4 11 16 6 23 -1 27 -10 5z"/>
<path d="M2790 6250 c0 -5 5 -10 11 -10 5 0 7 5 4 10 -3 6 -8 10 -11 10 -2 0
-4 -4 -4 -10z"/>
<path d="M3350 6250 c-13 -8 -12 -10 3 -10 9 0 17 5 17 10 0 12 -1 12 -20 0z"/>
<path d="M3384 6228 c3 -13 5 -25 5 -27 1 -3 6 0 12 6 9 9 8 16 -5 28 -15 15
-16 15 -12 -7z"/>
<path d="M2614 6231 c4 -6 0 -14 -8 -17 -9 -3 -16 -10 -16 -15 0 -15 15 -10
27 11 9 14 10 21 1 26 -7 4 -8 3 -4 -5z"/>
<path d="M3657 6224 c-10 -11 5 -34 22 -34 14 1 14 2 -2 11 -9 6 -15 14 -12
20 7 10 2 12 -8 3z"/>
<path d="M2562 6208 c2 -7 -2 -12 -9 -11 -9 2 -11 -16 -3 -37 1 -3 2 -8 2 -11
-2 -12 27 -5 32 8 3 7 1 13 -4 13 -5 0 -7 9 -5 20 2 11 -1 22 -6 26 -5 3 -8 0
-7 -8z m5 -33 c0 -8 -4 -12 -9 -9 -5 3 -6 10 -3 15 9 13 12 11 12 -6z"/>
<path d="M2396 6202 c-3 -5 1 -9 9 -9 8 0 12 4 9 9 -3 4 -7 8 -9 8 -2 0 -6 -4
-9 -8z"/>
<path d="M2435 6201 c-3 -5 -2 -12 3 -15 5 -3 9 1 9 9 0 17 -3 19 -12 6z"/>
<path d="M3726 6202 c-3 -5 1 -9 9 -9 8 0 12 4 9 9 -3 4 -7 8 -9 8 -2 0 -6 -4
-9 -8z"/>
<path d="M2335 6191 c-3 -5 -2 -12 3 -15 5 -3 9 1 9 9 0 17 -3 19 -12 6z"/>
<path d="M2490 6179 c0 -10 27 -19 34 -12 12 12 5 22 -14 20 -11 -1 -20 -4
-20 -8z"/>
<path d="M3739 6163 c14 -29 14 -40 -1 -25 -7 7 -19 12 -27 12 -12 0 -10 -6 7
-22 17 -18 25 -20 31 -10 6 10 10 10 20 -2 16 -19 32 -15 60 13 18 18 20 23 7
18 -10 -4 -20 -7 -22 -7 -2 0 -4 -8 -4 -17 0 -13 -3 -14 -12 -5 -8 8 -8 15 2
27 10 12 11 18 1 28 -10 9 -11 8 -6 -5 4 -11 -1 -20 -14 -28 -12 -6 -21 -7
-21 -1 0 5 5 12 10 14 6 3 5 4 -2 3 -7 -2 -19 4 -26 13 -11 14 -12 13 -3 -6z"/>
<path d="M2340 6146 c0 -2 7 -6 15 -10 8 -3 15 -1 15 4 0 6 -7 10 -15 10 -8 0
-15 -2 -15 -4z"/>
<path d="M3856 6118 c5 -7 2 -9 -9 -5 -20 7 -30 -18 -13 -32 10 -8 16 -5 24
15 15 31 15 34 1 34 -5 0 -7 -5 -3 -12z"/>
<path d="M2270 6110 c-9 -6 -10 -10 -3 -10 6 0 15 5 18 10 8 12 4 12 -15 0z"/>
<path d="M2208 6088 c-10 -10 -14 -18 -9 -18 10 0 36 29 30 34 -2 1 -12 -6
-21 -16z"/>
<path d="M3926 6093 c-6 -14 -5 -15 5 -6 7 7 10 15 7 18 -3 3 -9 -2 -12 -12z"/>
<path d="M4005 6076 c10 -14 19 -26 22 -26 7 0 -17 39 -28 46 -6 3 -3 -5 6
-20z"/>
<path d="M3932 6074 c-13 -6 -19 -14 -14 -18 5 -3 15 1 22 9 6 7 18 11 26 8 8
-3 14 -3 14 0 0 12 -27 13 -48 1z"/>
<path d="M4060 6041 c0 -5 7 -12 16 -15 14 -5 15 -4 4 9 -14 17 -20 19 -20 6z"/>
<path d="M4106 6022 c-3 -5 1 -9 9 -9 8 0 15 4 15 9 0 4 -4 8 -9 8 -6 0 -12
-4 -15 -8z"/>
<path d="M4075 6000 c-3 -5 -1 -10 4 -10 6 0 11 5 11 10 0 6 -2 10 -4 10 -3 0
-8 -4 -11 -10z"/>
<path d="M4141 5994 c0 -11 3 -14 6 -6 3 7 2 16 -1 19 -3 4 -6 -2 -5 -13z"/>
<path d="M4105 5989 c-4 -6 -4 -13 -1 -16 3 -4 6 -1 6 6 0 7 5 9 12 5 7 -4 8
-3 4 4 -9 15 -13 15 -21 1z"/>
<path d="M4210 5980 c0 -5 5 -10 11 -10 5 0 7 5 4 10 -3 6 -8 10 -11 10 -2 0
-4 -4 -4 -10z"/>
<path d="M4170 5971 c0 -10 19 -25 25 -20 1 2 -3 10 -11 17 -8 7 -14 8 -14 3z"/>
<path d="M1967 5951 c-4 -17 -3 -21 5 -13 5 5 8 16 6 23 -3 8 -7 3 -11 -10z"/>
<path d="M4279 5948 c-6 -20 -6 -39 0 -42 4 -3 7 6 7 20 0 20 -4 32 -7 22z"/>
<path d="M1875 5920 c-2 -3 5 -7 16 -7 10 -1 19 2 19 6 0 9 -29 10 -35 1z"/>
<path d="M1770 5879 c0 -5 5 -7 10 -4 6 3 10 8 10 11 0 2 -4 4 -10 4 -5 0 -10
-5 -10 -11z"/>
<path d="M4273 5875 c-7 -8 -9 -16 -4 -19 5 -3 12 1 15 10 8 22 4 25 -11 9z"/>
<path d="M4300 5878 c0 -4 6 -8 14 -8 8 0 17 4 20 8 2 4 -4 8 -15 8 -10 0 -19
-4 -19 -8z"/>
<path d="M1804 5854 c-18 -14 -18 -15 4 -4 12 6 22 13 22 15 0 8 -5 6 -26 -11z"/>
<path d="M4345 5821 c-3 -5 7 -19 22 -30 16 -11 33 -25 40 -30 7 -7 13 -5 18
7 3 9 3 13 -1 9 -4 -4 -13 1 -20 11 -11 14 -9 19 9 29 l22 12 -22 -2 c-21 -1
-27 -9 -24 -29 2 -12 -9 -9 -24 6 -8 7 -11 16 -8 20 4 3 4 6 0 6 -3 0 -8 -4
-12 -9z"/>
<path d="M1714 5796 c1 -8 5 -18 8 -22 4 -3 5 1 4 10 -1 8 -5 18 -8 22 -4 3
-5 -1 -4 -10z"/>
<path d="M4420 5801 c0 -5 7 -12 16 -15 14 -5 15 -4 4 9 -14 17 -20 19 -20 6z"/>
<path d="M4490 5766 c0 -2 7 -7 16 -10 8 -3 12 -2 9 4 -6 10 -25 14 -25 6z"/>
<path d="M1607 5739 c7 -7 15 -10 18 -7 3 3 -2 9 -12 12 -14 6 -15 5 -6 -5z"/>
<path d="M1535 5671 c-3 -5 -2 -12 3 -15 5 -3 9 1 9 9 0 17 -3 19 -12 6z"/>
<path d="M4613 5631 c0 -11 5 -18 9 -15 4 3 5 11 1 19 -7 21 -12 19 -10 -4z"/>
<path d="M1496 5627 c3 -10 9 -15 12 -12 3 3 0 11 -7 18 -10 9 -11 8 -5 -6z"/>
<path d="M4655 5621 c-3 -5 -2 -12 3 -15 5 -3 9 1 9 9 0 17 -3 19 -12 6z"/>
<path d="M1493 5573 c4 -3 -1 -12 -11 -20 -15 -13 -15 -13 6 -3 19 9 23 30 5
30 -4 0 -3 -3 0 -7z"/>
<path d="M1434 5499 c-3 -6 1 -18 10 -27 15 -15 17 -15 32 0 16 15 15 16 -10
14 -20 -3 -26 0 -22 10 6 17 0 18 -10 3z"/>
<path d="M1421 5464 c-1 -18 26 -37 34 -24 3 5 0 10 -9 10 -8 0 -17 6 -19 13
-4 7 -6 8 -6 1z"/>
<path d="M4710 5436 c0 -2 8 -10 18 -17 15 -13 16 -12 3 4 -13 16 -21 21 -21
13z"/>
<path d="M1335 5420 c3 -5 8 -10 11 -10 2 0 4 5 4 10 0 6 -5 10 -11 10 -5 0
-7 -4 -4 -10z"/>
<path d="M1370 5420 c-9 -6 -10 -10 -3 -10 6 0 15 5 18 10 8 12 4 12 -15 0z"/>
<path d="M4810 5400 c0 -5 5 -10 11 -10 5 0 7 5 4 10 -3 6 -8 10 -11 10 -2 0
-4 -4 -4 -10z"/>
<path d="M1319 5368 c-6 -21 -5 -38 1 -38 5 0 8 9 7 20 -1 17 -5 26 -8 18z"/>
<path d="M4836 5359 c2 -4 -2 -10 -8 -12 -7 -3 -8 -6 -2 -6 5 -1 18 5 28 12
16 12 16 13 -3 13 -11 0 -18 -3 -15 -7z"/>
<path d="M4803 5318 c-2 -16 1 -17 13 -8 17 15 17 17 1 23 -8 3 -14 -3 -14
-15z"/>
<path d="M4846 5324 c-23 -23 -20 -30 4 -9 11 10 20 20 20 22 0 7 -9 2 -24
-13z"/>
<path d="M1285 5270 c-16 -7 -17 -9 -3 -9 9 -1 20 4 23 9 7 11 7 11 -20 0z"/>
<path d="M4935 5269 c-4 -6 -5 -12 -2 -15 2 -3 7 2 10 11 7 17 1 20 -8 4z"/>
<path d="M1292 5244 c-25 -17 -30 -39 -7 -30 8 3 15 1 15 -4 0 -6 -7 -10 -15
-10 -8 0 -15 -4 -15 -10 0 -13 6 -13 31 1 20 10 20 11 3 30 -17 18 -10 25 19
20 5 -1 6 3 2 9 -8 13 -6 13 -33 -6z"/>
<path d="M1250 5239 c0 -5 5 -7 10 -4 6 3 10 8 10 11 0 2 -4 4 -10 4 -5 0 -10
-5 -10 -11z"/>
<path d="M1216 5202 c-3 -5 1 -9 9 -9 8 0 12 4 9 9 -3 4 -7 8 -9 8 -2 0 -6 -4
-9 -8z"/>
<path d="M4935 5200 c3 -5 8 -10 11 -10 2 0 4 5 4 10 0 6 -5 10 -11 10 -5 0
-7 -4 -4 -10z"/>
<path d="M4906 5182 c-2 -4 -1 -14 5 -22 6 -11 9 -12 9 -2 0 7 4 10 10 7 6 -3
7 1 4 9 -7 17 -20 21 -28 8z"/>
<path d="M4956 5167 c3 -10 9 -15 12 -12 3 3 0 11 -7 18 -10 9 -11 8 -5 -6z"/>
<path d="M4989 5163 c-13 -16 -12 -17 4 -4 16 13 21 21 13 21 -2 0 -10 -8 -17
-17z"/>
<path d="M1110 5086 c0 -2 7 -7 16 -10 8 -3 12 -2 9 4 -6 10 -25 14 -25 6z"/>
<path d="M5033 5035 c0 -8 4 -12 9 -9 5 3 6 10 3 15 -9 13 -12 11 -12 -6z"/>
<path d="M1116 4948 c3 -5 10 -6 15 -3 13 9 11 12 -6 12 -8 0 -12 -4 -9 -9z"/>
<path d="M5070 4911 c0 -6 4 -13 10 -16 6 -3 7 1 4 9 -7 18 -14 21 -14 7z"/>
<path d="M1013 4845 c0 -8 4 -12 9 -9 5 3 6 10 3 15 -9 13 -12 11 -12 -6z"/>
<path d="M1030 4802 c0 -5 7 -9 15 -9 8 0 12 4 9 9 -3 4 -9 8 -15 8 -5 0 -9
-4 -9 -8z"/>
<path d="M5110 4779 c0 -5 5 -7 10 -4 6 3 10 8 10 11 0 2 -4 4 -10 4 -5 0 -10
-5 -10 -11z"/>
<path d="M1040 4755 c0 -8 2 -15 4 -15 2 0 6 7 10 15 3 8 1 15 -4 15 -6 0 -10
-7 -10 -15z"/>
<path d="M5130 4721 c0 -11 4 -22 9 -25 4 -3 6 6 3 19 -5 30 -12 33 -12 6z"/>
<path d="M1047 4643 c3 -8 0 -13 -7 -11 -7 2 -15 -4 -17 -12 -4 -12 -3 -12 5
-1 6 8 12 9 16 3 3 -6 -3 -17 -14 -25 -18 -13 -19 -15 -5 -21 20 -7 38 2 30
15 -4 5 -3 15 1 21 13 20 11 45 -2 45 -7 0 -10 -7 -7 -14z"/>
<path d="M995 4620 c-3 -5 -1 -10 4 -10 6 0 11 5 11 10 0 6 -2 10 -4 10 -3 0
-8 -4 -11 -10z"/>
<path d="M5164 4599 c-3 -6 -1 -16 6 -22 10 -9 11 -9 5 2 -4 8 -2 17 6 22 9 6
10 9 2 9 -6 0 -15 -5 -19 -11z"/>
<path d="M5233 4565 c0 -8 4 -12 9 -9 5 3 6 10 3 15 -9 13 -12 11 -12 -6z"/>
<path d="M990 4560 c0 -5 7 -7 15 -4 8 4 15 8 15 10 0 2 -7 4 -15 4 -8 0 -15
-4 -15 -10z"/>
<path d="M5165 4550 c-3 -6 1 -7 9 -4 18 7 21 14 7 14 -6 0 -13 -4 -16 -10z"/>
<path d="M5174 4525 c-4 -8 -13 -15 -22 -15 -13 0 -12 -4 5 -22 11 -13 19 -28
16 -35 -2 -6 3 -10 12 -9 19 3 52 46 35 46 -6 0 -8 5 -4 12 4 7 3 8 -4 4 -7
-4 -12 -2 -12 5 0 7 -3 9 -6 6 -4 -4 -1 -13 5 -21 7 -8 10 -20 6 -26 -12 -19
-33 32 -23 53 5 9 6 17 3 17 -3 0 -8 -7 -11 -15z"/>
<path d="M1004 4492 c5 -14 1 -24 -11 -31 -25 -15 -10 -14 18 2 24 12 24 12 6
30 -18 18 -19 18 -13 -1z"/>
<path d="M981 4484 c0 -11 3 -14 6 -6 3 7 2 16 -1 19 -3 4 -6 -2 -5 -13z"/>
<path d="M5274 4483 c4 -28 -15 -53 -30 -39 -6 6 -9 15 -6 20 3 5 0 6 -6 2
-11 -7 -6 -35 7 -37 31 -6 55 -2 58 11 4 13 3 13 -6 0 -5 -8 -14 -11 -18 -6
-4 4 1 14 11 22 11 8 14 14 7 14 -7 0 -10 4 -6 9 3 5 1 12 -4 15 -5 4 -8 -2
-7 -11z"/>
<path d="M5251 4474 c0 -11 3 -14 6 -6 3 7 2 16 -1 19 -3 4 -6 -2 -5 -13z"/>
<path d="M5315 4455 c-3 -8 -7 -21 -9 -29 -3 -8 2 -20 10 -26 9 -8 14 -9 14
-2 0 6 -6 13 -12 15 -9 4 -9 6 -1 6 6 1 9 10 5 23 -4 16 -2 19 8 13 9 -5 11
-4 6 3 -10 16 -16 15 -21 -3z"/>
<path d="M5535 4429 c-4 -6 -5 -12 -2 -15 2 -3 7 2 10 11 7 17 1 20 -8 4z"/>
<path d="M5390 4418 c0 -11 28 -10 35 1 3 6 -4 9 -15 8 -11 -1 -20 -5 -20 -9z"/>
<path d="M5470 4420 c0 -5 5 -10 11 -10 5 0 7 5 4 10 -3 6 -8 10 -11 10 -2 0
-4 -4 -4 -10z"/>
<path d="M990 4405 c0 -8 5 -15 11 -15 5 0 7 -5 4 -10 -5 -8 -11 -7 -21 1 -10
8 -14 8 -14 0 0 -6 5 -11 10 -11 6 0 10 -5 10 -11 0 -5 -5 -7 -10 -4 -6 4 -5
-5 2 -19 14 -33 23 -33 44 -1 16 24 16 27 -5 49 -12 12 -18 26 -14 29 3 4 1 7
-5 7 -7 0 -12 -7 -12 -15z m40 -48 c0 -7 -4 -6 -11 3 -9 12 -10 11 -6 -7 5
-24 -7 -40 -18 -23 -8 13 14 52 26 45 5 -4 9 -12 9 -18z"/>
<path d="M950 4336 c0 -2 8 -10 18 -17 15 -13 16 -12 3 4 -13 16 -21 21 -21
13z"/>
<path d="M5620 4318 c0 -4 6 -8 14 -8 8 0 17 4 20 8 2 4 -4 8 -15 8 -10 0 -19
-4 -19 -8z"/>
<path d="M953 4285 c0 -8 4 -12 9 -9 4 3 8 9 8 15 0 5 -4 9 -8 9 -5 0 -9 -7
-9 -15z"/>
<path d="M997 4254 c-3 -3 -3 -13 0 -22 5 -11 3 -13 -7 -7 -8 5 -11 4 -6 -3 3
-5 0 -12 -6 -15 -8 -2 -9 -8 -4 -13 5 -5 11 -4 13 4 3 6 9 10 14 6 5 -3 0 -17
-12 -32 -12 -16 -16 -28 -10 -30 6 -2 8 -8 5 -13 -3 -6 0 -16 6 -24 9 -11 9
-15 1 -15 -6 0 -9 -10 -7 -22 2 -13 0 -28 -5 -34 -6 -7 -1 -18 14 -30 12 -10
19 -15 15 -10 -4 5 -3 15 3 22 7 8 7 14 -1 19 -8 5 -8 10 0 20 8 9 8 15 0 20
-6 3 -7 12 -3 18 11 17 12 50 2 68 -5 9 -5 19 -2 23 10 10 13 65 4 71 -5 2
-11 2 -14 -1z m8 -124 c1 -16 -1 -27 -5 -25 -4 2 -7 18 -8 36 -1 39 11 30 13
-11z m0 -59 c3 -5 2 -12 -3 -15 -5 -3 -9 1 -9 9 0 17 3 19 12 6z m-1 -52 c-3
-5 -10 -7 -15 -3 -5 3 -7 10 -3 15 3 5 10 7 15 3 5 -3 7 -10 3 -15z"/>
<path d="M965 4242 c-10 -7 -18 -32 -10 -32 2 0 9 9 15 20 12 22 11 24 -5 12z"/>
<path d="M5740 4225 c0 -8 29 -12 39 -5 9 5 4 8 -13 8 -14 0 -26 -2 -26 -3z"/>
<path d="M949 4116 c5 -6 8 -23 6 -38 -2 -16 0 -28 4 -28 4 0 7 17 7 38 0 24
-5 39 -13 39 -8 0 -9 -4 -4 -11z"/>
<path d="M5879 4113 c-13 -16 -12 -17 4 -4 16 13 21 21 13 21 -2 0 -10 -8 -17
-17z"/>
<path d="M5890 4059 c0 -5 5 -7 10 -4 6 3 10 8 10 11 0 2 -4 4 -10 4 -5 0 -10
-5 -10 -11z"/>
<path d="M5910 4045 c-7 -9 -10 -18 -6 -22 3 -3 6 -1 6 6 0 7 4 10 8 7 5 -3 9
1 9 9 0 19 -2 19 -17 0z"/>
<path d="M5975 3969 c-4 -6 -5 -12 -2 -15 2 -3 7 2 10 11 7 17 1 20 -8 4z"/>
<path d="M5990 3936 c0 -2 8 -10 18 -17 15 -13 16 -12 3 4 -13 16 -21 21 -21
13z"/>
<path d="M926 3898 c3 -5 10 -6 15 -3 13 9 11 12 -6 12 -8 0 -12 -4 -9 -9z"/>
<path d="M6000 3840 c-12 -7 -12 -11 -2 -20 6 -5 10 -7 7 -4 -3 4 0 13 6 21
13 15 10 16 -11 3z"/>
<path d="M967 3779 c7 -7 15 -10 18 -7 3 3 -2 9 -12 12 -14 6 -15 5 -6 -5z"/>
<path d="M1002 3759 c-7 -11 -18 -17 -24 -13 -7 4 -8 3 -4 -4 9 -14 33 -5 40
15 9 24 2 25 -12 2z"/>
<path d="M6034 3749 c-3 -6 -2 -15 3 -20 5 -5 9 -1 9 11 0 23 -2 24 -12 9z"/>
<path d="M5965 3731 c-3 -5 -2 -12 3 -15 5 -3 9 1 9 9 0 17 -3 19 -12 6z"/>
<path d="M6055 3709 c-4 -6 -5 -12 -2 -15 2 -3 7 2 10 11 7 17 1 20 -8 4z"/>
<path d="M5965 3689 c-4 -6 -5 -12 -2 -15 2 -3 7 2 10 11 7 17 1 20 -8 4z"/>
<path d="M5975 3571 c-3 -5 -2 -12 3 -15 5 -3 9 1 9 9 0 17 -3 19 -12 6z"/>
<path d="M1030 3562 c0 -5 7 -9 15 -9 8 0 12 4 9 9 -3 4 -9 8 -15 8 -5 0 -9
-4 -9 -8z"/>
<path d="M996 3518 c3 -5 10 -6 15 -3 13 9 11 12 -6 12 -8 0 -12 -4 -9 -9z"/>
<path d="M1050 3499 c0 -5 5 -7 10 -4 6 3 10 8 10 11 0 2 -4 4 -10 4 -5 0 -10
-5 -10 -11z"/>
<path d="M6031 3477 c-1 -11 -6 -15 -13 -11 -7 5 -8 3 -3 -5 10 -16 29 2 22
21 -4 8 -6 7 -6 -5z"/>
<path d="M5974 3400 c0 -10 2 -17 5 -15 2 3 11 -1 19 -8 11 -9 11 -4 -2 16
-22 32 -22 32 -22 7z"/>
<path d="M6010 3405 c0 -5 5 -17 10 -25 5 -8 10 -10 10 -5 0 6 -5 17 -10 25
-5 8 -10 11 -10 5z"/>
<path d="M1107 3319 c7 -7 15 -10 18 -7 3 3 -2 9 -12 12 -14 6 -15 5 -6 -5z"/>
<path d="M1109 3283 c-13 -16 -12 -17 4 -4 9 7 17 15 17 17 0 8 -8 3 -21 -13z"/>
<path d="M5989 3277 c6 -8 7 -18 3 -22 -4 -5 -1 -5 6 -1 10 6 10 11 1 22 -6 8
-14 14 -16 14 -3 0 0 -6 6 -13z"/>
<path d="M1148 3273 c6 -2 10 -9 7 -14 -4 -5 1 -6 10 -2 13 5 14 7 3 14 -7 5
-17 8 -23 8 -5 0 -4 -3 3 -6z"/>
<path d="M1262 3050 c7 -14 11 -28 10 -32 -1 -5 2 -8 7 -8 6 0 9 9 8 20 -1 10
-3 17 -6 15 -2 -3 -10 3 -18 13 -12 15 -13 14 -1 -8z"/>
<path d="M5765 3018 c6 -29 19 -41 41 -35 15 4 14 5 -4 6 -13 0 -20 5 -17 11
4 6 11 7 17 4 7 -4 8 -2 4 4 -4 7 -16 16 -26 22 -16 9 -18 7 -15 -12z"/>
<path d="M1320 2940 c-12 -7 -10 -9 7 -7 12 0 19 5 17 9 -6 10 -6 10 -24 -2z"/>
<path d="M1355 2920 c-3 -5 -1 -10 4 -10 6 0 11 5 11 10 0 6 -2 10 -4 10 -3 0
-8 -4 -11 -10z"/>
<path d="M1424 2893 c-1 -15 4 -23 15 -23 14 0 14 2 1 10 -8 5 -10 10 -4 10 7
0 14 6 17 14 4 10 0 14 -11 13 -10 0 -18 -10 -18 -24z"/>
<path d="M5660 2858 c0 -4 4 -8 9 -8 6 0 12 4 15 8 3 5 -1 9 -9 9 -8 0 -15 -4
-15 -9z"/>
<path d="M1410 2851 c0 -7 -5 -9 -12 -5 -7 5 -8 3 -3 -5 5 -9 10 -10 18 -2 6
6 8 14 4 18 -4 3 -7 1 -7 -6z"/>
<path d="M5670 2811 c0 -7 -5 -9 -12 -5 -7 5 -8 3 -3 -5 5 -9 10 -10 18 -2 6
6 8 14 4 18 -4 3 -7 1 -7 -6z"/>
<path d="M1525 2772 c-12 -9 -16 -54 -4 -46 5 3 7 10 4 15 -4 5 -2 9 3 9 5 0
9 7 9 15 0 8 -1 15 -1 15 -1 0 -5 -4 -11 -8z"/>
<path d="M1490 2725 c0 -5 5 -17 10 -25 5 -8 10 -10 10 -5 0 6 -5 17 -10 25
-5 8 -10 11 -10 5z"/>
<path d="M1574 2689 c-9 -16 2 -22 21 -11 15 8 16 10 1 15 -8 3 -18 2 -22 -4z"/>
<path d="M5690 2696 c0 -2 8 -10 18 -17 15 -13 16 -12 3 4 -13 16 -21 21 -21
13z"/>
<path d="M1614 2666 c-3 -9 -10 -14 -14 -11 -4 3 -11 -2 -14 -10 -5 -13 -2
-14 15 -4 11 6 24 7 27 3 4 -4 1 -9 -5 -11 -7 -3 -13 -9 -13 -14 0 -14 18 -1
30 21 7 13 6 21 -5 30 -12 10 -16 9 -21 -4z"/>
<path d="M5696 2627 c3 -10 9 -15 12 -12 3 3 0 11 -7 18 -10 9 -11 8 -5 -6z"/>
<path d="M5626 2621 c-3 -5 0 -11 7 -14 8 -3 14 1 14 9 0 16 -13 19 -21 5z"/>
<path d="M5674 2468 c-4 -7 -3 -8 4 -4 7 4 12 3 12 -3 0 -5 -5 -11 -12 -13 -7
-3 -8 -7 -2 -11 5 -3 15 3 22 13 9 14 8 19 -3 24 -8 3 -17 0 -21 -6z"/>
<path d="M5714 2441 c4 -5 1 -12 -4 -14 -6 -3 -5 -4 2 -3 15 3 23 26 8 26 -6
0 -9 -4 -6 -9z"/>
<path d="M5665 2410 c-8 -13 20 -24 36 -15 8 6 7 10 -2 16 -18 11 -26 11 -34
-1z"/>
<path d="M1942 2389 c-14 -22 -7 -25 14 -5 8 8 11 17 6 20 -4 2 -13 -4 -20
-15z"/>
<path d="M5669 2378 c-4 -15 -9 -51 -6 -47 15 16 26 49 17 49 -5 0 -10 -1 -11
-2z"/>
<path d="M1990 2336 c0 -2 9 -6 20 -9 11 -3 18 -1 14 4 -5 9 -34 13 -34 5z"/>
<path d="M2136 2222 c-3 -5 1 -9 9 -9 8 0 12 4 9 9 -3 4 -7 8 -9 8 -2 0 -6 -4
-9 -8z"/>
<path d="M2245 2200 c3 -5 8 -10 11 -10 2 0 4 5 4 10 0 6 -5 10 -11 10 -5 0
-7 -4 -4 -10z"/>
<path d="M2260 2180 c-9 -6 -10 -10 -3 -10 6 0 15 5 18 10 8 12 4 12 -15 0z"/>
<path d="M2306 2161 c8 -8 43 -8 38 0 -2 4 -13 7 -24 6 -10 -1 -17 -3 -14 -6z"/>
<path d="M2430 2136 c0 -3 9 -10 20 -16 11 -6 20 -8 20 -6 0 3 -9 10 -20 16
-11 6 -20 8 -20 6z"/>
<path d="M5670 2136 c0 -3 9 -10 20 -16 11 -6 20 -8 20 -6 0 3 -9 10 -20 16
-11 6 -20 8 -20 6z"/>
<path d="M2528 2112 c-3 -10 3 -34 12 -52 17 -33 18 -33 29 -12 11 21 0 39
-18 28 -5 -3 -11 1 -15 9 -3 8 -1 17 4 20 4 3 10 -1 13 -7 2 -7 7 -10 11 -7 3
3 -2 13 -13 23 -17 16 -19 16 -23 -2z m42 -46 c0 -3 -4 -8 -10 -11 -5 -3 -10
-1 -10 4 0 6 5 11 10 11 6 0 10 -2 10 -4z"/>
<path d="M5694 2059 c-3 -6 -3 -13 0 -16 3 -4 6 -1 6 5 0 6 7 9 15 6 8 -4 15
-4 15 -1 0 11 -30 16 -36 6z"/>
<path d="M2540 1980 c8 -5 20 -10 25 -10 6 0 3 5 -5 10 -8 5 -19 10 -25 10 -5
0 -3 -5 5 -10z"/>
<path d="M5670 1969 c0 -5 5 -7 10 -4 6 3 10 8 10 11 0 2 -4 4 -10 4 -5 0 -10
-5 -10 -11z"/>
<path d="M2593 1921 c0 -11 5 -18 9 -15 4 3 5 11 1 19 -7 21 -12 19 -10 -4z"/>
<path d="M5673 1855 c0 -8 4 -12 9 -9 5 3 6 10 3 15 -9 13 -12 11 -12 -6z"/>
<path d="M2610 1798 c0 -4 4 -8 9 -8 6 0 12 4 15 8 3 5 -1 9 -9 9 -8 0 -15 -4
-15 -9z"/>
<path d="M5650 1780 c0 -5 5 -10 11 -10 5 0 7 5 4 10 -3 6 -8 10 -11 10 -2 0
-4 -4 -4 -10z"/>
<path d="M2637 1773 c-4 -3 -7 -11 -7 -17 0 -6 5 -5 12 2 6 6 9 14 7 17 -3 3
-9 2 -12 -2z"/>
<path d="M2710 1690 c0 -5 5 -10 11 -10 5 0 7 5 4 10 -3 6 -8 10 -11 10 -2 0
-4 -4 -4 -10z"/>
<path d="M5570 1676 c0 -25 17 -26 36 -3 l19 22 -24 -20 c-21 -18 -24 -18 -18
-2 4 9 2 17 -3 17 -6 0 -10 -6 -10 -14z"/>
<path d="M5547 1619 c7 -7 15 -10 18 -7 3 3 -2 9 -12 12 -14 6 -15 5 -6 -5z"/>
<path d="M2734 1608 c-4 -7 -2 -14 4 -16 7 -2 10 -8 7 -13 -4 -5 2 -6 11 -2
13 5 14 8 5 11 -10 3 -10 6 -1 12 8 5 7 9 -4 13 -8 3 -19 1 -22 -5z"/>
<path d="M5570 1580 c0 -5 5 -10 11 -10 5 0 7 5 4 10 -3 6 -8 10 -11 10 -2 0
-4 -4 -4 -10z"/>
<path d="M2721 1564 c0 -11 3 -14 6 -6 3 7 2 16 -1 19 -3 4 -6 -2 -5 -13z"/>
<path d="M5536 1502 c-3 -5 1 -9 9 -9 8 0 12 4 9 9 -3 4 -7 8 -9 8 -2 0 -6 -4
-9 -8z"/>
<path d="M2855 1450 c-4 -6 -10 -8 -14 -6 -4 3 -13 0 -21 -6 -12 -8 -12 -9 2
-4 10 3 20 1 23 -4 3 -5 -3 -11 -12 -13 -15 -4 -15 -5 3 -6 27 -1 44 -20 37
-39 -4 -10 -2 -13 5 -8 7 4 12 2 12 -3 0 -6 -4 -11 -10 -11 -5 0 -10 -5 -10
-10 0 -6 11 -3 25 6 22 15 27 42 4 29 -5 -4 -10 -1 -10 4 -1 6 -2 16 -3 22 0
6 -9 16 -18 23 -13 10 -15 15 -6 24 7 7 9 12 6 12 -4 0 -10 -5 -13 -10z"/>
<path d="M5430 1409 c0 -5 5 -7 10 -4 6 3 10 8 10 11 0 2 -4 4 -10 4 -5 0 -10
-5 -10 -11z"/>
<path d="M2826 1378 c3 -4 11 -5 19 -1 21 7 19 12 -4 10 -11 0 -18 -5 -15 -9z"/>
<path d="M5415 1379 c-4 -6 -5 -12 -2 -15 2 -3 7 2 10 11 7 17 1 20 -8 4z"/>
<path d="M5390 1351 c0 -6 4 -13 10 -16 6 -3 7 1 4 9 -7 18 -14 21 -14 7z"/>
<path d="M2927 1279 c4 -13 8 -18 11 -10 2 7 -1 18 -6 23 -8 8 -9 4 -5 -13z"/>
<path d="M2953 1278 c1 -10 2 -18 4 -18 1 0 7 8 12 18 7 14 6 19 -4 19 -7 0
-13 -9 -12 -19z"/>
<path d="M2893 1265 c0 -8 4 -12 9 -9 5 3 6 10 3 15 -9 13 -12 11 -12 -6z"/>
<path d="M5326 1245 c-11 -8 -15 -15 -9 -15 6 0 16 7 23 15 16 19 11 19 -14 0z"/>
<path d="M3023 1201 c0 -14 1 -18 4 -8 2 9 9 17 14 17 12 0 12 -27 -1 -35 -5
-3 -10 -10 -10 -16 0 -5 5 -9 10 -9 6 0 9 5 8 11 -2 6 3 14 10 16 8 3 10 -1 6
-11 -3 -9 -1 -16 5 -16 6 0 10 3 10 8 -1 4 0 9 1 12 9 25 5 40 -13 47 -39 12
-43 11 -44 -16z m51 -7 c3 -8 2 -12 -4 -9 -6 3 -10 10 -10 16 0 14 7 11 14 -7z"/>
<path d="M2995 1180 c3 -5 8 -10 11 -10 2 0 4 5 4 10 0 6 -5 10 -11 10 -5 0
-7 -4 -4 -10z"/>
<path d="M5267 1179 c7 -7 15 -10 18 -7 3 3 -2 9 -12 12 -14 6 -15 5 -6 -5z"/>
<path d="M3115 1160 c-3 -5 -1 -10 4 -10 6 0 11 5 11 10 0 6 -2 10 -4 10 -3 0
-8 -4 -11 -10z"/>
<path d="M5250 1146 c0 -2 7 -7 16 -10 8 -3 12 -2 9 4 -6 10 -25 14 -25 6z"/>
<path d="M3035 1131 c-3 -5 -2 -12 3 -15 5 -3 9 1 9 9 0 17 -3 19 -12 6z"/>
<path d="M3184 1086 c-3 -9 -11 -13 -17 -9 -6 3 -7 1 -3 -6 6 -9 11 -9 21 -1
10 8 19 8 34 0 17 -9 20 -8 15 5 -4 9 -9 13 -12 11 -3 -3 -11 -1 -18 5 -10 9
-15 7 -20 -5z"/>
<path d="M3055 1080 c-3 -5 -1 -10 4 -10 6 0 11 5 11 10 0 6 -2 10 -4 10 -3 0
-8 -4 -11 -10z"/>
<path d="M5130 1080 c0 -5 9 -8 20 -7 21 1 18 10 -5 13 -8 1 -15 -2 -15 -6z"/>
<path d="M5135 1040 c3 -5 8 -10 11 -10 2 0 4 5 4 10 0 6 -5 10 -11 10 -5 0
-7 -4 -4 -10z"/>
<path d="M3175 1000 c3 -5 8 -10 11 -10 2 0 4 5 4 10 0 6 -5 10 -11 10 -5 0
-7 -4 -4 -10z"/>
<path d="M5055 980 c3 -5 8 -10 11 -10 2 0 4 5 4 10 0 6 -5 10 -11 10 -5 0 -7
-4 -4 -10z"/>
<path d="M4874 965 c-5 -13 -9 -13 -22 -3 -9 8 -13 8 -9 2 4 -7 0 -17 -8 -24
-8 -7 -15 -9 -15 -4 0 5 -7 0 -15 -10 -8 -11 -15 -25 -15 -30 1 -6 7 0 16 14
15 25 15 25 8 1 -4 -16 -3 -21 5 -17 6 4 11 15 11 24 1 15 2 15 13 2 11 -14
14 -14 29 1 12 13 13 19 5 23 -7 2 -4 5 6 5 19 1 23 16 7 26 -6 3 -13 -1 -16
-10z m-10 -36 c-3 -5 -10 -7 -15 -3 -5 3 -7 10 -3 15 3 5 10 7 15 3 5 -3 7
-10 3 -15z"/>
<path d="M4959 953 c-12 -16 -12 -17 2 -6 9 7 19 10 22 6 4 -3 7 -1 7 5 0 17
-16 15 -31 -5z"/>
<path d="M3354 920 c0 -13 4 -16 10 -10 7 7 7 13 0 20 -6 6 -10 3 -10 -10z"/>
<path d="M4896 923 c-6 -14 -5 -15 5 -6 7 7 10 15 7 18 -3 3 -9 -2 -12 -12z"/>
<path d="M4921 916 c-9 -11 -9 -16 1 -22 7 -4 10 -4 6 1 -4 4 -3 14 3 22 6 7
9 13 6 13 -2 0 -10 -6 -16 -14z"/>
<path d="M3436 892 c-2 -4 4 -8 14 -8 10 0 16 4 14 8 -3 4 -9 8 -14 8 -5 0
-11 -4 -14 -8z"/>
<path d="M4825 880 c-3 -6 1 -7 9 -4 18 7 21 14 7 14 -6 0 -13 -4 -16 -10z"/>
<path d="M4485 831 c-3 -5 -1 -12 4 -15 5 -3 11 1 15 9 6 16 -9 21 -19 6z"/>
<path d="M3817 823 c-4 -6 0 -18 7 -29 8 -10 12 -25 9 -34 -4 -13 -4 -13 6 0
7 10 11 11 11 3 0 -7 5 -13 11 -13 8 0 8 4 0 13 -6 8 -9 23 -6 36 2 13 0 19
-7 15 -5 -4 -14 -1 -18 6 -4 7 -10 8 -13 3z"/>
<path d="M4675 801 c-3 -5 -2 -12 3 -15 5 -3 9 1 9 9 0 17 -3 19 -12 6z"/>
<path d="M4710 799 c0 -5 5 -7 10 -4 6 3 10 8 10 11 0 2 -4 4 -10 4 -5 0 -10
-5 -10 -11z"/>
<path d="M3655 790 c-3 -6 1 -7 9 -4 18 7 21 14 7 14 -6 0 -13 -4 -16 -10z"/>
<path d="M4318 783 c-11 -14 -10 -15 8 -9 15 4 21 2 21 -9 0 -8 -5 -15 -10
-15 -6 0 -7 -3 -4 -6 7 -7 37 14 37 25 0 3 -9 12 -19 18 -16 10 -22 9 -33 -4z"/>
<path d="M4470 782 c0 -5 7 -9 15 -9 8 0 12 4 9 9 -3 4 -9 8 -15 8 -5 0 -9 -4
-9 -8z"/>
<path d="M4588 783 c7 -3 16 -2 19 1 4 3 -2 6 -13 5 -11 0 -14 -3 -6 -6z"/>
<path d="M3736 758 c3 -4 11 -5 19 -1 21 7 19 12 -4 10 -11 0 -18 -5 -15 -9z"/>
<path d="M3945 760 c-3 -5 -1 -10 4 -10 6 0 11 5 11 10 0 6 -2 10 -4 10 -3 0
-8 -4 -11 -10z"/>
<path d="M3970 760 c0 -5 5 -10 11 -10 5 0 7 5 4 10 -3 6 -8 10 -11 10 -2 0
-4 -4 -4 -10z"/>
<path d="M3913 743 c4 -3 2 -11 -3 -18 -7 -8 -6 -12 3 -12 7 0 14 9 14 19 1
10 -3 18 -9 18 -6 0 -8 -3 -5 -7z"/>
<path d="M3815 731 c-3 -5 -2 -12 3 -15 5 -3 9 1 9 9 0 17 -3 19 -12 6z"/>
<path d="M3875 729 c-4 -6 -5 -12 -2 -15 2 -3 7 2 10 11 7 17 1 20 -8 4z"/>
<path d="M4476 727 c3 -10 9 -15 12 -12 3 3 0 11 -7 18 -10 9 -11 8 -5 -6z"/>
<path d="M4010 721 c0 -4 13 -7 29 -6 16 0 27 3 25 6 -5 9 -54 8 -54 0z"/>
<path d="M4096 714 c-6 -15 -4 -15 11 -3 10 7 20 15 22 16 2 2 -3 3 -11 3 -9
0 -19 -7 -22 -16z"/>
<path d="M4326 718 c3 -5 10 -6 15 -3 13 9 11 12 -6 12 -8 0 -12 -4 -9 -9z"/>
</g>
</svg>
