<?xml version="1.0" standalone="no"?>
<!DOCTYPE svg PUBLIC "-//W3C//DTD SVG 20010904//EN"
 "http://www.w3.org/TR/2001/REC-SVG-20010904/DTD/svg10.dtd">
<svg version="1.0" xmlns="http://www.w3.org/2000/svg"
 width="797.000000pt" height="797.000000pt" viewBox="0 0 797.000000 797.000000"
 preserveAspectRatio="xMidYMid meet">
<metadata>
Created by potrace 1.14, written by Peter Selinger 2001-2017
</metadata>
<g transform="translate(0.000000,797.000000) scale(0.100000,-0.100000)"
fill="#000000" stroke="none">
<path d="M0 3985 l0 -3985 3985 0 3985 0 0 3985 0 3985 -3985 0 -3985 0 0
-3985z m6164 3753 c78 -24 146 -118 146 -203 0 -60 -24 -110 -81 -167 l-57
-58 14 -62 c8 -35 57 -218 109 -408 51 -190 151 -554 220 -810 70 -256 187
-685 260 -955 148 -543 349 -1279 396 -1452 l31 -112 -17 -108 c-43 -273 -129
-454 -303 -635 -136 -141 -307 -244 -507 -305 -83 -25 -103 -27 -270 -27 -204
-1 -251 7 -400 65 -396 155 -655 494 -706 924 l-11 90 102 375 c56 206 117
431 136 499 20 68 93 338 164 600 71 262 160 591 199 731 38 140 108 397 155
570 47 173 128 472 181 664 l95 350 -57 50 c-31 28 -64 57 -74 64 -15 11 -113
-11 -636 -143 -725 -183 -846 -214 -855 -224 -4 -3 -12 -37 -17 -74 -17 -122
-84 -234 -183 -304 l-48 -35 2 -2746 3 -2747 45 -28 c25 -16 164 -98 310 -184
146 -85 282 -166 303 -179 l38 -25 -7 -232 c-4 -128 -11 -236 -16 -242 -6 -6
-306 -11 -852 -13 -676 -2 -845 0 -853 10 -7 8 -12 105 -14 248 l-4 234 332
196 c183 108 339 203 348 210 13 11 15 291 15 2752 l0 2740 -77 76 c-43 43
-89 92 -103 110 l-25 34 -115 -27 c-157 -36 -1274 -322 -1331 -341 -44 -14
-48 -18 -59 -62 -9 -38 -25 -60 -84 -117 l-73 -71 88 -325 c91 -330 254 -930
533 -1954 85 -313 212 -777 281 -1030 l127 -460 -12 -103 c-41 -381 -273 -714
-618 -886 -265 -133 -618 -141 -903 -21 -163 69 -334 204 -447 354 -141 187
-234 454 -219 630 8 100 87 398 582 2206 123 448 364 1332 407 1493 l31 112
-56 59 c-63 65 -83 118 -73 191 15 106 114 193 220 193 61 0 82 -10 153 -69
l51 -44 319 80 c663 168 1070 272 1119 286 l51 15 11 75 c20 143 106 265 233
328 117 59 223 57 347 -5 54 -27 126 -93 187 -174 l20 -26 700 176 c385 96
719 181 743 188 40 12 46 18 67 71 53 129 159 182 289 144z"/>
<path d="M6045 7641 c-75 -16 -98 -132 -38 -193 25 -25 38 -30 78 -30 60 0 95
25 113 78 17 48 2 107 -31 128 -28 18 -83 25 -122 17z"/>
<path d="M3894 7291 c-71 -18 -161 -98 -192 -170 -22 -53 -21 -185 2 -233 50
-103 157 -178 252 -178 129 0 221 49 282 150 29 49 32 62 32 133 0 44 -5 98
-12 120 -14 48 -94 138 -143 161 -39 19 -175 29 -221 17z"/>
<path d="M6080 7137 c0 -3 -38 -145 -85 -313 -47 -169 -124 -449 -171 -623
-47 -174 -132 -487 -189 -696 -57 -209 -129 -474 -160 -590 -31 -115 -103
-383 -160 -595 -176 -651 -192 -715 -184 -724 5 -6 405 -11 974 -14 821 -4
965 -3 965 9 0 15 -147 561 -393 1459 -435 1583 -571 2068 -588 2085 -5 5 -9
6 -9 2z"/>
<path d="M3922 6602 c-10 -7 -12 -557 -10 -2718 l3 -2709 60 0 60 0 3 2709 c2
2161 0 2711 -10 2718 -7 4 -31 8 -53 8 -22 0 -46 -4 -53 -8z"/>
<path d="M1824 6581 c-26 -11 -62 -56 -70 -87 -8 -33 13 -90 43 -114 19 -15
41 -20 84 -20 50 0 60 3 78 26 40 51 36 138 -9 179 -22 20 -95 29 -126 16z"/>
<path d="M1801 5912 c-54 -189 -275 -996 -467 -1702 -58 -212 -150 -547 -204
-745 -134 -489 -228 -842 -236 -891 l-6 -41 188 -6 c261 -9 1752 -9 1757 1 2
4 -40 169 -95 367 -54 198 -154 565 -222 815 -113 413 -418 1529 -585 2137
-37 133 -69 245 -72 248 -3 2 -29 -79 -58 -183z"/>
<path d="M5100 3433 c0 -21 3 -48 6 -60 l6 -23 407 -1 c223 -1 593 -4 822 -8
438 -6 449 -8 449 -52 0 -42 -10 -43 -844 -51 -440 -5 -802 -10 -804 -12 -8
-9 62 -166 106 -236 61 -98 206 -244 304 -304 83 -51 209 -106 303 -131 77
-21 366 -21 466 -1 401 84 716 438 763 859 l6 57 -995 0 -995 0 0 -37z"/>
<path d="M865 2400 c-3 -5 -3 -32 1 -60 l7 -50 491 -1 c753 -2 1150 -11 1169
-28 24 -19 21 -48 -5 -63 -21 -11 -588 -21 -1490 -27 l-138 -1 25 -67 c108
-287 356 -512 663 -599 89 -25 100 -26 295 -22 188 4 207 6 280 31 330 115
567 361 652 680 14 51 28 120 31 155 l7 62 -991 0 c-627 0 -993 -4 -997 -10z"/>
<path d="M3605 914 c-126 -74 -234 -139 -238 -143 -5 -5 209 -12 474 -16 266
-4 494 -11 507 -16 19 -7 23 -15 20 -41 -3 -30 -7 -33 -43 -40 -22 -4 -146 -7
-276 -7 -130 -1 -371 -4 -537 -8 l-302 -6 0 -144 0 -143 765 0 765 0 -2 167
-3 167 -120 72 c-66 39 -205 121 -309 182 l-189 112 -141 0 -141 0 -230 -136z"/>
</g>
</svg>
