<?xml version="1.0" encoding="UTF-8"?>
<svg id="Calque_2" data-name="Calque 2" xmlns="http://www.w3.org/2000/svg" viewBox="0 0 88.84 31.1">
  <defs>
    <style>
      .cls-1 {
        fill: #fff;
      }

      .cls-2 {
        fill: #aab2ab;
      }

      .cls-3 {
        fill-rule: evenodd;
      }
    </style>
  </defs>
  <g id="Calque_1-2" data-name="Calque 1">
    <g id="Layer_2" data-name="Layer 2">
      <g id="Layer_1-2" data-name="Layer 1-2">
        <g id="layer1">
          <g id="g260">
            <path id="path3817" class="cls-2" d="m2.32.37l83.92.15c1.17,0,2.22-.17,2.22,2.34l-.1,27.64H.21V2.72C.21,1.52.33.37,2.32.37Z"/>
            <path id="path263" d="m87.17,0H1.66c-.92,0-1.66.74-1.66,1.66h0v29.06c0,.21.17.38.38.38h88.08c.21,0,.38-.17.38-.38h0V1.72c.03-.92-.68-1.69-1.6-1.72-.02,0-.05,0-.07,0ZM1.66.72h85.51c.5,0,.91.41.91.91h0v20.22H26.77c-3.51,6.35-11.51,8.65-17.86,5.14-2.16-1.2-3.95-2.98-5.14-5.14H.77V1.66c-.02-.5.38-.92.88-.94,0,0,0,0,.01,0Z"/>
            <g id="g265">
              <path id="path267" class="cls-1" d="m54.64,24.24c.21,0,.43.02.64.06.18.04.35.1.5.2.13.1.24.23.32.38.08.18.11.37.11.57,0,.22-.05.44-.17.62-.13.18-.3.32-.5.41.27.07.51.22.68.45.15.23.23.51.22.79.02.43-.18.84-.53,1.08-.17.12-.36.21-.56.26-.21.05-.42.08-.64.08h-2.38v-4.9h2.31Zm-.14,2c.17,0,.34-.04.48-.13.13-.11.19-.28.18-.45,0-.1-.02-.19-.06-.28-.04-.07-.09-.13-.16-.17-.07-.04-.16-.07-.24-.09h-1.28v1.1l1.08.02Zm.07,2.08c.1,0,.2,0,.3,0,.09-.02.17-.05.25-.1.08-.05.14-.12.18-.2.04-.1.06-.2.06-.31.02-.2-.06-.4-.21-.54-.16-.11-.36-.17-.56-.16h-1.18v1.34l1.16-.03Z"/>
              <path id="path269" class="cls-1" d="m56.64,24.24h1.2l1.15,1.94,1.14-1.94h1.21l-1.82,3v1.88h-1.09v-1.89l-1.79-2.99Z"/>
            </g>
            <g id="g5908">
              <path id="path5906" class="cls-1" d="m25.36,14.51c-.18,5.58-4.84,9.95-10.41,9.78-5.33-.17-9.61-4.45-9.78-9.78h0c-.18-5.58,4.2-10.24,9.78-10.41,5.58-.18,10.24,4.2,10.41,9.78,0,.21,0,.42,0,.64Z"/>
              <g id="g5706">
                <path id="path5708" d="m23.47,6.29c2.21,2.16,3.42,5.13,3.36,8.22.08,3.05-1.12,6-3.3,8.14-2.18,2.22-5.17,3.47-8.28,3.44-3.06.05-6-1.17-8.13-3.37-2.22-2.13-3.46-5.08-3.42-8.16-.03-3.09,1.21-6.06,3.42-8.22,2.12-2.2,5.07-3.42,8.13-3.36,3.08-.08,6.05,1.12,8.22,3.31Zm-14.85,1.51c-1.82,1.75-2.85,4.18-2.84,6.71.07,5.21,4.29,9.42,9.5,9.47,2.54.02,4.98-1,6.75-2.83,1.8-1.73,2.79-4.14,2.72-6.64.04-5.2-4.15-9.45-9.35-9.49-.04,0-.08,0-.12,0-2.51-.04-4.93.96-6.66,2.78h0Zm5,5.58c-.19-.56-.71-.94-1.3-.94-1,0-1.53.69-1.53,2.06s.51,2.06,1.53,2.06c.65.02,1.24-.38,1.45-1l1.41.75c-.57,1.13-1.74,1.83-3,1.8-.94.03-1.84-.33-2.5-1-.66-.72-1-1.67-.94-2.64-.04-.97.32-1.92,1-2.62.63-.66,1.5-1.02,2.41-1,1.26-.09,2.46.57,3.06,1.68l-1.59.85Zm6.66,0c-.18-.55-.69-.92-1.27-.94-1.05,0-1.57.69-1.57,2.06s.52,2.06,1.57,2.06c.64.02,1.22-.39,1.41-1l1.45.75c-.57,1.13-1.74,1.83-3,1.8-.94.03-1.84-.33-2.5-1-.65-.72-.99-1.67-.93-2.64-.05-.97.29-1.91.95-2.62,1.43-1.35,3.69-1.29,5.05.15.16.17.31.36.43.56l-1.59.82Z"/>
              </g>
            </g>
            <g id="g275">
              <circle id="circle277" class="cls-1" cx="56.46" cy="11.26" r="7.95"/>
              <g id="g279">
                <path id="path281" d="m58.76,8.96c0-.3-.25-.55-.55-.55h-3.51c-.3,0-.55.24-.56.54,0,0,0,0,0,.01v3.51h1v4.16h2.66v-4.16h1v-3.51h-.04Z"/>
                <circle id="circle283" cx="56.45" cy="6.74" r="1.2"/>
              </g>
              <path id="path285" class="cls-3" d="m56.44,2.5c-2.26-.03-4.43.87-6,2.49-1.64,1.6-2.55,3.81-2.53,6.1,0,4.73,3.81,8.57,8.53,8.63,2.3,0,4.51-.94,6.11-2.6,1.61-1.58,2.5-3.75,2.45-6,.04-4.71-3.74-8.55-8.45-8.59-.05,0-.1,0-.15,0l.04-.03Zm0,1.55c3.87,0,7,3.13,7,7,.06,1.85-.67,3.63-2,4.91-1.31,1.35-3.12,2.11-5,2.1-3.84-.06-6.94-3.16-7-7-.02-1.89.75-3.69,2.11-5,1.29-1.32,3.06-2.05,4.91-2.01h-.02Z"/>
            </g>
          </g>
        </g>
      </g>
    </g>
  </g>
</svg>