<?xml version="1.0" encoding="UTF-8"?>
<svg id="Layer_1" data-name="Layer 1" xmlns="http://www.w3.org/2000/svg" viewBox="0 0 683.58 797.03">
  <defs>
    <style>
      .cls-1 {
        fill: #ffffff;
      }
    </style>
  </defs>
  <path id="path1107" class="cls-1" d="m250.88,796.32c-1.21-.78-1.5-5.05-1.77-26.21l-.33-25.28,36.87-21.78,36.87-21.78.24-291.87.24-291.87-4.11-2.83c-5.15-3.54-11.33-10.19-14.29-15.39-1.31-2.29-2.99-3.98-3.96-3.99-3.95-.02-156.1,38.69-157.67,40.11-.93.84-1.7,2.44-1.71,3.55-.06,5.39-4.62,11.33-14.84,19.32l-2.46,1.92,54.75,200.77,54.75,200.77-.91,8.82c-2.31,22.36-9.63,41.57-22.39,58.79-34.76,46.9-96.53,61.32-147.81,34.51-27.19-14.21-49.51-41.48-58.04-70.9-5.04-17.4-5.53-27.4-2.05-42.14,3.18-13.45,13.5-51.61,58.74-217.06,21.33-78,40.8-149.35,43.26-158.54l4.48-16.71-4.92-4.3c-6.77-5.93-9.11-10.67-9.11-18.52,0-10.68,6.86-19.62,17.4-22.68,8.39-2.44,14.91-.39,22.63,7.09l4.53,4.39,79.11-19.96c43.51-10.98,79.44-20.16,79.85-20.41s.75-2.49.76-4.97c.06-10.88,4.57-21.11,13.11-29.77,16.84-17.05,40.86-17.33,58.85-.67,3.08,2.85,6.64,7.14,7.91,9.54,1.5,2.83,2.96,4.37,4.14,4.37,2.21,0,155.3-38.39,157.24-39.43.75-.4,1.95-3.02,2.67-5.82,2.74-10.7,11.5-17.37,22.84-17.37,21.87,0,31.44,25.98,15.02,40.81-2.16,1.95-4.3,3.54-4.77,3.54s-1.11.67-1.42,1.48c-.64,1.66.07,4.31,63.41,236.28l45.62,167.09-1,8.87c-3.31,29.41-14.86,53.51-35.21,73.39-16.76,16.38-37.94,27.31-61.41,31.68-12.75,2.37-35.16,1.55-47.67-1.75-24.03-6.34-45.29-19.59-60.6-37.76-15.9-18.88-24.89-39.97-27.64-64.86l-1.01-9.13,54.87-201.41,54.87-201.41-2.16-1.47c-1.19-.81-4.69-3.8-7.79-6.65l-5.63-5.18-77.18,19.4c-42.45,10.67-78.15,19.81-79.34,20.31-1.7.71-2.17,1.69-2.18,4.53-.06,14.15-8.32,29.19-20.25,36.85l-4.74,3.04.24,291.84.24,291.84,36.82,21.65,36.82,21.65-.28,25.27c-.16,13.9-.64,25.63-1.09,26.07-1.16,1.16-179.62,1.52-181.41.36h0Zm171.9-28.57l-.26-17.95-33.17-19.51-33.17-19.51-14.71-.04-14.71-.04-26.64,15.62-26.64,15.62,52.4.56c28.82.31,53.36.87,54.52,1.25,3.72,1.22,4.07,7.37.5,8.74-.9.35-28.58.89-61.5,1.2l-59.87.58v31.42h163.5l-.26-17.95Zm-74.78-358.01V121.27h-13.46v576.92h13.46v-288.46Zm-203.07,253.47c32.74-9.14,59.12-33.15,70.81-64.43,2.78-7.43,6.3-23.58,6.3-28.85v-3.45H10.49v3.73c0,2.05.26,5.02.57,6.6l.57,2.87,86.87.47c79.17.43,87.09.61,89.33,2.08,3.11,2.04,3.15,4.92.09,6.92-2.12,1.39-11.42,1.61-87.98,2.09-47.09.3-85.61.68-85.61.85s1.1,3.24,2.45,6.82c13.17,34.99,43.32,59.77,81.13,66.66,2.42.44,11.98.66,21.23.48,14.55-.28,18.04-.66,25.78-2.82h0Zm75.15-111.4c-23.03-84.93-103.07-377.23-103.38-377.54-.24-.24-.59-.25-.78-.03-.19.22-7.77,27.44-16.83,60.5C19.53,524.82,11.78,553.52,12.79,554.19c.59.39,47.66.71,104.6.72h103.53s-.85-3.11-.85-3.11Zm374.54-1.1c35.8-9.34,64.42-37.83,74.02-73.68,1.32-4.93,2.68-12.13,3.04-16l.64-7.05h-211.8v3.73c0,2.05.26,5.02.57,6.6l.57,2.87,86.87.47c79.17.43,87.09.61,89.33,2.08,3.11,2.04,3.15,4.92.09,6.92-2.12,1.39-11.42,1.61-87.98,2.09-47.09.3-85.61.68-85.61.85s1.02,3.03,2.28,6.35c13.39,35.56,43.11,59.91,82.34,67.44,1.32.25,9.98.32,19.23.15,14.37-.27,18.23-.68,26.42-2.82h0Zm75.47-111.4c-26.24-97.6-89.65-327.82-99.66-361.78-3.9-13.24-4.72-15.17-5.5-12.98-2.68,7.45-102.49,375.55-102.11,376.55.43,1.12,16.78,1.33,104.31,1.33h103.8l-.84-3.12ZM126.84,145.46c4.98-4.98,4.98-14.54,0-19.52-2.4-2.4-3.45-2.74-8.51-2.74-4.8,0-6.27.42-8.71,2.47-1.62,1.36-3.45,4.17-4.07,6.25-1.5,5,.12,10.47,4.07,13.8,2.44,2.06,3.92,2.47,8.71,2.47,5.06,0,6.11-.34,8.51-2.74Zm228.05-37.38c6.21-2.78,12.78-9.11,15.75-15.18,2.12-4.34,2.49-6.38,2.49-13.78,0-10.49-1.75-15.14-8.34-22.19-6.91-7.39-11.45-9.2-23.05-9.2-8.22,0-10.22.32-13.8,2.23-6.3,3.36-12.31,9.39-15.15,15.19-3.4,6.94-3.69,19.57-.62,26.5,2.83,6.39,9.09,12.76,15.96,16.23,5.51,2.79,6.46,2.96,14.08,2.61,5.54-.26,9.62-1.03,12.67-2.4h0Zm218.92-74.81c6.78-5.71,5.99-18.1-1.36-21.45-3.2-1.46-10.86-1.39-13.88.12-3.7,1.85-5.95,7.05-5.47,12.65.34,3.96.98,5.27,3.89,7.93,3.04,2.79,4.13,3.18,8.7,3.18,4.19,0,5.8-.48,8.12-2.44h0Z"/>
</svg>