<?xml version="1.0" encoding="UTF-8"?>
<svg id="Calque_2" data-name="Calque 2" xmlns="http://www.w3.org/2000/svg"
    viewBox="0 0 855.57 1674.31">
    <defs>
        <style>
            .cls-1, .cls-2, .cls-3 {
            fill: #fff;
            }

            .cls-2 {
            opacity: .6;
            }

            .cls-3 {
            opacity: .2;
            }

            .cls-4 {
            fill: none;
            stroke: #fff;
            stroke-miterlimit: 10;
            stroke-width: 4px;
            }
        </style>
    </defs>
    <g id="Calque_3" data-name="Calque 3">
        <polygon class="cls-1"
            points="422.4 935.82 494.68 961.79 696.85 961.79 755.57 935.82 422.4 935.82" />
        <line class="cls-4" x1="566.6" y1="599.88" x2="459.67" y2="935.82" />
        <polygon class="cls-1" points="0 994.55 58.73 1026.17 248.47 1026.17 306.07 994.55 0 994.55" />
        <line class="cls-4" x1="170.18" y1="620.21" x2="67.76" y2="994.55" />
        <line class="cls-4" x1="586.55" y1="610.8" x2="744.28" y2="935.82" />
        <polyline class="cls-4" points="685.55 935.82 576.85 625.51 491.29 935.82" />
        <polyline class="cls-4" points="272.19 994.55 152.48 638.28 21.46 994.55" />
        <line class="cls-4" x1="163.76" y1="646.12" x2="288" y2="994.55" />
        <polygon class="cls-1"
            points="117.8 620.42 160.72 650.53 166.37 613.26 127.21 586.91 117.8 620.42" />
        <polygon class="cls-3"
            points="152.77 565.64 163.73 576.37 163.73 576.37 174.21 607.83 127.21 586.91 152.77 565.64" />
        <polygon class="cls-1"
            points="152.77 565.64 172.2 474.72 210.76 506.78 163.73 576.37 152.77 565.64" />
        <polygon class="cls-3"
            points="172.2 474.72 201.85 422.2 235.07 475.71 210.76 506.78 172.2 474.72" />
        <polygon class="cls-2"
            points="219.83 363.29 250.16 419.11 235.07 475.71 201.85 422.2 219.83 363.29" />
        <polygon class="cls-1" points="252.24 414.98 278.08 367.99 219.83 363.29 252.24 414.98" />
        <polygon class="cls-1" points="323.98 322.66 278.08 367.99 219.83 363.29 323.98 322.66" />
        <polygon class="cls-1" points="233.42 281.96 246.74 246.86 303.03 303.05 233.42 281.96" />
        <polygon class="cls-2"
            points="246.74 246.86 344.15 175.71 340.48 264.65 303.03 303.05 246.74 246.86" />
        <polygon class="cls-3"
            points="344.15 175.71 344.19 145.13 384.93 120.63 343.65 192.91 344.15 175.71" />
        <polygon class="cls-1"
            points="416.68 144.74 418.41 170.35 411.45 226.25 384.93 120.63 416.68 144.74" />
        <polygon class="cls-1"
            points="384.93 244.87 343.65 192.91 344.36 184.63 384.93 120.63 384.93 244.87" />
        <polygon class="cls-3"
            points="303.03 303.05 340.48 264.65 343.44 193.11 384.72 245.08 384.72 379.48 303.03 303.05" />
        <polygon class="cls-2" points="411.45 226.25 384.72 245.08 384.93 120.63 411.45 226.25" />
        <polygon class="cls-2"
            points="418.41 170.35 435.92 194.91 461.9 207.62 411.45 226.25 418.41 170.35" />
        <polygon class="cls-1" points="384.72 245.08 420.11 259.01 411.45 226.25 384.72 245.08" />
        <polygon class="cls-1"
            points="384.72 379.48 423.87 278.96 420.11 259.01 384.72 245.08 384.72 379.48" />
        <polygon class="cls-1"
            points="313.94 444.23 384.72 379.48 323.98 322.66 278.08 367.99 313.94 444.23" />
        <polygon class="cls-1" points="411.45 226.25 461.9 207.62 507.64 235.85 411.45 226.25" />
        <polygon class="cls-1" points="423.87 278.96 507.64 235.85 411.45 226.25 423.87 278.96" />
        <polygon class="cls-2" points="384.72 379.48 483.35 340.89 423.87 278.96 384.72 379.48" />
        <polygon class="cls-2" points="278.08 367.99 279.89 474.72 313.94 444.23 278.08 367.99" />
        <polygon class="cls-2" points="423.87 278.96 507.64 235.85 525.71 312.65 423.87 278.96" />
        <polygon class="cls-1" points="384.72 379.48 454.43 455.01 461.9 349.28 384.72 379.48" />
        <polygon class="cls-3"
            points="423.87 278.96 525.71 312.65 532.04 352.9 483.35 340.89 423.87 278.96" />
        <polygon class="cls-1"
            points="279.89 474.72 313.94 444.23 384.72 553.78 278.08 537.4 271.91 509.36 279.89 474.72" />
        <polygon class="cls-1" points="460.22 373.04 483.35 340.89 461.9 349.28 460.22 373.04" />
        <polygon class="cls-2" points="313.94 444.23 384.72 379.48 384.72 553.78 313.94 444.23" />
        <polygon class="cls-1"
            points="471.22 357.76 495.37 402.15 532.04 352.9 483.35 340.89 471.22 357.76" />
        <polygon class="cls-1" points="384.72 379.48 454.43 455.01 384.72 553.78 384.72 379.48" />
        <polygon class="cls-2"
            points="495.37 402.15 507.35 449.88 540.95 409.58 532.04 352.9 495.37 402.15" />
        <polygon class="cls-3" points="384.72 553.78 454.43 455.01 483.35 569.93 384.72 553.78" />
        <polygon class="cls-1"
            points="271.91 509.36 250.13 594.16 291.92 667.85 278.08 537.4 271.91 509.36" />
        <polygon class="cls-1" points="507.35 449.88 540.95 409.58 573.71 462.86 507.35 449.88" />
        <polygon class="cls-3" points="291.92 667.85 384.72 553.78 278.08 537.4 291.92 667.85" />
        <polygon class="cls-3" points="507.35 449.88 573.71 462.86 583.87 547 507.35 449.88" />
        <polygon class="cls-2" points="384.72 553.78 483.35 569.93 489.85 662.77 384.72 553.78" />
        <polygon class="cls-1" points="507.35 449.88 553.94 569.93 583.87 547 507.35 449.88" />
        <polygon class="cls-1"
            points="250.13 594.16 278.08 747.47 322.86 828.09 291.92 667.85 250.13 594.16" />
        <polygon class="cls-1" points="291.92 667.85 384.72 553.78 384.72 727.71 291.92 667.85" />
        <polygon class="cls-2" points="322.86 828.09 384.72 727.71 291.92 667.85 322.86 828.09" />
        <polygon class="cls-1" points="384.72 553.78 489.85 662.77 384.72 640.75 384.72 553.78" />
        <polygon class="cls-1" points="384.72 727.71 384.72 871.71 349.33 785.14 384.72 727.71" />
        <polygon class="cls-2" points="384.72 640.75 489.85 662.77 454.43 752.43 384.72 640.75" />
        <polygon class="cls-1" points="384.72 871.71 427.82 806.43 384.72 727.71 384.72 871.71" />
        <polygon class="cls-3"
            points="384.72 640.75 384.72 727.71 437.28 823.71 454.43 752.43 384.72 640.75" />
        <polyline class="cls-1" points="322.86 828.09 315.93 887.86 384.72 871.71 349.33 785.14" />
        <polygon class="cls-3" points="315.93 887.86 384.72 932.51 384.72 871.71 315.93 887.86" />
        <polygon class="cls-2" points="432.4 799.5 441.88 839.5 384.72 871.71 432.4 799.5" />
        <polygon class="cls-1"
            points="315.93 887.86 312.28 923.51 338.32 969.03 384.72 932.51 315.93 887.86" />
        <polygon class="cls-1"
            points="384.72 871.71 441.88 839.5 448 875.47 384.72 932.51 384.72 871.71" />
        <polygon class="cls-1" points="312.28 923.51 323.99 980.87 338.32 969.03 312.28 923.51" />
        <polygon class="cls-1" points="384.72 932.51 338.32 969.03 384.72 1053.36 384.72 932.51" />
        <polygon class="cls-1" points="448 875.47 449.78 926.05 384.72 932.51 448 875.47" />
        <polygon class="cls-2"
            points="384.72 1053.36 425.86 1040.29 434.75 1000.06 384.72 932.51 384.72 1053.36" />
        <polygon class="cls-1"
            points="323.99 980.87 346.72 1087.22 384.72 1053.36 338.32 969.03 323.99 980.87" />
        <polygon class="cls-3" points="384.72 932.51 434.75 1000.06 449.78 926.05 384.72 932.51" />
        <polygon class="cls-3"
            points="346.72 1087.22 381.91 1158.3 417.25 1078.96 425.86 1040.29 384.72 1053.36 346.72 1087.22" />
        <polyline class="cls-1" points="495.02 400.9 491.58 387.21 473.3 360.99" />
        <polyline class="cls-1" points="488.83 644.97 484.8 575.82 483.68 571.38" />
        <polyline class="cls-1" points="495.02 400.9 507.39 450.17 508.28 451.51" />
        <polyline class="cls-1" points="171.83 477.24 172.23 475.02 172.35 474.82" />
        <line class="cls-1" x1="583.8" y1="546.44" x2="583.86" y2="546.96" />
        <line class="cls-1" x1="172.48" y1="474.58" x2="172.35" y2="474.82" />
        <line class="cls-1" x1="566.74" y1="560.08" x2="566.83" y2="560.32" />
        <polyline class="cls-1" points="449.94 924.47 451.76 897.7 448.28 877.21" />
        <line class="cls-1" x1="483.25" y1="569.67" x2="483.68" y2="571.38" />
        <polyline class="cls-1" points="454.61 752.37 489.88 663.06 489.88 663.02" />
        <polyline class="cls-1" points="495.11 234.37 485.51 222.47 461.93 207.91 461.42 207.66" />
        <polyline class="cls-1" points="435.71 996.17 449.22 934.97 449.77 926.9" />
        <polyline class="cls-3" points="461.42 207.66 435.95 195.21 418.54 170.78" />
        <polyline class="cls-1" points="525.6 312.34 512.25 255.63 499.57 239.9" />
        <polyline class="cls-1" points="531.98 352.63 525.74 312.95 525.6 312.34" />
        <line class="cls-1" x1="495.11" y1="234.37" x2="499.57" y2="239.9" />
        <polyline class="cls-1" points="418.54 170.78 418.45 170.64 416.67 144.37" />
        <polyline class="cls-3" points="384.93 1.45 374.13 0 349.76 8.5" />
        <polyline class="cls-2"
            points="435.88 68.34 435.43 71.75 441.03 81.42 432.56 106.55 420.14 115.86 415.91 133.09 416.67 144.37" />
        <polyline class="cls-1"
            points="563.53 602.74 569.22 605.46 566.68 608.29 567.53 612.81 575.43 618.45 572.89 620.43 576.85 625.51 593.5 623.53 598.02 612.52 605.93 604.62 595.2 572.99 595.2 560.29 583.9 547.3 583.86 546.96" />
        <polyline class="cls-3" points="563.69 600.79 566.68 595.86 583.87 547 566.83 560.32" />
        <polyline class="cls-1" points="563.53 602.74 562.73 602.36 563.69 600.79" />
        <polyline class="cls-1" points="573.34 462.54 541.55 413.46 540.95 409.63" />
        <polyline class="cls-2" points="174.14 607.82 181.55 629.18 163.76 646.12 163.76 648.07" />
        <polyline class="cls-1"
            points="566.74 560.08 566.4 559.16 567.81 548.71 539.86 499.02 508.28 451.51" />
        <line class="cls-1" x1="489.88" y1="663.02" x2="489.85" y2="662.52" />
        <line class="cls-1" x1="488.83" y1="644.97" x2="489.84" y2="662.33" />
        <polyline class="cls-1" points="328.09 43.02 345.22 10.08 362.84 3.94" />
        <line class="cls-1" x1="441.85" y1="839.43" x2="439.12" y2="823.42" />
        <line class="cls-1" x1="322.98" y1="827.7" x2="323" y2="827.5" />
        <line class="cls-1" x1="471.16" y1="357.92" x2="473.3" y2="360.99" />
        <line class="cls-1" x1="209.7" y1="508.45" x2="211.18" y2="506.58" />
        <polyline class="cls-1" points="460.65 369.63 470.12 356.43 471.16 357.92" />
        <line class="cls-1" x1="489.84" y1="662.33" x2="489.85" y2="662.52" />
        <line class="cls-1" x1="449.94" y1="924.47" x2="449.84" y2="925.86" />
        <line class="cls-1" x1="449.77" y1="926.9" x2="449.84" y2="925.86" />
        <line class="cls-1" x1="439.12" y1="823.42" x2="438.45" y2="819.51" />
        <line class="cls-1" x1="448.28" y1="877.21" x2="447.98" y2="875.47" />
        <polyline class="cls-1" points="438.45 819.51 438.21 818.08 450.07 763.86 454.61 752.37" />
        <line class="cls-1" x1="426" y1="1040.1" x2="434.91" y2="999.78" />
        <line class="cls-1" x1="435.71" y1="996.17" x2="434.91" y2="999.78" />
        <polyline class="cls-1" points="323 827.5 323.01 827.39 322.96 827.31" />
        <polyline class="cls-1"
            points="435.88 68.34 438.21 50.64 424.66 26.08 404.33 4.05 384.93 1.45" />
        <line class="cls-1" x1="270.93" y1="513.76" x2="272.12" y2="509.16" />
        <line class="cls-1" x1="308.93" y1="802.43" x2="322.96" y2="827.31" />
        <polyline class="cls-1" points="573.34 462.54 573.74 463.16 583.8 546.44" />
        <polyline class="cls-1" points="270.93 513.76 250.16 594.45 278.12 747.77 308.93 802.43" />
        <polyline class="cls-1" points="211.18 506.58 234.92 476.71 235.25 475.45" />
        <polyline class="cls-3"
            points="382.22 1157.86 381.94 1158.59 345.03 1084.05 312 922.26 322.98 827.7" />
        <polyline class="cls-1" points="382.22 1157.86 391.62 1133.18 418.73 1073.04 426 1040.1" />
        <line class="cls-1" x1="540.95" y1="409.63" x2="532.04" y2="352.98" />
        <line class="cls-1" x1="441.85" y1="839.43" x2="447.98" y2="875.47" />
        <polyline class="cls-1" points="252.5 414.86 250.16 419.11 235.25 475.45" />
        <polyline class="cls-1" points="272.12 509.16 279.81 479.25 279.92 475.32" />
        <line class="cls-1" x1="278.12" y1="368.29" x2="278.36" y2="371.84" />
        <polyline class="cls-1" points="280.04 470.85 281.51 417.42 278.36 371.84" />
        <line class="cls-1" x1="531.98" y1="352.63" x2="532.04" y2="352.98" />
        <line class="cls-1" x1="280.04" y1="470.85" x2="279.92" y2="475.32" />
        <line class="cls-1" x1="168.66" y1="569.18" x2="164.62" y2="576.4" />
        <polyline class="cls-1" points="454.48 455.04 454.31 460.33 461.08 481.79 483.25 569.67" />
        <polyline class="cls-1" points="233.64 281.75 238.16 269.84 252.35 252.04" />
        <polyline class="cls-1" points="164.62 576.4 163.76 577.93 174.14 607.82" />
        <polyline class="cls-1"
            points="252.35 252.04 267.49 233.06 286.59 220.05 327.25 198.88 344.19 176.01 344.19 175.63" />
        <line class="cls-1" x1="454.48" y1="455.04" x2="454.49" y2="454.63" />
        <polyline class="cls-1" points="460.65 369.63 457.98 373.37 455.15 434.08 454.49 454.63" />
        <polyline class="cls-1" points="171.83 477.24 156.14 563.1 153.17 565.62" />
        <polyline class="cls-1" points="140.98 595.83 135.81 624.95 138.08 634.29" />
        <polyline class="cls-1" points="153.17 565.62 145.13 572.43 140.98 595.83" />
        <polyline class="cls-1"
            points="329.11 41.05 328.09 43.02 326.4 72.67 320.47 80.29 328.94 107.39 338.26 115.02 344.19 135.35 344.19 145.13" />
        <line class="cls-1" x1="201.93" y1="422.22" x2="202.07" y2="421.45" />
        <polyline class="cls-1" points="172.48 474.58 201.88 422.5 201.93 422.22" />
        <polyline class="cls-1" points="209.7 508.45 185.79 538.55 168.66 569.18" />
        <polyline class="cls-1" points="127.42 586.7 118.01 620.21 138.08 634.29" />
        <line class="cls-1" x1="138.08" y1="634.29" x2="160.93" y2="650.33" />
        <line class="cls-1" x1="174.14" y1="607.82" x2="174.42" y2="607.62" />
        <line class="cls-1" x1="127.42" y1="586.7" x2="152.98" y2="565.43" />
        <line class="cls-1" x1="163.94" y1="576.16" x2="164.62" y2="576.4" />
        <line class="cls-1" x1="174.14" y1="607.82" x2="166.58" y2="613.06" />
        <line class="cls-1" x1="140.98" y1="595.83" x2="166.58" y2="613.06" />
        <polyline class="cls-2" points="140.98 595.83 127.42 586.7 166.58 613.06 160.93 650.33" />
        <path class="cls-1" d="m160.93,650.33l2.83-2.25-2.83,2.25Z" />
        <line class="cls-1" x1="172.41" y1="474.51" x2="172.35" y2="474.82" />
        <line class="cls-1" x1="210.97" y1="506.57" x2="209.7" y2="508.45" />
        <line class="cls-1" x1="168.66" y1="569.18" x2="209.7" y2="508.45" />
        <line class="cls-1" x1="171.83" y1="477.24" x2="172.35" y2="474.82" />
        <line class="cls-1" x1="168.66" y1="569.18" x2="163.94" y2="576.16" />
        <line class="cls-1" x1="171.83" y1="477.24" x2="152.98" y2="565.43" />
        <line class="cls-1" x1="153.17" y1="565.62" x2="163.94" y2="576.16" />
        <line class="cls-1" x1="152.98" y1="565.43" x2="153.17" y2="565.62" />
        <line class="cls-1" x1="220.03" y1="363.08" x2="214.65" y2="351.42" />
        <line class="cls-1" x1="202.06" y1="422" x2="202.07" y2="421.45" />
        <line class="cls-1" x1="172.41" y1="474.51" x2="201.93" y2="422.22" />
        <line class="cls-1" x1="202.06" y1="422" x2="235.25" y2="475.45" />
        <line class="cls-1" x1="210.97" y1="506.57" x2="211.18" y2="506.58" />
        <line class="cls-1" x1="201.93" y1="422.22" x2="202.06" y2="422" />
        <line class="cls-1" x1="172.48" y1="474.58" x2="210.97" y2="506.57" />
        <line class="cls-1" x1="172.48" y1="474.58" x2="172.41" y2="474.51" />
        <line class="cls-1" x1="252.5" y1="414.86" x2="220.03" y2="363.08" />
        <line class="cls-1" x1="202.06" y1="422" x2="235.25" y2="475.45" />
        <line class="cls-1" x1="202.06" y1="422" x2="220.03" y2="363.08" />
        <line class="cls-1" x1="303.23" y1="302.84" x2="324.19" y2="322.45" />
        <polyline class="cls-1" points="220.03 363.08 214.65 351.42 202.07 421.45" />
        <line class="cls-1" x1="233.64" y1="281.75" x2="303.23" y2="302.84" />
        <polyline class="cls-3" points="220.03 363.08 250.16 419.11 278.29 367.79" />
        <line class="cls-1" x1="220.03" y1="363.08" x2="278.29" y2="367.79" />
        <polyline class="cls-1" points="233.64 281.75 233.63 281.75 246.95 246.66" />
        <line class="cls-1" x1="344.19" y1="145.13" x2="384.93" y2="120.63" />
        <line class="cls-1" x1="344.19" y1="175.63" x2="344.36" y2="175.5" />
        <line class="cls-1" x1="344.19" y1="175.63" x2="246.95" y2="246.66" />
        <line class="cls-1" x1="340.69" y1="264.44" x2="344.36" y2="175.5" />
        <line class="cls-1" x1="252.35" y1="252.04" x2="246.95" y2="246.66" />
        <line class="cls-1" x1="303.23" y1="302.84" x2="252.35" y2="252.04" />
        <line class="cls-1" x1="384.93" y1="120.63" x2="416.67" y2="144.37" />
        <line class="cls-1" x1="344.36" y1="175.5" x2="344.19" y2="171.7" />
        <line class="cls-1" x1="344.19" y1="145.13" x2="384.93" y2="120.63" />
        <line class="cls-1" x1="384.93" y1="120.63" x2="416.67" y2="144.37" />
        <polyline class="cls-1" points="418.62 170.14 416.89 144.54 416.67 144.37" />
        <line class="cls-1" x1="343.65" y1="192.91" x2="344.36" y2="184.63" />
        <line class="cls-1" x1="344.36" y1="184.63" x2="384.93" y2="120.63" />
        <line class="cls-1" x1="343.65" y1="192.91" x2="340.69" y2="264.44" />
        <polygon class="cls-1"
            points="214.65 351.42 221.36 314.08 233.64 281.75 303.23 302.84 303.03 303.05 220.03 363.08 214.65 351.42" />
        <line class="cls-1" x1="384.93" y1="379.27" x2="324.19" y2="322.45" />
        <line class="cls-1" x1="340.69" y1="264.44" x2="303.23" y2="302.84" />
        <line class="cls-1" x1="343.65" y1="192.91" x2="384.93" y2="244.87" />
        <line class="cls-1" x1="384.93" y1="120.63" x2="411.66" y2="226.04" />
        <line class="cls-1" x1="418.62" y1="170.14" x2="418.54" y2="170.78" />
        <line class="cls-1" x1="418.54" y1="170.78" x2="411.66" y2="226.04" />
        <line class="cls-1" x1="420.32" y1="258.8" x2="411.66" y2="226.04" />
        <line class="cls-1" x1="384.93" y1="244.87" x2="411.66" y2="226.04" />
        <line class="cls-1" x1="424.08" y1="278.75" x2="420.32" y2="258.8" />
        <line class="cls-1" x1="420.32" y1="258.8" x2="419.28" y2="258.39" />
        <line class="cls-1" x1="384.93" y1="379.27" x2="324.19" y2="322.45" />
        <line class="cls-1" x1="324.19" y1="322.45" x2="278.29" y2="367.79" />
        <line class="cls-1" x1="462.1" y1="207.41" x2="507.85" y2="235.64" />
        <line class="cls-1" x1="462.1" y1="207.41" x2="461.42" y2="207.66" />
        <line class="cls-1" x1="461.42" y1="207.66" x2="411.66" y2="226.04" />
        <line class="cls-1" x1="411.66" y1="226.04" x2="419.28" y2="258.39" />
        <line class="cls-1" x1="411.66" y1="226.04" x2="495.11" y2="234.37" />
        <line class="cls-1" x1="507.85" y1="235.64" x2="495.11" y2="234.37" />
        <line class="cls-1" x1="384.93" y1="379.27" x2="483.56" y2="340.68" />
        <line class="cls-1" x1="280.1" y1="474.51" x2="280.04" y2="470.85" />
        <line class="cls-1" x1="278.36" y1="371.84" x2="280.04" y2="470.85" />
        <line class="cls-1" x1="278.29" y1="367.79" x2="278.36" y2="371.84" />
        <polyline class="cls-1"
            points="314.15 444.02 278.29 367.79 220.03 363.08 252.24 414.98 265.98 394.3 279.95 409.13 314.15 444.02 384.93 553.57" />
        <line class="cls-3" x1="525.92" y1="312.44" x2="507.85" y2="235.64" />
        <line class="cls-1" x1="424.08" y1="278.75" x2="499.57" y2="239.9" />
        <line class="cls-1" x1="507.85" y1="235.64" x2="499.57" y2="239.9" />
        <line class="cls-1" x1="460.65" y1="369.63" x2="460.43" y2="372.83" />
        <line class="cls-1" x1="384.93" y1="379.27" x2="462.1" y2="349.07" />
        <line class="cls-1" x1="454.64" y1="454.8" x2="460.43" y2="372.83" />
        <line class="cls-1" x1="462.1" y1="349.07" x2="460.65" y2="369.63" />
        <line class="cls-1" x1="525.92" y1="312.44" x2="532.25" y2="352.7" />
        <line class="cls-1" x1="424.08" y1="278.75" x2="483.56" y2="340.68" />
        <line class="cls-1" x1="424.08" y1="278.75" x2="525.6" y2="312.34" />
        <polygon class="cls-1" points="323.98 1263.65 278.08 1308.99 219.83 1304.28 323.98 1263.65" />
        <polygon class="cls-2"
            points="246.74 1187.86 344.15 1116.71 340.48 1205.65 303.03 1244.05 246.74 1187.86" />
        <polygon class="cls-3"
            points="344.15 1116.71 344.19 1086.13 384.93 1061.63 343.65 1133.9 344.15 1116.71" />
        <polygon class="cls-1"
            points="416.68 1085.74 418.41 1111.34 411.45 1167.25 384.93 1061.63 416.68 1085.74" />
        <polygon class="cls-1"
            points="384.93 1185.86 343.65 1133.9 344.36 1125.63 384.93 1061.63 384.93 1185.86" />
        <polygon class="cls-3"
            points="121.76 1337.22 159.21 1298.82 162.17 1227.28 203.45 1279.25 203.45 1413.65 121.76 1337.22" />
        <polygon class="cls-2" points="411.45 1167.25 384.72 1186.07 384.93 1061.63 411.45 1167.25" />
        <polygon class="cls-2"
            points="418.41 1111.34 435.92 1135.91 461.9 1148.61 411.45 1167.25 418.41 1111.34" />
        <polygon class="cls-1" points="384.72 1186.07 420.11 1200 411.45 1167.25 384.72 1186.07" />
        <polygon class="cls-1"
            points="411.83 1442.45 450.98 1341.93 447.21 1321.98 411.83 1308.05 411.83 1442.45" />
        <polygon class="cls-1"
            points="532.48 1317.46 603.26 1252.71 542.53 1195.89 496.63 1241.22 532.48 1317.46" />
        <polygon class="cls-1" points="411.45 1167.25 461.9 1148.61 507.64 1176.85 411.45 1167.25" />
        <polygon class="cls-1" points="450.98 1233.51 534.74 1190.4 438.55 1180.8 450.98 1233.51" />
        <polygon class="cls-2" points="554.13 1561.04 652.77 1522.45 593.28 1460.52 554.13 1561.04" />
        <polygon class="cls-2" points="559.4 1182.68 643.17 1139.58 661.24 1216.38 559.4 1182.68" />
        <polygon class="cls-3"
            points="423.87 1219.95 525.71 1253.65 532.04 1293.9 483.35 1281.88 423.87 1219.95" />
        <polyline class="cls-3" points="461.42 1148.66 435.95 1136.2 418.54 1111.77" />
        <polyline class="cls-1" points="418.54 1111.77 418.45 1111.64 416.67 1085.37" />
        <polyline class="cls-1"
            points="252.35 1193.04 267.49 1174.05 286.59 1161.05 327.25 1139.87 344.19 1117 344.19 1116.63" />
        <line class="cls-1" x1="344.19" y1="1116.63" x2="344.36" y2="1116.5" />
        <line class="cls-1" x1="344.19" y1="1116.63" x2="246.95" y2="1187.65" />
        <line class="cls-1" x1="340.69" y1="1205.44" x2="344.36" y2="1116.5" />
        <line class="cls-1" x1="344.36" y1="1116.5" x2="344.19" y2="1112.69" />
        <polyline class="cls-1" points="418.62 1111.13 416.89 1085.53 416.67 1085.37" />
        <line class="cls-1" x1="343.65" y1="1133.9" x2="344.36" y2="1125.63" />
        <line class="cls-1" x1="344.36" y1="1125.63" x2="384.93" y2="1061.63" />
        <line class="cls-1" x1="343.65" y1="1133.9" x2="340.69" y2="1205.44" />
        <line class="cls-1" x1="343.65" y1="1133.9" x2="384.93" y2="1185.86" />
        <line class="cls-1" x1="384.93" y1="1061.63" x2="411.66" y2="1167.04" />
        <line class="cls-1" x1="418.62" y1="1111.13" x2="418.54" y2="1111.77" />
        <line class="cls-1" x1="418.54" y1="1111.77" x2="411.66" y2="1167.04" />
        <line class="cls-1" x1="420.32" y1="1199.79" x2="411.66" y2="1167.04" />
        <line class="cls-1" x1="384.93" y1="1185.86" x2="411.66" y2="1167.04" />
        <line class="cls-1" x1="424.08" y1="1219.75" x2="420.32" y2="1199.79" />
        <line class="cls-1" x1="420.32" y1="1199.79" x2="419.28" y2="1199.39" />
        <line class="cls-1" x1="461.42" y1="1148.66" x2="411.66" y2="1167.04" />
        <line class="cls-1" x1="411.66" y1="1167.04" x2="419.28" y2="1199.39" />
        <line class="cls-1" x1="411.66" y1="1167.04" x2="495.11" y2="1175.37" />
        <line class="cls-1" x1="424.08" y1="1219.75" x2="499.57" y2="1180.9" />
        <line class="cls-1" x1="525.92" y1="312.44" x2="525.6" y2="312.34" />
        <line class="cls-1" x1="280.1" y1="474.51" x2="279.92" y2="475.32" />
        <line class="cls-1" x1="272.11" y1="509.15" x2="279.92" y2="475.32" />
        <line class="cls-1" x1="314.15" y1="444.02" x2="280.1" y2="474.51" />
        <polyline class="cls-1" points="460.65 369.63 460.43 372.83 460.43 372.83" />
        <line class="cls-1" x1="483.56" y1="340.68" x2="471.42" y2="357.55" />
        <line class="cls-1" x1="471.16" y1="357.92" x2="471.42" y2="357.55" />
        <line class="cls-1" x1="462.1" y1="349.07" x2="483.56" y2="340.68" />
        <line class="cls-1" x1="460.43" y1="372.83" x2="471.16" y2="357.92" />
        <line class="cls-1" x1="460.65" y1="369.63" x2="462.1" y2="349.07" />
        <line class="cls-1" x1="384.93" y1="379.27" x2="314.15" y2="444.02" />
        <line class="cls-1" x1="495.02" y1="400.9" x2="495.58" y2="401.94" />
        <line class="cls-1" x1="495.02" y1="400.9" x2="473.3" y2="360.99" />
        <line class="cls-1" x1="473.3" y1="360.99" x2="471.42" y2="357.55" />
        <polyline class="cls-1" points="483.56 340.68 471.42 357.55 471.42 357.55" />
        <line class="cls-1" x1="532.25" y1="352.7" x2="531.98" y2="352.63" />
        <line class="cls-1" x1="483.56" y1="340.68" x2="531.98" y2="352.63" />
        <line class="cls-1" x1="384.93" y1="379.27" x2="454.49" y2="454.63" />
        <line class="cls-1" x1="454.49" y1="454.63" x2="454.64" y2="454.8" />
        <line class="cls-1" x1="507.56" y1="449.67" x2="495.58" y2="401.94" />
        <line class="cls-1" x1="541.16" y1="409.37" x2="532.25" y2="352.7" />
        <line class="cls-1" x1="532.04" y1="352.98" x2="495.58" y2="401.94" />
        <line class="cls-1" x1="532.25" y1="352.7" x2="532.04" y2="352.98" />
        <line class="cls-1" x1="454.64" y1="454.8" x2="483.56" y2="569.72" />
        <line class="cls-1" x1="454.48" y1="455.04" x2="454.64" y2="454.8" />
        <line class="cls-1" x1="454.48" y1="455.04" x2="384.93" y2="553.57" />
        <line class="cls-1" x1="270.93" y1="513.76" x2="250.34" y2="593.95" />
        <line class="cls-1" x1="270.93" y1="513.76" x2="272.11" y2="509.15" />
        <line class="cls-1" x1="272.12" y1="509.16" x2="272.11" y2="509.15" />
        <line class="cls-1" x1="272.12" y1="509.16" x2="278.29" y2="537.2" />
        <line class="cls-1" x1="573.92" y1="462.66" x2="541.16" y2="409.37" />
        <line class="cls-1" x1="541.16" y1="409.37" x2="540.95" y2="409.63" />
        <line class="cls-1" x1="507.56" y1="449.67" x2="540.95" y2="409.63" />
        <line class="cls-1" x1="384.93" y1="553.57" x2="278.29" y2="537.2" />
        <line class="cls-1" x1="292.13" y1="667.64" x2="278.29" y2="537.2" />
        <line class="cls-1" x1="573.92" y1="462.66" x2="584.08" y2="546.8" />
        <line class="cls-1" x1="573.34" y1="462.54" x2="507.56" y2="449.67" />
        <line class="cls-1" x1="573.34" y1="462.54" x2="573.92" y2="462.66" />
        <line class="cls-1" x1="488.83" y1="644.97" x2="483.68" y2="571.38" />
        <line class="cls-1" x1="483.56" y1="569.72" x2="483.68" y2="571.38" />
        <line class="cls-1" x1="490.06" y1="662.56" x2="488.83" y2="644.97" />
        <line class="cls-1" x1="483.56" y1="569.72" x2="483.25" y2="569.67" />
        <line class="cls-1" x1="384.93" y1="553.57" x2="483.25" y2="569.67" />
        <line class="cls-1" x1="507.56" y1="449.67" x2="508.28" y2="451.51" />
        <polyline class="cls-1" points="566.74 560.08 554.15 569.72 508.28 451.51" />
        <line class="cls-1" x1="566.74" y1="560.08" x2="583.86" y2="546.96" />
        <line class="cls-1" x1="584.08" y1="546.8" x2="583.86" y2="546.96" />
        <line class="cls-1" x1="583.8" y1="546.44" x2="507.56" y2="449.67" />
        <line class="cls-1" x1="583.8" y1="546.44" x2="584.08" y2="546.8" />
        <line class="cls-1" x1="322.98" y1="827.7" x2="308.93" y2="802.43" />
        <line class="cls-1" x1="322.98" y1="827.7" x2="323.07" y2="827.88" />
        <polyline class="cls-1" points="250.34 593.95 278.29 747.27 308.93 802.43" />
        <line class="cls-1" x1="250.34" y1="593.95" x2="292.13" y2="667.64" />
        <polyline class="cls-1" points="566.83 560.32 566.86 559.99 583.86 546.96" />
        <line class="cls-1" x1="584.08" y1="546.8" x2="583.86" y2="546.96" />
        <line class="cls-1" x1="566.83" y1="560.32" x2="563.69" y2="600.79" />
        <line class="cls-1" x1="563.53" y1="602.74" x2="563.69" y2="600.79" />
        <line class="cls-1" x1="384.93" y1="553.57" x2="292.13" y2="667.64" />
        <line class="cls-1" x1="323.07" y1="827.88" x2="349.54" y2="784.93" />
        <line class="cls-1" x1="384.93" y1="727.5" x2="349.54" y2="784.93" />
        <line class="cls-1" x1="323" y1="827.5" x2="322.96" y2="827.31" />
        <line class="cls-1" x1="323" y1="827.5" x2="323.07" y2="827.88" />
        <line class="cls-1" x1="322.96" y1="827.31" x2="292.13" y2="667.64" />
        <line class="cls-1" x1="384.93" y1="727.5" x2="292.13" y2="667.64" />
        <line class="cls-1" x1="384.93" y1="553.57" x2="489.84" y2="662.33" />
        <line class="cls-1" x1="490.06" y1="662.56" x2="489.84" y2="662.33" />
        <line class="cls-1" x1="384.93" y1="727.5" x2="349.54" y2="784.93" />
        <line class="cls-1" x1="489.88" y1="663.02" x2="490.06" y2="662.56" />
        <line class="cls-1" x1="489.88" y1="663.02" x2="454.64" y2="752.23" />
        <line class="cls-1" x1="490.06" y1="662.56" x2="489.85" y2="662.52" />
        <line class="cls-1" x1="489.85" y1="662.52" x2="384.93" y2="640.54" />
        <line class="cls-1" x1="428.03" y1="806.22" x2="384.93" y2="727.5" />
        <line class="cls-1" x1="428.03" y1="806.22" x2="384.93" y2="727.5" />
        <line class="cls-1" x1="438.45" y1="819.51" x2="454.61" y2="752.37" />
        <polyline class="cls-1" points="428.03 806.22 437.49 823.5 437.95 821.6" />
        <line class="cls-1" x1="438.45" y1="819.51" x2="437.95" y2="821.6" />
        <line class="cls-1" x1="454.61" y1="752.37" x2="454.64" y2="752.23" />
        <line class="cls-1" x1="384.93" y1="640.54" x2="454.64" y2="752.23" />
        <line class="cls-1" x1="323.07" y1="827.88" x2="316.14" y2="887.65" />
        <line class="cls-1" x1="323.07" y1="827.88" x2="349.54" y2="784.93" />
        <line class="cls-1" x1="384.93" y1="871.5" x2="349.54" y2="784.93" />
        <line class="cls-1" x1="384.93" y1="871.5" x2="316.14" y2="887.65" />
        <line class="cls-1" x1="441.85" y1="839.43" x2="384.93" y2="871.5" />
        <line class="cls-1" x1="439.12" y1="823.42" x2="437.95" y2="821.6" />
        <line class="cls-1" x1="428.03" y1="806.22" x2="437.95" y2="821.6" />
        <line class="cls-1" x1="442.08" y1="839.3" x2="441.85" y2="839.43" />
        <line class="cls-1" x1="428.03" y1="806.22" x2="384.93" y2="871.5" />
        <line class="cls-1" x1="316.14" y1="887.65" x2="312.49" y2="923.3" />
        <line class="cls-2" x1="384.93" y1="932.3" x2="316.14" y2="887.65" />
        <line class="cls-1" x1="441.85" y1="839.43" x2="384.93" y2="871.5" />
        <polyline class="cls-1" points="441.85 839.43 442.08 839.3 442.08 839.3" />
        <line class="cls-1" x1="442.08" y1="839.3" x2="448.21" y2="875.27" />
        <line class="cls-1" x1="312.49" y1="923.3" x2="324.2" y2="980.67" />
        <line class="cls-1" x1="338.53" y1="968.82" x2="312.49" y2="923.3" />
        <line class="cls-1" x1="338.53" y1="968.82" x2="384.93" y2="932.3" />
        <line class="cls-1" x1="448.28" y1="877.21" x2="448.21" y2="875.27" />
        <line class="cls-1" x1="448.28" y1="877.21" x2="449.94" y2="924.47" />
        <line class="cls-1" x1="449.99" y1="925.85" x2="449.94" y2="924.47" />
        <line class="cls-1" x1="447.98" y1="875.47" x2="384.93" y2="932.3" />
        <line class="cls-1" x1="448.21" y1="875.27" x2="447.98" y2="875.47" />
        <line class="cls-1" x1="426.07" y1="1040.08" x2="434.96" y2="999.85" />
        <line class="cls-1" x1="346.93" y1="1087.02" x2="324.2" y2="980.67" />
        <line class="cls-1" x1="338.53" y1="968.82" x2="324.2" y2="980.67" />
        <line class="cls-1" x1="384.93" y1="1053.15" x2="338.53" y2="968.82" />
        <line class="cls-1" x1="449.77" y1="926.9" x2="435.71" y2="996.17" />
        <line class="cls-1" x1="434.96" y1="999.85" x2="435.71" y2="996.17" />
        <line class="cls-1" x1="449.77" y1="926.9" x2="449.99" y2="925.85" />
        <line class="cls-1" x1="449.84" y1="925.86" x2="384.93" y2="932.3" />
        <line class="cls-1" x1="449.99" y1="925.85" x2="449.84" y2="925.86" />
        <line class="cls-1" x1="434.91" y1="999.78" x2="384.93" y2="932.3" />
        <line class="cls-1" x1="434.96" y1="999.85" x2="434.91" y2="999.78" />
        <polyline class="cls-1" points="382.22 1157.86 417.46 1078.75 426.07 1040.08" />
        <polyline class="cls-1" points="382.22 1157.86 382.11 1158.09 346.93 1087.02" />
        <line class="cls-1" x1="426.07" y1="1040.08" x2="426" y2="1040.1" />
        <line class="cls-1" x1="384.93" y1="1053.15" x2="426" y2="1040.1" />
        <line class="cls-1" x1="384.93" y1="1053.15" x2="346.93" y2="1087.02" />
        <polygon class="cls-1" points="505.38 1460.24 598.18 1346.16 598.18 1520.09 505.38 1460.24" />
        <polygon class="cls-2" points="292.37 1403.62 354.23 1303.25 261.43 1243.39 292.37 1403.62" />
        <polygon class="cls-1" points="384.72 1235.48 384.72 1379.48 349.33 1292.91 384.72 1235.48" />
        <polygon class="cls-1" points="466.04 1437.08 509.14 1371.8 466.04 1293.08 466.04 1437.08" />
        <polygon class="cls-3"
            points="73.99 1254.56 73.99 1341.52 126.56 1437.52 143.71 1366.25 73.99 1254.56" />
        <polyline class="cls-1" points="167.8 1148.99 160.87 1208.76 229.66 1192.62 194.27 1106.04" />
        <polygon class="cls-3" points="315.93 1395.63 384.72 1440.28 384.72 1379.48 315.93 1395.63" />
        <polygon class="cls-1"
            points="400.63 1422.74 396.99 1458.38 423.03 1503.91 469.43 1467.39 400.63 1422.74" />
        <polygon class="cls-1"
            points="656.04 1349.66 713.2 1317.45 719.32 1353.42 656.04 1410.46 656.04 1349.66" />
        <polygon class="cls-1" points="312.28 1431.28 323.99 1488.65 338.32 1476.8 312.28 1431.28" />
        <polygon class="cls-1" points="196.67 1433.51 150.27 1470.02 196.67 1554.35 196.67 1433.51" />
        <polygon class="cls-1" points="660.15 1250.04 661.93 1300.62 596.88 1307.08 660.15 1250.04" />
        <polygon class="cls-2"
            points="449.1 1622.12 490.24 1609.05 499.13 1568.82 449.1 1501.27 449.1 1622.12" />
        <polygon class="cls-1"
            points="323.12 1440.85 355.64 1544.63 390.32 1507.37 336.28 1427.73 323.12 1440.85" />
        <polygon class="cls-3" points="469.43 1457.22 519.46 1524.77 534.48 1450.77 469.43 1457.22" />
        <polygon class="cls-3"
            points="316.22 1572.97 351.41 1644.05 386.75 1564.71 395.37 1526.04 354.23 1539.11 316.22 1572.97" />
        <polyline class="cls-3"
            points="299.31 1673.57 299.03 1674.31 262.12 1599.77 229.09 1437.98 240.06 1343.42" />
        <polyline class="cls-1" points="382.22 1665.63 391.62 1640.95 418.73 1580.81 426 1547.87" />
        <line class="cls-1" x1="384.93" y1="1235.28" x2="349.54" y2="1292.7" />
        <line class="cls-1" x1="384.93" y1="1235.28" x2="349.54" y2="1292.7" />
        <line class="cls-1" x1="384.93" y1="1379.27" x2="349.54" y2="1292.7" />
        <line class="cls-1" x1="384.93" y1="1379.27" x2="316.14" y2="1395.42" />
        <polyline class="cls-1" points="382.22 1665.63 417.46 1586.52 426.07 1547.85" />
        <polyline class="cls-1" points="382.22 1665.63 382.11 1665.86 346.93 1594.79" />
        <line class="cls-1" x1="384.93" y1="1560.92" x2="426" y2="1547.87" />
        <line class="cls-1" x1="384.93" y1="1560.92" x2="346.93" y2="1594.79" />
        <polygon class="cls-2"
            points="349.76 8.5 332.03 38.08 329.11 41.05 344.19 145.13 384.93 120.63 349.76 8.5" />
        <polygon class="cls-1" points="349.76 8.5 384.93 120.63 384.93 1.45 349.76 8.5" />
        <polygon class="cls-3" points="384.93 1.45 435.88 68.34 424.24 112.79 384.93 1.45" />
        <polygon class="cls-2" points="384.93 120.63 424.24 112.79 384.93 1.45 384.93 120.63" />
        <polygon class="cls-3"
            points="416.89 144.54 415.91 133.09 420.14 115.86 424.24 112.79 384.93 120.63 416.89 144.54" />
        <polyline class="cls-1"
            points="163.76 646.12 160.93 650.33 166.58 613.06 166.58 613.06 127.42 586.7 174.42 607.62 174.42 607.62" />
    </g>
</svg>